<svg width="161" height="130" viewBox="0 0 161 130" fill="none" xmlns="http://www.w3.org/2000/svg">
<path opacity="0.95" d="M94.2424 61.4008H62.8168C60.3341 61.4008 58.3213 59.389 58.3213 56.9074V25.4957C58.3213 23.0141 60.3341 21.0022 62.8168 21.0022H94.2424C96.7252 21.0022 98.738 23.0141 98.738 25.4957V56.9073C98.738 59.389 96.7253 61.4008 94.2424 61.4008Z" fill="url(#paint0_linear_167_1270)"/>
<path d="M87.8865 52.2034H69.1743V53.1273H87.8865V52.2034Z" fill="#96BFE6"/>
<path d="M85.2372 55.115H71.8257V56.039H85.2372V55.115Z" fill="#96BFE6"/>
<path opacity="0.95" d="M155.406 99.9115H110.683C107.758 99.9115 105.387 97.5415 105.387 94.6179V40.307C105.387 37.3834 107.758 35.0134 110.683 35.0134H155.406C158.331 35.0134 160.702 37.3834 160.702 40.307V94.6179C160.702 97.5415 158.331 99.9115 155.406 99.9115Z" fill="url(#paint1_linear_167_1270)"/>
<path d="M134.854 73.299H130.467V74.1111H134.854V73.299Z" fill="#4598E6"/>
<path d="M139.341 80.7413H113.812V82.3137H139.341V80.7413Z" fill="#96BFE6"/>
<path d="M134.456 88.2909H113.812V89.8633H134.456V88.2909Z" fill="#96BFE6"/>
<path d="M125.915 84.5159H113.812V86.0883H125.915V84.5159Z" fill="#96BFE6"/>
<path d="M146.019 41.4854V42.2795H150.698V46.668H151.492V41.4854H146.019ZM114.252 46.668H115.046V42.2795H119.725V41.4854H114.252V46.668ZM150.698 69.3125V73.7025H146.019V74.4967H151.492V69.3125H150.698V69.3125ZM115.046 69.3125H114.252V74.4968H119.725V73.7026H115.046V69.3125Z" fill="#4598E6"/>
<path d="M149.015 89.9784C146.435 89.9784 144.336 87.8805 144.336 85.302C144.336 82.7234 146.435 80.6256 149.015 80.6256C151.595 80.6256 153.693 82.7234 153.693 85.302C153.693 87.8805 151.595 89.9784 149.015 89.9784ZM149.015 81.5308C146.934 81.5308 145.242 83.2225 145.242 85.302C145.242 87.3814 146.934 89.0732 149.015 89.0732C151.095 89.0732 152.788 87.3814 152.788 85.302C152.788 83.2225 151.095 81.5308 149.015 81.5308Z" fill="#4598E6"/>
<path d="M148.716 87.1425L146.591 85.0179L147.231 84.378L148.716 85.8624L150.798 83.7815L151.439 84.4213L148.716 87.1425Z" fill="#4598E6"/>
<path d="M151.828 126.449C151.828 128.41 117.84 130 75.914 130C33.9879 130 0 128.41 0 126.449C0 124.487 33.9879 122.897 75.914 122.897C117.84 122.897 151.828 124.487 151.828 126.449Z" fill="url(#paint2_linear_167_1270)"/>
<path opacity="0.95" d="M92.1514 22.5126H64.9092V45.8758H92.1514V22.5126Z" fill="url(#paint3_linear_167_1270)"/>
<path d="M24.8724 116.095C27.1405 114.501 29.7949 103.39 29.9533 96.7722C30.0345 93.3822 31.0369 91.9699 31.9214 90.7239C32.7668 89.5328 33.497 88.5042 33.0717 86.1423C32.2589 81.6285 34.3959 79.68 34.4177 79.661L34.1703 79.379C34.0752 79.4623 31.8495 81.4719 32.7026 86.2088C33.1001 88.4156 32.4449 89.3385 31.6156 90.507C30.7454 91.733 29.6622 93.2588 29.5783 96.7633C29.4084 103.865 26.6946 114.356 24.6567 115.789L24.8724 116.095Z" fill="url(#paint4_linear_167_1270)"/>
<path d="M20.1182 112.855C19.9041 112.369 19.6826 111.868 19.4318 111.339C18.1362 108.605 16.9884 108.155 15.0869 107.409C14.6223 107.226 14.0956 107.02 13.5176 106.76C10.7937 105.537 11.3211 103.733 11.7864 102.143C11.8515 101.92 11.9164 101.698 11.9726 101.479C12.2122 100.543 11.7519 100.073 11.0552 99.3629C10.5374 98.8348 9.89301 98.1775 9.39625 97.1394C8.85253 96.0034 9.12968 95.3942 9.45786 95.0833C10.149 94.4286 11.7423 94.5492 13.2466 95.3702C13.714 95.6252 14.0986 96.0279 14.5059 96.4542C15.4649 97.4579 16.6583 98.7071 19.6769 98.7213C21.398 98.7293 22.3408 98.9668 22.8291 99.5153C23.3833 100.138 23.2788 101.069 23.1342 102.359C23.0842 102.805 23.0275 103.311 22.9931 103.857C22.7877 107.115 24.7123 109.466 24.7313 109.489C25.8812 110.858 27.2977 113.697 26.6863 115.445C26.43 116.177 25.8569 116.638 24.9827 116.815C24.6345 116.885 24.3163 116.919 24.0237 116.919C21.9124 116.919 21.1397 115.169 20.1182 112.855ZM13.0666 95.6993C11.7233 94.9663 10.2828 94.8184 9.71578 95.3556C9.28492 95.7636 9.48813 96.463 9.73447 96.9777C10.2044 97.9596 10.7987 98.5658 11.323 99.1006C12.0521 99.8441 12.6277 100.431 12.3359 101.572C12.2786 101.795 12.2126 102.021 12.1462 102.248C11.6828 103.832 11.2452 105.329 13.6711 106.418C14.2409 106.674 14.763 106.879 15.2238 107.06C17.1433 107.813 18.4114 108.31 19.7707 111.178C20.0237 111.712 20.2461 112.216 20.4613 112.703C21.6346 115.361 22.3429 116.966 24.9082 116.448C25.6435 116.299 26.1226 115.92 26.3321 115.321C26.8708 113.781 25.5817 111.085 24.4435 109.73C24.3602 109.63 22.4035 107.246 22.6186 103.833C22.6535 103.278 22.7107 102.768 22.7612 102.317C22.8949 101.124 22.9916 100.262 22.5488 99.7647C22.1439 99.3099 21.2575 99.1037 19.675 99.0963C16.497 99.0815 15.2425 97.7683 14.2344 96.7133C13.8312 96.2911 13.4829 95.9265 13.0666 95.6993Z" fill="url(#paint5_linear_167_1270)"/>
<path d="M24.9421 119.084L25.3166 119.064C25.2983 118.712 24.8257 110.42 21.4949 107.993C17.8408 105.331 16.6887 102.47 16.1399 100.549C15.4934 98.2865 12.2026 97.6818 12.0628 97.6571L11.9976 98.0263C12.0295 98.0319 15.1973 98.6155 15.7793 100.652C16.3432 102.626 17.5263 105.566 21.2739 108.296C24.4618 110.619 24.9376 118.999 24.9421 119.084Z" fill="url(#paint6_linear_167_1270)"/>
<path d="M24.3089 120.948C23.5251 120.558 23.5536 118.99 23.5966 116.615C23.6509 113.615 23.7253 109.506 22.1541 105.727C20.485 101.712 21.9735 100.538 23.4132 99.4036C25.0257 98.1327 26.5487 96.9322 23.6257 91.5136C22.2833 89.025 21.857 87.3416 22.2843 86.2161C22.7068 85.1038 23.8918 84.6702 25.1466 84.2112C27.3123 83.4189 29.7669 82.521 29.4497 77.9394C29.3525 76.5349 29.5178 75.6712 29.9696 75.2212C30.4607 74.7325 31.1841 74.7855 32.0217 74.8467C33.2874 74.9392 34.7209 75.0441 35.9698 73.4154C36.0996 73.0084 37.2936 69.3758 38.7219 68.7539C39.0219 68.6233 39.3158 68.6249 39.5956 68.7587C40.5816 69.2301 41.1539 69.7891 41.3449 70.4679C41.6774 71.6484 40.8123 72.9799 39.8105 74.5216C38.2363 76.9445 36.452 79.6906 38.3026 82.9585C40.7494 87.2793 39.4569 88.7914 37.6684 90.8842C36.6436 92.0832 35.4822 93.4421 34.7058 95.6587C34.0813 97.4414 35.1465 99.1411 36.1766 100.785C37.4689 102.847 38.8052 104.979 35.9917 106.829C31.3402 109.888 26.7464 119.873 26.7005 119.974L26.6816 120.015L26.6456 120.043C25.7886 120.715 25.1648 121.035 24.695 121.035C24.553 121.035 24.4251 121.006 24.3089 120.948ZM35.7857 106.516C38.2927 104.867 37.1648 103.068 35.8589 100.984C34.8318 99.3453 33.6677 97.4877 34.3518 95.5349C35.1514 93.2521 36.3371 91.8648 37.3833 90.6408C39.1358 88.5903 40.2936 87.2356 37.9762 83.1433C36.0135 79.6773 37.9445 76.7054 39.496 74.3175C40.4482 72.8521 41.2703 71.5867 40.984 70.5695C40.8238 70.0007 40.3169 69.5191 39.434 69.097C39.2542 69.011 39.0703 69.0113 38.8718 69.0977C37.5467 69.6745 36.3299 73.5202 36.3178 73.5591L36.3081 73.5902L36.2884 73.6162C34.9119 75.4342 33.2943 75.316 31.9943 75.2208C31.2175 75.1638 30.6041 75.119 30.2343 75.487C29.8702 75.8495 29.736 76.6433 29.8239 77.9137C30.1606 82.7763 27.4519 83.7673 25.2754 84.5634C24.0527 85.0108 22.9966 85.3972 22.6351 86.3492C22.2493 87.3655 22.6689 88.95 23.9559 91.3357C27.0285 97.0315 25.3087 98.3871 23.6456 99.6981C22.2544 100.795 20.9403 101.83 22.5005 105.583C24.1019 109.435 24.0266 113.589 23.9717 116.622C23.9341 118.693 23.9045 120.328 24.4762 120.613C24.8106 120.779 25.4506 120.498 26.3785 119.776C26.7505 118.968 31.1502 109.564 35.7857 106.516Z" fill="url(#paint7_linear_167_1270)"/>
<path d="M16.9655 77.4267C19.333 76.6154 18.8411 81.1762 19.8413 84.5508C20.8416 87.9253 30.9697 86.0228 26.7184 94.4731C22.4672 102.923 32.0951 97.299 29.2192 104.673C26.3433 112.047 28.9691 119.934 25.8431 117.927C22.7172 115.921 24.087 106.636 20.836 105.532C17.5849 104.429 17.0545 103.142 20.2733 100.142C23.4922 97.1428 11.8389 94.1649 14.7148 88.1081C17.5907 82.0511 14.2303 78.3641 16.9655 77.4267Z" fill="url(#paint8_linear_167_1270)"/>
<path d="M24.7539 117.443C25.0517 116.181 27.5942 105.072 25.2218 103.729C23.1309 102.545 23.1824 97.9416 23.5087 93.5947C23.7974 89.7467 18.8532 87.9481 18.6426 87.8735L18.5171 88.2268C18.5661 88.2442 23.4018 90.0049 23.1346 93.5666C22.7996 98.0309 22.7637 102.768 25.0371 104.055C26.8383 105.074 25.1799 114.003 24.3889 117.357L24.7539 117.443Z" fill="white"/>
<path d="M33.6851 113.487L30.3051 126.305H22.7516L19.3716 113.487H33.6851Z" fill="url(#paint9_linear_167_1270)"/>
<path d="M33.685 113.487C33.685 113.487 26.2441 114.884 26.2441 126.305H22.7516L19.3716 113.487H33.685Z" fill="url(#paint10_linear_167_1270)"/>
<path opacity="0.95" d="M128.708 32.7732H106.405C104.364 32.7732 102.709 31.1192 102.709 29.079V9.73593C102.709 7.69564 104.364 6.04175 106.405 6.04175H128.708C130.749 6.04175 132.404 7.69572 132.404 9.73593V29.079C132.404 31.1193 130.749 32.7732 128.708 32.7732Z" fill="url(#paint11_linear_167_1270)"/>
<path d="M118.621 27.7175H116.266V28.1536H118.621V27.7175Z" fill="#4598E6"/>
<path d="M124.614 10.8794V11.3057H127.125V13.6615H127.551V10.8794H124.614ZM107.56 13.6615H107.987V11.3057H110.498V10.8794H107.56L107.56 13.6615ZM127.125 25.8176V28.1743H124.614V28.6006H127.551V25.8176H127.125ZM107.987 25.8176H107.56V28.6006H110.498V28.1743H107.987L107.987 25.8176Z" fill="#4598E6"/>
<path d="M80.1032 47.6893H76.9575V48.2717H80.1032V47.6893Z" fill="#4598E6"/>
<path d="M87.9576 25.1986V25.768H91.3119V28.9147H91.8816V25.1986H87.9576ZM65.1793 28.9147H65.749V25.7679H69.1033V25.1985H65.1793V28.9147ZM91.312 45.1515V48.2994H87.9577V48.8688H91.8817V45.1515H91.312ZM65.7489 45.1515H65.1792V48.8688H69.1032V48.2994H65.7489V45.1515Z" fill="#4598E6"/>
<path d="M149.75 66.0462H144.502C144.157 63.5348 143.733 60.6679 143.733 60.6679C143.733 60.6679 143.521 63.0338 143.263 66.0462H122.264C122.073 63.3374 121.842 61.3104 121.759 61.2688C121.638 61.2085 120.889 63.6118 120.267 66.0462H114.583C116.045 59.7511 118.772 49.6515 120.348 49.0465C122.593 48.1837 131.744 45.3646 131.744 45.3646H136.967C136.967 45.3646 146.247 48.0111 147.111 50.8885C147.797 53.1816 149.311 60.7428 149.75 66.0462Z" fill="#E65353"/>
<path d="M134.596 28.4294C134.596 28.4294 139.473 29.1973 138.73 36.8239C137.988 44.4504 133.684 43.8253 133.396 43.8176C133.109 43.8098 129.075 43.9566 128.761 34.645C128.761 34.645 128.624 27.7596 134.596 28.4294Z" fill="#EEA987"/>
<path d="M136.872 41.5714C136.872 41.5714 136.739 44.7083 137.042 45.3873C137.346 46.0664 133.018 48.2477 130.378 45.8169C130.378 45.8169 131.016 42.4078 130.839 41.1996C130.661 39.9913 136.872 41.5714 136.872 41.5714Z" fill="#EEA987"/>
<path d="M138.806 34.6697C138.806 34.6697 139.34 34.0995 139.536 34.6767C139.732 35.2539 138.707 37.8329 138.774 37.9486C138.774 37.9486 138.677 38.1725 138.549 38.0493C138.42 37.926 138.806 34.6697 138.806 34.6697Z" fill="#EEA987"/>
<path d="M128.814 34.5732C128.814 34.5732 128.292 33.9928 128.085 34.5661C127.878 35.1394 128.852 37.7377 128.783 37.8521C128.783 37.8521 128.876 38.0778 129.006 37.9571C129.137 37.8363 128.814 34.5732 128.814 34.5732Z" fill="#EEA987"/>
<path d="M138.803 35.8395L138.105 36.7725C138.105 36.7725 138.125 34.7271 138.013 34.4064C137.901 34.0858 137.729 33.106 137.636 32.875C137.542 32.6439 133.448 31.4972 129.832 33.2099C129.832 33.2099 129.991 34.6806 129.644 34.8114C129.298 34.9423 129.467 37.2068 129.467 37.2068L128.893 36.5594C128.893 36.5594 128.015 30.6919 128.232 30.0803C128.449 29.4687 129.14 25.7919 136.559 27.9746C136.559 27.9746 138.872 27.4849 139.336 29.0811C139.801 30.6773 138.803 35.8395 138.803 35.8395Z" fill="#D98B52"/>
<path d="M137.042 45.3872C137.042 45.3872 138.143 45.6219 133.538 50.0323C133.538 50.0323 130.273 46.4215 130.378 45.8168C130.484 45.2121 137.042 45.3872 137.042 45.3872Z" fill="#EEA987"/>
<path d="M133.538 50.0324L134.794 52.1802L138.521 45.8543L136.907 44.729L133.538 50.0324Z" fill="#B84343"/>
<path d="M133.539 50.0325L130.489 45.1829L128.761 46.2933L131.86 52.1802L133.539 50.0325Z" fill="#B84343"/>
<path d="M132.592 63.4683C132.63 64.1835 132.646 65.0608 132.648 66.0462H132.476C132.474 65.065 132.457 64.1898 132.42 63.4766C132.137 58.0962 133.441 51.5495 133.449 50.0153L133.618 50.0486C133.609 51.5828 132.309 58.1109 132.592 63.4683Z" fill="#B84343"/>
<path d="M131.292 42.9201C131.292 42.9201 132.451 44.1446 134.088 43.8181C135.724 43.4915 136.451 42.7426 136.451 42.7426C136.451 42.7426 135.805 44.3621 133.913 44.5103C132.021 44.6584 131.292 42.9201 131.292 42.9201Z" fill="#C78D71"/>
<path d="M74.7875 25.4146C74.7839 25.4146 74.7802 25.4142 74.7764 25.4133C74.6662 25.3865 74.4921 24.8593 74.4583 24.7539C74.4503 24.7249 74.4331 24.6719 74.4094 24.5985C74.2728 24.1764 73.9529 23.188 74.0776 22.8094C74.1169 22.6899 74.1782 22.6206 74.2599 22.6037C74.435 22.5676 74.635 22.7897 74.6436 22.7992L74.6478 22.804L74.6485 22.8104C74.694 23.2262 74.9159 25.3052 74.8202 25.4006C74.8108 25.4099 74.7996 25.4146 74.7875 25.4146ZM74.3002 22.6399C74.2893 22.6399 74.2786 22.6409 74.268 22.6432C74.2015 22.657 74.1503 22.7171 74.1158 22.822C73.9953 23.1882 74.3239 24.2039 74.4477 24.5862C74.4716 24.6601 74.4888 24.7135 74.4969 24.7425C74.5779 24.9949 74.7213 25.3586 74.786 25.3744C74.7876 25.3747 74.7889 25.375 74.7917 25.3722C74.8527 25.2897 74.7125 23.7668 74.6092 22.8215C74.5824 22.7926 74.4331 22.6399 74.3002 22.6399Z" fill="#EEA886"/>
<path d="M78.4135 17.126C78.4135 17.126 81.0979 16.8448 82.0651 19.436C83.0322 22.0272 83.9431 22.8754 84.0571 24.2367C84.5182 29.7425 87.0904 28.4972 86.367 31.6708C85.6436 34.8446 85.1426 35.3246 85.1426 35.3246L78.9929 34.1194L72.7632 34.1395C72.7632 34.1395 75.2005 32.9228 74.6579 30.3316C74.1153 27.7404 72.7632 23.4934 73.5268 20.6009C74.2905 17.7086 76.8093 17.347 78.4135 17.126Z" fill="#16202E"/>
<path d="M81.6915 25.4147C81.6796 25.4147 81.6683 25.4098 81.659 25.4006C81.5633 25.3052 81.7852 23.2262 81.8306 22.8104L81.8313 22.8039L81.8356 22.7991C81.844 22.7897 82.0442 22.5671 82.2192 22.6037C82.3008 22.6206 82.3622 22.6897 82.4015 22.8093C82.5262 23.188 82.2064 24.1764 82.0698 24.5985C82.0461 24.6718 82.0289 24.7248 82.0211 24.753C81.9871 24.8592 81.8128 25.3866 81.7027 25.4132C81.699 25.4142 81.6953 25.4147 81.6915 25.4147ZM81.8698 22.8214C81.7666 23.7668 81.6265 25.2897 81.6878 25.3726C81.6902 25.3751 81.6916 25.3748 81.6931 25.3743C81.7579 25.3586 81.9013 24.9949 81.9825 24.7417C81.9903 24.7135 82.0075 24.6601 82.0314 24.5862C82.1552 24.2039 82.4838 23.1882 82.3633 22.822C82.3287 22.7172 82.2776 22.657 82.2111 22.6432C82.0714 22.6144 81.899 22.7902 81.8698 22.8214Z" fill="#EEA886"/>
<path d="M91.0352 41.8813H87.2031C86.4086 40.4338 85.763 39.3015 85.763 39.3015C85.763 39.3015 85.2465 40.2435 84.8459 41.8813H71.9456C71.7486 40.8595 71.7366 39.8803 71.7779 39.1831C71.7779 39.1831 71.0884 40.4284 70.2885 41.8813H65.9546C67.1046 39.7286 69.2595 35.8092 69.7493 35.2982C70.3642 34.6543 73.9288 32.1917 76.4737 31.3881C79.0199 30.5845 80.4668 31.3602 80.4668 31.3602C80.4668 31.3602 83.0809 31.8311 85.498 32.7891C86.4484 33.1655 89.0732 38.011 91.0352 41.8813Z" fill="#FAA146"/>
<path d="M78.7675 18.6416C78.7675 18.6416 82.3226 19.1543 81.8022 24.4002C81.2818 29.646 78.1441 29.2297 77.9344 29.2253C77.7249 29.2208 74.7866 29.3343 74.5325 22.9332C74.5325 22.9332 74.4141 18.1996 78.7675 18.6416Z" fill="#8E4F3A"/>
<path d="M80.3464 28.2951C80.3464 28.2951 80.1263 31.0238 80.6521 31.8414C81.1779 32.6589 80.2024 33.7684 78.1925 33.3889C76.1828 33.0093 76.2996 31.8706 76.2996 31.8706C76.2996 31.8706 76.8623 30.1867 76.6978 28.8388C76.5334 27.4908 80.3464 28.2951 80.3464 28.2951Z" fill="#8E4F3A"/>
<path d="M78.3607 20.5429C78.3607 20.5429 80.0218 22.2885 80.7933 23.1723C81.5649 24.0562 81.6537 25.7635 81.6537 25.7635C81.6537 25.7635 82.9534 24.1767 82.4099 22.3287C81.8664 20.4807 80.5803 16.8852 77.3248 17.9899C74.0692 19.0947 73.9486 23.9557 74.3305 26.3662C74.3305 26.3662 75.7918 21.045 78.3607 20.5429Z" fill="#16202E"/>
<path d="M81.5952 31.6003C81.5952 31.6003 79.1297 37.8421 77.6312 38.9268C77.6312 38.9268 75.6629 32.5607 75.8003 31.6287C75.8003 31.6287 78.7697 30.4657 81.5952 31.6003Z" fill="#8E4F3A"/>
<path d="M76.3845 30.0907C76.3845 30.0907 71.9893 33.9996 73.1299 36.4381C74.1034 38.5195 77.5552 37.243 76.9858 35.0623C76.4164 32.8815 76.3845 30.0907 76.3845 30.0907Z" fill="#16202E"/>
<path d="M76.9595 28.9878C76.9595 28.9878 78.4742 29.7034 79.9486 28.6464C79.9486 28.6464 79.5391 29.4917 78.454 29.6119C77.369 29.732 76.9595 28.9878 76.9595 28.9878Z" fill="#633029"/>
<path d="M115.969 14.5487C115.969 14.5487 114.511 20.0321 114.207 21.2677C114.117 21.6397 113.824 22.2831 113.453 23.0168C113.451 23.0221 113.448 23.0273 113.444 23.0339C113.364 23.1951 113.326 23.3418 113.308 23.4794C113.249 23.9366 113.424 24.297 113.12 24.8394L113.065 25.0674H110.18C110.517 24.0677 110.944 22.7955 111.286 21.7709C111.574 20.9061 111.8 20.2182 111.861 20.019C112.039 19.4242 112.693 17.498 113.249 16.2193C113.443 15.7738 114.19 15.3336 114.852 15.0151C115.444 14.7334 115.969 14.5487 115.969 14.5487Z" fill="#323657"/>
<path d="M114.039 6.71594C114.039 6.71594 113.119 0.768774 118.047 0.878452C122.974 0.988129 122.909 3.92889 122.821 6.8476C122.733 9.7663 120.845 9.54687 122.974 13.6067C125.104 17.6666 121.13 17.6666 121.13 17.6666L118.047 13.4311L114.039 6.71594Z" fill="#FCCCA2"/>
<path d="M117.508 1.44909C117.508 1.44909 114.171 1.97581 114.039 6.71598C113.908 11.4562 114.939 12.4656 117.86 11.4781C120.779 10.4906 121.702 5.53098 121.768 4.76285C121.833 3.99473 122.009 0.878497 117.508 1.44909Z" fill="#EEA886"/>
<path d="M123.369 17.937C123.38 19.5682 121.505 23.4701 121.215 24.6756C121.181 24.8158 121.144 24.9455 121.107 25.0673H112C111.953 24.5052 111.908 24.0244 111.886 23.7532C111.814 22.8622 110.911 20.9428 110.941 20.0491C110.972 19.1385 111.419 18.3524 112.044 17.3802C112.238 17.0788 112.443 16.7722 112.646 16.4735C113.309 15.5013 113.971 14.6182 114.296 14.3142C114.539 14.0889 114.764 13.9159 114.961 13.7849C114.962 13.7836 114.962 13.7836 114.962 13.7836C115.371 13.511 115.647 13.4232 115.647 13.4232L118.515 12.9646C118.515 12.9646 120.303 13.6119 121.332 13.8516C121.331 13.8516 123.338 14.1452 123.369 17.937Z" fill="#E55353"/>
<path d="M114.963 13.7837L113.301 16.4027L111.766 18.8199C111.77 18.8069 111.872 18.4409 112.045 17.381C112.078 17.1798 112.114 16.9535 112.152 16.7001C112.163 16.6251 112.179 16.5507 112.2 16.4771C112.2 16.4771 112.2 16.4771 112.2 16.4769C112.856 14.9636 114.887 13.8224 114.961 13.7845C114.962 13.7839 114.963 13.7837 114.963 13.7837Z" fill="#E55353"/>
<path d="M119.736 9.3432C119.447 9.88921 119.141 13.2786 119.141 13.2786C119.141 13.2786 115.059 14.8206 115.477 13.9484C115.667 13.5525 115.722 13.0388 115.726 12.596C115.73 12.2468 115.701 11.9418 115.681 11.7726C115.67 11.6835 115.662 11.6322 115.662 11.6322C115.662 11.6322 120.025 8.79696 119.736 9.3432Z" fill="#EEA886"/>
<path d="M116.147 4.85056C116.147 4.85056 117.859 7.63761 119.418 8.73492C120.977 9.83215 120.186 10.71 120.186 10.71C120.186 10.71 124.254 2.15136 120.387 1.55886C116.52 0.966359 114.149 0.922474 114.039 6.716C114.039 6.716 115.796 4.80675 116.147 4.85056Z" fill="#FCCCA2"/>
<path d="M118.009 11.4235C117.382 12.3472 115.727 12.5959 115.727 12.5959C115.727 12.5959 115.727 12.5959 115.727 12.5959C115.731 12.2467 115.702 11.9417 115.682 11.7726C116.745 11.9774 118.009 11.4235 118.009 11.4235Z" fill="#A77860"/>
<path d="M112.207 16.459H112.207C112.207 16.459 112.118 16.6425 112.045 17.3808L112.647 16.4739C112.647 16.4739 113.72 14.9351 114.088 14.535C114.456 14.1349 114.961 13.7844 114.961 13.7844C114.961 13.7844 112.849 14.799 112.207 16.459Z" fill="#EBEEFF"/>
<path d="M120.329 18.7537C120.329 18.7537 122.948 17.7267 123.724 17.6669C123.724 17.6669 123.197 13.4619 120.623 13.9076C118.05 14.3533 120.329 18.7537 120.329 18.7537Z" fill="#E55353"/>
<path d="M115.646 13.4231C115.646 13.4231 113.723 16.3792 114.374 16.6374C115.025 16.8956 118.549 16.2928 120.047 13.485C120.047 13.485 117.807 12.3367 115.646 13.4231Z" fill="#EEA886"/>
<path d="M123.724 17.667C123.59 19.9848 122.932 22.1834 122.39 24.2012C122.311 24.4934 122.235 24.783 122.164 25.0673H116.83C116.817 24.268 116.82 23.5631 116.845 22.9748C117.114 16.5416 119.153 13.1586 119.153 13.1586C119.153 13.1586 119.805 13.3773 121.679 13.908C122.964 14.271 123.449 15.9048 123.626 16.8953C123.626 16.8953 123.627 16.8992 123.628 16.9071C123.707 17.3539 123.724 17.667 123.724 17.667Z" fill="#323657"/>
<path d="M115.646 13.4247C115.625 13.4614 115.274 14.051 114.853 15.0153C114.221 16.4632 113.432 18.7561 113.365 21.2822C113.344 22.0933 113.183 23.4075 112.938 25.0675H111.873C111.766 23.6786 111.511 22.5689 111.287 21.771C111.142 21.2534 111.008 20.8668 110.936 20.6218C110.596 19.4675 111.682 17.9306 112.045 17.3803C112.409 16.8313 113.28 14.3052 115.646 13.4247Z" fill="#323657"/>
<path d="M125.422 25.0674H122.558C122.558 24.8813 122.494 24.5773 122.389 24.2013C121.869 22.3525 120.328 18.7533 120.328 18.7533C120.328 18.7533 118.024 14.989 120.208 14.0298C122.392 13.0708 123.332 15.7515 123.625 16.8954C123.625 16.8954 123.627 16.8993 123.628 16.9072C123.7 17.181 125 22.1363 125.422 25.0674Z" fill="#323657"/>
<path d="M78.7114 78.7392C78.7114 78.7392 79.7123 78.7252 80.0686 78.3397C80.425 77.9543 81.0543 77.6088 81.2562 77.5106C81.5261 77.3793 82.2729 76.6535 82.3665 77.0079C82.4603 77.3622 81.1775 78.2612 80.9334 78.5039C80.6891 78.7466 81.9991 78.8524 82.1912 79.0879C82.3833 79.3233 81.7149 81.8008 80.8421 81.6088C79.9692 81.417 79.2544 80.5372 79.0894 80.539C78.9244 80.5409 78.4448 80.4289 78.4448 80.4289L78.7114 78.7392Z" fill="#EEA886"/>
<path d="M82.0053 78.9866C82.0053 78.9866 84.6106 79.782 84.7179 80.0074C84.8252 80.2327 84.7525 80.3977 84.5043 80.3353C84.2561 80.273 81.9539 79.6533 81.9539 79.6533C81.9539 79.6533 84.8012 81.2093 84.9294 81.365C85.0044 81.4561 84.8795 81.7815 84.7416 81.7627C84.6037 81.7437 81.6726 80.3999 81.6726 80.3999C81.6726 80.3999 84.3278 81.8586 84.394 82.032C84.4519 82.1836 84.274 82.4631 84.0679 82.3716C83.8618 82.28 81.3029 81.0973 81.3029 81.0973C81.3029 81.0973 83.1531 82.3084 83.1244 82.5078C83.1068 82.6297 83.0098 82.9144 82.5439 82.5832C82.0781 82.252 80.8838 81.616 80.8838 81.616L82.0053 78.9866Z" fill="#EEA886"/>
<path d="M73.2313 122.67C73.2313 122.67 74.0671 123.92 75.2396 124.19C76.4119 124.46 77.5667 124.89 77.5755 125.629C77.5843 126.369 74.1859 126.81 72.8443 126.064C70.8419 124.952 70.6383 125.287 70.4163 124.731C70.1944 124.175 70.6829 122.688 70.6685 122.511C70.6508 122.292 73.2313 122.67 73.2313 122.67Z" fill="#353A3D"/>
<path d="M73.1007 122.054C73.1007 122.054 73.2532 122.658 73.2305 122.671C73.2078 122.683 70.5885 122.995 70.6678 122.511C70.7321 122.118 70.8237 121.691 70.8237 121.691L73.1007 122.054Z" fill="#81807E"/>
<path d="M56.783 122.587C56.783 122.587 57.3792 123.783 58.3978 124.19C59.4866 124.626 60.3598 125.126 60.34 125.847C60.3201 126.567 57.6783 127.297 55.7563 125.914C54.5419 125.041 54.1571 125.036 53.9623 124.486C53.7675 123.936 54.3006 122.506 54.2933 122.334C54.2842 122.12 56.783 122.587 56.783 122.587Z" fill="#353A3D"/>
<path d="M56.8123 121.967C56.8123 121.967 56.8051 122.576 56.7825 122.588C56.7599 122.599 54.2283 122.808 54.2927 122.334C54.3438 121.957 54.5384 121.502 54.5384 121.502L56.8123 121.967Z" fill="#81807E"/>
<path d="M66.0945 85.4434C66.0945 85.4434 69.4195 98.1758 70.6855 101.119C71.8584 103.846 72.2454 107.66 72.407 109.576C72.6101 111.986 73.8192 121.368 73.9613 122.073C74.1035 122.777 70.0499 122.462 70.0499 122.462C70.0499 122.462 67.2549 106.239 66.0945 103.872C65.3202 102.292 60.827 90.9626 60.3129 91.6151C59.7987 92.2675 59.1612 103.619 58.7805 105.504C58.3997 107.388 57.2308 122.278 57.2308 122.278C57.2308 122.278 54.6172 122.663 53.9192 122.073C53.9192 122.073 53.6014 109.359 53.844 105.826C53.9365 104.48 52.2657 89.6823 54.4081 83.7253C55.5403 80.5771 66.0945 85.4434 66.0945 85.4434Z" fill="#2D3133"/>
<path d="M47.5742 76.3129C47.5742 76.4586 47.8492 77.0411 48.2884 77.8788C48.9306 76.595 49.435 75.5407 49.5999 75.153C50.1411 73.8754 52.9296 70.9472 52.9296 70.9472C52.9296 70.9472 52.9296 70.9492 52.9309 70.9533C52.9309 70.9545 52.9313 70.9557 52.9316 70.957C52.9321 70.9578 52.9326 70.959 52.9326 70.9602C52.9338 70.9643 52.9349 70.9683 52.9358 70.9724C52.9378 70.9793 52.9398 70.9875 52.9427 70.9973C52.9443 71.0021 52.9456 71.0074 52.9468 71.0127C52.948 71.0168 52.9493 71.0205 52.95 71.0245C53.102 71.5898 54.0343 75.1239 54.0685 76.8647C54.1064 78.7596 54.6011 82.2658 54.6011 82.2658L54.603 82.2661L55.1853 82.3476L56.4736 82.5292L56.6281 82.5508L57.0029 82.6034L60.4194 83.0839L61.631 83.2542L61.7949 83.2774L62.4875 83.3748L64.4 83.6436L64.8877 83.712L64.8923 83.7129L65.2574 83.7643L65.7626 83.8351C65.7626 83.8351 65.7626 83.8351 65.763 83.8347C65.7769 83.8159 66.2544 83.1627 66.1806 81.7116C66.1338 80.7749 66.0209 79.0147 66.0678 77.382C66.0678 77.3735 66.0686 77.3649 66.0686 77.3568C66.0686 77.336 66.0698 77.3157 66.0702 77.2948C66.071 77.2875 66.071 77.281 66.0714 77.2741V77.2703C66.1012 76.3731 66.1802 75.5228 66.3476 74.8769C66.4605 74.4394 66.5358 74.0066 66.5852 73.6009C66.5876 73.581 66.59 73.5614 66.5926 73.5419C66.6011 73.4665 66.6093 73.3919 66.6162 73.3187C66.725 72.1861 66.6394 71.3239 66.6341 71.2734L66.6361 71.2775C66.6707 71.3528 66.9201 72.2664 67.2469 73.3941C67.7994 75.3005 68.5728 77.8193 68.9023 77.9402C69.3815 78.1166 77.1437 80.4144 78.8199 80.6499C79.0138 80.677 79.1263 80.6767 79.1369 80.6424C79.1447 80.618 79.1524 80.5928 79.1602 80.5667C79.3638 79.8955 79.6438 78.7549 79.6886 78.5707C79.6931 78.554 79.6951 78.545 79.6951 78.545L79.3948 78.455L70.949 75.9251L67.0879 64.7963C67.0072 64.7319 66.0592 64.2729 65.3665 63.9438C64.6604 63.6078 63.8089 63.1143 63.0379 62.6919C62.6447 62.4768 62.2728 62.2806 61.9513 62.1331L61.9019 62.1108L61.9015 62.1103C61.3698 61.8672 61.0165 61.7064 61.0165 61.7064C61.0165 61.7064 61.0161 61.7064 61.0149 61.7064C61.0023 61.7052 60.9187 61.697 60.7839 61.6844C60.0423 61.6139 57.7378 61.3981 56.9658 61.3528C56.9022 61.3488 56.8488 61.3463 56.8077 61.3455C56.7722 61.3443 56.7462 61.3439 56.7298 61.3451C56.6321 61.3508 56.1574 61.5165 55.5327 61.754H55.5324C55.5087 61.763 55.4851 61.7719 55.461 61.7812C55.4317 61.7923 55.4023 61.8033 55.3727 61.8147C55.3184 61.8354 55.2634 61.8566 55.2076 61.8783C55.096 61.9218 54.9811 61.9666 54.8646 62.0126C54.8247 62.0285 54.7838 62.0444 54.7427 62.0607C53.4935 62.5564 52.0622 63.1688 51.7219 63.4132C51.4974 63.574 50.7974 64.8927 49.9858 66.5234C48.9407 69.8698 47.6161 74.9924 47.575 76.2557C47.5746 76.2759 47.5742 76.295 47.5742 76.3129Z" fill="#DECBC4"/>
<path d="M65.764 83.8343C65.764 83.8343 66.0211 84.1418 66.0954 85.4433C66.0954 85.4433 55.5263 84.2108 54.4089 83.7251C54.4089 83.7251 54.3653 82.2907 54.6022 82.2659C54.8626 82.2385 65.764 83.8343 65.764 83.8343Z" fill="#495055"/>
<path d="M56.7505 60.9868C56.7834 62.6447 59.995 63.5518 59.995 63.5518C59.995 63.5518 61.3385 61.8684 61.0175 61.7071C60.8915 61.6438 60.8403 61.3925 60.8246 61.1108C60.8101 60.8425 60.8272 60.5467 60.8429 60.3588C60.8524 60.2415 60.8615 60.1661 60.8615 60.1661C60.8615 60.1661 60.4026 59.6821 59.8188 59.1055C58.7987 58.0973 57.3964 56.8058 57.3941 57.3196C57.394 57.3468 57.3977 57.3793 57.4059 57.417C57.6524 58.5732 56.7505 60.9868 56.7505 60.9868Z" fill="#EEA886"/>
<path d="M57.0164 82.5203C57.0164 82.5203 56.7857 83.9744 56.7658 84.3534L56.2769 84.256C56.2769 84.256 56.4116 82.7175 56.4907 82.4597L57.0164 82.5203Z" fill="#353A3D"/>
<path d="M64.8808 83.6647C64.8808 83.6647 65.0661 84.9864 65.0705 85.4856L64.5532 85.4184C64.5532 85.4184 64.4473 83.7678 64.3882 83.5955L64.8808 83.6647Z" fill="#353A3D"/>
<path d="M57.9868 58.5575C57.9868 58.5575 57.9868 58.5575 57.987 58.5578C57.9934 58.5675 58.1296 58.7712 58.3621 59.0635C58.8552 59.6834 59.782 60.7018 60.8241 61.1108C60.8096 60.8426 60.8267 60.5467 60.8424 60.3588C60.949 60.3561 61.0555 60.3438 61.1613 60.3205C60.8756 59.8215 60.463 59.2984 60.463 59.2984L59.8183 59.1057L57.9868 58.5575Z" fill="#A77860"/>
<path d="M57.3705 57.3421C57.6484 57.9462 57.9121 58.3841 57.987 58.5576C57.987 58.5576 57.987 58.5576 57.9872 58.5579C58.0359 58.6708 58.1686 58.855 58.3623 59.0636C58.8915 59.6335 59.8754 60.3853 60.8426 60.3589C60.9491 60.3562 61.0557 60.3439 61.1615 60.3205C61.552 60.2352 62.0131 60.0539 62.2669 59.5573C64.2704 55.6361 62.8198 52.4297 62.8198 52.4297C62.8198 52.4297 57.3414 50.8811 56.4841 52.5297C55.8826 53.6859 56.7177 55.9226 57.3705 57.3421Z" fill="#EEA886"/>
<path d="M62.8202 52.4295C62.8202 52.4295 63.3291 52.4013 63.4548 51.4372C63.5791 50.4846 63.3278 50.2206 63.3278 50.2206C63.3278 50.2206 61.0661 49.2742 60.2539 49.1511C59.4416 49.0281 57.4445 48.9099 56.9764 49.4449C56.9764 49.4449 55.839 49.1807 55.5291 51.0681C55.0375 54.0623 57.2043 56.9697 57.2043 56.9697C57.2043 56.9697 57.1858 55.0137 57.6174 54.7544C58.0489 54.4952 58.4215 55.1116 58.4215 55.1116L59.3043 55.2697C59.3043 55.2697 57.9634 52.3757 59.5718 52.2685C61.1803 52.1613 61.8994 52.5974 62.8202 52.4295Z" fill="#252E3B"/>
<path d="M58.3977 54.3317C58.3137 53.47 56.7546 53.1409 56.859 54.0442C56.9635 54.9475 57.7312 55.8153 58.0859 55.7847C58.4407 55.7542 58.4617 54.9886 58.3977 54.3317Z" fill="#EEA886"/>
<path d="M48.2886 77.8787C48.9678 79.1737 50.0394 81.0793 51.0975 82.927C50.9582 83.1869 50.822 83.4446 50.6917 83.6992C50.3735 84.3215 50.0911 84.9238 49.8906 85.4854C49.6494 86.1606 49.3141 87.8903 49.9559 88.2117L53.3368 90.077C53.3368 90.077 53.3604 90.011 53.4053 89.8888C53.5174 89.5853 53.7602 88.9362 54.0963 88.0952C54.1074 88.0679 54.1412 87.9877 54.1913 87.8696C54.2585 87.7112 54.3555 87.4848 54.4663 87.2262C54.516 87.1105 54.5682 86.9884 54.6224 86.8629C54.6834 86.7196 54.747 86.5717 54.8102 86.4247C54.9022 86.2105 54.9939 85.9975 55.0787 85.8003C55.3093 85.2636 55.4894 84.8457 55.4894 84.8457C55.5007 84.8209 55.5122 84.7965 55.5235 84.7716C55.6336 84.5338 55.7464 84.2951 55.8613 84.0573C56.0389 83.6887 56.2219 83.3217 56.4089 82.963C56.4276 82.9263 56.4463 82.89 56.4655 82.8538C56.499 82.7907 56.5323 82.7276 56.5657 82.6653C56.5865 82.627 56.6073 82.5887 56.6281 82.5508C56.6326 82.5422 56.6374 82.5337 56.6419 82.5252C56.6505 82.5101 56.6587 82.4949 56.6672 82.4799C57.6447 80.6977 58.7456 79.2076 59.0968 77.0222C59.1306 76.8112 59.1627 76.6015 59.1934 76.3934C59.2443 76.0464 59.2911 75.7039 59.3339 75.3683C59.3498 75.2413 59.3657 75.1157 59.3807 74.9911C59.5567 73.5332 59.6619 72.234 59.7466 71.3291C60.011 68.51 58.2835 65.4576 56.9573 63.572C56.2479 62.5637 55.6539 61.8887 55.5393 61.7609C55.5365 61.7585 55.5345 61.7561 55.5324 61.754C55.5088 61.763 55.4851 61.7719 55.4611 61.7812C55.4317 61.7923 55.4024 61.8033 55.3727 61.8147C55.3185 61.8354 55.2635 61.8566 55.2077 61.8783C55.0961 61.9218 54.9812 61.9666 54.8647 62.0126C54.8247 62.0285 54.7839 62.0444 54.7428 62.0607C53.4585 62.564 50.7539 63.3077 50.4137 63.5517C50.2173 63.6921 49.7778 64.9786 49.2705 66.6036C48.2254 69.95 47.6053 74.9957 47.5751 76.2558C47.5746 76.2758 47.5742 76.2949 47.5742 76.3129C47.5744 76.4585 47.8494 77.0409 48.2886 77.8787ZM53.426 77.2491C53.426 77.8778 53.2215 78.5978 52.907 79.3652C52.8988 79.3844 52.8911 79.4039 52.883 79.423C52.6662 78.9607 52.4621 78.5181 52.2791 78.108C52.2787 78.1071 52.2783 78.1067 52.2783 78.106C51.7751 76.9803 51.4296 76.1022 51.4105 75.7548C51.2862 73.5227 52.9311 70.9533 52.9311 70.9533C52.9311 70.9545 52.9315 70.9557 52.9319 70.957C52.9323 70.9578 52.9328 70.959 52.9328 70.9602C52.934 70.9643 52.9352 70.9683 52.936 70.9724C52.9385 70.9806 52.9408 70.9887 52.9429 70.9973C52.9445 71.0021 52.9458 71.0074 52.947 71.0127C52.9483 71.0168 52.9495 71.0205 52.9503 71.0245C53.2871 72.3513 53.426 77.2491 53.426 77.2491Z" fill="#3C4145"/>
<path d="M59.8479 85.66L50.2108 89.9475C49.6656 90.1901 49.0269 89.945 48.7843 89.4001L46.1459 83.4753C45.9032 82.9304 46.1485 82.292 46.6937 82.0494L56.3308 77.7619C56.8759 77.5192 57.5146 77.7644 57.7573 78.3093L60.3956 84.2341C60.6383 84.779 60.393 85.4174 59.8479 85.66Z" fill="#B3A5A0"/>
<path d="M61.9268 62.1533C61.9268 62.1533 62.3786 63.6573 62.9633 67.4115C62.9633 67.4118 62.9633 67.4123 62.9637 67.4127C62.9837 67.5389 63.0033 67.6672 63.0232 67.7983C63.0252 67.8134 63.0277 67.8288 63.0301 67.844C63.0432 67.9307 63.0566 68.0187 63.0696 68.1079C63.0712 68.1184 63.0729 68.1289 63.0745 68.1392C63.0835 68.199 63.0924 68.2593 63.101 68.3203C63.123 68.4687 63.145 68.6197 63.167 68.7737C63.4277 70.601 63.7936 73.7109 64.1453 76.8504V76.8517C64.4232 79.3263 65.0564 81.8656 65.2576 83.7605C65.2576 83.7618 65.2581 83.7629 65.2581 83.7642C65.298 84.1356 65.3929 84.6305 65.5213 85.1888C65.5356 85.2519 65.5506 85.3159 65.5657 85.3806C66.1321 87.7725 67.2317 91.1581 67.2317 91.1581L67.552 90.8625L68.5005 89.9873C68.719 89.7861 68.8017 89.4774 68.7136 89.1943C68.1876 87.4981 66.3998 81.495 66.0721 77.2741C66.0718 77.2728 66.0718 77.2717 66.0718 77.2704C66.2327 75.7873 66.6434 73.7973 66.5818 73.511C66.5859 73.5212 66.5896 73.5314 66.5932 73.542C66.7814 74.0652 66.99 74.6342 67.2003 75.188V75.1885C67.7646 76.6758 68.3419 78.054 68.5824 78.142C69.1173 78.3387 78.7264 81.1724 78.7961 80.7769C78.8031 80.737 78.8112 80.6947 78.8205 80.6499C78.829 80.6059 78.8388 80.5594 78.849 80.511C78.9676 79.9698 79.1831 79.1936 79.3335 78.6694C79.3559 78.592 79.3767 78.52 79.3954 78.4552C79.4586 78.2381 79.4997 78.1005 79.4997 78.1005L71.3737 75.4345L67.2735 64.7169C67.1928 64.653 66.1465 64.0901 65.4539 63.7607C64.7327 63.4174 63.8201 62.9939 63.0105 62.6203C62.6238 62.4416 62.2595 62.2746 61.952 62.1333L61.9268 62.1533Z" fill="#3C4145"/>
<path d="M56.424 65.8687L57.9864 66.7494L57.3188 67.4299L59.0963 77.0225C59.4587 74.7741 59.6237 72.6389 59.7464 71.3294C60.1551 66.9712 55.8031 62.0549 55.5324 61.7539C55.3234 61.8331 55.0976 61.9207 54.8643 62.0129L56.424 65.8687Z" fill="#51565C"/>
<path d="M61.9019 62.1108C61.9019 62.1108 62.4856 64.0166 63.166 68.7734C63.4268 70.6008 63.7929 73.711 64.1447 76.8501L64.5083 67.8664L63.764 67.0604L64.4256 66.2338L63.0098 62.6202C62.623 62.4414 62.2589 62.2743 61.951 62.1331L61.9019 62.1108Z" fill="#51565C"/>
<path d="M55.4463 61.7869L56.7505 60.9866C56.7505 60.9866 56.7868 61.6966 59.995 63.5516L59.0839 66.1165L55.4463 61.7869Z" fill="#F5E2D9"/>
<path d="M60.8481 61.3446C60.8481 61.3446 60.7976 62.111 59.9946 63.5518L61.7728 65.8688L61.9023 62.111L60.8481 61.3446Z" fill="#F5E2D9"/>
<path d="M59.9897 63.5518C59.9897 63.5518 59.6451 64.9295 59.7691 65.3153C59.7691 65.3153 60.5269 65.5909 61.0716 65.2464C61.0716 65.2464 60.6858 64.282 59.9897 63.5518Z" fill="#FAA146"/>
<path d="M61.7725 83.4225C61.9653 82.4504 61.7818 79.5374 61.7739 79.4139L61.6089 79.4245C61.6107 79.4545 61.7989 82.4393 61.6103 83.3904L61.7725 83.4225Z" fill="#AD9F99"/>
<path d="M60.4217 82.9744C60.4217 82.9744 61.9769 83.16 62.4911 83.2882L62.4237 85.0306L60.3872 84.8134L60.4217 82.9744Z" fill="#69737A"/>
<path d="M60.7624 65.1224C60.7624 65.1224 62.4968 69.5007 62.2139 74.4012C61.9206 79.4823 61.4395 81.3246 61.4395 81.3246L60.37 82.6652L59.8984 81.0174C59.8984 81.0174 61.3335 74.5396 60.4071 68.2362C60.2393 67.0939 59.99 64.9296 59.99 64.9296L60.7624 65.1224Z" fill="#FAA146"/>
<path d="M55.551 85.799C55.551 85.799 55.9232 86.543 56.2954 86.667C56.6675 86.791 57.2103 87.3955 57.2103 87.3955L54.5896 88.775C54.5896 88.775 53.8919 87.411 53.8608 86.543C53.8297 85.675 55.551 85.799 55.551 85.799Z" fill="#EEA886"/>
<path d="M55.7995 85.8685L55.9731 86.2173C55.9731 86.2173 54.3087 87.434 53.8601 87.5115L53.7061 87.0465L55.7995 85.8685Z" fill="#DECBC4"/>
<path d="M55.9727 85.8841C55.9727 85.8841 54.7254 86.9151 53.6745 87.3904L48.9658 79.1377L51.9712 77.4952C51.9712 77.4952 55.8899 85.2641 55.9727 85.8841Z" fill="#3C4145"/>
<path d="M66.5325 71.2901C66.5904 72.4659 66.5819 73.5099 66.5819 73.5099C66.5819 73.5099 66.5819 73.5104 66.5819 73.5109C66.5823 73.5165 66.5835 73.5482 66.5859 73.6009C66.5884 73.5809 66.5908 73.5613 66.5933 73.5418C66.7816 74.0651 66.9901 74.6341 67.2004 75.1879C67.2494 74.5461 67.2619 73.9478 67.2477 73.3939C67.1633 70.0972 66.126 68.3683 66.126 68.3683C66.3639 68.9429 66.4779 70.1757 66.5325 71.2901Z" fill="#2D3133"/>
<path d="M107.449 60.4216C107.449 60.4216 107.4 59.8158 107.471 59.533C107.595 59.0447 107.413 58.2539 108.027 57.8703C108.642 57.4867 110.408 59.0933 110.547 59.5421C110.686 59.9908 110.026 60.756 108.644 61.3986C107.263 62.0412 107.449 60.4216 107.449 60.4216Z" fill="#EEA886"/>
<path d="M107.838 58.0294C107.838 58.0294 108.435 57.1324 109.222 56.216C109.913 55.412 110.882 54.5103 111.087 54.6815C111.397 54.9415 110.518 55.5898 109.887 56.4331C109.307 57.2095 109.553 57.1545 109.553 57.1545C109.553 57.1545 109.482 57.1663 110.281 56.4442C111.141 55.6678 112.096 54.8697 112.266 55.0068C112.477 55.1767 112.489 55.2157 112.224 55.5488C112.418 55.3903 112.49 55.4212 112.565 55.4962C112.952 55.8847 111.869 57.2233 111.439 57.7548C111.772 57.3485 112.06 57.0864 112.143 57.477C112.238 57.9239 110.622 59.747 110.106 60.4559C109.544 61.2294 107.838 58.0294 107.838 58.0294Z" fill="#EEA886"/>
<path d="M87.1783 122.443C87.1783 122.443 88.8593 123.437 89.6202 123.806C90.3813 124.175 93.3385 124.281 93.6307 124.558C93.9229 124.836 93.8159 125.719 93.3258 125.81C92.8356 125.9 89.2415 126.225 88.0421 125.944C86.8428 125.664 84.6 126.136 84.1033 125.967C83.6066 125.799 83.927 123.122 84.1189 122.521C84.3109 121.921 87.1783 122.443 87.1783 122.443Z" fill="#181929"/>
<path d="M87.3171 121.349L87.1772 122.443C87.1772 122.443 84.93 122.863 84.249 122.517L84.4177 121.38L87.3171 121.349Z" fill="#22243B"/>
<path d="M96.3335 83.968C96.3095 84.7258 96.1714 86.3701 96.0106 88.0968C95.9747 88.4804 95.937 88.8684 95.9 89.2515C95.6758 91.5752 95.4496 93.7244 95.4496 93.7244C95.1657 95.5741 94.5802 98.7857 93.9257 101.214V101.214C93.7367 101.915 93.5426 102.55 93.3478 103.069C93.1581 103.574 92.9678 103.968 92.7832 104.204C91.3905 105.982 88.1976 121.746 88.1976 121.746L83.8389 121.713C83.8389 121.713 84.7974 111.039 85.761 108.333C86.8357 105.311 88.7032 101.239 88.2397 98.3241C87.9495 96.4951 87.5751 90.6734 87.5751 90.6734C87.5751 90.6734 87.2108 84.1317 88.9225 79.3404C89.3496 78.1432 96.3335 83.968 96.3335 83.968Z" fill="#292C47"/>
<path d="M99.4262 122.853C99.4262 122.853 101.095 123.866 101.852 124.244C102.608 124.623 105.564 124.764 105.853 125.045C106.142 125.326 106.024 126.208 105.533 126.292C105.042 126.377 101.444 126.659 100.248 126.364C99.0519 126.069 96.8037 126.514 96.309 126.34C95.8143 126.165 96.1669 123.492 96.366 122.894C96.5651 122.296 99.4262 122.853 99.4262 122.853Z" fill="#181929"/>
<path d="M99.5791 121.76L99.426 122.853C99.426 122.853 97.1739 123.246 96.4971 122.892L96.6794 121.757L99.5791 121.76Z" fill="#22243B"/>
<path d="M94.3694 106.128C94.256 102.642 93.9479 100.325 93.0503 98.3112C92.2965 96.6197 91.6515 91.3077 91.6515 91.3077C91.6515 91.3077 89.6087 85.083 90.0227 80.0117C90.1263 78.7453 98.0221 81.9292 98.0221 81.9292C98.1949 82.6676 98.7231 84.9913 98.9103 86.7148C99.9795 96.5617 99.5793 102.977 99.5793 102.977C98.9687 105.151 100.511 122.258 100.511 122.258H96.0673C96.0673 122.258 94.9021 116.172 94.7797 112.388C94.7797 112.388 94.3255 106.731 94.3694 106.128Z" fill="#292C47"/>
<path d="M94.2705 61.0137C94.2705 61.0137 96.3411 64.407 96.9465 66.3002C97.5519 68.1936 97.0642 73.6987 97.1711 74.8051C97.5025 78.2379 97.986 82.0172 97.986 82.0172L91.0446 86.449C91.0446 86.449 89.7988 83.5401 88.7123 79.9181C87.6259 76.296 87.5385 73.0351 87.5485 70.8562C87.5804 64.0214 91.2765 60.162 91.2765 60.162L94.2705 61.0137Z" fill="#CFBEB6"/>
<path d="M96.8205 51.9123C96.8205 51.9123 98.2437 53.4349 97.8418 53.8353C97.5097 54.1661 98.8182 55.6835 99.0043 55.9386C99.1904 56.1938 98.4232 56.616 98.2969 56.8448C98.1706 57.0736 98.245 59.4618 97.5862 59.7073C96.9276 59.9528 93.6008 59.6931 92.5442 59.0484C91.4875 58.4036 89.7829 54.6858 89.9052 52.8968C90.0275 51.1079 94.3172 49.2571 96.8205 51.9123Z" fill="#EEA886"/>
<path d="M95.4757 59.1915C95.4757 59.1915 95.4513 59.3944 95.4188 59.7089C95.4066 59.8409 95.3904 59.991 95.3761 60.1554C95.3681 60.2528 95.3599 60.3563 95.3497 60.4618C95.3478 60.4901 95.3436 60.5186 95.3417 60.547C95.3376 60.5957 95.3336 60.6444 95.3295 60.6952C95.3132 60.9244 95.297 61.1619 95.2848 61.3973C95.2545 62.004 95.2503 62.5843 95.3152 62.907C95.4898 63.7918 91.6772 60.058 91.6772 60.058C91.6772 60.058 92.0001 57.1623 91.8437 53.9074C91.6854 50.6524 95.4757 59.1915 95.4757 59.1915Z" fill="#EEA886"/>
<path d="M97.1131 52.2467C97.1131 52.2467 97.7862 50.659 95.7098 49.5568C93.2652 48.2592 90.6733 51.5171 90.3295 51.709C89.9856 51.9008 88.4226 53.6588 89.9521 55.9894C91.8821 58.9302 91.7803 58.8315 91.7803 58.8315C91.7803 58.8315 91.9738 56.6622 91.9611 56.2436C91.938 55.4786 93.9457 55.3878 93.9457 55.3878C93.9457 55.3878 93.1212 54.2908 94.0378 53.7987C94.9546 53.3067 96.0266 52.1393 97.1131 52.2467Z" fill="#3A3F47"/>
<path d="M92.8919 55.1102C92.7458 54.9049 92.2095 53.9987 91.5197 54.7946C90.8299 55.5904 92.6796 57.0783 92.8325 57.0636C92.9854 57.0491 94.1219 56.8374 92.8919 55.1102Z" fill="#EEA886"/>
<path d="M98.3652 83.4792C98.3652 83.4792 98.0199 81.8561 97.9531 81.6133L87.8018 83.3016L87.9057 84.6133C87.9057 84.6133 95.2198 84.1755 98.3652 83.4792Z" fill="#23263D"/>
<path d="M86.8974 76.3282C86.8974 76.3282 88.457 83.0602 86.0146 90.9136C85.7163 91.8723 92.7751 90.7644 92.7751 90.7644L86.8974 76.3282Z" fill="#FAA146"/>
<path d="M95.8638 90.2713C95.8638 90.2713 90.8499 91.3712 89.4416 90.874C89.4416 90.874 87.3926 83.423 86.6778 75.8603C86.6224 75.2757 86.5754 74.6912 86.5377 74.1099C86.5377 74.1086 86.5377 74.1086 86.5377 74.1086C86.1388 67.9561 87.7054 61.7143 91.2752 60.1622C91.3757 60.2301 96.4034 64.6609 96.308 68.7164C96.3011 68.9908 96.2973 69.2664 96.2954 69.542C96.2922 70.0405 96.2961 70.5404 96.3067 71.0389L96.3073 71.0396C96.3394 72.5823 96.4348 74.1211 96.5712 75.6155C96.585 75.7712 96.6 75.9269 96.6151 76.0813C96.6395 76.3324 96.6653 76.5817 96.6917 76.8297C96.7276 77.16 96.7646 77.4871 96.8036 77.8117C97.6151 84.5802 95.8638 90.2713 95.8638 90.2713Z" fill="#FAA146"/>
<path d="M95.6582 63.9768C95.6582 63.9768 96.6028 67.7145 96.9628 72.4171C97.2641 76.3517 97.6664 79.1342 97.6664 79.1342L98.269 81.082L98.5168 79.2036C98.5168 79.2036 98.2957 74.1256 98.001 72.06C97.7038 69.9773 97.574 67.3332 95.9082 63.9036L95.6582 63.9768Z" fill="#D44040"/>
<path d="M95.5529 63.9798C95.5529 63.9798 95.6667 64.0888 95.8279 64.1127C95.989 64.1366 96.2194 63.8792 95.396 62.7926L95.5529 63.9798Z" fill="#D44040"/>
<path d="M91.7214 59.6002C91.7214 59.6002 94.056 61.7979 95.4453 62.2828L95.7102 64.388L91.2764 60.1618L91.7214 59.6002Z" fill="#EDDAD3"/>
<path d="M93.2883 68.1085C92.3681 67.7815 88.5435 65.9259 89.5608 63.7596C90.5779 61.5933 93.2002 62.7457 95.174 63.627C97.2392 64.5491 102.114 67.3824 102.5 67.1185C102.886 66.8546 104.572 64.4423 104.877 63.9048C105.182 63.3672 107.023 59.9314 107.196 59.6724C107.365 59.4192 110.039 61.6637 110.039 61.6637C110.039 61.6637 105.238 70.1864 103.946 71.5433C102.654 72.9003 93.2883 68.1085 93.2883 68.1085Z" fill="#FAA146"/>
<path d="M93.9258 101.214V101.214C93.7368 101.915 93.5427 102.55 93.3479 103.069C93.3473 103.068 93.3473 103.068 93.3473 103.068L91.8271 94.004C92.2116 94.8636 93.9258 101.214 93.9258 101.214Z" fill="#181929"/>
<path d="M96.3072 71.0389L91.9082 67.4474C93.0734 68.0715 95.9372 69.3788 96.2959 69.542C96.2927 70.0404 96.2965 70.5403 96.3072 71.0389Z" fill="#8F5C28"/>
<path d="M95.4188 59.709C95.4066 59.8409 95.3903 59.991 95.3761 60.1555C95.368 60.2528 95.3598 60.3563 95.3496 60.4618C93.8921 60.3644 92.7653 59.2037 92.6963 59.1327C93.2891 59.6034 95.4188 59.709 95.4188 59.709Z" fill="#A77860"/>
<g opacity="0.95">
<path d="M152.546 26.3068H154.855L154.148 24.8412H151.839L152.546 26.3068Z" fill="url(#paint12_linear_167_1270)"/>
<path d="M151.464 26.3068H152.015L151.308 24.8412H150.757L151.464 26.3068Z" fill="url(#paint13_linear_167_1270)"/>
<path d="M143.485 24.561H152.837L152.527 23.8282H143.175L143.485 24.561Z" fill="url(#paint14_linear_167_1270)"/>
</g>
<path d="M93.2594 1.19381H89.7281C89.6088 1.19381 89.5122 1.09723 89.5122 0.978059V0.215755C89.5122 0.0965805 89.6089 0 89.7281 0H93.2594C93.3787 0 93.4752 0.0966571 93.4752 0.215755V0.978059C93.4752 1.09723 93.3786 1.19381 93.2594 1.19381Z" fill="url(#paint15_linear_167_1270)"/>
<path d="M93.2594 4.05649H89.7281C89.6088 4.05649 89.5122 3.95991 89.5122 3.84073V3.07843C89.5122 2.95925 89.6089 2.86267 89.7281 2.86267H93.2594C93.3787 2.86267 93.4752 2.95933 93.4752 3.07843V3.84073C93.4752 3.95991 93.3786 4.05649 93.2594 4.05649Z" fill="url(#paint16_linear_167_1270)"/>
<path d="M93.2594 6.91911H89.7281C89.6088 6.91911 89.5122 6.82253 89.5122 6.70335V5.94105C89.5122 5.82188 89.6089 5.72522 89.7281 5.72522H93.2594C93.3787 5.72522 93.4752 5.82188 93.4752 5.94105V6.70335C93.4752 6.82253 93.3786 6.91911 93.2594 6.91911Z" fill="url(#paint17_linear_167_1270)"/>
<path d="M96.0226 1.19381H95.3267C95.2075 1.19381 95.1108 1.09723 95.1108 0.978059V0.215755C95.1108 0.0965805 95.2075 0 95.3267 0H96.0226C96.1418 0 96.2385 0.0966571 96.2385 0.215755V0.978059C96.2384 1.09723 96.1418 1.19381 96.0226 1.19381Z" fill="url(#paint18_linear_167_1270)"/>
<path d="M96.0226 4.05649H95.3267C95.2075 4.05649 95.1108 3.95991 95.1108 3.84073V3.07843C95.1108 2.95925 95.2075 2.86267 95.3267 2.86267H96.0226C96.1418 2.86267 96.2385 2.95933 96.2385 3.07843V3.84073C96.2384 3.95991 96.1418 4.05649 96.0226 4.05649Z" fill="url(#paint19_linear_167_1270)"/>
<path d="M96.0226 6.91911H95.3267C95.2075 6.91911 95.1108 6.82253 95.1108 6.70335V5.94105C95.1108 5.82188 95.2075 5.72522 95.3267 5.72522H96.0226C96.1418 5.72522 96.2385 5.82188 96.2385 5.94105V6.70335C96.2384 6.82253 96.1418 6.91911 96.0226 6.91911Z" fill="url(#paint20_linear_167_1270)"/>
<path d="M78.2255 68.8895H82.3714L81.1025 66.2588H76.9565L78.2255 68.8895Z" fill="url(#paint21_linear_167_1270)"/>
<path d="M76.2855 68.8895H77.2734L76.0044 66.2588H75.0166L76.2855 68.8895Z" fill="url(#paint22_linear_167_1270)"/>
<defs>
<linearGradient id="paint0_linear_167_1270" x1="81.4163" y1="93.499" x2="78.263" y2="36.3195" gradientUnits="userSpaceOnUse">
<stop stop-color="#D1D7E0"/>
<stop offset="1" stop-color="#EBEBFF"/>
</linearGradient>
<linearGradient id="paint1_linear_167_1270" x1="133.045" y1="109.44" x2="133.045" y2="50.5729" gradientUnits="userSpaceOnUse">
<stop stop-color="#D1D7E0"/>
<stop offset="1" stop-color="#EBEBFF"/>
</linearGradient>
<linearGradient id="paint2_linear_167_1270" x1="-7.66244e-05" y1="126.449" x2="151.828" y2="126.449" gradientUnits="userSpaceOnUse">
<stop offset="0.0052" stop-color="#1A2257"/>
<stop offset="1" stop-color="#5E60F2"/>
</linearGradient>
<linearGradient id="paint3_linear_167_1270" x1="78.5303" y1="73.0882" x2="78.5303" y2="30.0442" gradientUnits="userSpaceOnUse">
<stop stop-color="#D1D7E0"/>
<stop offset="1" stop-color="#EBEBFF"/>
</linearGradient>
<linearGradient id="paint4_linear_167_1270" x1="34.4177" y1="97.7371" x2="24.6566" y2="97.7371" gradientUnits="userSpaceOnUse">
<stop offset="0.0052" stop-color="#1A2257"/>
<stop offset="1" stop-color="#5E60F2"/>
</linearGradient>
<linearGradient id="paint5_linear_167_1270" x1="26.8336" y1="105.791" x2="9.08833" y2="105.791" gradientUnits="userSpaceOnUse">
<stop offset="0.0052" stop-color="#1A2257"/>
<stop offset="1" stop-color="#5E60F2"/>
</linearGradient>
<linearGradient id="paint6_linear_167_1270" x1="25.3166" y1="108.37" x2="11.9976" y2="108.37" gradientUnits="userSpaceOnUse">
<stop offset="0.0052" stop-color="#1A2257"/>
<stop offset="1" stop-color="#5E60F2"/>
</linearGradient>
<linearGradient id="paint7_linear_167_1270" x1="41.4173" y1="94.8462" x2="21.4165" y2="94.8462" gradientUnits="userSpaceOnUse">
<stop offset="0.0052" stop-color="#1A2257"/>
<stop offset="1" stop-color="#5E60F2"/>
</linearGradient>
<linearGradient id="paint8_linear_167_1270" x1="29.5074" y1="116.669" x2="17.8716" y2="81.7461" gradientUnits="userSpaceOnUse">
<stop offset="0.0052" stop-color="#1A2257"/>
<stop offset="1" stop-color="#5E60F2"/>
</linearGradient>
<linearGradient id="paint9_linear_167_1270" x1="20.4972" y1="139.475" x2="26.3149" y2="114.385" gradientUnits="userSpaceOnUse">
<stop stop-color="#C9C4C1"/>
<stop offset="1" stop-color="#FFF6DE"/>
</linearGradient>
<linearGradient id="paint10_linear_167_1270" x1="19.3715" y1="119.896" x2="33.685" y2="119.896" gradientUnits="userSpaceOnUse">
<stop stop-color="#C9C4C1"/>
<stop offset="1" stop-color="#FFF6DE"/>
</linearGradient>
<linearGradient id="paint11_linear_167_1270" x1="117.557" y1="36.6979" x2="117.557" y2="12.4507" gradientUnits="userSpaceOnUse">
<stop stop-color="#D1D7E0"/>
<stop offset="1" stop-color="#EBEBFF"/>
</linearGradient>
<linearGradient id="paint12_linear_167_1270" x1="151.839" y1="25.574" x2="154.855" y2="25.574" gradientUnits="userSpaceOnUse">
<stop stop-color="#D1D7E0"/>
<stop offset="1" stop-color="#EBEBFF"/>
</linearGradient>
<linearGradient id="paint13_linear_167_1270" x1="150.757" y1="25.574" x2="152.015" y2="25.574" gradientUnits="userSpaceOnUse">
<stop stop-color="#D1D7E0"/>
<stop offset="1" stop-color="#EBEBFF"/>
</linearGradient>
<linearGradient id="paint14_linear_167_1270" x1="143.175" y1="24.1946" x2="152.837" y2="24.1946" gradientUnits="userSpaceOnUse">
<stop stop-color="#D1D7E0"/>
<stop offset="1" stop-color="#EBEBFF"/>
</linearGradient>
<linearGradient id="paint15_linear_167_1270" x1="89.5122" y1="0.596922" x2="93.4752" y2="0.596922" gradientUnits="userSpaceOnUse">
<stop stop-color="#D1D7E0"/>
<stop offset="1" stop-color="#EBEBFF"/>
</linearGradient>
<linearGradient id="paint16_linear_167_1270" x1="89.5122" y1="3.45959" x2="93.4752" y2="3.45959" gradientUnits="userSpaceOnUse">
<stop stop-color="#D1D7E0"/>
<stop offset="1" stop-color="#EBEBFF"/>
</linearGradient>
<linearGradient id="paint17_linear_167_1270" x1="89.5122" y1="6.32221" x2="93.4752" y2="6.32221" gradientUnits="userSpaceOnUse">
<stop stop-color="#D1D7E0"/>
<stop offset="1" stop-color="#EBEBFF"/>
</linearGradient>
<linearGradient id="paint18_linear_167_1270" x1="95.1108" y1="0.596922" x2="96.2385" y2="0.596922" gradientUnits="userSpaceOnUse">
<stop stop-color="#D1D7E0"/>
<stop offset="1" stop-color="#EBEBFF"/>
</linearGradient>
<linearGradient id="paint19_linear_167_1270" x1="95.1108" y1="3.45959" x2="96.2385" y2="3.45959" gradientUnits="userSpaceOnUse">
<stop stop-color="#D1D7E0"/>
<stop offset="1" stop-color="#EBEBFF"/>
</linearGradient>
<linearGradient id="paint20_linear_167_1270" x1="95.1108" y1="6.32221" x2="96.2385" y2="6.32221" gradientUnits="userSpaceOnUse">
<stop stop-color="#D1D7E0"/>
<stop offset="1" stop-color="#EBEBFF"/>
</linearGradient>
<linearGradient id="paint21_linear_167_1270" x1="76.9566" y1="67.5742" x2="82.3714" y2="67.5742" gradientUnits="userSpaceOnUse">
<stop stop-color="#D1D7E0"/>
<stop offset="1" stop-color="#EBEBFF"/>
</linearGradient>
<linearGradient id="paint22_linear_167_1270" x1="75.0166" y1="67.5742" x2="77.2734" y2="67.5742" gradientUnits="userSpaceOnUse">
<stop stop-color="#D1D7E0"/>
<stop offset="1" stop-color="#EBEBFF"/>
</linearGradient>
</defs>
</svg>
