<svg width="160" height="160" viewBox="0 0 160 160" fill="none" xmlns="http://www.w3.org/2000/svg">
<path d="M43.6177 40.4387C37.5629 40.4387 32.6548 35.5305 32.6548 29.4758C32.6548 23.4211 37.5629 18.5129 43.6177 18.5129C49.6724 18.5129 54.5805 23.4211 54.5805 29.4758C54.5809 35.5305 49.6724 40.4387 43.6177 40.4387Z" fill="#EBEBEB"/>
<path d="M40.9158 27.032H38.647V34.3619H40.9158V27.032Z" fill="white"/>
<path d="M39.7705 26.0723C40.5116 26.0723 41.1122 25.4663 41.1122 24.7194C41.1122 23.9725 40.5116 23.3671 39.7705 23.3671C39.0294 23.3671 38.4287 23.9728 38.4287 24.7194C38.4287 25.4663 39.029 26.0723 39.7705 26.0723Z" fill="white"/>
<path d="M44.5429 30.5143C44.5429 29.4839 45.0171 28.8698 45.9253 28.8698C46.7595 28.8698 47.1605 29.4589 47.1605 30.5143C47.1605 31.57 47.1605 34.3619 47.1605 34.3619H49.4187C49.4187 34.3619 49.4187 31.6845 49.4187 29.721C49.4187 27.7578 48.3057 26.8083 46.7518 26.8083C45.1969 26.8083 44.5429 28.0195 44.5429 28.0195V27.0323H42.3662V34.3623H44.5429C44.5429 34.3623 44.5429 31.6436 44.5429 30.5143Z" fill="white"/>
<path d="M58.3105 7.64355L59.812 10.3885L62.5566 11.8896L59.812 13.3908L58.3105 16.1357L56.8094 13.3908L54.0645 11.8896L56.8094 10.3885L58.3105 7.64355Z" fill="#F5F5F5"/>
<path d="M120.919 82.0074L122.045 84.066L124.103 85.1918L122.045 86.3178L120.919 88.3764L119.793 86.3178L117.734 85.1918L119.793 84.066L120.919 82.0074Z" fill="#EBEBEB"/>
<path d="M124.103 71.8427L124.611 72.7716L125.54 73.2795L124.611 73.7876L124.103 74.7163L123.595 73.7876L122.666 73.2795L123.595 72.7716L124.103 71.8427Z" fill="#E0E0E0"/>
<path d="M47.5885 8.6759L48.0963 9.60486L49.025 10.1127L48.0963 10.6209L47.5885 11.5495L47.0803 10.6209L46.1514 10.1127L47.0803 9.60486L47.5885 8.6759Z" fill="#E0E0E0"/>
<path d="M22.1225 94.9626C23.2677 94.4647 24.0716 93.2666 24.0601 91.8669C24.0437 90.0336 22.6373 88.5591 20.918 88.5735C19.1996 88.5875 17.8191 90.0855 17.8351 91.9188C17.8476 93.3312 18.6879 94.5223 19.8585 94.992C15.0783 95.7757 15.3631 100.978 15.3631 100.978L26.6895 100.884C26.6895 100.884 26.8796 95.6179 22.1225 94.9626Z" fill="#E0E0E0"/>
<path d="M130.763 129.26C130.603 128.445 129.799 127.808 128.97 127.838C128.147 127.868 127.398 128.549 127.286 129.364C127.167 128.55 126.413 127.875 125.59 127.853C124.76 127.831 123.962 128.475 123.809 129.291C123.698 129.885 123.901 130.504 124.236 131.008C124.571 131.511 125.028 131.92 125.479 132.322C126.112 132.885 126.697 133.414 127.33 133.978C127.958 133.409 128.492 132.874 129.12 132.305C129.568 131.899 130.021 131.487 130.351 130.98C130.682 130.474 130.88 129.853 130.763 129.26Z" fill="#EBEBEB"/>
<path d="M138.14 61.808L139.354 61.5674L141.27 57.3511L140.79 54.9283C140.79 54.9283 142.643 54.441 143.052 57.657C143.46 60.873 143.539 60.0179 143.539 60.0179C143.539 60.0179 147.525 59.2432 147.924 59.5239C148.215 59.7274 149.108 63.6624 149.576 65.8C149.811 66.8762 149.348 68.0122 148.394 68.4666C148.258 68.5315 148.118 68.5811 147.976 68.6093C146.983 68.8064 141.747 69.0051 141.747 69.0051L139.65 69.4208L138.14 61.808Z" fill="#E0E0E0"/>
<path d="M134.534 61.8321L136.926 69.985L139.005 69.5728L137.392 61.4391L134.534 61.8321Z" fill="#E0E0E0"/>
<path d="M125.899 58.608C119.441 61.7485 111.661 59.0598 108.52 52.6026C105.379 46.1453 108.068 38.3645 114.526 35.2237C120.983 32.0832 128.764 34.7718 131.904 41.2291C135.045 47.6867 132.356 55.4672 125.899 58.608Z" fill="#9571F6"/>
<path d="M116.999 49.8218C117.218 49.808 117.347 49.6567 117.302 49.4285C117.27 49.2707 117.186 48.8749 117.153 48.7088C117.109 48.4823 117.055 48.4227 116.822 48.3203C116.317 48.0973 115.873 47.7063 115.535 47.0115C114.555 44.9959 115.185 42.4579 117.604 41.2813C119.746 40.2397 121.56 40.976 122.41 42.7242C123.528 45.024 123.455 47.4599 121.944 48.1946C121.109 48.6003 120.149 48.2141 119.937 47.2711C119.686 46.1437 119.62 44.8272 119.265 44.0976C118.948 43.4448 118.332 43.0704 117.607 43.4234C116.753 43.8384 116.498 45.0541 117.073 46.2362C117.439 46.9891 117.941 47.3744 117.941 47.3744C117.941 47.3744 118.867 51.4979 119.029 52.2199C119.352 53.6579 120.38 55.1136 120.48 55.2624C120.539 55.3511 120.671 55.3139 120.691 55.2163C120.72 55.0752 121.126 53.3264 120.861 51.9056C120.787 51.5031 120.357 49.4403 120.357 49.4403C120.891 49.8343 121.927 49.9053 122.788 49.4867C125.353 48.2394 125.955 45.056 124.433 41.9271C123.282 39.561 120.207 38.3322 117.161 39.8135C113.371 41.6567 112.782 45.3031 113.884 47.5687C114.551 48.9415 115.664 49.9095 116.999 49.8218Z" fill="white"/>
<path d="M138.884 95.2816C134.258 93.5139 131.94 88.3306 133.708 83.7043C135.476 79.0781 140.66 76.7607 145.286 78.5287C149.912 80.2963 152.229 85.4797 150.462 90.1059C148.694 94.7322 143.51 97.0493 138.884 95.2816Z" fill="#9571F6"/>
<path fill-rule="evenodd" clip-rule="evenodd" d="M146.766 88.4275C147.63 85.984 146.378 83.279 143.924 82.3414C141.499 81.415 138.797 82.5584 137.781 84.9001C137.754 84.9648 137.727 85.0294 137.702 85.0947C137.378 85.9417 137.313 86.8217 137.464 87.6544L135.734 89.7449L138.536 89.9053C139.047 90.5069 139.712 90.9939 140.502 91.2957C142.994 92.248 145.779 91.015 146.724 88.5421C146.739 88.5043 146.753 88.4662 146.766 88.4275ZM140.775 90.5821C140.004 90.2877 139.375 89.7859 138.927 89.1619L137.292 89.0697L138.299 87.8525C138.082 87.0579 138.105 86.1933 138.42 85.3696C138.467 85.247 138.52 85.127 138.579 85.0115C139.493 83.1776 141.685 82.304 143.651 83.0553C145.643 83.8163 146.695 85.9728 146.106 87.9696C146.077 88.0701 146.044 88.1686 146.006 88.2678C145.213 90.344 142.866 91.3811 140.775 90.5821Z" fill="white"/>
<path fill-rule="evenodd" clip-rule="evenodd" d="M143.935 88.5126C143.844 88.415 143.403 87.9414 143.315 87.8668C143.228 87.79 143.161 87.7449 143.045 87.8265C142.929 87.9081 142.621 88.0735 142.53 88.1212C142.437 88.1702 142.37 88.1545 142.279 88.0566C142.19 87.9596 141.877 87.7094 141.598 87.1718C141.382 86.7574 141.295 86.3129 141.273 86.1788C141.252 86.0447 141.332 86.0076 141.408 85.9737C141.478 85.9423 141.567 85.887 141.648 85.8454C141.67 85.8319 141.689 85.8198 141.708 85.8079C141.749 85.7775 141.782 85.7468 141.828 85.7036C141.894 85.6444 141.899 85.5737 141.893 85.5084C141.886 85.4431 141.871 84.8175 141.862 84.5625C141.855 84.3081 141.748 84.3107 141.682 84.2857C141.619 84.2614 141.549 84.2227 141.475 84.1945C141.401 84.1663 141.27 84.1478 141.127 84.2188C140.984 84.2899 140.597 84.447 140.39 84.9878C140.342 85.1145 140.317 85.2502 140.305 85.3833C140.269 85.8124 140.388 86.2233 140.409 86.2947C140.436 86.3875 140.709 87.8031 141.664 88.6739C142.622 89.5411 142.678 89.3955 142.888 89.454C143.097 89.5145 143.643 89.4403 143.833 89.2172C144.023 88.9974 144.107 88.7776 144.097 88.7206C144.088 88.6652 144.024 88.6095 143.935 88.5126Z" fill="white"/>
<path d="M22.2821 53.8371C18.5058 53.8371 15.4443 50.7757 15.4443 46.999C15.4443 43.2227 18.5058 40.1613 22.2821 40.1613C26.0584 40.1613 29.1199 43.2227 29.1199 46.999C29.1202 50.7757 26.0587 53.8371 22.2821 53.8371Z" fill="#9571F6"/>
<path d="M18.6387 49.2883C19.3004 49.7126 20.086 49.9599 20.9302 49.9599C23.7059 49.9599 25.2739 47.6156 25.1795 45.5129C25.4713 45.3023 25.7251 45.039 25.9254 44.7391C25.6572 44.8579 25.3689 44.9385 25.0668 44.9743C25.3753 44.7897 25.6124 44.4966 25.7241 44.1475C25.4352 44.3187 25.1152 44.4435 24.775 44.5103C24.502 44.2198 24.1139 44.0383 23.6835 44.0383C22.7187 44.0383 22.0096 44.9388 22.2275 45.8739C20.9849 45.8115 19.8835 45.2163 19.1462 44.3119C18.7545 44.9839 18.943 45.863 19.6089 46.3081C19.3638 46.3004 19.1331 46.2329 18.9315 46.1209C18.9155 46.8137 19.4115 47.4614 20.1305 47.6057C19.92 47.663 19.6896 47.6758 19.4556 47.631C19.6454 48.2252 20.1977 48.6569 20.8518 48.6694C20.2236 49.1619 19.4316 49.3817 18.6387 49.2883Z" fill="white"/>
<path d="M34.5702 130.436C28.2428 131.943 21.8918 128.036 20.3843 121.709C18.8771 115.381 22.7843 109.03 29.1113 107.523C35.4387 106.016 41.7897 109.923 43.2969 116.25C44.8048 122.578 40.8976 128.929 34.5702 130.436Z" fill="#455A64"/>
<path d="M30.6141 113.83C32.2915 113.43 32.4915 113.389 33.161 113.262C33.7802 113.144 34.137 113.167 34.3792 113.2C34.6995 113.244 34.9411 113.331 35.2134 113.498C35.4858 113.666 35.6717 113.843 35.8554 114.108C35.9942 114.309 36.1757 114.618 36.3498 115.224C36.5376 115.879 36.5917 116.076 36.991 117.753C37.3907 119.43 37.4314 119.631 37.559 120.3C37.6768 120.919 37.6538 121.276 37.6205 121.518C37.5763 121.838 37.4899 122.08 37.3226 122.352C37.1552 122.625 36.9782 122.811 36.7123 122.994C36.5114 123.133 36.2032 123.315 35.5974 123.489C34.9424 123.676 34.7453 123.73 33.0678 124.13C31.3904 124.529 31.1904 124.57 30.521 124.698C29.9018 124.816 29.545 124.793 29.303 124.759C28.9827 124.715 28.7411 124.629 28.4688 124.462C28.1968 124.294 28.0109 124.117 27.8269 123.852C27.6883 123.651 27.5066 123.342 27.3328 122.737C27.145 122.081 27.0912 121.884 26.6915 120.207C26.2918 118.53 26.2509 118.33 26.1235 117.66C26.0054 117.041 26.0288 116.684 26.0621 116.442C26.1062 116.122 26.1926 115.88 26.36 115.608C26.5277 115.336 26.7043 115.15 26.9706 114.966C27.1715 114.827 27.4797 114.646 28.0854 114.472C28.7395 114.283 28.937 114.229 30.6141 113.83ZM30.3446 112.698C28.6387 113.105 28.4266 113.163 27.7635 113.353C27.1021 113.543 26.671 113.758 26.3085 114.008C25.9338 114.267 25.6346 114.565 25.3683 114.998C25.1021 115.43 24.9709 115.832 24.9091 116.283C24.849 116.72 24.8515 117.202 24.9802 117.877C25.1091 118.555 25.153 118.771 25.5594 120.476C25.9658 122.182 26.024 122.395 26.2141 123.057C26.4038 123.719 26.6189 124.15 26.8694 124.512C27.128 124.887 27.4266 125.186 27.8589 125.452C28.2912 125.718 28.6928 125.85 29.144 125.912C29.5805 125.972 30.0624 125.97 30.7382 125.841C31.4157 125.712 31.6314 125.668 33.3373 125.261C35.0432 124.855 35.2554 124.797 35.9181 124.607C36.5795 124.417 37.0106 124.202 37.3734 123.951C37.7485 123.692 38.0474 123.394 38.3136 122.962C38.5795 122.529 38.711 122.128 38.7731 121.677C38.833 121.24 38.8307 120.758 38.7018 120.083C38.5725 119.405 38.5286 119.19 38.1222 117.484C37.7158 115.778 37.6576 115.566 37.4675 114.903C37.2778 114.242 37.0627 113.81 36.8122 113.448C36.5533 113.073 36.255 112.773 35.8224 112.508C35.3901 112.242 34.9885 112.11 34.5373 112.048C34.1008 111.988 33.6189 111.99 32.943 112.119C32.2659 112.248 32.0506 112.292 30.3446 112.698Z" fill="white"/>
<path d="M31.0727 115.754C29.2912 116.179 28.1911 117.967 28.6154 119.748C29.0397 121.53 30.8282 122.63 32.6096 122.206C34.3911 121.781 35.4912 119.993 35.0669 118.212C34.6423 116.43 32.8541 115.33 31.0727 115.754ZM32.3399 121.074C31.1834 121.349 30.0228 120.635 29.7472 119.479C29.4717 118.322 30.186 117.162 31.3424 116.886C32.4989 116.611 33.6596 117.324 33.9351 118.481C34.2103 119.637 33.4964 120.798 32.3399 121.074Z" fill="white"/>
<path d="M35.1489 114.648C35.2481 115.065 34.9912 115.483 34.5748 115.582C34.1582 115.681 33.7403 115.424 33.6414 115.008C33.5422 114.591 33.7992 114.173 34.2158 114.074C34.6318 113.975 35.0497 114.232 35.1489 114.648Z" fill="white"/>
<path d="M123.778 120.071C120.745 120.071 118.286 117.612 118.286 114.579C118.286 111.546 120.745 109.087 123.778 109.087C126.812 109.087 129.27 111.546 129.27 114.579C129.27 117.612 126.812 120.071 123.778 120.071Z" fill="#455A64"/>
<path d="M122.941 117.898H124.278V114.55H125.211L125.31 113.429H124.278C124.278 113.429 124.278 113.011 124.278 112.791C124.278 112.527 124.331 112.422 124.587 112.422C124.792 112.422 125.31 112.422 125.31 112.422V111.259C125.31 111.259 124.547 111.259 124.384 111.259C123.39 111.259 122.941 111.697 122.941 112.536C122.941 113.266 122.941 113.429 122.941 113.429H122.246V114.564H122.941V117.898Z" fill="white"/>
<path d="M105.046 150.415L60.9227 150.389C55.6158 150.386 51.3156 146.082 51.3169 140.775L51.3387 30.1562C51.3396 24.8464 55.6459 20.5434 60.9556 20.5463L105.079 20.5722C110.386 20.5754 114.686 24.8787 114.685 30.1856L114.663 140.805C114.663 146.115 110.357 150.418 105.046 150.415Z" fill="#263238"/>
<path d="M105.033 24.4848L96.4778 24.48C95.3306 24.4794 94.4001 25.4512 94.4004 26.6503L94.3998 28.2019C94.3998 29.4013 93.4692 30.3732 92.3223 30.3725L75.6471 30.3626C74.4999 30.362 73.57 29.3892 73.5703 28.1898L73.5706 26.6381C73.5706 25.4388 72.6407 24.466 71.4935 24.4653L68.4849 24.4634L60.9972 24.4592C57.2785 24.4573 54.2628 27.4708 54.2618 31.1895L54.2407 139.162C54.2401 142.879 57.2516 145.893 60.9681 145.895L105.004 145.921C108.722 145.923 111.738 142.909 111.739 139.191L111.76 31.218C111.761 27.5008 108.75 24.4871 105.033 24.4848Z" fill="white"/>
<path d="M105.677 33.2567C105.677 33.2855 104.565 33.3184 103.192 33.3296C101.82 33.3408 100.707 33.3267 100.707 33.2976C100.707 33.2688 101.819 33.2362 103.192 33.2247C104.564 33.2135 105.677 33.2275 105.677 33.2567Z" fill="#263238"/>
<path d="M105.688 34.5284C105.688 34.5572 104.575 34.5902 103.203 34.6014C101.83 34.6126 100.718 34.5985 100.718 34.5694C100.717 34.5406 101.83 34.5079 103.203 34.4964C104.575 34.4852 105.687 34.4993 105.688 34.5284Z" fill="#263238"/>
<path d="M105.698 35.7997C105.698 35.8285 104.586 35.8615 103.213 35.8727C101.841 35.8839 100.728 35.8698 100.728 35.8407C100.728 35.8119 101.84 35.7792 103.213 35.7677C104.585 35.7565 105.698 35.7709 105.698 35.7997Z" fill="#263238"/>
<path d="M58.8864 37.0401C58.889 37.0375 58.9334 37.0349 59.0166 37.0314C59.1194 37.0279 59.2381 37.0241 59.3789 37.0196C59.7206 37.0116 60.1677 37.0007 60.7162 36.9876L60.679 37.0253C60.6742 36.7287 60.6691 36.4049 60.6634 36.0557C60.6653 35.8756 60.648 35.7053 60.6656 35.4973C60.7018 35.2897 60.8867 35.1063 61.1142 35.0852C61.3299 35.081 61.5197 35.0711 61.7533 35.082C61.9942 35.1114 62.199 35.3431 62.192 35.5985C62.1971 36.0506 62.2026 36.5229 62.208 37.0129L62.1459 36.9517C62.6877 36.9463 63.2518 36.9405 63.833 36.9345L63.769 36.9997C63.7629 36.3204 63.7568 35.6177 63.7501 34.8977C63.7485 34.7181 63.7469 34.5396 63.7456 34.3623C63.745 34.1972 63.6445 34.0868 63.5085 33.9636C63.2589 33.7175 63.0128 33.4749 62.7709 33.2365C62.5293 32.9981 62.2918 32.7639 62.0595 32.5345C61.9434 32.4199 61.8285 32.3063 61.7149 32.194C61.5965 32.0797 61.5034 31.9617 61.3661 31.9335C61.233 31.8977 61.0861 31.9261 60.9789 32.0074C60.8768 32.0938 60.7677 32.2161 60.665 32.3162C60.4573 32.5258 60.2554 32.7297 60.0595 32.9268C59.6787 33.3223 59.2822 33.6836 58.9939 34.025C58.8723 34.2138 58.9178 34.4445 58.9091 34.6548C58.9088 34.8637 58.9082 35.0621 58.9078 35.2493C58.9056 35.6138 58.9037 35.9332 58.9021 36.2068C58.8992 36.4516 58.897 36.6535 58.8954 36.8193C58.8922 36.9607 58.8896 37.0369 58.8864 37.0401C58.8832 37.0433 58.8794 36.9735 58.8749 36.8372C58.8704 36.6743 58.8646 36.4753 58.8579 36.2343C58.8515 35.9585 58.8445 35.6365 58.8362 35.2689C58.8326 35.0781 58.8288 34.8759 58.825 34.6628C58.8234 34.5549 58.8218 34.4442 58.8198 34.3309C58.8189 34.2113 58.8499 34.0874 58.913 33.978C59.225 33.5956 59.5974 33.257 59.9811 32.85C60.1754 32.6509 60.3757 32.4458 60.5818 32.2346C60.6899 32.1284 60.7786 32.0228 60.9072 31.9121C61.0422 31.8084 61.2275 31.7713 61.3965 31.8157C61.576 31.8554 61.6928 32.0026 61.8016 32.1053C61.9158 32.217 62.031 32.3303 62.1478 32.4445C62.3811 32.6733 62.6192 32.9066 62.8614 33.1444C63.1037 33.3825 63.3504 33.6244 63.6003 33.8698C63.6595 33.9325 63.7309 33.9857 63.7888 34.074C63.8435 34.1581 63.8746 34.2573 63.8771 34.3585C63.8787 34.5367 63.8803 34.7159 63.8819 34.8964C63.8874 35.6164 63.8928 36.3191 63.8979 36.9985L63.8986 37.0634L63.8339 37.0637C63.2525 37.0676 62.6886 37.0711 62.1469 37.0746L62.0851 37.0749L62.0848 37.0135C62.0822 36.5236 62.0797 36.0513 62.0774 35.5991C62.0845 35.3953 61.9261 35.2154 61.7366 35.1895C61.5427 35.1793 61.3136 35.186 61.1248 35.1876C60.9434 35.2026 60.792 35.3482 60.761 35.5156C60.7446 35.6852 60.7571 35.8829 60.7536 36.0548C60.7536 36.4042 60.7539 36.7281 60.7539 37.0247V37.0628L60.7168 37.0625C60.159 37.0586 59.7046 37.0554 59.3571 37.0529C59.2195 37.0506 59.1034 37.0484 59.0029 37.0468C58.9238 37.0445 58.8842 37.0426 58.8864 37.0401Z" fill="#263238"/>
<path d="M87.9935 121.41C87.9935 121.422 87.829 121.432 87.531 121.442C87.2018 121.449 86.7784 121.458 86.2702 121.469C85.2056 121.484 83.7349 121.493 82.1106 121.493C80.4856 121.493 79.0149 121.484 77.9502 121.469C77.4421 121.458 77.0187 121.449 76.6894 121.442C76.3918 121.432 76.2271 121.421 76.2271 121.41C76.2271 121.398 76.3915 121.388 76.6894 121.378C77.0184 121.371 77.4421 121.362 77.9502 121.351C79.0149 121.336 80.4856 121.327 82.1106 121.327C83.7349 121.327 85.2056 121.336 86.2702 121.351C86.7784 121.362 87.2021 121.371 87.531 121.378C87.8286 121.388 87.9935 121.398 87.9935 121.41Z" fill="#455A64"/>
<path d="M106.487 124.305C106.487 124.351 99.7123 124.388 91.3578 124.388C83.0003 124.388 76.2275 124.351 76.2275 124.305C76.2275 124.259 83.0003 124.222 91.3578 124.222C99.7127 124.222 106.487 124.259 106.487 124.305Z" fill="#455A64"/>
<path d="M97.0307 127.028C97.0307 127.074 92.3735 127.111 86.6298 127.111C80.8839 127.111 76.2275 127.074 76.2275 127.028C76.2275 126.982 80.8839 126.945 86.6298 126.945C92.3735 126.944 97.0307 126.982 97.0307 127.028Z" fill="#455A64"/>
<path d="M107.085 132.328L106.145 131.385L105.25 132.278L105.254 129.579L107.089 129.582L107.085 132.328ZM106.145 131.268L106.174 131.297L107.002 132.127L107.006 129.664L105.337 129.662L105.333 132.078L106.145 131.268Z" fill="#263238"/>
<path d="M82.0506 131.977L81.7188 131.83C81.5585 131.916 81.418 131.959 81.2893 131.96C80.7812 131.964 80.3645 131.554 80.3604 131.046C80.3562 130.538 80.7665 130.121 81.2746 130.117C81.7828 130.113 82.1994 130.523 82.2036 131.031C82.2055 131.257 82.1239 131.475 81.9741 131.646L82.0506 131.977ZM81.2753 130.18C80.802 130.184 80.4199 130.572 80.4237 131.046C80.4276 131.519 80.8157 131.901 81.289 131.897C81.4106 131.896 81.5457 131.853 81.7025 131.767L81.7162 131.759L81.9607 131.868L81.9053 131.628L81.9165 131.616C82.0628 131.455 82.1425 131.248 82.1405 131.032C82.1367 130.559 81.7485 130.176 81.2753 130.18Z" fill="#263238"/>
<path d="M84.1835 131.835L83.8033 130.907L83.0903 130.257L84.8199 130.244L84.1835 131.835ZM83.2516 130.319L83.859 130.877L84.1828 131.667L84.7262 130.307L83.2516 130.319Z" fill="#263238"/>
<path d="M84.7844 130.252L83.8413 130.865L83.8757 130.918L84.8188 130.305L84.7844 130.252Z" fill="#263238"/>
<path d="M79.3293 130.451C79.2797 130.204 79.0353 130.011 78.7834 130.022C78.5338 130.031 78.3076 130.239 78.2743 130.486C78.2372 130.24 78.0074 130.036 77.7578 130.03C77.506 130.024 77.2644 130.22 77.2189 130.468C77.1857 130.649 77.2484 130.836 77.3505 130.989C77.4525 131.142 77.5917 131.265 77.729 131.386C77.9217 131.557 78.0996 131.717 78.2925 131.887C78.4823 131.713 78.6439 131.551 78.8337 131.377C78.9693 131.254 79.1063 131.128 79.2058 130.974C79.3057 130.819 79.3652 130.631 79.3293 130.451Z" fill="#9571F6"/>
<path d="M109.012 134.716C109.012 134.716 109.008 134.613 109.006 134.415C109.005 134.215 109.003 133.923 109 133.54C108.997 132.767 108.993 131.632 108.987 130.161C108.98 127.22 108.97 122.941 108.957 117.574L109.011 117.629C96.6992 117.636 78.3206 117.646 57.8383 117.658H57.8352L57.9183 117.574C57.9174 123.532 57.9164 129.311 57.9158 134.717L57.8352 134.636C72.5667 134.651 85.3494 134.664 94.4537 134.673C99.0092 134.683 102.644 134.691 105.144 134.696C106.392 134.701 107.356 134.704 108.012 134.707C108.337 134.709 108.585 134.71 108.756 134.712C108.923 134.713 109.012 134.716 109.012 134.716C109.012 134.716 108.931 134.72 108.766 134.721C108.597 134.723 108.353 134.724 108.032 134.726C107.38 134.729 106.422 134.732 105.181 134.737C102.685 134.742 99.0572 134.75 94.5094 134.759C85.3913 134.769 72.5891 134.782 57.8352 134.797H57.7545V134.716C57.7536 129.31 57.7526 123.532 57.752 117.574V117.491H57.8352H57.8383C78.3209 117.502 96.6992 117.512 109.011 117.519H109.067V117.574C109.054 122.956 109.043 127.246 109.036 130.194C109.031 131.66 109.026 132.791 109.023 133.561C109.02 133.94 109.019 134.228 109.017 134.427C109.015 134.62 109.012 134.716 109.012 134.716Z" fill="#263238"/>
<path d="M59.9669 120.439L59.9023 131.772L74.0783 131.853L74.1429 120.52L59.9669 120.439Z" fill="#EBEBEB"/>
<path d="M74.1392 120.519C74.1376 120.52 74.1139 120.522 74.0682 120.523C74.016 120.524 73.9504 120.525 73.8672 120.526C73.6832 120.527 73.425 120.528 73.0931 120.53C72.4115 120.531 71.4288 120.532 70.1866 120.534C67.6934 120.528 64.1603 120.521 59.9629 120.513L60.0378 120.438C60.0211 123.813 60.0022 127.679 59.9821 131.77C59.9994 131.79 59.8269 131.613 59.9018 131.688H59.9056H59.9133H59.9286L59.9594 131.688L60.0208 131.688L60.1437 131.689L60.3888 131.69L60.8774 131.693C61.2026 131.695 61.5261 131.697 61.8477 131.699C62.4912 131.703 63.1283 131.707 63.7574 131.71C65.016 131.718 66.2445 131.726 67.4355 131.734C69.8166 131.751 72.0483 131.767 74.0746 131.782L74.0048 131.851C74.039 128.448 74.0675 125.625 74.0874 123.643C74.1005 122.657 74.111 121.881 74.1184 121.342C74.1232 121.081 74.127 120.878 74.1299 120.732C74.1338 120.594 74.1392 120.519 74.1392 120.519C74.1392 120.519 74.144 120.584 74.1456 120.718C74.1466 120.861 74.1482 121.06 74.1501 121.314C74.1514 121.85 74.153 122.621 74.1549 123.6C74.1523 125.592 74.1485 128.431 74.144 131.852V131.921L74.0746 131.921C72.0486 131.912 69.8166 131.903 67.4355 131.893C66.2445 131.887 65.016 131.881 63.7574 131.875C63.128 131.872 62.4912 131.868 61.8477 131.865C61.5258 131.863 61.2022 131.861 60.8774 131.859L60.3888 131.856L60.1437 131.855L60.0208 131.854L59.9594 131.854H59.9286H59.9133H59.9056H59.9018C59.9747 131.929 59.7978 131.753 59.8163 131.769C59.8429 127.678 59.8678 123.812 59.8896 120.437L59.8899 120.362L59.9645 120.363C64.1814 120.402 67.7312 120.435 70.2362 120.459C71.471 120.474 72.448 120.486 73.1258 120.495C73.4512 120.501 73.7043 120.505 73.8848 120.508C73.9645 120.51 74.0275 120.512 74.0774 120.513C74.1197 120.516 74.1408 120.517 74.1392 120.519Z" fill="#263238"/>
<path d="M60.4515 121.155L60.395 131.062L73.5749 131.137L73.6313 121.231L60.4515 121.155Z" fill="#E0E0E0"/>
<path d="M60.3921 131.061L65.0302 124.929L67.8599 128.798L69.8058 126.749L73.5716 131.135L60.3921 131.061Z" fill="#F5F5F5"/>
<path d="M69.0965 124.198C69.0933 124.771 68.6261 125.233 68.053 125.23C67.4799 125.227 67.0178 124.759 67.021 124.186C67.0242 123.613 67.4914 123.151 68.0645 123.155C68.6377 123.158 69.0997 123.625 69.0965 124.198Z" fill="#F5F5F5"/>
<path d="M83.8681 46.999C83.8681 47.0048 83.816 47.0106 83.7168 47.016C83.598 47.0202 83.455 47.0253 83.2828 47.0317C82.879 47.0384 82.3401 47.0474 81.6864 47.0583C80.3382 47.0733 78.4758 47.0826 76.4192 47.0826C74.3616 47.0826 72.4992 47.0733 71.151 47.0583C70.4972 47.0474 69.9584 47.0384 69.5545 47.0317C69.3824 47.0256 69.2393 47.0202 69.1206 47.016C69.0214 47.0106 68.9692 47.0048 68.9692 46.999C68.9692 46.9933 69.0214 46.9875 69.1206 46.9821C69.2393 46.9779 69.3824 46.9728 69.5545 46.9664C69.958 46.9597 70.4972 46.9507 71.151 46.9398C72.4992 46.9248 74.3616 46.9155 76.4192 46.9155C78.4761 46.9155 80.3382 46.9248 81.6864 46.9398C82.3401 46.9507 82.8793 46.9597 83.2828 46.9664C83.455 46.9725 83.598 46.9776 83.7168 46.9821C83.816 46.9878 83.8681 46.9933 83.8681 46.999Z" fill="#263238"/>
<path d="M104.81 109.649L103.413 108.248L102.083 109.574L102.089 105.563L104.816 105.567L104.81 109.649ZM103.414 108.073L103.458 108.117L104.688 109.351L104.694 105.691L102.213 105.687L102.207 109.277L103.414 108.073Z" fill="#263238"/>
<path d="M69.3359 109.227L68.6828 108.936C68.3672 109.107 68.0904 109.191 67.8373 109.193C66.837 109.201 66.0168 108.394 66.0088 107.394C66.0008 106.394 66.8079 105.574 67.8082 105.566C68.8082 105.558 69.6284 106.365 69.6364 107.365C69.6399 107.81 69.4799 108.238 69.1848 108.574L69.3359 109.227ZM67.8092 105.69C66.8773 105.697 66.1256 106.461 66.133 107.393C66.1404 108.324 66.9045 109.076 67.8364 109.068C68.0757 109.067 68.3417 108.982 68.6501 108.812L68.6773 108.797L69.1586 109.012L69.0495 108.539L69.0716 108.515C69.3593 108.198 69.516 107.79 69.5125 107.365C69.5048 106.434 68.741 105.682 67.8092 105.69Z" fill="#263238"/>
<path d="M73.5343 108.947L72.7858 107.12L71.3823 105.841L74.7865 105.813L73.5343 108.947ZM71.7001 105.963L72.8956 107.06L73.533 108.616L74.6025 105.939L71.7001 105.963Z" fill="#263238"/>
<path d="M74.713 105.815L72.8569 107.022L72.9248 107.127L74.7809 105.919L74.713 105.815Z" fill="#263238"/>
<path d="M63.9788 106.222C63.8812 105.736 63.3999 105.357 62.9042 105.377C62.413 105.396 61.9673 105.805 61.9023 106.292C61.8297 105.806 61.3772 105.405 60.886 105.393C60.3903 105.381 59.9148 105.768 59.8252 106.256C59.7599 106.611 59.8831 106.98 60.0841 107.28C60.285 107.58 60.559 107.823 60.8294 108.062C61.2086 108.397 61.559 108.712 61.9382 109.048C62.3119 108.707 62.63 108.386 63.0034 108.045C63.2703 107.802 63.5401 107.555 63.7362 107.251C63.9327 106.948 64.0498 106.577 63.9788 106.222Z" fill="#9571F6"/>
<path d="M63.6685 49.3082C64.9438 49.3082 65.9776 48.2743 65.9776 46.9991C65.9776 45.7238 64.9438 44.6899 63.6685 44.6899C62.3932 44.6899 61.3594 45.7238 61.3594 46.9991C61.3594 48.2743 62.3932 49.3082 63.6685 49.3082Z" fill="#EBEBEB"/>
<path d="M103.939 96.4017C103.939 96.4478 94.2553 96.4849 82.3132 96.4849C70.367 96.4849 60.686 96.4474 60.686 96.4017C60.686 96.3559 70.367 96.3185 82.3132 96.3185C94.2553 96.3182 103.939 96.3556 103.939 96.4017Z" fill="#455A64"/>
<path d="M103.939 92.7997C103.939 92.8458 94.2553 92.8829 82.3132 92.8829C70.367 92.8829 60.686 92.8455 60.686 92.7997C60.686 92.754 70.367 92.7166 82.3132 92.7166C94.2553 92.7166 103.939 92.7537 103.939 92.7997Z" fill="#455A64"/>
<path d="M84.2288 100.051C84.2288 100.097 78.958 100.134 72.4579 100.134C65.9555 100.134 60.686 100.097 60.686 100.051C60.686 100.005 65.9555 99.968 72.4579 99.968C78.958 99.968 84.2288 100.005 84.2288 100.051Z" fill="#455A64"/>
<path d="M81.3231 139.293C81.3209 139.808 80.9078 140.223 80.4002 140.221C79.8927 140.218 79.4831 139.799 79.4854 139.284C79.4876 138.77 79.9007 138.354 80.4082 138.356C80.9158 138.358 81.3254 138.778 81.3231 139.293Z" fill="#263238"/>
<path d="M84.1703 139.306C84.168 139.82 83.7549 140.236 83.2474 140.234C82.7399 140.232 82.3303 139.812 82.3325 139.297C82.3344 138.783 82.7479 138.367 83.2554 138.369C83.7629 138.372 84.1725 138.791 84.1703 139.306Z" fill="#263238"/>
<path d="M87.0179 139.319C87.016 139.834 86.6026 140.25 86.0951 140.247C85.5875 140.245 85.1779 139.826 85.1802 139.31C85.1824 138.796 85.5955 138.38 86.1031 138.382C86.6106 138.385 87.0202 138.804 87.0179 139.319Z" fill="#263238"/>
<path d="M109.319 51.5693H58.1421V82.8666H109.319V51.5693Z" fill="#E0E0E0"/>
<path d="M62.8662 82.8721L77.5312 63.2439L86.6227 75.5191L92.7843 68.9537L104.87 82.8599L62.8662 82.8721Z" fill="#F5F5F5"/>
<path d="M90.4762 60.8363C90.4769 62.6628 88.9965 64.1441 87.17 64.1444C85.3434 64.1451 83.8625 62.6647 83.8618 60.8382C83.8612 59.0116 85.3415 57.5307 87.1681 57.53C88.9946 57.5294 90.4756 59.0097 90.4762 60.8363Z" fill="#F5F5F5"/>
<path d="M109.181 111.953C109.18 111.284 109.15 83.0106 109.105 41.1562L109.181 41.2317C93.7478 41.234 76.3513 41.2368 58.0102 41.2394H58.0044L58.0876 41.1562C58.0819 67.6324 58.0764 92.1354 58.0719 111.953L58.0041 111.885C89.0383 111.926 108.622 111.952 109.181 111.953C108.623 111.954 89.0387 111.98 58.0044 112.021H57.9366V111.953C57.9321 92.1357 57.927 67.6327 57.9209 41.1562V41.073H58.0041H58.0099C76.351 41.0759 93.7475 41.0784 109.18 41.0807H109.256V41.1562C109.241 62.104 109.227 79.8109 109.218 92.2832C109.21 98.5104 109.203 103.43 109.198 106.796C109.194 108.474 109.191 109.765 109.189 110.637C109.187 111.07 109.186 111.399 109.185 111.622C109.184 111.843 109.181 111.953 109.181 111.953Z" fill="#263238"/>
<path d="M85.1338 120.735L86.266 116.931C86.4634 116.106 86.7258 115.133 87.0788 114.022C87.3962 113.024 88.21 111.976 88.9527 111.22C90.1082 110.045 90.658 110.037 91.4346 109.413C91.5054 109.368 91.5844 109.303 91.6509 109.267C91.8116 109.18 91.9297 109.065 92.0285 108.94C92.698 108.216 92.0551 107.096 90.6958 107.202C89.6724 107.282 88.0033 107.575 85.289 110.375C85.2554 110.418 85.2196 110.453 85.1863 110.497C83.762 112.348 82.4241 107.063 82.1828 105.095C82.0263 103.819 80.6455 103.034 79.3959 103.496L72.7844 106.588C72.2385 106.396 71.5902 106.429 70.8542 106.654C69.8807 107.014 69.3402 108.015 69.5946 108.986L72.2762 119.69L64.4004 145.896H81.3757L85.1338 120.735Z" fill="#FFBE9D"/>
<path d="M98.175 96.6669L92.9276 106.949L90.3039 106.22L77.1148 116.949C75.9926 117.862 74.3474 117.716 73.4038 116.619L68.3823 110.784C68.3823 110.784 78.5078 106.422 80.3804 102.812C82.253 99.2013 80.0889 98.3824 80.0889 98.3824L84.8543 92.967L98.175 96.6669Z" fill="url(#paint0_linear_166_2690)"/>
<path d="M91.3689 75.6617C91.3689 75.6617 83.6876 73.9628 72.8786 63.5683C62.0697 53.174 56.9906 39.3705 55.6674 39.4381C54.3442 39.5053 48.5673 36.823 37.5797 60.7245C26.5922 84.6256 30.9202 90.176 33.1068 90.1312C35.2933 90.0861 50.1394 85.9491 59.4124 87.0028C68.6853 88.0573 80.6044 92.8899 80.6044 92.8899L91.3689 75.6617Z" fill="url(#paint1_linear_166_2690)"/>
<path d="M107.687 88.6896L105.066 93.672L103.892 95.904C102.282 98.9654 98.5576 100.231 95.4158 98.7837L78.9521 93.0474L88.5403 71.1581L104.989 79.9238C108.146 81.6061 109.352 85.5229 107.687 88.6896Z" fill="url(#paint2_linear_166_2690)"/>
<g opacity="0.4">
<path d="M107.687 88.6896L105.066 93.672L103.892 95.904C102.282 98.9654 98.5576 100.231 95.4158 98.7837L78.9521 93.0474L88.5403 71.1581L104.989 79.9238C108.146 81.6061 109.352 85.5229 107.687 88.6896Z" fill="black"/>
</g>
<path d="M38.467 61.1596C32.6193 74.1071 30.185 85.6447 33.0302 86.9295C35.875 88.2146 42.9217 78.7599 48.7694 65.8124C54.6167 52.8652 57.051 41.3276 54.2062 40.0428C51.3614 38.758 44.315 48.2121 38.467 61.1596Z" fill="url(#paint3_linear_166_2690)"/>
<g opacity="0.5">
<path d="M38.467 61.1596C32.6193 74.1071 30.185 85.6447 33.0302 86.9295C35.875 88.2146 42.9217 78.7599 48.7694 65.8124C54.6167 52.8652 57.051 41.3276 54.2062 40.0428C51.3614 38.758 44.315 48.2121 38.467 61.1596Z" fill="black"/>
</g>
<path d="M109.1 95.8887L104.637 94.4874L107.398 89.2368L110.745 91.3171L109.1 95.8887Z" fill="url(#paint4_linear_166_2690)"/>
<g opacity="0.6">
<path d="M107.398 89.2368L104.637 94.4874L105.554 94.7757L107.799 89.4858L107.398 89.2368Z" fill="black"/>
</g>
<path d="M104.324 90.4479C104.259 90.5923 102.032 89.7267 99.3504 88.5145C96.6669 87.3023 94.5465 86.2028 94.6118 86.0585C94.6768 85.9145 96.9033 86.7801 99.5859 87.9923C102.268 89.2044 104.389 90.3039 104.324 90.4479Z" fill="url(#paint5_linear_166_2690)"/>
<path d="M105.696 87.321C105.626 87.4634 103.611 86.6138 101.195 85.4243C98.7781 84.2339 96.8766 83.1546 96.9467 83.0122C97.0165 82.8704 99.0309 83.7197 101.448 84.9101C103.864 86.0995 105.766 87.1789 105.696 87.321Z" fill="url(#paint6_linear_166_2690)"/>
<path d="M102.593 93.728C102.569 93.8042 102.039 93.6819 101.194 93.4205C100.771 93.2903 100.271 93.1248 99.7168 92.9331C99.1668 92.7338 98.5956 92.4451 97.9837 92.1677C95.5424 91.0346 93.6784 89.9252 93.7392 89.7936C93.8116 89.6381 95.8042 90.5248 98.2228 91.6471C98.8295 91.922 99.392 92.2247 99.9226 92.4464C100.455 92.6615 100.933 92.8627 101.332 93.0397C102.13 93.3939 102.616 93.6522 102.593 93.728Z" fill="url(#paint7_linear_166_2690)"/>
<path d="M50.3891 58.2803C50.3891 58.2803 43.7129 54.1405 40.0601 63.1603C36.4076 72.1802 43.4316 73.6634 43.4316 73.6634C46.3062 69.2058 48.6412 64.0976 50.3891 58.2803Z" fill="url(#paint8_linear_166_2690)"/>
<g opacity="0.5">
<path d="M57.4891 47.5306C57.5282 47.5373 57.4331 48.1498 57.2277 49.2538C57.0165 50.3559 56.7179 51.9559 56.2898 53.9203C56.0075 54.8877 55.6991 55.9443 55.3682 57.0768C55.2008 57.6445 55.0274 58.2307 54.8495 58.8349C54.7599 59.1373 54.669 59.4435 54.5768 59.7539C54.477 60.0621 54.3471 60.3642 54.2309 60.6755C53.7499 61.9168 53.2456 63.2183 52.7227 64.5674C52.5915 64.9047 52.4591 65.2448 52.3253 65.5879C52.1954 65.9325 52.012 66.2567 51.8562 66.5962C51.5298 67.2688 51.1989 67.9517 50.8639 68.6423C50.5279 69.3328 50.1957 70.0151 49.8683 70.6877C49.6981 71.0202 49.556 71.3651 49.3659 71.6807C49.1787 71.9978 48.9931 72.3127 48.8091 72.6243C48.0719 73.8695 47.3602 75.0711 46.6818 76.2167C46.5083 76.5005 46.3515 76.7895 46.1707 77.0586C45.9832 77.3235 45.7983 77.585 45.6155 77.8426C45.2504 78.3568 44.8955 78.8563 44.5525 79.3395C43.8658 80.3005 43.2251 81.1971 42.6386 82.0179C41.3621 83.5648 40.2914 84.785 39.556 85.6317C38.8162 86.4749 38.3925 86.9293 38.3621 86.904C38.3317 86.8791 38.6971 86.3767 39.3839 85.4899C40.0962 84.5866 41.0965 83.3184 42.325 81.761C42.8898 80.9338 43.5061 80.0301 44.1672 79.0615C44.4994 78.5773 44.8431 78.0768 45.197 77.5619C45.3743 77.3047 45.5541 77.0432 45.7365 76.7789C45.9122 76.5101 46.0651 76.2202 46.2341 75.9367C46.8987 74.7933 47.596 73.5943 48.3186 72.3517C48.5 72.041 48.6824 71.728 48.8671 71.4122C49.0549 71.0983 49.1944 70.7555 49.3627 70.4243C49.6866 69.7562 50.0155 69.0781 50.348 68.392C50.6815 67.7066 51.0111 67.0291 51.3359 66.3616C51.4917 66.025 51.6754 65.7034 51.8053 65.3616C51.9394 65.0218 52.0725 64.6845 52.2047 64.3504C52.7346 63.0147 53.2463 61.7258 53.7336 60.497C53.8524 60.1888 53.9851 59.8899 54.0882 59.5853C54.1835 59.2781 54.2776 58.9747 54.3707 58.6759C54.557 58.0787 54.7381 57.4983 54.9135 56.9373C55.2664 55.8179 55.5954 54.7735 55.8975 53.8173C56.3615 51.8928 56.7391 50.3261 57.0082 49.2099C57.2811 48.1229 57.4504 47.5239 57.4891 47.5306Z" fill="black"/>
</g>
<g opacity="0.4">
<path d="M69.9819 110.068C70.5909 111.173 71.2123 112.296 72.1138 113.18C73.0149 114.063 74.2527 114.689 75.5087 114.563C76.7643 114.436 77.9544 113.393 77.9679 112.131C78.5707 112.584 79.4943 112.338 79.9938 111.773C80.493 111.209 80.6552 110.423 80.7151 109.672C81.5336 110.155 82.6722 109.772 83.2184 108.994C83.7647 108.216 83.7986 107.169 83.5339 106.256C83.2693 105.343 82.7407 104.533 82.2197 103.738C82.8501 103.789 83.5176 103.833 84.0818 103.548C84.6459 103.262 85.0264 102.516 84.6975 101.976C84.5045 101.659 84.1339 101.501 83.7797 101.39C82.7919 101.081 82.0987 100.834 81.0703 100.953C80.8315 100.955 81.4818 103.665 75.0274 107.372C71.2168 109.56 69.9819 110.068 69.9819 110.068Z" fill="black"/>
</g>
<path d="M84.5163 113.983C84.5121 114.013 84.0823 113.931 83.3857 113.949C82.6932 113.965 81.7252 114.117 80.7694 114.575C79.8129 115.034 79.0884 115.693 78.6423 116.223C78.1915 116.755 77.9867 117.141 77.9607 117.126C77.9515 117.121 77.9931 117.02 78.0871 116.846C78.1809 116.672 78.3332 116.428 78.5511 116.149C78.9815 115.59 79.7134 114.896 80.6974 114.425C81.6807 113.953 82.6795 113.817 83.3847 113.831C83.7393 113.837 84.0244 113.87 84.2187 113.906C84.4132 113.941 84.5182 113.973 84.5163 113.983Z" fill="#EB996E"/>
<path d="M70.4028 108.349C71.4425 109.347 72.1536 110.45 73.2441 111.456C73.7398 111.913 74.5094 112.779 75.1737 112.894C75.838 113.009 76.2636 112.921 76.5264 112.3C76.7392 111.797 76.3571 111.11 76.0928 110.696C75.398 109.606 74.7337 108.754 74.2134 107.907C73.9699 107.51 74.2854 107.428 74.4003 107.611C74.9008 108.13 75.6473 108.58 76.0953 109.145C76.7091 109.918 76.8204 110.942 78.4265 110.618C78.6387 110.575 78.8508 110.502 79.0227 110.371C79.6272 109.908 79.6528 109.103 79.398 108.459C79.1987 107.954 78.8486 107.525 78.504 107.106C79.1875 107.878 79.9337 108.691 81.0204 108.779C81.6524 108.829 82.287 108.535 82.5424 107.955C82.864 107.225 82.4028 106.519 81.9401 105.948C81.12 104.936 80.2048 104.001 79.2108 103.16C78.8409 102.846 78.3692 102.671 77.8841 102.668C77.3219 102.664 76.6182 102.77 76.271 103.259C75.6403 104.147 75.8345 104.931 75.8345 104.931C75.8345 104.931 74.4246 104.217 73.2918 104.964C72.159 105.712 71.8787 106.997 71.8787 106.997L70.4028 108.349Z" fill="#FFBE9D"/>
<path d="M77.9053 102.358C77.4688 101.919 77.367 101.115 77.7056 100.451C77.9453 99.9814 78.248 99.5248 78.5546 99.4214C79.8957 98.9689 85.7552 99.9827 85.7018 101.283C85.6467 102.619 85.2205 103.206 82.0403 102.747C81.481 102.667 80.6032 102.556 80.6032 102.556L79.8358 103.708L77.9053 102.358Z" fill="#FFBE9D"/>
<path d="M78.9546 107.804C78.9082 107.832 78.4622 106.923 77.5518 106.107C76.6507 105.28 75.7019 104.925 75.7255 104.876C75.7323 104.858 75.9771 104.921 76.346 105.095C76.7143 105.267 77.2004 105.564 77.6638 105.983C78.1255 106.403 78.4686 106.858 78.6766 107.208C78.8855 107.558 78.9726 107.795 78.9546 107.804Z" fill="#EB996E"/>
<path d="M79.9406 103.808C79.9115 103.835 79.5246 103.519 78.997 103.197C78.7346 103.035 78.491 102.899 78.3093 102.818C78.1282 102.732 78.0082 102.709 78.0088 102.684C78.0075 102.663 78.1464 102.645 78.3499 102.707C78.5534 102.765 78.8152 102.889 79.0846 103.055C79.6254 103.385 79.9797 103.772 79.9406 103.808Z" fill="#EB996E"/>
<path d="M80.9242 102.599C80.9203 102.634 80.4102 102.649 79.7955 102.472C79.4902 102.378 79.2326 102.231 79.0733 102.093C78.9123 101.956 78.8454 101.842 78.8611 101.828C78.8918 101.8 79.256 102.146 79.8445 102.313C80.4259 102.481 80.9328 102.543 80.9242 102.599Z" fill="#EB996E"/>
<path d="M75.2293 109.414C75.2104 109.427 75.003 109.163 74.6949 108.719C74.3803 108.286 73.98 107.64 73.3272 107.165C72.6741 106.689 71.9051 106.576 71.3899 106.651C70.8641 106.725 70.5899 106.942 70.5736 106.911C70.5681 106.904 70.6296 106.844 70.7605 106.763C70.8901 106.68 71.0987 106.59 71.3707 106.535C71.9096 106.425 72.731 106.524 73.4241 107.029C74.1141 107.534 74.5029 108.206 74.7931 108.654C75.0763 109.114 75.2478 109.401 75.2293 109.414Z" fill="#EB996E"/>
<path d="M79.7123 122.374C79.7174 122.419 78.6448 122.574 77.3174 122.718C75.9894 122.862 74.9091 122.942 74.9043 122.897C74.8992 122.851 75.9715 122.697 77.2995 122.552C78.6269 122.408 79.7072 122.328 79.7123 122.374Z" fill="#EB996E"/>
<path d="M130.122 15.9501L130.483 16.6106L131.144 16.9715L130.483 17.3331L130.122 17.9933L129.761 17.3331L129.1 16.9715L129.761 16.6106L130.122 15.9501Z" fill="#9571F6"/>
<path d="M137.676 32.3245L138.037 32.9849L138.697 33.3462L138.037 33.7075L137.676 34.368L137.315 33.7075L136.654 33.3462L137.315 32.9849L137.676 32.3245Z" fill="#9571F6"/>
<path d="M16.6088 76.0105L16.9701 76.6713L17.6306 77.0326L16.9701 77.3935L16.6088 78.054L16.2479 77.3935L15.5874 77.0326L16.2479 76.6713L16.6088 76.0105Z" fill="#9571F6"/>
<path d="M120.212 20.0198L121.046 21.5449L122.571 22.3791L121.046 23.2134L120.212 24.7388L119.378 23.2134L117.853 22.3791L119.378 21.5449L120.212 20.0198Z" fill="#9571F6"/>
<path d="M23.3796 65.631L24.212 67.1529L25.7339 67.9852L24.212 68.8175L23.3796 70.3395L22.5473 68.8175L21.0254 67.9852L22.5473 67.1529L23.3796 65.631Z" fill="#9571F6"/>
<path d="M139.73 101.941L140.563 103.463L142.084 104.295L140.563 105.128L139.73 106.65L138.898 105.128L137.376 104.295L138.898 103.463L139.73 101.941Z" fill="#9571F6"/>
<defs>
<linearGradient id="paint0_linear_166_2690" x1="83.2786" y1="92.967" x2="83.2786" y2="117.548" gradientUnits="userSpaceOnUse">
<stop stop-color="#AA80F9"/>
<stop offset="1" stop-color="#6165D7"/>
</linearGradient>
<linearGradient id="paint1_linear_166_2690" x1="60.8859" y1="39.3779" x2="60.8859" y2="92.8899" gradientUnits="userSpaceOnUse">
<stop stop-color="#AA80F9"/>
<stop offset="1" stop-color="#6165D7"/>
</linearGradient>
<linearGradient id="paint2_linear_166_2690" x1="93.6937" y1="71.1581" x2="93.6937" y2="99.3814" gradientUnits="userSpaceOnUse">
<stop stop-color="#AA80F9"/>
<stop offset="1" stop-color="#6165D7"/>
</linearGradient>
<linearGradient id="paint3_linear_166_2690" x1="43.6181" y1="39.9259" x2="43.6181" y2="87.0464" gradientUnits="userSpaceOnUse">
<stop stop-color="#AA80F9"/>
<stop offset="1" stop-color="#6165D7"/>
</linearGradient>
<linearGradient id="paint4_linear_166_2690" x1="107.691" y1="89.2368" x2="107.691" y2="95.8887" gradientUnits="userSpaceOnUse">
<stop stop-color="#AA80F9"/>
<stop offset="1" stop-color="#6165D7"/>
</linearGradient>
<linearGradient id="paint5_linear_166_2690" x1="99.468" y1="86.0428" x2="99.468" y2="90.4637" gradientUnits="userSpaceOnUse">
<stop stop-color="#AA80F9"/>
<stop offset="1" stop-color="#6165D7"/>
</linearGradient>
<linearGradient id="paint6_linear_166_2690" x1="101.322" y1="82.9967" x2="101.322" y2="87.3365" gradientUnits="userSpaceOnUse">
<stop stop-color="#AA80F9"/>
<stop offset="1" stop-color="#6165D7"/>
</linearGradient>
<linearGradient id="paint7_linear_166_2690" x1="98.1658" y1="89.7759" x2="98.1658" y2="93.7504" gradientUnits="userSpaceOnUse">
<stop stop-color="#AA80F9"/>
<stop offset="1" stop-color="#6165D7"/>
</linearGradient>
<linearGradient id="paint8_linear_166_2690" x1="44.6982" y1="57.332" x2="44.6982" y2="73.6634" gradientUnits="userSpaceOnUse">
<stop stop-color="#AA80F9"/>
<stop offset="1" stop-color="#6165D7"/>
</linearGradient>
</defs>
</svg>
