<svg width="521" height="347" viewBox="0 0 521 347" fill="none" xmlns="http://www.w3.org/2000/svg">
<path d="M128.678 98.625H20.1694V159.24H128.678V98.625Z" fill="#FAFAFA"/>
<path d="M128.678 159.24C128.678 159.24 128.668 158.865 128.663 158.149C128.66 157.428 128.655 156.368 128.648 154.981C128.64 152.199 128.629 148.113 128.613 142.863C128.596 132.37 128.571 117.233 128.54 98.625L128.678 98.7631C99.7319 98.7742 61.7017 98.7895 20.178 98.8055H20.1697L20.3503 98.625C20.3461 120.059 20.3419 140.561 20.3385 159.24L20.1697 159.071C51.9229 159.104 79.0281 159.133 98.2023 159.153C107.797 159.172 115.406 159.188 120.625 159.199C123.231 159.208 125.239 159.215 126.602 159.22C127.278 159.224 127.794 159.227 128.147 159.23C128.496 159.233 128.678 159.24 128.678 159.24C128.678 159.24 128.509 159.247 128.168 159.25C127.819 159.252 127.31 159.256 126.643 159.261C125.287 159.265 123.29 159.272 120.699 159.281C115.49 159.292 107.894 159.308 98.3155 159.327C79.1135 159.347 51.9701 159.376 20.1704 159.409H20.0016V159.24C19.9981 140.561 19.9939 120.06 19.9897 98.6257V98.4453H20.1704H20.1787C61.7024 98.4613 99.7326 98.4765 128.679 98.4876H128.818V98.6257C128.787 117.27 128.761 132.436 128.744 142.949C128.729 148.186 128.717 152.262 128.709 155.037C128.702 156.412 128.697 157.464 128.694 158.179C128.688 158.884 128.678 159.24 128.678 159.24Z" fill="#E0E0E0"/>
<path d="M48.771 113.072H33.4307V128.398H48.771V113.072Z" fill="#E0E0E0"/>
<path d="M69.8391 115.226C69.8391 115.325 66.2588 115.406 61.8435 115.406C57.4261 115.406 53.8472 115.325 53.8472 115.226C53.8472 115.126 57.4268 115.045 61.8435 115.045C66.2588 115.045 69.8391 115.126 69.8391 115.226Z" fill="#E0E0E0"/>
<path d="M120.923 120.734C120.923 120.834 105.907 120.915 87.3871 120.915C68.861 120.915 53.8472 120.834 53.8472 120.734C53.8472 120.635 68.861 120.554 87.3871 120.554C105.906 120.554 120.923 120.635 120.923 120.734Z" fill="#E0E0E0"/>
<path d="M98.3553 126.916C98.3553 127.016 88.4882 127.096 76.3191 127.096C64.1457 127.096 54.2808 127.015 54.2808 126.916C54.2808 126.816 64.1457 126.736 76.3191 126.736C88.4882 126.735 98.3553 126.816 98.3553 126.916Z" fill="#E0E0E0"/>
<path d="M112.615 151.206H38.4937C34.5674 151.206 31.3838 148.026 31.3838 144.103C31.3838 140.18 34.5667 137 38.4937 137H112.615C116.541 137 119.725 140.18 119.725 144.103C119.725 148.026 116.541 151.206 112.615 151.206Z" fill="#E0E0E0"/>
<path d="M61.9282 145.1H60.1096L59.7623 145.938H58.8335L60.5799 142.024H61.4753L63.2266 145.938H62.2749L61.9282 145.1ZM61.6427 144.412L61.0217 142.914L60.4007 144.412H61.6427Z" fill="white"/>
<path d="M67.0332 143.445C67.0332 144.317 66.3781 144.859 65.3319 144.859H64.5428V145.938H63.6362V142.024H65.3319C66.3781 142.024 67.0332 142.567 67.0332 143.445ZM66.1155 143.445C66.1155 143.015 65.8355 142.763 65.2812 142.763H64.5428V144.122H65.2812C65.8355 144.121 66.1155 143.87 66.1155 143.445Z" fill="white"/>
<path d="M71.0749 143.445C71.0749 144.317 70.4205 144.859 69.3736 144.859H68.5845V145.938H67.6772V142.024H69.3729C70.4198 142.024 71.0749 142.567 71.0749 143.445ZM70.1565 143.445C70.1565 143.015 69.8766 142.763 69.3229 142.763H68.5845V144.122H69.3229C69.8773 144.121 70.1565 143.87 70.1565 143.445Z" fill="white"/>
<path d="M71.7197 142.024H72.627V145.2H74.5915V145.938H71.7204V142.024H71.7197Z" fill="white"/>
<path d="M76.578 144.552V145.938H75.6708V144.541L74.1543 142.024H75.1171L76.1633 143.763L77.2101 142.024H78.1L76.578 144.552Z" fill="white"/>
<path d="M83.6589 142.024V145.938H82.9143L80.9609 143.562V145.938H80.0654V142.024H80.8157L82.7635 144.401V142.024H83.6589Z" fill="white"/>
<path d="M84.3423 143.981C84.3423 142.818 85.2488 141.957 86.486 141.957C87.717 141.957 88.6291 142.813 88.6291 143.981C88.6291 145.15 87.717 146.006 86.486 146.006C85.2488 146.006 84.3423 145.145 84.3423 143.981ZM87.7114 143.981C87.7114 143.238 87.1856 142.729 86.486 142.729C85.7865 142.729 85.2606 143.237 85.2606 143.981C85.2606 144.725 85.7865 145.234 86.486 145.234C87.1856 145.234 87.7114 144.725 87.7114 143.981Z" fill="white"/>
<path d="M95.1054 142.024L93.8237 145.938H92.8498L91.9877 143.288L91.0979 145.938H90.1295L88.8423 142.024H89.7829L90.6672 144.775L91.5911 142.024H92.4302L93.3257 144.798L94.2385 142.024H95.1054Z" fill="white"/>
<path d="M130.971 227.704H37.1851V280.096H130.971V227.704Z" fill="#FAFAFA"/>
<path d="M130.971 280.095C130.971 280.095 130.962 279.77 130.957 279.15C130.953 278.524 130.948 277.608 130.941 276.41C130.934 274.003 130.922 270.471 130.907 265.934C130.889 256.865 130.864 243.784 130.833 227.704L130.971 227.842C105.951 227.853 73.0812 227.869 37.192 227.885H37.185L37.3656 227.704C37.3615 246.23 37.3573 263.95 37.3538 280.095L37.185 279.926C64.6264 279.96 88.0499 279.988 104.623 280.008C112.916 280.028 119.493 280.044 124.006 280.054C126.258 280.063 127.993 280.07 129.175 280.075C129.758 280.079 130.204 280.082 130.511 280.085C130.813 280.089 130.971 280.095 130.971 280.095C130.971 280.095 130.826 280.102 130.532 280.105C130.228 280.107 129.79 280.111 129.214 280.116C128.04 280.121 126.317 280.128 124.079 280.137C119.575 280.148 113.011 280.163 104.735 280.182C88.1346 280.202 64.6716 280.231 37.185 280.264H37.0162V280.096C37.0127 263.95 37.0086 246.231 37.0044 227.705V227.524H37.185H37.192C73.0812 227.54 105.951 227.556 130.971 227.567H131.11V227.705C131.08 243.821 131.054 256.931 131.037 266.02C131.021 270.544 131.009 274.065 131.002 276.466C130.995 277.653 130.99 278.56 130.987 279.18C130.981 279.79 130.971 280.095 130.971 280.095Z" fill="#E0E0E0"/>
<path d="M61.9056 240.191H48.6465V253.438H61.9056V240.191Z" fill="#E0E0E0"/>
<path d="M80.1152 242.053C80.1152 242.153 77.0204 242.233 73.2039 242.233C69.386 242.233 66.292 242.152 66.292 242.053C66.292 241.953 69.386 241.872 73.2039 241.872C77.0204 241.872 80.1152 241.953 80.1152 242.053Z" fill="#E0E0E0"/>
<path d="M124.268 246.814C124.268 246.914 111.289 246.995 95.2821 246.995C79.2693 246.995 66.293 246.914 66.293 246.814C66.293 246.714 79.2693 246.634 95.2821 246.634C111.289 246.634 124.268 246.715 124.268 246.814Z" fill="#E0E0E0"/>
<path d="M104.762 252.157C104.762 252.257 96.2339 252.337 85.7159 252.337C75.1945 252.337 66.6675 252.256 66.6675 252.157C66.6675 252.057 75.1938 251.976 85.7159 251.976C96.2339 251.976 104.762 252.057 104.762 252.157Z" fill="#E0E0E0"/>
<path d="M117.087 273.151H53.023C49.6288 273.151 46.8779 270.403 46.8779 267.012C46.8779 263.621 49.6295 260.873 53.023 260.873H117.088C120.481 260.873 123.233 263.622 123.233 267.012C123.233 270.403 120.481 273.151 117.087 273.151Z" fill="#E0E0E0"/>
<path d="M73.2756 267.874H71.705L71.4049 268.599H70.6025L72.1107 265.219H72.8838L74.3968 268.599H73.575L73.2756 267.874ZM73.029 267.28L72.4927 265.986L71.9557 267.28H73.029Z" fill="white"/>
<path d="M77.6865 266.445C77.6865 267.198 77.121 267.667 76.2173 267.667H75.5358V268.599H74.7529V265.218H76.2173C77.121 265.218 77.6865 265.687 77.6865 266.445ZM76.8946 266.445C76.8946 266.073 76.6528 265.855 76.1742 265.855H75.5358V267.029H76.1742C76.6528 267.029 76.8946 266.812 76.8946 266.445Z" fill="white"/>
<path d="M81.1811 266.445C81.1811 267.198 80.6157 267.667 79.7119 267.667H79.0304V268.599H78.2476V265.218H79.7119C80.615 265.218 81.1811 265.687 81.1811 266.445ZM80.3878 266.445C80.3878 266.073 80.1461 265.855 79.6675 265.855H79.0291V267.029H79.6675C80.1461 267.029 80.3878 266.812 80.3878 266.445Z" fill="white"/>
<path d="M81.7402 265.218H82.5231V267.961H84.2195V268.598H81.7402V265.218Z" fill="white"/>
<path d="M85.938 267.401V268.599H85.1552V267.392L83.8457 265.219H84.6765L85.5803 266.721L86.4841 265.219H87.2523L85.938 267.401Z" fill="white"/>
<path d="M92.0565 265.218V268.599H91.4139L89.7273 266.547V268.599H88.9541V265.218H89.6015L91.2833 267.271V265.218H92.0565Z" fill="white"/>
<path d="M92.6504 266.908C92.6504 265.904 93.4333 265.16 94.5017 265.16C95.5645 265.16 96.3523 265.899 96.3523 266.908C96.3523 267.918 95.5645 268.656 94.5017 268.656C93.4333 268.656 92.6504 267.912 92.6504 266.908ZM95.5604 266.908C95.5604 266.266 95.106 265.826 94.5024 265.826C93.898 265.826 93.4437 266.266 93.4437 266.908C93.4437 267.551 93.898 267.99 94.5024 267.99C95.106 267.99 95.5604 267.551 95.5604 266.908Z" fill="white"/>
<path d="M101.949 265.218L100.843 268.599H100.002L99.2576 266.31L98.4886 268.599H97.6522L96.54 265.218H97.3521L98.1162 267.594L98.9137 265.218H99.6389L100.412 267.613L101.2 265.218H101.949Z" fill="white"/>
<path d="M457.716 251.342H363.93V303.733H457.716V251.342Z" fill="#FAFAFA"/>
<path d="M457.716 303.733C457.716 303.733 457.706 303.408 457.701 302.788C457.698 302.162 457.693 301.246 457.686 300.048C457.678 297.641 457.667 294.109 457.651 289.572C457.634 280.502 457.609 267.422 457.578 251.341L457.716 251.479C432.696 251.49 399.826 251.506 363.937 251.522H363.93L364.11 251.341C364.106 269.867 364.102 287.587 364.098 303.732L363.93 303.563C391.371 303.597 414.795 303.625 431.368 303.645C439.661 303.665 446.238 303.681 450.75 303.691C453.003 303.7 454.738 303.707 455.92 303.712C456.503 303.716 456.948 303.719 457.256 303.722C457.558 303.726 457.716 303.733 457.716 303.733C457.716 303.733 457.571 303.74 457.276 303.743C456.973 303.745 456.534 303.749 455.959 303.753C454.785 303.758 453.062 303.765 450.824 303.774C446.32 303.785 439.757 303.801 431.48 303.82C414.879 303.84 391.416 303.869 363.93 303.902H363.761V303.733C363.757 287.588 363.753 269.869 363.749 251.343V251.162H363.93H363.937C399.826 251.178 432.696 251.193 457.716 251.204H457.855V251.343C457.824 267.459 457.799 280.568 457.781 289.658C457.766 294.182 457.754 297.703 457.746 300.103C457.74 301.29 457.735 302.197 457.731 302.817C457.726 303.427 457.716 303.733 457.716 303.733Z" fill="#E0E0E0"/>
<path d="M388.65 263.829H375.391V277.075H388.65V263.829Z" fill="#E0E0E0"/>
<path d="M406.86 265.69C406.86 265.79 403.766 265.871 399.949 265.871C396.131 265.871 393.037 265.79 393.037 265.69C393.037 265.591 396.131 265.51 399.949 265.51C403.766 265.509 406.86 265.59 406.86 265.69Z" fill="#E0E0E0"/>
<path d="M451.013 270.452C451.013 270.552 438.034 270.632 422.027 270.632C406.014 270.632 393.038 270.551 393.038 270.452C393.038 270.352 406.014 270.271 422.027 270.271C438.034 270.271 451.013 270.352 451.013 270.452Z" fill="#E0E0E0"/>
<path d="M431.507 275.794C431.507 275.894 422.979 275.975 412.461 275.975C401.94 275.975 393.413 275.894 393.413 275.794C393.413 275.694 401.939 275.614 412.461 275.614C422.978 275.614 431.507 275.694 431.507 275.794Z" fill="#E0E0E0"/>
<path d="M443.833 296.789H379.768C376.374 296.789 373.623 294.04 373.623 290.65C373.623 287.259 376.373 284.511 379.768 284.511H443.833C447.227 284.511 449.978 287.259 449.978 290.65C449.978 294.04 447.226 296.789 443.833 296.789Z" fill="#E0E0E0"/>
<path d="M400.02 291.511H398.449L398.149 292.236H397.347L398.855 288.855H399.628L401.141 292.236H400.32L400.02 291.511ZM399.774 290.918L399.238 289.624L398.701 290.918H399.774Z" fill="white"/>
<path d="M404.432 290.082C404.432 290.836 403.867 291.304 402.963 291.304H402.281V292.236H401.499V288.856H402.963C403.866 288.855 404.432 289.324 404.432 290.082ZM403.639 290.082C403.639 289.71 403.397 289.493 402.919 289.493H402.281V290.667H402.919C403.398 290.667 403.639 290.449 403.639 290.082Z" fill="white"/>
<path d="M407.926 290.082C407.926 290.836 407.36 291.304 406.457 291.304H405.775V292.236H404.992V288.856H406.457C407.36 288.855 407.926 289.324 407.926 290.082ZM407.133 290.082C407.133 289.71 406.891 289.493 406.413 289.493H405.775V290.667H406.413C406.891 290.667 407.133 290.449 407.133 290.082Z" fill="white"/>
<path d="M408.485 288.855H409.268V291.598H410.964V292.236H408.485V288.855Z" fill="white"/>
<path d="M412.683 291.039V292.236H411.9V291.03L410.59 288.856H411.421L412.325 290.358L413.229 288.856H413.998L412.683 291.039Z" fill="white"/>
<path d="M418.801 288.855V292.236H418.159L416.471 290.184V292.236H415.698V288.855H416.346L418.028 290.907V288.855H418.801Z" fill="white"/>
<path d="M419.396 290.546C419.396 289.542 420.179 288.798 421.247 288.798C422.31 288.798 423.098 289.537 423.098 290.546C423.098 291.555 422.31 292.294 421.247 292.294C420.179 292.293 419.396 291.55 419.396 290.546ZM422.305 290.546C422.305 289.903 421.851 289.464 421.247 289.464C420.643 289.464 420.189 289.903 420.189 290.546C420.189 291.189 420.643 291.628 421.247 291.628C421.851 291.627 422.305 291.188 422.305 290.546Z" fill="white"/>
<path d="M428.695 288.855L427.587 292.236H426.747L426.002 289.947L425.234 292.236H424.398L423.287 288.855H424.099L424.863 291.232L425.66 288.855H426.385L427.158 291.25L427.946 288.855H428.695Z" fill="white"/>
<path d="M491.497 123.416H382.99V184.031H491.497V123.416Z" fill="#FAFAFA"/>
<path d="M491.498 184.031C491.498 184.031 491.488 183.657 491.484 182.941C491.48 182.22 491.475 181.16 491.468 179.773C491.46 176.991 491.448 172.905 491.433 167.654C491.416 157.162 491.391 142.025 491.36 123.417L491.498 123.555C462.552 123.566 424.522 123.581 382.998 123.597H382.99L383.17 123.417C383.166 144.851 383.162 165.352 383.159 184.031L382.99 183.863C414.743 183.896 441.848 183.925 461.022 183.945C470.617 183.964 478.227 183.98 483.444 183.991C486.051 184 488.058 184.006 489.422 184.011C490.098 184.015 490.614 184.019 490.967 184.022C491.315 184.025 491.498 184.031 491.498 184.031C491.498 184.031 491.329 184.038 490.988 184.042C490.639 184.044 490.13 184.047 489.463 184.052C488.107 184.057 486.11 184.064 483.519 184.073C478.31 184.083 470.714 184.099 461.136 184.119C441.934 184.139 414.79 184.167 382.991 184.201H382.822V184.032C382.819 165.353 382.815 144.852 382.811 123.417V123.237H382.992H383C424.523 123.253 462.554 123.268 491.5 123.279H491.639V123.417C491.608 142.062 491.583 157.228 491.565 167.74C491.55 172.977 491.538 177.053 491.531 179.829C491.524 181.204 491.519 182.256 491.515 182.971C491.508 183.676 491.498 184.031 491.498 184.031Z" fill="#E0E0E0"/>
<path d="M411.591 137.864H396.25V153.189H411.591V137.864Z" fill="#E0E0E0"/>
<path d="M432.659 140.017C432.659 140.117 429.079 140.198 424.664 140.198C420.246 140.198 416.667 140.117 416.667 140.017C416.667 139.917 420.247 139.836 424.664 139.836C429.079 139.836 432.659 139.917 432.659 140.017Z" fill="#E0E0E0"/>
<path d="M483.743 145.526C483.743 145.626 468.726 145.707 450.206 145.707C431.68 145.707 416.667 145.625 416.667 145.526C416.667 145.426 431.68 145.346 450.206 145.346C468.726 145.346 483.743 145.426 483.743 145.526Z" fill="#E0E0E0"/>
<path d="M461.175 151.707C461.175 151.807 451.308 151.887 439.139 151.887C426.966 151.887 417.101 151.806 417.101 151.707C417.101 151.607 426.966 151.527 439.139 151.527C451.307 151.527 461.175 151.608 461.175 151.707Z" fill="#E0E0E0"/>
<path d="M475.434 175.997H401.313C397.387 175.997 394.203 172.817 394.203 168.894C394.203 164.971 397.386 161.791 401.313 161.791H475.434C479.361 161.791 482.544 164.971 482.544 168.894C482.544 172.817 479.361 175.997 475.434 175.997Z" fill="#E0E0E0"/>
<path d="M424.748 169.891H422.929L422.582 170.73H421.653L423.4 166.816H424.295L426.046 170.73H425.095L424.748 169.891ZM424.463 169.204L423.842 167.705L423.22 169.204H424.463Z" fill="white"/>
<path d="M429.853 168.236C429.853 169.108 429.199 169.65 428.152 169.65H427.363V170.73H426.456V166.815H428.151C429.198 166.816 429.853 167.359 429.853 168.236ZM428.935 168.236C428.935 167.806 428.655 167.554 428.101 167.554H427.363V168.913H428.101C428.655 168.913 428.935 168.661 428.935 168.236Z" fill="white"/>
<path d="M433.895 168.236C433.895 169.108 433.24 169.65 432.193 169.65H431.404V170.73H430.497V166.815H432.193C433.24 166.816 433.895 167.359 433.895 168.236ZM432.977 168.236C432.977 167.806 432.697 167.554 432.143 167.554H431.405V168.913H432.143C432.696 168.913 432.977 168.661 432.977 168.236Z" fill="white"/>
<path d="M434.54 166.816H435.447V169.992H437.411V170.73H434.54V166.816Z" fill="white"/>
<path d="M439.398 169.344V170.73H438.491V169.333L436.974 166.816H437.936L438.983 168.555L440.03 166.816H440.92L439.398 169.344Z" fill="white"/>
<path d="M446.479 166.816V170.73H445.734L443.781 168.354V170.73H442.886V166.816H443.636L445.584 169.192V166.816H446.479Z" fill="white"/>
<path d="M447.163 168.773C447.163 167.61 448.07 166.749 449.306 166.749C450.538 166.749 451.45 167.604 451.45 168.773C451.45 169.942 450.538 170.798 449.306 170.798C448.069 170.797 447.163 169.936 447.163 168.773ZM450.532 168.773C450.532 168.03 450.006 167.52 449.305 167.52C448.606 167.52 448.08 168.029 448.08 168.773C448.08 169.517 448.606 170.026 449.305 170.026C450.006 170.025 450.532 169.516 450.532 168.773Z" fill="white"/>
<path d="M457.926 166.816L456.644 170.73H455.671L454.809 168.08L453.919 170.73H452.95L451.663 166.816H452.604L453.487 169.567L454.411 166.816H455.25L456.146 169.589L457.059 166.816H457.926Z" fill="white"/>
<path d="M415.947 30.1619H94.4717V323.839H415.947V30.1619Z" fill="white"/>
<path d="M415.947 30.1619H94.4717V49.7001H415.947V30.1619Z" fill="#E0E0E0"/>
<path d="M372.678 304.987C372.678 305.087 318.877 305.168 252.525 305.168C186.151 305.168 132.362 305.087 132.362 304.987C132.362 304.887 186.151 304.807 252.525 304.807C318.877 304.806 372.678 304.887 372.678 304.987Z" fill="#263238"/>
<path d="M232.621 246.069H227.861V271.106H232.621V246.069Z" fill="#E0E0E0"/>
<path d="M232.621 271.106C232.614 271.099 232.605 270.922 232.598 270.59C232.591 270.23 232.584 269.752 232.573 269.149C232.561 267.872 232.543 266.076 232.522 263.852C232.502 259.353 232.474 253.129 232.443 246.069L232.621 246.248C231.092 246.249 229.492 246.249 227.863 246.25C228.221 245.888 227.962 246.154 228.042 246.076V246.083V246.099V246.129V246.191V246.314V246.561V247.051C228.042 247.378 228.042 247.703 228.042 248.027C228.041 248.675 228.041 249.317 228.041 249.953C228.039 251.225 228.038 252.47 228.036 253.686C228.03 256.116 228.025 258.423 228.02 260.569C227.995 264.835 227.975 268.453 227.959 271.106L227.862 271.008C229.339 271.031 230.512 271.05 231.35 271.063C231.737 271.073 232.047 271.081 232.286 271.087C232.5 271.094 232.615 271.1 232.621 271.106C232.628 271.112 232.526 271.119 232.322 271.126C232.087 271.132 231.785 271.14 231.407 271.149C230.555 271.162 229.363 271.18 227.862 271.203L227.765 271.205L227.764 271.106C227.749 268.453 227.728 264.835 227.704 260.569C227.698 258.423 227.693 256.116 227.687 253.686C227.686 252.47 227.684 251.224 227.683 249.953C227.683 249.317 227.682 248.675 227.681 248.027C227.681 247.703 227.681 247.378 227.681 247.051V246.561V246.314V246.191V246.129V246.099V246.083V246.076C227.763 245.993 227.499 246.249 227.863 245.889C229.493 245.89 231.092 245.89 232.622 245.891H232.801L232.8 246.069C232.769 253.18 232.741 259.448 232.721 263.979C232.7 266.186 232.682 267.968 232.67 269.235C232.66 269.82 232.652 270.286 232.646 270.636C232.637 270.953 232.629 271.115 232.621 271.106Z" fill="#263238"/>
<path d="M241.257 242.277H219.005C215.706 242.277 213.032 239.606 213.032 236.31H247.229C247.229 239.606 244.556 242.277 241.257 242.277Z" fill="#263238"/>
<path d="M260.884 237.481H222.088V229.191H260.884C263.176 229.191 265.033 231.047 265.033 233.336C265.033 235.625 263.176 237.481 260.884 237.481Z" fill="#2D79B7"/>
<path d="M191.943 169.664C189.726 169.963 188.152 171.974 188.397 174.196L193.994 225.038C194.79 232.124 200.787 237.481 207.925 237.481H222.723C225.017 237.481 226.877 235.623 226.877 233.331C226.877 231.039 225.017 229.181 222.723 229.181H210.161C206.587 229.181 203.566 226.538 203.094 223L196.584 173.212C196.287 170.949 194.206 169.358 191.943 169.664Z" fill="#2D79B7"/>
<path d="M239.081 229.598L196.91 230.188L192.793 169.623L228.089 169.399C231.611 169.399 234.465 172.279 234.465 175.831L239.081 229.598Z" fill="#2D79B7"/>
<g opacity="0.3">
<path d="M191.943 169.664C189.726 169.963 188.152 171.974 188.397 174.196L193.994 225.038C194.79 232.124 200.787 237.481 207.925 237.481H222.723C225.017 237.481 226.877 235.623 226.877 233.331C226.877 231.039 225.017 229.181 222.723 229.181H209.258C205.685 229.181 203.176 226.653 202.704 223.114L196.584 173.212C196.287 170.949 194.206 169.358 191.943 169.664Z" fill="black"/>
</g>
<path d="M234.851 242.277H225.631V247.067H234.851V242.277Z" fill="#263238"/>
<path d="M231.967 291.638H228.385C226.864 291.638 225.63 290.406 225.63 288.886V272.452C225.63 270.932 226.863 269.699 228.385 269.699H231.967C233.488 269.699 234.722 270.932 234.722 272.452V288.886C234.722 290.406 233.489 291.638 231.967 291.638Z" fill="#E0E0E0"/>
<path d="M231.967 291.638C231.967 291.618 232.17 291.625 232.538 291.54C232.898 291.449 233.443 291.243 233.926 290.716C234.163 290.455 234.376 290.116 234.506 289.708C234.647 289.299 234.629 288.832 234.622 288.313C234.614 287.277 234.605 286.105 234.595 284.813C234.583 282.21 234.57 279.126 234.556 275.705C234.554 274.848 234.551 273.969 234.549 273.072C234.545 272.616 234.574 272.176 234.452 271.768C234.344 271.353 234.114 270.971 233.812 270.656C233.507 270.345 233.118 270.108 232.693 269.983C232.271 269.851 231.81 269.882 231.319 269.879C230.354 269.879 229.376 269.88 228.386 269.88C227.455 269.876 226.566 270.41 226.134 271.205C225.917 271.6 225.805 272.044 225.809 272.493C225.808 272.968 225.808 273.438 225.808 273.904C225.804 275.769 225.801 277.569 225.797 279.284C225.783 282.706 225.77 285.789 225.758 288.394C225.726 289.053 225.785 289.629 226.06 290.135C226.326 290.629 226.726 291.008 227.165 291.239C227.607 291.474 228.07 291.559 228.505 291.552C228.943 291.558 229.346 291.563 229.713 291.568C230.413 291.583 230.97 291.594 231.385 291.602C231.767 291.614 231.967 291.626 231.967 291.638C231.967 291.651 231.767 291.663 231.385 291.674C230.97 291.683 230.413 291.694 229.713 291.708C229.347 291.713 228.944 291.718 228.505 291.724C228.058 291.742 227.549 291.663 227.072 291.418C226.595 291.178 226.154 290.777 225.857 290.244C225.712 289.977 225.606 289.677 225.551 289.361C225.49 289.039 225.508 288.713 225.502 288.394C225.491 285.79 225.478 282.706 225.463 279.284C225.46 277.569 225.456 275.77 225.453 273.904C225.452 273.438 225.451 272.968 225.451 272.493C225.446 271.994 225.572 271.479 225.819 271.03C226.31 270.124 227.326 269.514 228.386 269.518C229.376 269.518 230.354 269.519 231.319 269.519C231.787 269.523 232.299 269.489 232.793 269.64C233.278 269.782 233.719 270.053 234.066 270.408C234.408 270.767 234.668 271.203 234.789 271.675C234.927 272.153 234.89 272.636 234.894 273.072C234.892 273.969 234.89 274.848 234.888 275.705C234.873 279.125 234.86 282.209 234.849 284.813C234.839 286.105 234.83 287.277 234.822 288.313C234.82 288.819 234.829 289.329 234.668 289.76C234.52 290.191 234.285 290.544 234.027 290.812C233.503 291.35 232.927 291.54 232.552 291.611C232.171 291.675 231.967 291.638 231.967 291.638Z" fill="#263238"/>
<path d="M256.716 290.281H202.597C201.01 290.281 199.699 290.809 198.702 291.849C196.695 293.944 196.82 297.38 196.826 297.525L199.29 297.422C199.263 296.718 199.427 294.647 200.488 293.547C201.008 293.007 201.698 292.744 202.597 292.744H216.796V299.027H219.261V292.744H256.716C258.301 292.744 259.59 294.032 259.59 295.616V297.472H262.055V295.616C262.055 292.674 259.66 290.281 256.716 290.281Z" fill="#E0E0E0"/>
<path d="M256.716 290.281C256.716 290.281 256.945 290.264 257.39 290.305C257.833 290.347 258.499 290.485 259.28 290.885C260.044 291.3 260.926 292.013 261.526 293.159C261.824 293.726 262.041 294.398 262.109 295.135C262.162 295.878 262.13 296.646 262.144 297.472L262.145 297.559H262.055C261.289 297.562 260.46 297.566 259.591 297.568H259.499L259.493 297.471C259.425 296.267 259.771 294.797 258.765 293.767C258.313 293.266 257.653 292.924 256.939 292.87C256.215 292.849 255.437 292.868 254.657 292.865C251.523 292.871 248.08 292.878 244.372 292.886C236.951 292.894 228.468 292.905 219.261 292.915L219.434 292.742C219.435 294.72 219.437 296.856 219.438 299.025V299.201H219.26C218.491 299.202 217.645 299.202 216.796 299.203H216.618V299.025C216.617 297.038 216.616 294.903 216.616 292.742L216.796 292.922C214.224 292.922 211.495 292.923 208.733 292.923C206.588 292.925 204.463 292.928 202.363 292.93C201.861 292.954 201.373 293.09 200.975 293.366C200.572 293.639 200.277 294.049 200.06 294.495C199.634 295.394 199.46 296.431 199.468 297.414L199.469 297.591L199.297 297.598C198.47 297.633 197.649 297.667 196.834 297.701L196.651 297.709L196.649 297.531C196.633 296.353 196.8 295.198 197.178 294.103C197.551 293.014 198.179 291.991 199.08 291.266C199.975 290.534 201.118 290.165 202.233 290.118C203.343 290.098 204.411 290.114 205.486 290.11C209.766 290.115 213.87 290.119 217.759 290.123C225.535 290.138 232.454 290.152 238.23 290.163C243.991 290.186 248.609 290.204 251.801 290.216C253.38 290.229 254.605 290.24 255.45 290.247C255.857 290.254 256.169 290.259 256.394 290.263C256.608 290.27 256.716 290.281 256.716 290.281C256.716 290.281 256.608 290.293 256.395 290.297C256.169 290.301 255.857 290.306 255.451 290.313C254.606 290.32 253.38 290.331 251.802 290.344C248.61 290.356 243.992 290.374 238.23 290.397C232.455 290.408 225.535 290.422 217.76 290.437C213.87 290.441 209.767 290.446 205.487 290.45C204.42 290.456 203.326 290.442 202.252 290.463C201.191 290.51 200.133 290.857 199.298 291.539C198.461 292.217 197.868 293.175 197.51 294.221C197.149 295.264 196.987 296.402 197.004 297.518L196.819 297.348C197.635 297.314 198.455 297.279 199.282 297.244L199.112 297.428C199.105 296.373 199.278 295.321 199.737 294.339C199.972 293.857 200.303 293.39 200.77 293.071C201.234 292.749 201.796 292.597 202.342 292.571C204.449 292.568 206.582 292.565 208.734 292.563C211.496 292.563 214.225 292.563 216.796 292.563H216.976V292.743C216.976 294.903 216.975 297.038 216.974 299.026L216.796 298.848C217.647 298.849 218.492 298.849 219.261 298.85L219.085 299.026C219.086 296.856 219.087 294.721 219.088 292.743V292.57H219.261C228.468 292.581 236.951 292.591 244.372 292.599C248.08 292.607 251.523 292.614 254.657 292.621C255.445 292.629 256.196 292.613 256.958 292.639C257.732 292.701 258.444 293.076 258.929 293.62C259.416 294.163 259.686 294.866 259.691 295.551C259.689 296.212 259.689 296.852 259.687 297.471L259.59 297.373C260.459 297.377 261.288 297.38 262.055 297.382L261.966 297.471C261.959 296.651 261.997 295.863 261.953 295.148C261.893 294.43 261.688 293.776 261.404 293.219C260.832 292.096 259.978 291.385 259.235 290.965C258.474 290.559 257.821 290.406 257.383 290.35C256.945 290.296 256.715 290.295 256.716 290.281Z" fill="#263238"/>
<path d="M222.777 301.956C222.777 304.617 220.618 306.774 217.954 306.774C215.291 306.774 213.131 304.617 213.131 301.956C213.131 299.295 215.29 297.137 217.954 297.137C220.617 297.137 222.777 299.294 222.777 301.956Z" fill="#263238"/>
<path d="M202.883 300.777C202.883 303.438 200.724 305.595 198.06 305.595C195.397 305.595 193.237 303.438 193.237 300.777C193.237 298.116 195.396 295.958 198.06 295.958C200.723 295.959 202.883 298.116 202.883 300.777Z" fill="#263238"/>
<path d="M265.089 300.952C265.089 303.613 262.93 305.771 260.266 305.771C257.602 305.771 255.443 303.614 255.443 300.952C255.443 298.292 257.602 296.134 260.266 296.134C262.929 296.135 265.089 298.292 265.089 300.952Z" fill="#263238"/>
<path d="M261.925 229.191C261.925 229.291 250.034 229.416 235.369 229.47C220.698 229.525 208.81 229.488 208.809 229.388C208.808 229.288 220.697 229.163 235.368 229.109C250.033 229.055 261.925 229.091 261.925 229.191Z" fill="#263238"/>
<path d="M202.761 222.301C202.661 222.314 201.198 211.334 199.492 197.78C197.786 184.222 196.484 173.224 196.583 173.212C196.682 173.199 198.145 184.177 199.851 197.735C201.557 211.289 202.859 222.289 202.761 222.301Z" fill="#263238"/>
<path d="M196.142 169.548C196.139 169.537 196.266 169.499 196.514 169.448C196.763 169.407 197.133 169.349 197.613 169.337C198.565 169.314 199.984 169.362 201.617 169.952C202.423 170.251 203.283 170.761 203.951 171.539C204.637 172.298 205.206 173.229 205.742 174.222C206.784 176.225 207.939 178.404 209.217 180.666C211.771 185.189 214.169 189.241 215.795 192.237C216.616 193.73 217.25 194.955 217.679 195.805C217.872 196.204 218.03 196.53 218.157 196.793C218.263 197.02 218.314 197.142 218.302 197.148C218.291 197.154 218.219 197.043 218.092 196.826C217.949 196.573 217.771 196.256 217.554 195.87C217.061 194.997 216.389 193.809 215.571 192.36C213.889 189.4 211.459 185.372 208.9 180.842C207.622 178.58 206.468 176.379 205.447 174.379C204.925 173.39 204.377 172.476 203.726 171.739C203.09 170.981 202.304 170.501 201.524 170.19C199.952 169.587 198.553 169.496 197.613 169.477C196.666 169.466 196.148 169.579 196.142 169.548Z" fill="#263238"/>
<path d="M188.681 172.179C188.767 172.229 185.574 177.794 181.55 184.606C177.524 191.42 174.192 196.902 174.106 196.851C174.02 196.8 177.212 191.237 181.238 184.423C185.262 177.61 188.595 172.127 188.681 172.179Z" fill="#263238"/>
<path d="M226.359 196.849H168.542V213.881H226.359V196.849Z" fill="#FAFAFA"/>
<path d="M184.133 202.138L181.303 208.668H179.809L176.989 202.138H178.623L180.611 206.803L182.629 202.138H184.133Z" fill="#263238"/>
<path d="M188.762 207.269H185.727L185.148 208.669H183.598L186.511 202.139H188.005L190.928 208.669H189.34L188.762 207.269ZM188.285 206.121L187.249 203.622L186.212 206.121H188.285Z" fill="#263238"/>
<path d="M191.103 205.403C191.103 203.434 192.616 202.026 194.651 202.026C195.781 202.026 196.724 202.437 197.341 203.183L196.37 204.078C195.931 203.574 195.38 203.314 194.726 203.314C193.503 203.314 192.635 204.171 192.635 205.403C192.635 206.635 193.503 207.493 194.726 207.493C195.38 207.493 195.931 207.232 196.37 206.719L197.341 207.614C196.725 208.371 195.782 208.781 194.642 208.781C192.616 208.78 191.103 207.372 191.103 205.403Z" fill="#263238"/>
<path d="M202.531 207.269H199.496L198.917 208.669H197.367L200.28 202.139H201.774L204.697 208.669H203.11L202.531 207.269ZM202.054 206.121L201.018 203.622L199.981 206.121H202.054Z" fill="#263238"/>
<path d="M211.371 202.138V208.668H210.129L206.871 204.704V208.668H205.376V202.138H206.628L209.877 206.103V202.138H211.371Z" fill="#263238"/>
<path d="M214.274 203.369H212.182V202.138H217.878V203.369H215.787V208.668H214.274V203.369Z" fill="#263238"/>
<path d="M224.49 212.33C224.487 212.326 224.483 212.243 224.479 212.083C224.476 211.909 224.473 211.676 224.468 211.374C224.462 210.739 224.453 209.825 224.442 208.643C224.428 206.258 224.408 202.795 224.382 198.419L224.49 198.527C212.161 198.543 192.311 198.569 169.956 198.599C170.036 198.519 169.773 198.78 170.134 198.419V198.422V198.429V198.443V198.471V198.527V198.639V198.862V199.308V200.199C170.134 200.792 170.134 201.382 170.134 201.971C170.134 203.148 170.133 204.317 170.133 205.478C170.132 207.8 170.131 210.086 170.13 212.33L169.953 212.153C185.49 212.185 199.097 212.213 208.837 212.234C213.705 212.255 217.606 212.272 220.306 212.284C221.642 212.294 222.681 212.302 223.402 212.308C223.745 212.313 224.012 212.316 224.208 212.319C224.392 212.322 224.49 212.33 224.49 212.33C224.494 212.333 224.407 212.338 224.231 212.342C224.041 212.345 223.78 212.348 223.446 212.353C222.734 212.358 221.709 212.366 220.389 212.376C217.698 212.388 213.811 212.406 208.96 212.427C199.189 212.447 185.538 212.475 169.953 212.508H169.775V212.33C169.775 210.086 169.773 207.8 169.773 205.478C169.773 204.318 169.772 203.148 169.772 201.971C169.772 201.382 169.772 200.792 169.772 200.199V199.308V198.862V198.639V198.527V198.471V198.443V198.429V198.422V198.419C170.134 198.057 169.874 198.319 169.956 198.238C192.31 198.267 212.161 198.293 224.49 198.31H224.6L224.599 198.418C224.574 202.822 224.553 206.307 224.539 208.707C224.528 209.878 224.519 210.784 224.512 211.414C224.508 211.707 224.504 211.934 224.501 212.103C224.498 212.257 224.494 212.333 224.49 212.33Z" fill="#263238"/>
<path d="M230.14 112.344H234.541L230.187 115.861H227.037L230.14 112.344Z" fill="#263238"/>
<path d="M180.775 145.852V154.988H175.17V146.765C175.17 144.466 174.167 143.494 172.545 143.494C170.746 143.494 169.359 144.614 169.359 147.266V154.988H163.755V133.12H169.359V140.488C170.599 139.339 172.28 138.749 174.168 138.749C177.914 138.749 180.775 140.901 180.775 145.852Z" fill="#263238"/>
<path d="M183.669 134.27C183.669 132.59 185.026 131.293 187.091 131.293C189.156 131.293 190.513 132.501 190.513 134.181C190.513 135.95 189.155 137.246 187.091 137.246C185.026 137.246 183.669 135.949 183.669 134.27ZM184.289 139.014H189.893V154.988H184.289V139.014Z" fill="#263238"/>
<path d="M204.23 138.749V143.789C203.729 143.73 203.374 143.701 202.962 143.701C200.69 143.701 199.127 144.85 199.127 147.65V154.988H193.522V139.015H198.861V140.931C200.012 139.486 201.87 138.749 204.23 138.749Z" fill="#263238"/>
<path d="M205.914 134.27C205.914 132.59 207.27 131.293 209.335 131.293C211.401 131.293 212.757 132.501 212.757 134.181C212.757 135.95 211.401 137.246 209.335 137.246C207.27 137.246 205.914 135.949 205.914 134.27ZM206.533 139.014H212.138V154.988H206.533V139.014Z" fill="#263238"/>
<path d="M232.788 145.852V154.988H227.184V146.765C227.184 144.466 226.18 143.494 224.558 143.494C222.759 143.494 221.373 144.614 221.373 147.266V154.988H215.768V139.014H221.107V140.753C222.376 139.427 224.176 138.749 226.181 138.749C229.926 138.749 232.788 140.901 232.788 145.852Z" fill="#263238"/>
<path d="M253.734 139.014V152.07C253.734 158.112 250.312 160.971 244.353 160.971C241.285 160.971 238.365 160.263 236.418 158.878L238.454 154.958C239.781 156.02 241.964 156.668 243.852 156.668C246.861 156.668 248.13 155.312 248.13 152.807V152.277C247.038 153.544 245.416 154.163 243.38 154.163C239.132 154.163 235.533 151.157 235.533 146.442C235.533 141.756 239.132 138.75 243.38 138.75C245.593 138.75 247.304 139.457 248.395 140.96V139.015L253.734 139.014ZM248.189 146.441C248.189 144.496 246.713 143.199 244.708 143.199C242.702 143.199 241.198 144.496 241.198 146.441C241.198 148.386 242.702 149.712 244.708 149.712C246.713 149.712 248.189 148.386 248.189 146.441Z" fill="#263238"/>
<path d="M256.333 151.922C256.333 149.918 257.808 148.621 259.695 148.621C261.613 148.621 263.058 149.918 263.058 151.922C263.058 153.867 261.613 155.253 259.695 155.253C257.808 155.253 256.333 153.867 256.333 151.922Z" fill="#2D79B7"/>
<path d="M240.149 117.157V121.113C239.755 121.068 239.477 121.044 239.153 121.044C237.369 121.044 236.142 121.946 236.142 124.145V129.906H231.741V117.366H235.934V118.87C236.837 117.736 238.296 117.157 240.149 117.157Z" fill="#263238"/>
<path d="M254.601 124.746H245.476C245.847 126.019 246.935 126.76 248.557 126.76C249.784 126.76 250.595 126.413 251.452 125.672L253.768 128.078C252.563 129.421 250.803 130.115 248.418 130.115C243.947 130.115 241.053 127.361 241.053 123.612C241.053 119.841 243.994 117.157 247.954 117.157C251.66 117.157 254.671 119.517 254.671 123.659C254.67 123.983 254.624 124.399 254.601 124.746ZM245.406 122.433H250.548C250.316 121.114 249.344 120.281 247.977 120.281C246.611 120.281 245.661 121.113 245.406 122.433Z" fill="#263238"/>
<path d="M212.773 117.366L208.303 129.906H204.042L201.68 123.08L199.225 129.906H194.963L190.493 117.366H194.661L197.232 124.955L199.896 117.366H203.648L206.241 125.025L208.905 117.366H212.773Z" fill="#263238"/>
<path d="M226.531 124.746H217.405C217.776 126.019 218.865 126.76 220.486 126.76C221.714 126.76 222.524 126.413 223.382 125.672L225.698 128.078C224.493 129.421 222.733 130.115 220.347 130.115C215.877 130.115 212.982 127.361 212.982 123.612C212.982 119.841 215.924 117.157 219.884 117.157C223.59 117.157 226.601 119.517 226.601 123.659C226.6 123.983 226.553 124.399 226.531 124.746ZM217.336 122.433H222.478C222.246 121.114 221.273 120.281 219.907 120.281C218.54 120.281 217.591 121.113 217.336 122.433Z" fill="#263238"/>
<path d="M193.749 94.1459L193.047 79.3984C192.989 78.193 192.041 77.2186 190.837 77.1277C189.565 77.0319 188.443 77.9487 188.282 79.2125L186.413 93.994C186.271 95.1134 187.144 96.103 188.273 96.1051L191.87 96.1114C192.944 96.1127 193.801 95.2168 193.749 94.1459Z" fill="#E0E0E0"/>
<path d="M187.058 68.7796C187.714 66.9044 189.767 65.9161 191.643 66.5713C193.52 67.2264 194.51 69.2779 193.854 71.1523C193.198 73.0275 191.145 74.0158 189.268 73.3607C187.392 72.7062 186.402 70.6548 187.058 68.7796Z" fill="#E0E0E0"/>
<path d="M155.112 112.783L146.514 105.505C145.811 104.911 144.774 104.932 144.096 105.557C143.382 106.215 143.31 107.317 143.932 108.064L151.212 116.793C151.764 117.453 152.769 117.482 153.358 116.854L155.233 114.853C155.792 114.255 155.737 113.311 155.112 112.783Z" fill="#F5F5F5"/>
<path d="M137.471 103.321C136.765 101.98 137.281 100.322 138.623 99.6168C139.964 98.9116 141.624 99.4266 142.33 100.767C143.036 102.108 142.52 103.766 141.178 104.471C139.836 105.176 138.177 104.661 137.471 103.321Z" fill="#F5F5F5"/>
<path d="M147.82 78.4831L161.04 100.86C162.121 102.69 164.397 103.428 166.348 102.58C168.404 101.686 169.399 99.3378 168.609 97.2398L159.365 72.6993C158.665 70.8407 156.493 70.0156 154.734 70.9393L149.129 73.8825C147.457 74.7605 146.86 76.8577 147.82 78.4831Z" fill="#E0E0E0"/>
<path d="M179.093 112.472C179.614 115.929 177.232 119.152 173.772 119.672C170.311 120.192 167.085 117.812 166.564 114.356C166.043 110.899 168.425 107.675 171.886 107.155C175.346 106.635 178.572 109.015 179.093 112.472Z" fill="#E0E0E0"/>
<path d="M415.947 323.839C415.946 322.537 415.886 206.771 415.793 30.1619L415.947 30.316C323.218 30.3236 212.751 30.3327 94.501 30.3431H94.4718L94.6524 30.1626C94.6441 137.152 94.6365 237.75 94.6302 323.84L94.4718 323.682C286.669 323.775 414.578 323.838 415.947 323.839C414.579 323.84 286.669 323.903 94.4718 323.997H94.3128V323.838C94.3065 237.748 94.2989 137.15 94.2905 30.1612V29.9801H94.4711H94.5003C212.75 29.9898 323.217 29.9988 415.946 30.0072H416.1V30.1612C416.008 206.771 415.948 322.539 415.947 323.839Z" fill="#263238"/>
<path d="M103.406 42.4478C104.874 42.4478 106.064 41.259 106.064 39.7926C106.064 38.3261 104.874 37.1373 103.406 37.1373C101.938 37.1373 100.748 38.3261 100.748 39.7926C100.748 41.259 101.938 42.4478 103.406 42.4478Z" fill="white"/>
<path d="M112.549 42.4478C114.017 42.4478 115.207 41.259 115.207 39.7926C115.207 38.3261 114.017 37.1373 112.549 37.1373C111.081 37.1373 109.891 38.3261 109.891 39.7926C109.891 41.259 111.081 42.4478 112.549 42.4478Z" fill="white"/>
<path d="M121.691 42.4478C123.159 42.4478 124.349 41.259 124.349 39.7926C124.349 38.3261 123.159 37.1373 121.691 37.1373C120.224 37.1373 119.034 38.3261 119.034 39.7926C119.034 41.259 120.224 42.4478 121.691 42.4478Z" fill="white"/>
<path d="M292.847 95.0447C292.807 95.1502 291.322 94.6831 289.531 94.0023C287.738 93.3208 286.318 92.6837 286.359 92.5782C286.399 92.4734 287.883 92.9398 289.675 93.6213C291.467 94.3021 292.887 94.9399 292.847 95.0447Z" fill="#455A64"/>
<path d="M283.955 109.056C283.229 108.975 281.385 109.906 279.827 111.761C279.8 111.79 279.773 111.813 279.748 111.842C278.644 113.085 277.957 109.269 277.884 107.861C277.836 106.948 276.895 106.323 275.984 106.589L271.136 108.454L269.762 108.405C269.053 108.612 268.62 109.295 268.752 109.997L270.477 117.559L270.384 119.585L279.695 121.514L280.195 116.462C280.376 115.886 280.611 115.209 280.917 114.439C281.192 113.747 281.588 113.096 282.09 112.534C282.616 111.945 283.326 111.204 283.909 110.801C283.962 110.771 284.021 110.73 284.07 110.708C284.189 110.654 284.278 110.578 284.355 110.495C284.866 110.012 284.664 109.134 283.955 109.056Z" fill="#FFBE9D"/>
<path d="M281.915 87.7459C281.915 87.7459 276.358 87.0554 268.004 80.4173C259.65 73.7791 255.129 64.3456 254.196 64.4816C253.264 64.6176 248.991 63.104 242.8 80.7587C236.61 98.4134 240.047 102.054 241.594 101.876C243.14 101.699 253.384 97.7791 260.027 97.9067C266.669 98.0344 275.438 100.661 275.438 100.661L281.915 87.7459Z" fill="#2D79B7"/>
<path d="M294.349 95.881L292.825 99.5828L292.142 101.241C291.206 103.516 288.651 104.661 286.328 103.845L274.277 100.883L279.61 84.7457L291.852 89.8543C294.202 90.8356 295.317 93.5276 294.349 95.881Z" fill="#263238"/>
<path d="M289.603 101.352L285.567 108.502L283.723 107.907L271.126 117.303L267.998 110.501C267.998 110.501 275.328 107.701 276.766 105.191C278.205 102.681 276.69 102.035 276.69 102.035L280.239 98.3287L289.603 101.352Z" fill="#263238"/>
<path d="M243.457 81.0078C240.178 90.5642 239.223 98.895 241.325 99.6154C243.427 100.335 247.789 93.1716 251.069 83.6152C254.348 74.0588 255.303 65.728 253.201 65.0084C251.099 64.288 246.737 71.4515 243.457 81.0078Z" fill="#263238"/>
<path d="M295.831 100.883L292.575 100.189L294.181 96.2876L296.692 97.5368L295.831 100.883Z" fill="#455A64"/>
<path d="M292.083 97.3502C292.046 97.457 290.41 96.9927 288.429 96.3133C286.446 95.6339 284.87 94.9968 284.907 94.8906C284.943 94.7844 286.579 95.2487 288.561 95.9275C290.543 96.6069 292.12 97.244 292.083 97.3502Z" fill="#455A64"/>
<path d="M291.076 99.7875C291.064 99.843 290.68 99.7916 290.063 99.6633C289.756 99.5994 289.39 99.5154 288.985 99.4169C288.582 99.3128 288.157 99.1462 287.705 98.9908C285.9 98.3516 284.504 97.6902 284.539 97.593C284.58 97.4785 286.051 97.9727 287.84 98.6063C288.288 98.7604 288.707 98.9373 289.098 99.0588C289.49 99.1754 289.842 99.2857 290.136 99.385C290.725 99.5821 291.087 99.7327 291.076 99.7875Z" fill="#455A64"/>
<path d="M251.714 78.1742C251.714 78.1742 246.706 75.689 244.72 82.3181C242.734 88.9479 247.81 89.5288 247.81 89.5288C249.55 86.1816 250.863 82.409 251.714 78.1742Z" fill="#FAFAFA"/>
<path d="M256.028 70.0898C256.055 70.0919 256.03 70.5319 255.957 71.3272C255.882 72.1219 255.777 73.2746 255.605 74.6938C255.469 75.3976 255.321 76.1658 255.162 76.9903C255.081 77.4032 254.997 77.83 254.912 78.2693C254.869 78.4893 254.824 78.7121 254.78 78.9383C254.73 79.1632 254.658 79.386 254.597 79.6143C254.339 80.5248 254.068 81.4805 253.788 82.4701C253.717 82.7179 253.646 82.967 253.575 83.2189C253.506 83.4716 253.398 83.7138 253.309 83.9643C253.123 84.4626 252.934 84.9678 252.743 85.4793C252.551 85.9908 252.36 86.496 252.174 86.9936C252.075 87.2407 251.997 87.494 251.884 87.7299C251.772 87.9666 251.662 88.2019 251.553 88.435C251.113 89.3657 250.689 90.2637 250.285 91.1201C250.181 91.3325 250.089 91.5476 249.979 91.7503C249.864 91.9502 249.751 92.1479 249.638 92.3423C249.414 92.7309 249.196 93.1077 248.985 93.4735C248.563 94.1994 248.168 94.8774 247.808 95.4972C247.006 96.6777 246.329 97.6125 245.865 98.2614C245.396 98.9075 245.127 99.258 245.103 99.242C245.08 99.226 245.305 98.8464 245.733 98.1726C246.178 97.4855 246.802 96.5208 247.569 95.3362C247.913 94.713 248.29 94.0321 248.694 93.3021C248.897 92.937 249.107 92.5595 249.323 92.1715C249.432 91.9779 249.541 91.7808 249.653 91.5809C249.76 91.379 249.849 91.1632 249.95 90.9515C250.344 90.0979 250.759 89.2026 251.188 88.274C251.296 88.0422 251.404 87.8084 251.514 87.5724C251.625 87.3378 251.702 87.0859 251.799 86.8402C251.984 86.3454 252.172 85.8436 252.362 85.3356C252.552 84.8283 252.74 84.3266 252.927 83.8324C253.015 83.584 253.123 83.3439 253.193 83.0933C253.265 82.8435 253.336 82.5964 253.408 82.3507C253.694 81.3701 253.971 80.4228 254.234 79.5206C254.298 79.2944 254.371 79.0744 254.424 78.8516C254.472 78.6274 254.518 78.4067 254.564 78.1888C254.656 77.7537 254.746 77.3303 254.833 76.9216C255.008 76.1054 255.172 75.3441 255.322 74.6473C255.522 73.2538 255.685 72.1198 255.801 71.3113C255.92 70.5229 256 70.0878 256.028 70.0898Z" fill="#263238"/>
<path d="M274.444 105.058C273.925 105.24 273.635 105.815 273.786 106.362C274.076 107.408 274.547 109.051 274.915 110.052C275.034 110.374 275.163 110.703 275.391 110.954C275.618 111.205 275.966 111.365 276.286 111.269C276.623 111.167 276.842 110.805 276.892 110.444C276.943 110.082 276.859 109.717 276.772 109.363C276.53 108.387 276.1 106.922 275.727 105.728C275.553 105.17 274.978 104.87 274.444 105.058Z" fill="#FFBE9D"/>
<path d="M272.885 106.841C272.367 107.023 272.077 107.598 272.227 108.145C272.517 109.191 272.988 110.834 273.357 111.835C273.476 112.157 273.605 112.486 273.832 112.737C274.059 112.988 274.408 113.148 274.727 113.052C275.064 112.951 275.283 112.588 275.334 112.227C275.385 111.864 275.3 111.499 275.213 111.145C274.972 110.169 274.541 108.704 274.168 107.51C273.995 106.953 273.419 106.654 272.885 106.841Z" fill="#FFBE9D"/>
<path d="M271.425 107.939C270.957 108.095 270.696 108.592 270.834 109.066C271.098 109.973 271.529 111.397 271.865 112.266C271.974 112.545 272.092 112.831 272.297 113.048C272.504 113.266 272.82 113.407 273.108 113.324C273.412 113.237 273.609 112.924 273.654 112.611C273.699 112.297 273.622 111.98 273.542 111.674C273.321 110.828 272.928 109.558 272.588 108.522C272.429 108.039 271.908 107.778 271.425 107.939Z" fill="#FFBE9D"/>
<path d="M269.586 108.215C269.115 108.372 268.853 108.871 268.992 109.347C269.258 110.259 269.69 111.69 270.029 112.562C270.138 112.843 270.256 113.13 270.463 113.348C270.67 113.568 270.987 113.708 271.278 113.624C271.584 113.537 271.781 113.223 271.826 112.908C271.872 112.592 271.794 112.275 271.714 111.966C271.492 111.116 271.097 109.84 270.755 108.8C270.596 108.315 270.072 108.053 269.586 108.215Z" fill="#FFBE9D"/>
<path d="M275.293 110.988C275.194 111.021 274.822 110.191 274.464 109.133C274.106 108.075 273.897 107.19 273.996 107.156C274.095 107.122 274.467 107.952 274.825 109.011C275.182 110.069 275.392 110.955 275.293 110.988Z" fill="#EB996E"/>
<path d="M273.625 112.443C273.524 112.473 273.131 111.517 272.747 110.308C272.363 109.098 272.131 108.09 272.231 108.056C272.331 108.022 272.724 108.977 273.109 110.191C273.494 111.403 273.726 112.411 273.625 112.443Z" fill="#EB996E"/>
<path d="M271.986 112.536C271.893 112.578 271.442 111.767 271.079 110.689C270.714 109.61 270.582 108.693 270.682 108.669C270.786 108.644 271.08 109.507 271.44 110.567C271.796 111.628 272.084 112.493 271.986 112.536Z" fill="#EB996E"/>
<path d="M329.905 87.2983C327.257 82.8282 322.475 79.928 317.462 78.5483C315.353 77.9674 313.923 78.1291 311.748 78.3741C309.575 78.6191 307.519 79.4512 306.004 81.028C304.204 82.9004 302.603 85.0608 301.934 87.5689C301.247 90.1457 300.557 92.7399 300.353 95.3993C300.149 98.058 300.461 100.815 301.684 103.184L308.202 105.366C311.88 106.055 315.611 106.747 319.342 106.453C323.073 106.159 326.868 104.757 329.279 101.897C332.628 97.922 332.553 91.769 329.905 87.2983Z" fill="#263238"/>
<path d="M333.429 106.898C333.493 105.364 332.928 103.76 331.737 102.788C330.546 101.817 328.706 101.618 327.455 102.511L326.212 103.603C324.456 104.053 323.133 105.768 323.062 107.578C322.99 109.388 324.121 111.166 325.754 111.949C327.389 112.733 329.432 112.526 330.929 111.504C332.426 110.483 333.353 108.708 333.429 106.898Z" fill="#263238"/>
<path d="M331.414 111.207C331.368 111.176 331.898 110.819 331.977 109.93C332.051 109.066 331.6 107.849 330.903 106.69C330.19 105.523 329.271 104.661 328.548 104.133C327.828 103.593 327.312 103.357 327.337 103.305C327.349 103.273 327.906 103.434 328.682 103.94C329.46 104.432 330.444 105.303 331.186 106.517C331.558 107.119 331.835 107.74 332.017 108.326C332.204 108.909 332.287 109.483 332.21 109.959C332.139 110.436 331.928 110.782 331.748 110.973C331.564 111.167 331.424 111.223 331.414 111.207Z" fill="#455A64"/>
<path d="M327.873 112.688C327.764 112.665 328.529 110.712 328.249 108.226C328.006 105.734 326.852 103.983 326.953 103.938C326.984 103.917 327.313 104.318 327.686 105.065C328.06 105.809 328.443 106.918 328.579 108.191C328.711 109.465 328.567 110.628 328.356 111.433C328.146 112.241 327.907 112.702 327.873 112.688Z" fill="#455A64"/>
<path d="M305.996 119.32C306.399 116.98 307.296 111.964 307.294 111.975C307.294 111.975 301.926 110.542 301.485 103.323C301.265 99.732 302.004 93.951 302.762 89.2408C303.444 85.0004 307.945 79.7711 313.195 80.5519L315.568 80.6366L323.952 85.5404C325.232 85.802 326.098 86.9978 325.947 88.2942L321.353 118.609L308.356 144.018L305.42 125.993L305.996 119.32Z" fill="#FFBE9D"/>
<path d="M305.18 94.4152C305.116 94.8955 305.471 95.3452 305.972 95.4208C306.471 95.4965 306.928 95.1696 306.992 94.6894C307.056 94.2098 306.702 93.7594 306.202 93.6838C305.701 93.6081 305.244 93.9357 305.18 94.4152Z" fill="#263238"/>
<path d="M304.101 92.123C304.202 92.2527 304.943 91.8086 305.926 91.9057C306.908 91.989 307.58 92.5636 307.699 92.454C307.756 92.4061 307.661 92.1799 307.37 91.9217C307.083 91.6649 306.577 91.3929 305.965 91.336C305.353 91.2804 304.816 91.4553 304.498 91.6573C304.173 91.8592 304.05 92.0647 304.101 92.123Z" fill="#263238"/>
<path d="M309.098 100.428C309.107 100.373 308.507 100.209 307.53 99.986C307.282 99.936 307.049 99.8631 307.023 99.6882C306.982 99.5016 307.113 99.2413 307.263 98.9616C307.558 98.378 307.866 97.7659 308.19 97.1253C309.483 94.5082 310.445 92.3464 310.339 92.2958C310.233 92.2444 309.099 94.3243 307.806 96.9414C307.493 97.5875 307.194 98.2031 306.91 98.7923C306.787 99.0678 306.593 99.3753 306.684 99.7632C306.734 99.9568 306.905 100.111 307.062 100.169C307.218 100.234 307.358 100.25 307.482 100.27C308.471 100.42 309.089 100.484 309.098 100.428Z" fill="#263238"/>
<path d="M307.294 111.975C307.294 111.975 312.053 112.746 317.072 110.356C317.072 110.356 314.055 115.04 306.996 113.686L307.294 111.975Z" fill="#EB996E"/>
<path d="M304.871 88.6613C305.023 88.9007 305.722 88.7348 306.536 88.8029C307.353 88.8424 308.025 89.0978 308.206 88.8799C308.286 88.7737 308.199 88.5398 307.919 88.2997C307.642 88.061 307.163 87.841 306.602 87.8035C306.041 87.7674 305.537 87.9222 305.232 88.1234C304.922 88.3247 304.805 88.5454 304.871 88.6613Z" fill="#263238"/>
<path d="M316.413 95.1328C316.365 95.6145 315.918 95.9712 315.414 95.9309C314.91 95.8907 314.54 95.468 314.587 94.9864C314.635 94.5048 315.082 94.1473 315.586 94.1876C316.091 94.2279 316.461 94.6512 316.413 95.1328Z" fill="#263238"/>
<path d="M317.101 92.9391C316.972 93.0425 316.352 92.4408 315.374 92.3117C314.398 92.1688 313.613 92.5754 313.523 92.4408C313.478 92.3811 313.622 92.1826 313.965 91.9973C314.303 91.8127 314.858 91.6628 315.467 91.7475C316.075 91.8329 316.558 92.1257 316.821 92.395C317.09 92.6657 317.163 92.894 317.101 92.9391Z" fill="#263238"/>
<path d="M316.953 89.5933C316.751 89.7918 316.108 89.4712 315.299 89.3511C314.495 89.2033 313.783 89.2991 313.656 89.0458C313.602 88.9236 313.741 88.7161 314.068 88.5461C314.392 88.3767 314.909 88.2719 315.464 88.3636C316.018 88.4565 316.473 88.7224 316.725 88.9875C316.98 89.254 317.043 89.4955 316.953 89.5933Z" fill="#263238"/>
<path d="M324.438 98.2531L323.022 99.3336C318.514 93.4825 310.127 79.2729 310.588 80.114C310.588 80.114 314.431 79.1792 318.254 80.445C322.076 81.7109 329.222 84.8075 328.401 89.4143C327.581 94.021 324.438 98.2531 324.438 98.2531Z" fill="#263238"/>
<path d="M327.357 102.789C327.329 102.783 327.398 102.386 327.48 101.665C327.565 100.946 327.622 99.8944 327.537 98.6042C327.388 96.0288 326.44 92.4797 324.327 89.1325C322.211 85.7833 319.556 83.2987 317.578 81.6297C316.584 80.7934 315.751 80.1473 315.173 79.7052C314.595 79.2624 314.276 79.0154 314.29 78.9952C314.296 78.9862 314.385 79.0348 314.548 79.1375C314.71 79.2409 314.949 79.3922 315.249 79.6011C315.852 80.0127 316.708 80.631 317.726 81.4492C319.752 83.0801 322.461 85.5605 324.607 88.9569C326.752 92.3534 327.681 95.9767 327.771 98.5917C327.827 99.902 327.733 100.964 327.608 101.684C327.561 102.047 327.48 102.321 327.442 102.509C327.398 102.695 327.368 102.792 327.357 102.789Z" fill="#455A64"/>
<path d="M317.363 79.1743C317.369 79.1646 317.461 79.2111 317.629 79.3089C317.8 79.4054 318.045 79.556 318.357 79.7566C318.98 80.1584 319.868 80.7629 320.917 81.5769C321.966 82.3903 323.176 83.4105 324.434 84.6368C325.679 85.8658 327.039 87.2656 328.12 89.0069C328.659 89.8744 329.078 90.7939 329.35 91.7232C329.617 92.6546 329.729 93.5894 329.737 94.4742C329.747 96.2502 329.389 97.8158 329.021 99.0886C328.643 100.364 328.252 101.364 327.974 102.05C327.835 102.393 327.72 102.657 327.639 102.834C327.558 103.012 327.51 103.103 327.5 103.099C327.477 103.09 327.611 102.702 327.853 102.004C328.093 101.305 328.45 100.296 328.794 99.0255C329.13 97.7568 329.458 96.2085 329.431 94.4791C329.416 93.6171 329.301 92.7128 329.038 91.8141C328.771 90.9175 328.364 90.0278 327.838 89.1811C326.785 87.4822 325.447 86.0893 324.22 84.8547C322.984 83.6249 321.797 82.5929 320.773 81.7608C319.748 80.928 318.885 80.2965 318.286 79.8634C317.685 79.4304 317.349 79.1958 317.363 79.1743Z" fill="#455A64"/>
<path d="M324.514 98.3877C324.495 98.3995 324.304 98.1483 323.978 97.684C323.621 97.1621 323.165 96.4965 322.62 95.6991C321.485 94.0155 319.938 91.6774 318.246 89.0846C316.554 86.4904 315.037 84.1322 313.953 82.416C313.443 81.5957 313.017 80.9107 312.684 80.3735C312.39 79.887 312.237 79.6122 312.256 79.599C312.275 79.5865 312.464 79.8371 312.792 80.3014C313.149 80.8232 313.604 81.4888 314.149 82.2855C315.283 83.9691 316.832 86.3079 318.525 88.9028C320.218 91.497 321.734 93.8559 322.818 95.5728C323.328 96.3924 323.754 97.0781 324.087 97.6146C324.38 98.1004 324.533 98.3752 324.514 98.3877Z" fill="#455A64"/>
<path d="M323.085 100.13C323.138 99.6001 323.872 98.4113 324.403 98.3801C325.822 98.2975 328.331 98.6535 328.01 102.202C327.573 107.053 322.788 105.614 322.792 105.473C322.795 105.364 322.904 101.958 323.085 100.13Z" fill="#FFBE9D"/>
<path d="M324.131 103.652C324.154 103.638 324.21 103.718 324.347 103.797C324.481 103.873 324.717 103.939 324.979 103.867C325.509 103.725 326.014 102.95 326.117 102.078C326.169 101.637 326.114 101.209 325.989 100.846C325.873 100.477 325.665 100.209 325.411 100.14C325.159 100.057 324.963 100.196 324.89 100.326C324.813 100.456 324.836 100.556 324.809 100.561C324.794 100.572 324.711 100.471 324.769 100.274C324.798 100.18 324.865 100.07 324.988 99.9867C325.113 99.9027 325.289 99.8694 325.466 99.9055C325.839 99.9651 326.144 100.34 326.282 100.738C326.44 101.139 326.512 101.622 326.453 102.117C326.333 103.091 325.75 103.961 325.03 104.101C324.681 104.159 324.405 104.031 324.268 103.903C324.13 103.77 324.114 103.659 324.131 103.652Z" fill="#EB996E"/>
<path d="M334.49 279.737C334.391 280.501 332.507 301.845 332.507 301.845H322.719L321.003 279.826L334.49 279.737Z" fill="#FFBE9D"/>
<path d="M322.695 298.666C322.695 298.666 329.568 303.539 332.894 299.32L333.764 301.364L337.672 315.928C337.925 316.87 337.482 317.91 336.572 318.266C335.872 318.54 335.1 318.385 334.572 317.884C331.745 315.197 321.395 305.263 321.496 303.915L321.535 300.339C321.545 299.598 322.004 298.936 322.695 298.666Z" fill="#2D79B7"/>
<path d="M336.236 318.364L321.492 302.671L321.495 303.452C321.422 304.299 321.792 304.633 322.194 305.175C323.387 306.783 326.689 310.378 334.517 317.884C334.972 318.321 335.62 318.502 336.236 318.364Z" fill="#263238"/>
<path d="M323.651 300.344C324.115 300.662 324.269 301.36 323.97 301.836C323.671 302.312 322.962 302.474 322.493 302.165C322.024 301.856 321.814 301.023 322.163 300.584C322.513 300.145 323.356 299.999 323.737 300.412" fill="white"/>
<path d="M331.986 310.327C332.09 310.378 332.502 309.41 333.598 308.886C334.677 308.33 335.698 308.586 335.721 308.471C335.737 308.426 335.503 308.284 335.071 308.225C334.642 308.164 334.018 308.227 333.418 308.524C332.819 308.823 332.391 309.282 332.182 309.66C331.968 310.04 331.94 310.312 331.986 310.327Z" fill="#263238"/>
<path d="M333.309 312.791C333.398 312.87 333.987 312.268 334.941 311.991C335.887 311.693 336.712 311.867 336.742 311.752C336.795 311.657 335.905 311.27 334.823 311.604C333.739 311.925 333.214 312.741 333.309 312.791Z" fill="#263238"/>
<path d="M329.526 307.173C329.612 307.26 330.515 306.33 331.96 305.769C333.396 305.186 334.691 305.243 334.694 305.121C334.724 305.022 333.352 304.771 331.81 305.393C330.263 305.998 329.437 307.122 329.526 307.173Z" fill="#263238"/>
<path d="M329.198 302.739C329.248 302.85 330.265 302.42 331.592 302.367C332.917 302.295 333.971 302.628 334.01 302.513C334.061 302.423 332.998 301.889 331.573 301.962C330.148 302.023 329.139 302.654 329.198 302.739Z" fill="#263238"/>
<path d="M332.347 302.327C332.37 302.323 332.366 302.072 332.244 301.637C332.122 301.206 331.873 300.584 331.362 299.945C331.103 299.645 330.818 299.25 330.267 299.106C329.992 299.033 329.626 299.15 329.456 299.43C329.287 299.703 329.275 300.013 329.323 300.301C329.558 301.448 330.754 302.376 332.08 302.299C333.407 302.198 334.445 301.236 334.775 300.147C334.839 299.868 334.858 299.539 334.66 299.259C334.464 298.976 334.072 298.922 333.821 299.015C333.297 299.196 333.016 299.569 332.742 299.859C332.211 300.478 331.924 301.078 331.768 301.498C331.612 301.921 331.584 302.17 331.607 302.176C331.68 302.211 331.899 301.2 332.955 300.049C333.225 299.78 333.532 299.445 333.913 299.337C334.099 299.283 334.275 299.327 334.372 299.467C334.468 299.6 334.473 299.835 334.413 300.055C334.13 300.949 333.178 301.826 332.056 301.894C330.939 301.971 329.888 301.154 329.69 300.232C329.646 300.01 329.663 299.774 329.758 299.62C329.851 299.467 330.022 299.399 330.202 299.435C330.582 299.511 330.89 299.847 331.143 300.127C332.156 301.315 332.27 302.361 332.347 302.327Z" fill="#263238"/>
<path d="M280.741 272.791L282.427 300.034L294.28 299.952L296.283 271.647L280.741 272.791Z" fill="#FFBE9D"/>
<path d="M282.212 296.75L282.206 297.537C282.206 297.537 268.821 302.845 268.668 305.377L295.204 305.35L294.834 296.528C290.891 298.358 286.762 298.568 282.212 296.75Z" fill="#2D79B7"/>
<path d="M292.15 299.351C292.664 299.492 293.019 300.068 292.9 300.586C292.781 301.104 292.198 301.471 291.681 301.34C291.165 301.209 290.717 300.53 290.894 300.028C291.069 299.526 291.779 299.133 292.248 299.384" fill="white"/>
<path d="M295.204 305.35L295.115 303.228L269.715 304.032C269.715 304.032 268.534 304.547 268.668 305.377L295.204 305.35Z" fill="#263238"/>
<path d="M282.113 297.611C282.117 297.741 282.765 297.799 283.403 298.215C284.052 298.614 284.381 299.174 284.5 299.122C284.619 299.097 284.426 298.324 283.644 297.834C282.868 297.337 282.085 297.493 282.113 297.611Z" fill="#263238"/>
<path d="M279.331 298.764C279.302 298.89 279.863 299.109 280.303 299.657C280.76 300.19 280.871 300.782 281.001 300.777C281.122 300.797 281.211 300.038 280.651 299.369C280.096 298.695 279.333 298.641 279.331 298.764Z" fill="#263238"/>
<path d="M277.754 302.094C277.872 302.122 278.051 301.474 277.718 300.766C277.389 300.055 276.778 299.776 276.723 299.884C276.65 299.991 277.044 300.371 277.309 300.957C277.587 301.535 277.626 302.082 277.754 302.094Z" fill="#263238"/>
<path d="M296.281 188.471C295.929 189.491 281.873 237.061 281.873 237.061L279.455 293.504L296.95 294.513L303.212 238.157L319.194 202.909L312.171 174.236H297.876L296.281 188.471Z" fill="#263238"/>
<path d="M308.733 174.236C308.982 174.916 317.948 207.199 317.948 207.199L319.194 255.324V295.135H335.133L342.561 207.33C342.561 207.33 343.872 191.398 341.631 186.003C339.389 180.609 330.302 171.215 330.302 171.215L308.733 174.236Z" fill="#263238"/>
<path d="M310.014 177.538C310.039 177.531 310.166 177.933 310.376 178.662C310.606 179.449 310.909 180.489 311.277 181.746C312.076 184.4 313.15 187.962 314.336 191.899C315.513 195.873 316.477 199.504 317.033 202.166C317.321 203.494 317.512 204.578 317.622 205.33C317.731 206.083 317.779 206.5 317.754 206.504C317.73 206.507 317.634 206.098 317.483 205.355C317.331 204.613 317.102 203.54 316.783 202.223C316.164 199.583 315.164 195.972 313.988 192.002C312.81 188.034 311.733 184.44 311.029 181.816C310.673 180.506 310.406 179.439 310.239 178.698C310.071 177.956 309.99 177.544 310.014 177.538Z" fill="#455A64"/>
<path d="M315.516 177.538C315.541 177.597 314.959 177.612 314.517 178.255C314.308 178.562 314.185 179.027 314.378 179.472C314.553 179.91 315.018 180.315 315.56 180.343C316.103 180.365 316.603 180.005 316.818 179.585C317.051 179.16 316.972 178.686 316.792 178.36C316.412 177.68 315.833 177.611 315.864 177.554C315.866 177.534 316 177.518 316.229 177.594C316.454 177.669 316.771 177.86 317.012 178.23C317.252 178.584 317.393 179.185 317.116 179.735C316.861 180.267 316.264 180.729 315.543 180.705C314.824 180.662 314.271 180.148 314.067 179.594C313.842 179.021 314.037 178.436 314.31 178.106C314.583 177.759 314.917 177.599 315.148 177.545C315.383 177.489 315.516 177.518 315.516 177.538Z" fill="#455A64"/>
<path d="M329.67 200.718C329.676 200.718 329.682 200.8 329.687 200.96C329.691 201.139 329.696 201.375 329.702 201.672C329.707 202.319 329.714 203.237 329.723 204.407C329.738 206.782 329.712 210.219 329.644 214.465C329.519 222.959 329.138 234.687 328.64 247.634C328.142 260.587 327.721 272.311 327.53 280.8C327.43 285.045 327.364 288.48 327.337 290.854C327.317 292.024 327.301 292.941 327.289 293.588C327.28 293.885 327.273 294.12 327.268 294.299C327.261 294.459 327.255 294.541 327.248 294.541C327.242 294.541 327.237 294.459 327.231 294.299C327.228 294.12 327.223 293.885 327.217 293.588C327.212 292.94 327.205 292.023 327.196 290.853C327.18 288.478 327.206 285.042 327.273 280.795C327.399 272.302 327.78 260.573 328.278 247.621C328.776 234.673 329.197 222.95 329.388 214.461C329.488 210.216 329.553 206.781 329.581 204.406C329.601 203.236 329.617 202.319 329.628 201.672C329.637 201.375 329.644 201.139 329.65 200.96C329.658 200.8 329.664 200.718 329.67 200.718Z" fill="#455A64"/>
<path d="M305.071 194.921C305.077 194.923 305.05 195.007 304.991 195.169C304.923 195.347 304.834 195.584 304.72 195.884C304.467 196.529 304.106 197.446 303.646 198.619C302.691 201.006 301.322 204.428 299.634 208.648C297.969 212.891 296.004 217.956 294.154 223.689C292.318 229.416 290.504 235.827 289.744 242.73C289.381 246.181 289.22 249.581 289.008 252.853C288.831 256.128 288.66 259.288 288.496 262.299C288.186 268.318 287.906 273.739 287.671 278.3C287.422 282.854 287.185 286.537 286.993 289.08C286.892 290.335 286.812 291.318 286.756 292.007C286.726 292.327 286.701 292.579 286.683 292.768C286.665 292.939 286.652 293.027 286.646 293.026C286.64 293.026 286.64 292.937 286.646 292.765C286.655 292.575 286.667 292.323 286.683 292.003C286.723 291.311 286.78 290.328 286.853 289.071C287.001 286.526 287.199 282.841 287.415 278.286C287.629 273.725 287.882 268.302 288.164 262.283C288.32 259.271 288.485 256.11 288.655 252.833C288.862 249.555 289.019 246.164 289.385 242.692C290.15 235.746 291.981 229.32 293.838 223.587C295.71 217.847 297.701 212.787 299.397 208.553C301.103 204.322 302.536 200.92 303.516 198.565C304.004 197.404 304.386 196.496 304.654 195.857C304.781 195.562 304.881 195.33 304.957 195.155C305.026 194.998 305.065 194.919 305.071 194.921Z" fill="#455A64"/>
<path d="M329.118 117.428C329.118 117.428 338.603 119.194 340.687 120.93C342.725 122.626 361.763 147.411 362.158 152.409C362.553 157.406 360.241 159.239 358.925 160.422C357.609 161.606 334.91 177.001 334.91 177.001L327.933 165.428L347.546 153.724L338.08 137.546L329.118 117.428Z" fill="#2D79B7"/>
<path d="M353.884 149.293C353.903 149.407 352.005 149.39 350.118 150.595C348.208 151.763 347.393 153.475 347.298 153.407C347.261 153.391 347.403 152.944 347.817 152.315C348.227 151.687 348.946 150.903 349.925 150.288C350.907 149.677 351.928 149.374 352.672 149.281C353.421 149.185 353.885 149.252 353.884 149.293Z" fill="#2D79B7"/>
<path d="M306.138 118.626L308.651 141.418L321.482 115.718L329.755 124.114C329.755 124.114 334.838 154.132 334.909 154.345C334.98 154.558 331.429 171.518 331.429 171.518L307.918 176.059L300.744 174.236L299.607 147.54L299.11 127.095L306.138 118.626Z" fill="white"/>
<path d="M303.09 119.596L296.984 121.013C296.17 121.202 295.412 121.584 294.777 122.127C289.563 126.584 278.301 136.012 278.301 136.012L280.372 119.283L269.554 118.25C269.554 118.25 266.298 139.333 266.636 144.882C267.03 151.322 272.809 152.903 281.225 149.441C290.547 145.605 296.272 142.025 296.272 142.025L303.09 119.596Z" fill="#2D79B7"/>
<path d="M337.142 137.607L336.027 157.595L337.147 161.483C337.147 161.483 347.678 181.34 349.389 194.491L336.357 196.595C336.357 196.595 332.803 179.631 330.302 171.214C327.801 162.797 320.429 159.247 317.929 150.567C315.428 141.888 316.349 135.839 316.349 135.313C316.349 134.787 321.482 115.718 321.482 115.718L322.403 111.731L327.011 116.112L338.858 120.058L337.142 137.607Z" fill="#2D79B7"/>
<g opacity="0.3">
<path d="M343.356 174.773C343.356 174.773 338.873 178.196 336.606 179.364C336.471 179.433 336.288 179.509 336.085 179.586C335.118 179.949 334.03 179.534 333.535 178.629C333.259 178.123 332.975 177.585 332.786 177.183C332.304 176.154 331.787 174.911 331.325 173.835L332.786 173.477L334.911 177.001L341.038 172.806L342.205 172.007L343.356 174.773Z" fill="black"/>
</g>
<path d="M306.252 116.376L303.402 119.353L296.576 121.746C296.576 121.746 294.903 141.886 295.812 146.163C296.687 150.284 298.351 155.294 298.492 161.213C298.633 167.133 291.862 198.423 291.862 198.423L300.044 201.524C300.044 201.524 304.221 165.3 303.402 157.408C302.584 149.515 304.7 133.587 304.7 133.587L306.252 116.376Z" fill="#2D79B7"/>
<path d="M321.744 154.775C321.734 154.784 321.631 154.671 321.442 154.448C321.257 154.222 321.01 153.866 320.745 153.376C320.226 152.393 319.758 150.81 319.688 148.822C319.608 146.834 319.833 144.486 320.169 141.897C320.526 139.309 321.077 136.481 321.903 133.579C323.416 128.135 325.598 123.437 327.477 120.106L327.591 120.304C326.514 120.27 325.55 120.239 324.693 120.211L324.487 120.205L324.608 120.041C325.404 118.972 326.043 118.114 326.51 117.486C326.719 117.216 326.889 116.996 327.026 116.818C327.146 116.668 327.212 116.593 327.22 116.599C327.229 116.604 327.179 116.691 327.074 116.852C326.949 117.038 326.794 117.269 326.604 117.552C326.157 118.194 325.545 119.072 324.783 120.166L324.699 119.996C325.556 120.008 326.52 120.021 327.598 120.036L327.818 120.038L327.712 120.234C325.891 123.58 323.756 128.264 322.252 133.676C321.43 136.561 320.873 139.37 320.5 141.942C320.148 144.514 319.898 146.855 319.944 148.812C319.981 150.774 320.401 152.327 320.872 153.313C321.351 154.298 321.778 154.75 321.744 154.775Z" fill="#263238"/>
<path d="M329.756 136.306C329.774 136.402 328.282 136.756 326.403 136.945C324.525 137.137 322.993 137.088 322.991 136.991C322.988 136.889 324.505 136.776 326.367 136.585C328.229 136.399 329.738 136.206 329.756 136.306Z" fill="#263238"/>
<path d="M338.068 131.675C338.095 131.682 338.032 132.042 337.923 132.687C337.832 133.338 337.713 134.28 337.602 135.451C337.379 137.791 337.153 141.033 336.933 144.616C336.717 148.169 336.522 151.382 336.376 153.797C336.298 154.972 336.225 155.922 336.164 156.578C336.1 157.234 336.052 157.596 336.027 157.594C336.002 157.592 336.004 157.228 336.024 156.57C336.049 155.845 336.081 154.908 336.12 153.784C336.212 151.432 336.354 148.182 336.571 144.594C336.792 141.008 337.058 137.763 337.348 135.422C337.492 134.252 337.65 133.309 337.784 132.662C337.936 132.018 338.047 131.669 338.068 131.675Z" fill="#263238"/>
<path d="M353.233 154.362C353.198 154.465 351.916 154.053 350.281 153.937C348.647 153.807 347.318 154.024 347.298 153.917C347.272 153.829 348.613 153.443 350.308 153.576C352.003 153.698 353.272 154.28 353.233 154.362Z" fill="#263238"/>
<path d="M278.367 135.597C278.458 135.638 278.029 136.797 277.409 138.186C276.789 139.575 276.213 140.668 276.122 140.627C276.031 140.586 276.459 139.428 277.079 138.039C277.699 136.649 278.276 135.556 278.367 135.597Z" fill="#263238"/>
<path d="M295.4 128.926C295.5 128.924 295.657 132.855 295.75 137.703C295.844 142.554 295.838 146.487 295.738 146.488C295.638 146.49 295.482 142.561 295.388 137.71C295.294 132.861 295.3 128.929 295.4 128.926Z" fill="#263238"/>
<path d="M303.498 145.429C303.473 145.43 303.444 145.07 303.412 144.417C303.386 143.695 303.352 142.766 303.311 141.65C303.241 139.313 303.17 136.083 303.113 132.516C303.057 128.947 303.027 125.717 303.022 123.379C303.028 122.263 303.033 121.332 303.036 120.611C303.047 119.957 303.066 119.596 303.091 119.596C303.116 119.596 303.145 119.958 303.177 120.612C303.203 121.333 303.237 122.263 303.278 123.379C303.348 125.716 303.419 128.945 303.475 132.511C303.532 136.076 303.562 139.305 303.566 141.643C303.561 142.76 303.556 143.691 303.552 144.412C303.541 145.066 303.523 145.428 303.498 145.429Z" fill="#263238"/>
<path d="M354.925 163.298C354.931 163.307 354.803 163.407 354.551 163.592C354.273 163.791 353.904 164.057 353.438 164.39C352.433 165.094 351.019 166.083 349.265 167.312C345.671 169.791 340.69 173.227 335.011 177.146L334.856 177.252L334.759 177.091C333.749 175.419 332.704 173.687 331.633 171.914C330.297 169.694 329 167.539 327.783 165.518L327.692 165.366L327.843 165.277C333.485 161.94 338.39 159.038 341.917 156.952C343.653 155.942 345.047 155.13 346.039 154.552C346.503 154.29 346.872 154.08 347.152 153.923C347.407 153.783 347.541 153.714 347.547 153.723C347.552 153.732 347.427 153.819 347.183 153.976C346.911 154.147 346.552 154.373 346.101 154.656C345.121 155.255 343.744 156.097 342.032 157.144C338.521 159.258 333.639 162.197 328.023 165.577L328.084 165.336C329.304 167.356 330.604 169.509 331.944 171.728C333.012 173.502 334.056 175.234 335.063 176.908L334.811 176.853C340.518 172.976 345.524 169.575 349.135 167.121C350.915 165.93 352.349 164.969 353.368 164.287C353.847 163.974 354.229 163.726 354.515 163.538C354.778 163.372 354.919 163.289 354.925 163.298Z" fill="#263238"/>
<g opacity="0.3">
<path d="M320.789 153.276C320.452 150.311 320.948 147.316 321.594 144.402C323.387 136.302 326.351 128.461 330.363 121.197C329.482 120.603 328.231 120.866 327.405 121.536C326.579 122.205 326.085 123.191 325.637 124.155C322.601 130.686 320.602 137.731 319.908 144.899C319.746 146.569 319.665 147.642 319.803 149.094C319.941 150.546 319.943 152.074 320.846 153.22" fill="black"/>
</g>
<g opacity="0.3">
<path d="M295.376 130.38C293.217 134.133 293.504 138.642 295.568 142.447C295.568 138.262 295.568 134.635 295.318 130.438" fill="black"/>
</g>
<path d="M312.176 102.58C312.121 102.337 312.003 102.085 311.778 101.976C311.639 101.91 311.478 101.907 311.324 101.909C310.422 101.922 309.521 102.051 308.65 102.291L308.6 102.428C308.656 102.814 308.713 103.203 308.84 103.572C308.968 103.94 309.172 104.292 309.477 104.534C310.046 104.986 310.922 104.964 311.501 104.525C312.08 104.087 312.338 103.287 312.176 102.58Z" fill="#EB996E"/>
<path d="M309.496 104.7C309.509 104.639 309.955 104.827 310.621 104.634C310.945 104.535 311.311 104.33 311.556 103.967C311.802 103.611 311.931 103.105 311.805 102.624C311.748 102.385 311.623 102.173 311.459 102.087C311.297 101.999 311.065 102.029 310.836 102.076C310.407 102.156 309.99 102.235 309.582 102.312C308.865 102.436 308.416 102.488 308.405 102.439C308.394 102.391 308.824 102.25 309.527 102.062C309.93 101.961 310.342 101.858 310.766 101.751C310.997 101.701 311.302 101.621 311.62 101.773C311.929 101.934 312.082 102.244 312.156 102.535C312.311 103.136 312.139 103.744 311.827 104.162C311.511 104.591 311.057 104.806 310.684 104.883C309.907 105.029 309.468 104.726 309.496 104.7Z" fill="#263238"/>
<path d="M324.65 105.398C324.464 104.906 323.857 104.489 323.346 104.611L323.359 104.614C323.057 104.641 322.759 104.826 322.592 105.088C322.31 105.531 322.362 106.163 322.719 106.548C323.077 106.934 323.711 107.032 324.163 106.765C324.616 106.498 324.837 105.889 324.65 105.398Z" fill="#FAFAFA"/>
<path d="M328.234 166.117L320.202 159.002L313.415 159.586C313.415 159.586 313.65 160.696 314.585 160.872C315.521 161.048 318.914 161.106 318.914 161.106L320.504 162.684L316.457 162.277L311.309 165.314C311.309 165.314 311.192 166.249 312.537 166.016C313.883 165.782 316.457 164.73 316.457 164.73L319.45 164.906L316.183 165.373L311.952 168.354C311.952 168.354 312.83 169.348 314.175 168.938C315.521 168.53 317.159 167.886 317.159 167.886L320.845 167.536L317.159 168.471L314.409 171.861C314.409 171.861 315.265 172.503 316.183 171.861C317.101 171.218 317.744 170.633 317.744 170.633L321.839 170.458C321.839 170.458 326.363 173.73 327.933 174.081C329.503 174.431 332.786 173.478 332.786 173.478L328.234 166.117Z" fill="#FFBE9D"/>
<path d="M487.54 199.586H362.989V269.162H487.54V199.586Z" fill="#FAFAFA"/>
<path d="M487.539 269.162C487.539 269.162 487.529 268.733 487.524 267.912C487.521 267.087 487.516 265.87 487.509 264.278C487.501 261.087 487.489 256.396 487.474 250.37C487.457 238.326 487.432 220.949 487.401 199.585L487.539 199.723C454.315 199.735 410.661 199.75 362.998 199.766H362.989L363.17 199.585C363.166 224.189 363.162 247.721 363.158 269.162L362.989 268.993C399.441 269.026 430.557 269.055 452.567 269.075C463.58 269.094 472.314 269.11 478.301 269.121C481.293 269.13 483.597 269.137 485.16 269.142C485.936 269.146 486.528 269.149 486.932 269.152C487.331 269.155 487.539 269.162 487.539 269.162C487.539 269.162 487.344 269.169 486.952 269.173C486.553 269.175 485.968 269.178 485.199 269.183C483.644 269.188 481.352 269.195 478.374 269.204C472.396 269.214 463.675 269.23 452.679 269.25C430.642 269.27 399.487 269.298 362.989 269.332H362.82V269.163C362.816 247.722 362.812 224.19 362.808 199.587V199.406H362.989H362.998C410.66 199.422 454.314 199.438 487.538 199.449H487.677V199.587C487.647 220.986 487.621 238.392 487.604 250.456C487.588 256.469 487.577 261.149 487.569 264.334C487.562 265.914 487.557 267.123 487.554 267.942C487.549 268.754 487.539 269.162 487.539 269.162Z" fill="#263238"/>
<path d="M395.818 216.169H378.21V233.76H395.818V216.169Z" fill="#455A64"/>
<path d="M420.002 218.641C420.002 218.741 415.892 218.822 410.824 218.822C405.753 218.822 401.645 218.74 401.645 218.641C401.645 218.541 405.754 218.461 410.824 218.461C415.892 218.46 420.002 218.541 420.002 218.641Z" fill="#2D79B7"/>
<path d="M478.638 224.965C478.638 225.065 461.401 225.145 440.143 225.145C418.878 225.145 401.645 225.065 401.645 224.965C401.645 224.865 418.878 224.785 440.143 224.785C461.401 224.785 478.638 224.865 478.638 224.965Z" fill="#263238"/>
<path d="M452.734 232.06C452.734 232.16 441.408 232.24 427.439 232.24C413.466 232.24 402.143 232.159 402.143 232.06C402.143 231.96 413.467 231.879 427.439 231.879C441.408 231.879 452.734 231.96 452.734 232.06Z" fill="#263238"/>
<path d="M469.101 259.941H384.022C379.515 259.941 375.861 256.291 375.861 251.788C375.861 247.285 379.515 243.635 384.022 243.635H469.101C473.608 243.635 477.262 247.285 477.262 251.788C477.261 256.291 473.608 259.941 469.101 259.941Z" fill="#2D79B7"/>
<path d="M410.921 252.931H408.834L408.436 253.894H407.37L409.374 249.402H410.401L412.412 253.894H411.32L410.921 252.931ZM410.594 252.142L409.881 250.422L409.168 252.142H410.594Z" fill="white"/>
<path d="M416.78 251.032C416.78 252.032 416.029 252.656 414.827 252.656H413.922V253.894H412.881V249.401H414.827C416.029 249.401 416.78 250.024 416.78 251.032ZM415.728 251.032C415.728 250.537 415.406 250.249 414.77 250.249H413.922V251.808H414.77C415.406 251.808 415.728 251.519 415.728 251.032Z" fill="white"/>
<path d="M421.42 251.032C421.42 252.032 420.669 252.656 419.467 252.656H418.562V253.894H417.521V249.401H419.467C420.669 249.401 421.42 250.024 421.42 251.032ZM420.367 251.032C420.367 250.537 420.045 250.249 419.41 250.249H418.562V251.808H419.41C420.046 251.808 420.367 251.519 420.367 251.032Z" fill="white"/>
<path d="M422.161 249.401H423.201V253.046H425.455V253.894H422.161V249.401Z" fill="white"/>
<path d="M427.737 252.302V253.894H426.696V252.29L424.955 249.402H426.06L427.261 251.398L428.462 249.402H429.484L427.737 252.302Z" fill="white"/>
<path d="M435.865 249.401V253.894H435.011L432.77 251.166V253.894H431.742V249.401H432.603L434.838 252.129V249.401H435.865Z" fill="white"/>
<path d="M436.65 251.648C436.65 250.313 437.691 249.324 439.11 249.324C440.523 249.324 441.57 250.306 441.57 251.648C441.57 252.989 440.523 253.971 439.11 253.971C437.691 253.971 436.65 252.982 436.65 251.648ZM440.516 251.648C440.516 250.795 439.913 250.211 439.11 250.211C438.307 250.211 437.704 250.795 437.704 251.648C437.704 252.501 438.307 253.085 439.11 253.085C439.913 253.085 440.516 252.501 440.516 251.648Z" fill="white"/>
<path d="M449.004 249.401L447.533 253.894H446.416L445.426 250.852L444.404 253.894H443.293L441.815 249.401H442.895L443.91 252.558L444.969 249.401H445.933L446.961 252.584L448.008 249.401H449.004Z" fill="white"/>
<path d="M130.006 151.246H37.8184V202.744H130.006V151.246Z" fill="#FAFAFA"/>
<path d="M130.006 202.744C130.006 202.744 129.997 202.425 129.992 201.816C129.988 201.2 129.983 200.3 129.976 199.122C129.968 196.756 129.956 193.284 129.942 188.824C129.924 179.909 129.899 167.052 129.868 151.246L130.006 151.384C105.413 151.395 73.1027 151.411 37.8255 151.427H37.8185L37.9991 151.246C37.995 169.457 37.9908 186.874 37.9873 202.744L37.8185 202.576C64.7917 202.609 87.8158 202.638 104.106 202.658C112.258 202.677 118.723 202.693 123.159 202.704C125.373 202.713 127.078 202.719 128.241 202.724C128.814 202.728 129.251 202.732 129.554 202.735C129.851 202.738 130.006 202.744 130.006 202.744C130.006 202.744 129.864 202.751 129.574 202.755C129.276 202.757 128.845 202.76 128.279 202.765C127.126 202.77 125.431 202.777 123.232 202.786C118.805 202.797 112.353 202.812 104.218 202.832C87.8991 202.852 64.8362 202.88 37.8178 202.914H37.649V202.745C37.6455 186.875 37.6414 169.457 37.6372 151.247V151.066H37.8185H37.8255C73.1027 151.082 105.413 151.098 130.006 151.109H130.145V151.247C130.114 167.088 130.089 179.974 130.072 188.91C130.056 193.356 130.045 196.818 130.037 199.177C130.03 200.343 130.025 201.236 130.022 201.845C130.016 202.444 130.006 202.744 130.006 202.744Z" fill="#263238"/>
<path d="M62.1171 163.521H49.0845V176.541H62.1171V163.521Z" fill="#455A64"/>
<path d="M80.0177 165.35C80.0177 165.45 76.9757 165.531 73.2245 165.531C69.4719 165.531 66.4307 165.45 66.4307 165.35C66.4307 165.251 69.4719 165.17 73.2245 165.17C76.9757 165.169 80.0177 165.25 80.0177 165.35Z" fill="#2D79B7"/>
<path d="M123.418 170.031C123.418 170.131 110.66 170.211 94.9259 170.211C79.1861 170.211 66.4307 170.13 66.4307 170.031C66.4307 169.931 79.1861 169.85 94.9259 169.85C110.66 169.85 123.418 169.931 123.418 170.031Z" fill="#263238"/>
<path d="M104.245 175.282C104.245 175.382 95.8614 175.463 85.5227 175.463C75.1805 175.463 66.7993 175.382 66.7993 175.282C66.7993 175.182 75.1805 175.102 85.5227 175.102C95.8614 175.102 104.245 175.182 104.245 175.282Z" fill="#263238"/>
<path d="M116.359 195.919H53.3858C50.05 195.919 47.3457 193.217 47.3457 189.885C47.3457 186.552 50.05 183.85 53.3858 183.85H116.359C119.695 183.85 122.399 186.552 122.399 189.885C122.399 193.217 119.695 195.919 116.359 195.919Z" fill="#2D79B7"/>
<path d="M73.2986 190.731H71.7516L71.4563 191.444H70.6665L72.151 188.115H72.9124L74.4024 191.444H73.5938L73.2986 190.731ZM73.0562 190.146L72.5282 188.872L71.9996 190.146H73.0562Z" fill="white"/>
<path d="M77.6367 189.323C77.6367 190.064 77.0796 190.525 76.1897 190.525H75.5186V191.443H74.7476V188.114H76.1897C77.0796 188.115 77.6367 188.576 77.6367 189.323ZM76.8559 189.323C76.8559 188.957 76.6183 188.742 76.1466 188.742H75.5186V189.898H76.1466C76.6183 189.899 76.8559 189.684 76.8559 189.323Z" fill="white"/>
<path d="M81.0708 189.323C81.0708 190.064 80.5136 190.525 79.6238 190.525H78.9527V191.443H78.1816V188.114H79.6238C80.5143 188.115 81.0708 188.576 81.0708 189.323ZM80.29 189.323C80.29 188.957 80.0524 188.742 79.5807 188.742H78.9527V189.898H79.5807C80.0524 189.899 80.29 189.684 80.29 189.323Z" fill="white"/>
<path d="M81.6157 188.115H82.3868V190.816H84.0575V191.443H81.6157V188.115Z" fill="white"/>
<path d="M85.7445 190.264V191.443H84.9734V190.255L83.6841 188.115H84.5024L85.3923 189.594L86.2821 188.115H87.0386L85.7445 190.264Z" fill="white"/>
<path d="M91.7614 188.115V191.443H91.1279L89.4669 189.422V191.443H88.7056V188.115H89.3433L90.9994 190.136V188.115H91.7614Z" fill="white"/>
<path d="M92.3394 189.78C92.3394 188.79 93.1104 188.059 94.1622 188.059C95.209 188.059 95.985 188.786 95.985 189.78C95.985 190.774 95.209 191.5 94.1622 191.5C93.1104 191.5 92.3394 190.768 92.3394 189.78ZM95.2049 189.78C95.2049 189.147 94.7575 188.715 94.1629 188.715C93.5682 188.715 93.1209 189.147 93.1209 189.78C93.1209 190.412 93.5682 190.844 94.1629 190.844C94.7575 190.844 95.2049 190.412 95.2049 189.78Z" fill="white"/>
<path d="M101.489 188.115L100.399 191.443H99.5709L98.838 189.19L98.0816 191.443H97.2584L96.1636 188.115H96.9631L97.7155 190.454L98.5004 188.115H99.2145L99.9759 190.473L100.752 188.115H101.489Z" fill="white"/>
<path d="M465.508 61.2795H364.368V117.779H465.508V61.2795Z" fill="#FAFAFA"/>
<path d="M465.508 117.779C465.508 117.779 465.499 117.429 465.494 116.761C465.49 116.088 465.485 115.1 465.478 113.808C465.47 111.214 465.459 107.404 465.444 102.511C465.426 92.7302 465.401 78.6226 465.37 61.2795L465.508 61.4176C438.527 61.4287 403.079 61.444 364.376 61.4599H364.368L364.549 61.2795C364.545 81.2584 364.541 100.368 364.537 117.779L364.368 117.61C393.964 117.643 419.226 117.672 437.099 117.692C446.042 117.711 453.134 117.727 458 117.738C460.429 117.747 462.3 117.754 463.573 117.759C464.202 117.763 464.683 117.766 465.014 117.769C465.338 117.772 465.508 117.779 465.508 117.779C465.508 117.779 465.351 117.786 465.033 117.789C464.707 117.791 464.233 117.795 463.612 117.8C462.347 117.804 460.487 117.811 458.073 117.82C453.216 117.831 446.137 117.847 437.21 117.866C419.31 117.886 394.009 117.915 364.368 117.948H364.199V117.779C364.195 100.368 364.191 81.2591 364.187 61.2802V61.0991H364.368H364.375C403.079 61.1157 438.527 61.1303 465.508 61.1414H465.647V61.2795C465.615 78.6587 465.59 92.7947 465.573 102.595C465.558 107.476 465.546 111.275 465.538 113.862C465.531 115.143 465.526 116.122 465.523 116.79C465.518 117.448 465.508 117.779 465.508 117.779Z" fill="#263238"/>
<path d="M391.027 74.7459H376.729V89.0305H391.027V74.7459Z" fill="#455A64"/>
<path d="M410.664 76.7529C410.664 76.8529 407.327 76.9334 403.211 76.9334C399.094 76.9334 395.757 76.8522 395.757 76.7529C395.757 76.653 399.094 76.5725 403.211 76.5725C407.327 76.5725 410.664 76.653 410.664 76.7529Z" fill="#2D79B7"/>
<path d="M458.28 81.8885C458.28 81.9885 444.284 82.069 427.021 82.069C409.753 82.069 395.758 81.9885 395.758 81.8885C395.758 81.7886 409.752 81.7081 427.021 81.7081C444.283 81.7074 458.28 81.7886 458.28 81.8885Z" fill="#263238"/>
<path d="M437.244 87.6494C437.244 87.7494 428.047 87.8299 416.705 87.8299C405.358 87.8299 396.163 87.7487 396.163 87.6494C396.163 87.5495 405.358 87.469 416.705 87.469C428.047 87.469 437.244 87.5495 437.244 87.6494Z" fill="#263238"/>
<path d="M450.536 110.29H381.447C377.787 110.29 374.82 107.326 374.82 103.67C374.82 100.013 377.787 97.049 381.447 97.049H450.536C454.196 97.049 457.163 100.013 457.163 103.67C457.163 107.326 454.196 110.29 450.536 110.29Z" fill="#2D79B7"/>
<path d="M403.29 104.598H401.596L401.272 105.38H400.406L402.033 101.733H402.867L404.501 105.38H403.614L403.29 104.598ZM403.024 103.957L402.446 102.561L401.866 103.957H403.024Z" fill="white"/>
<path d="M408.048 103.056C408.048 103.868 407.439 104.373 406.463 104.373H405.728V105.379H404.883V101.732H406.462C407.438 101.733 408.048 102.238 408.048 103.056ZM407.193 103.056C407.193 102.654 406.932 102.42 406.416 102.42H405.728V103.686H406.416C406.933 103.686 407.193 103.452 407.193 103.056Z" fill="white"/>
<path d="M411.815 103.056C411.815 103.868 411.206 104.373 410.23 104.373H409.495V105.379H408.65V101.732H410.23C411.206 101.733 411.815 102.238 411.815 103.056ZM410.96 103.056C410.96 102.654 410.699 102.42 410.183 102.42H409.495V103.686H410.183C410.699 103.686 410.96 103.452 410.96 103.056Z" fill="white"/>
<path d="M412.417 101.733H413.262V104.692H415.093V105.38H412.417V101.733Z" fill="white"/>
<path d="M416.945 104.088V105.38H416.101V104.077L414.687 101.733H415.585L416.559 103.353L417.534 101.733H418.363L416.945 104.088Z" fill="white"/>
<path d="M423.545 101.733V105.38H422.852L421.032 103.166V105.38H420.197V101.733H420.896L422.711 103.947V101.733H423.545Z" fill="white"/>
<path d="M424.184 103.556C424.184 102.473 425.029 101.67 426.181 101.67C427.328 101.67 428.178 102.466 428.178 103.556C428.178 104.645 427.328 105.442 426.181 105.442C425.028 105.442 424.184 104.64 424.184 103.556ZM427.323 103.556C427.323 102.863 426.833 102.389 426.181 102.389C425.529 102.389 425.039 102.863 425.039 103.556C425.039 104.249 425.529 104.723 426.181 104.723C426.833 104.723 427.323 104.249 427.323 103.556Z" fill="white"/>
<path d="M434.214 101.733L433.02 105.38H432.112L431.309 102.91L430.48 105.38H429.578L428.378 101.733H429.255L430.078 104.296L430.938 101.733H431.721L432.555 104.317L433.405 101.733H434.214Z" fill="white"/>
</svg>
