<svg width="150" height="150" viewBox="0 0 150 150" fill="none" xmlns="http://www.w3.org/2000/svg">
<path d="M68.4487 142.786C68.4487 142.786 91.1512 146.431 108.965 130.473C126.78 114.515 131.674 88.5717 136.193 67.6768C140.713 46.7821 131.107 28.2013 113.357 22.2451C95.6074 16.2889 87.9316 31.4377 66.0394 36.2248C44.1472 41.0119 37.4857 38.9193 22.099 55.0374C6.71226 71.1555 10.258 101.716 29.7535 121.153C49.2493 140.59 68.4487 142.786 68.4487 142.786Z" fill="#4598E6"/>
<path opacity="0.7" d="M68.4487 142.786C68.4487 142.786 91.1512 146.431 108.965 130.473C126.78 114.515 131.674 88.5717 136.193 67.6768C140.713 46.7821 131.107 28.2013 113.357 22.2451C95.6074 16.2889 87.9316 31.4377 66.0394 36.2248C44.1472 41.0119 37.4857 38.9193 22.099 55.0374C6.71226 71.1555 10.258 101.716 29.7535 121.153C49.2493 140.59 68.4487 142.786 68.4487 142.786Z" fill="white"/>
<path d="M127.751 35.9985C126.902 33.24 123.54 31.8723 121.155 30.8385C120.038 30.3543 119.717 29.487 119.635 28.3056C119.626 28.1757 119.641 27.4146 119.663 26.6661H118.586H115.998H114.92C114.943 27.4143 114.957 28.1757 114.949 28.3056C114.867 29.487 114.546 30.3543 113.428 30.8385C111.044 31.872 107.682 33.24 106.833 35.9985C106.586 36.8007 106.519 37.5342 106.533 38.1456H115.998H118.586H128.051C128.064 37.5342 127.997 36.8007 127.751 35.9985Z" fill="#263238"/>
<path d="M117.612 11.3658H116.971V27.1068H117.612V11.3658Z" fill="#263238"/>
<path d="M106.152 39.6613L101.857 49.5145" stroke="#263238" stroke-miterlimit="10" stroke-linecap="round" stroke-linejoin="round"/>
<path d="M128.392 39.6613L132.686 49.5145" stroke="#263238" stroke-miterlimit="10" stroke-linecap="round" stroke-linejoin="round"/>
<path d="M108.596 39.2863L107.458 43.1569" stroke="#263238" stroke-miterlimit="10" stroke-linecap="round" stroke-linejoin="round"/>
<path d="M125.672 39.4573L126.811 43.2709" stroke="#263238" stroke-miterlimit="10" stroke-linecap="round" stroke-linejoin="round"/>
<path d="M124.477 41.9047L125.445 45.4906" stroke="#263238" stroke-miterlimit="10" stroke-linecap="round" stroke-linejoin="round"/>
<path d="M113.378 41.9047L112.922 45.2629" stroke="#263238" stroke-miterlimit="10" stroke-linecap="round" stroke-linejoin="round"/>
<path d="M55.7695 46.3193H63.3673V53.5916H55.1182" stroke="#263238" stroke-miterlimit="10" stroke-linecap="round" stroke-linejoin="round"/>
<path d="M64.7788 61.2438H70.5316V49.5756H65.1043" stroke="#263238" stroke-miterlimit="10" stroke-linecap="round" stroke-linejoin="round"/>
<path d="M56.8548 45.1254H52.0791V47.8389H56.8548V45.1254Z" fill="#4598E6" stroke="#263238" stroke-miterlimit="10" stroke-linecap="round" stroke-linejoin="round"/>
<path d="M65.756 48.3816H60.98V51.0951H65.756V48.3816Z" fill="#4598E6" stroke="#263238" stroke-miterlimit="10" stroke-linecap="round" stroke-linejoin="round"/>
<path d="M67.1666 59.8872H62.3906V62.6007H67.1666V59.8872Z" fill="#4598E6" stroke="#263238" stroke-miterlimit="10" stroke-linecap="round" stroke-linejoin="round"/>
<path d="M56.8548 51.6378H52.0791V54.3513H56.8548V51.6378Z" fill="#4598E6" stroke="#263238" stroke-miterlimit="10" stroke-linecap="round" stroke-linejoin="round"/>
<path d="M74.3336 78.9546H56.9336C56.3261 78.9546 55.8335 78.462 55.8335 77.8545V68.4546C55.8335 67.8471 56.3261 67.3545 56.9336 67.3545H74.3336C74.9411 67.3545 75.4337 67.8471 75.4337 68.4546V77.8545C75.4337 78.4623 74.9411 78.9546 74.3336 78.9546Z" fill="white" stroke="#263238" stroke-miterlimit="10" stroke-linecap="round" stroke-linejoin="round"/>
<path d="M75.4334 69.5547H55.8335V73.7547H75.4334V69.5547Z" fill="#4598E6" stroke="#263238" stroke-miterlimit="10" stroke-linecap="round" stroke-linejoin="round"/>
<path d="M71.2961 77.103C71.2961 76.6503 70.9292 76.2831 70.4762 76.2831C70.0235 76.2831 69.6562 76.65 69.6562 77.103C69.6562 77.5557 70.0235 77.9229 70.4762 77.9229C70.9292 77.9226 71.2961 77.5557 71.2961 77.103Z" fill="white" stroke="#263238" stroke-miterlimit="10" stroke-linecap="round" stroke-linejoin="round"/>
<path d="M73.5734 77.103C73.5734 76.6503 73.2065 76.2831 72.7535 76.2831C72.3008 76.2831 71.9336 76.65 71.9336 77.103C71.9336 77.5557 72.3005 77.9229 72.7535 77.9229C73.2062 77.9226 73.5734 77.5557 73.5734 77.103Z" fill="white" stroke="#263238" stroke-miterlimit="10" stroke-linecap="round" stroke-linejoin="round"/>
<path d="M48.1422 56.5752H24.6924V68.7927H48.1422V56.5752Z" fill="white" stroke="#263238" stroke-miterlimit="10" stroke-linecap="round" stroke-linejoin="round"/>
<path d="M48.1422 56.5752H24.6924V58.7397H48.1422V56.5752Z" fill="#263238" stroke="#263238" stroke-miterlimit="10" stroke-linecap="round" stroke-linejoin="round"/>
<path d="M44.6128 61.3398H28.2217V64.8441H44.6128V61.3398Z" fill="#4598E6" stroke="#263238" stroke-miterlimit="10" stroke-linecap="round" stroke-linejoin="round"/>
<path d="M29.5267 62.5098H29.8081L29.7658 62.9898L30.163 62.6874L30.3055 62.9316L29.8537 63.153L30.3055 63.3867L30.163 63.6327L29.7658 63.3198L29.8081 63.8085H29.5267L29.5795 63.3111L29.1805 63.6204L29.0398 63.3744L29.4793 63.153L29.0293 62.9439L29.1718 62.6997L29.578 62.9949L29.5267 62.5098Z" fill="#263238"/>
<path d="M31.2142 62.5098H31.4956L31.4533 62.9898L31.8505 62.6874L31.993 62.9316L31.5412 63.153L31.993 63.3867L31.8505 63.6327L31.4533 63.3198L31.4956 63.8085H31.2142L31.267 63.3111L30.868 63.6204L30.7273 63.3744L31.1668 63.153L30.7168 62.9439L30.8593 62.6997L31.2655 62.9949L31.2142 62.5098Z" fill="#263238"/>
<path d="M32.9017 62.5098H33.1831L33.1408 62.9898L33.538 62.6874L33.6805 62.9316L33.2287 63.153L33.6805 63.3867L33.538 63.6327L33.1408 63.3198L33.1831 63.8085H32.9017L32.9545 63.3111L32.5555 63.6204L32.4148 63.3744L32.8543 63.153L32.4043 62.9439L32.5468 62.6997L32.953 62.9949L32.9017 62.5098Z" fill="#263238"/>
<path d="M34.5892 62.5098H34.8706L34.8283 62.9898L35.2255 62.6874L35.368 62.9316L34.9162 63.153L35.368 63.3867L35.2255 63.6327L34.8283 63.3198L34.8706 63.8085H34.5892L34.642 63.3111L34.243 63.6204L34.1023 63.3744L34.5418 63.153L34.0918 62.9439L34.2343 62.6997L34.6405 62.9949L34.5892 62.5098Z" fill="#263238"/>
<path d="M36.2767 62.5098H36.5581L36.5158 62.9898L36.913 62.6874L37.0555 62.9316L36.6037 63.153L37.0555 63.3867L36.913 63.6327L36.5158 63.3198L36.5581 63.8085H36.2767L36.3295 63.3111L35.9305 63.6204L35.7898 63.3744L36.2293 63.153L35.7793 62.9439L35.9218 62.6997L36.328 62.9949L36.2767 62.5098Z" fill="#263238"/>
<path d="M37.9642 62.5098H38.2456L38.2033 62.9898L38.6005 62.6874L38.743 62.9316L38.2912 63.153L38.743 63.3867L38.6005 63.6327L38.2033 63.3198L38.2456 63.8085H37.9642L38.017 63.3111L37.618 63.6204L37.4773 63.3744L37.9168 63.153L37.4668 62.9439L37.6093 62.6997L38.0155 62.9949L37.9642 62.5098Z" fill="#263238"/>
<path d="M39.6517 62.5098H39.9331L39.8908 62.9898L40.288 62.6874L40.4305 62.9316L39.9787 63.153L40.4305 63.3867L40.288 63.6327L39.8908 63.3198L39.9331 63.8085H39.6517L39.7045 63.3111L39.3055 63.6204L39.1648 63.3744L39.6043 63.153L39.1543 62.9439L39.2968 62.6997L39.703 62.9949L39.6517 62.5098Z" fill="#263238"/>
<path d="M41.3392 62.5098H41.6206L41.5783 62.9898L41.9755 62.6874L42.118 62.9316L41.6662 63.153L42.118 63.3867L41.9755 63.6327L41.5783 63.3198L41.6206 63.8085H41.3392L41.392 63.3111L40.993 63.6204L40.8523 63.3744L41.2918 63.153L40.8418 62.9439L40.9843 62.6997L41.3905 62.9949L41.3392 62.5098Z" fill="#263238"/>
<path d="M43.0267 62.5098H43.3081L43.2658 62.9898L43.663 62.6874L43.8055 62.9316L43.3537 63.153L43.8055 63.3867L43.663 63.6327L43.2658 63.3198L43.3081 63.8085H43.0267L43.0795 63.3111L42.6805 63.6204L42.5398 63.3744L42.9793 63.153L42.5293 62.9439L42.6718 62.6997L43.078 62.9949L43.0267 62.5098Z" fill="#263238"/>
<path d="M75.5244 53.3745H79.9746" stroke="#263238" stroke-width="0.5" stroke-miterlimit="10" stroke-linecap="round" stroke-linejoin="round"/>
<path d="M75.5244 54.6771H79.9746" stroke="#263238" stroke-width="0.5" stroke-miterlimit="10" stroke-linecap="round" stroke-linejoin="round"/>
<path d="M75.5244 55.9794H79.9746" stroke="#263238" stroke-width="0.5" stroke-miterlimit="10" stroke-linecap="round" stroke-linejoin="round"/>
<path d="M75.5244 57.282H79.9746" stroke="#263238" stroke-width="0.5" stroke-miterlimit="10" stroke-linecap="round" stroke-linejoin="round"/>
<path d="M48.2144 71.4486H52.6646" stroke="#263238" stroke-width="0.5" stroke-miterlimit="10" stroke-linecap="round" stroke-linejoin="round"/>
<path d="M48.2144 72.7512H52.6646" stroke="#263238" stroke-width="0.5" stroke-miterlimit="10" stroke-linecap="round" stroke-linejoin="round"/>
<path d="M48.2144 74.0535H52.6646" stroke="#263238" stroke-width="0.5" stroke-miterlimit="10" stroke-linecap="round" stroke-linejoin="round"/>
<path d="M48.2144 75.3561H52.6646" stroke="#263238" stroke-width="0.5" stroke-miterlimit="10" stroke-linecap="round" stroke-linejoin="round"/>
<path d="M25.6182 70.6758H37.4904" stroke="#263238" stroke-width="0.5" stroke-miterlimit="10" stroke-linecap="round" stroke-linejoin="round"/>
<path d="M25.6182 71.9784H37.4904" stroke="#263238" stroke-width="0.5" stroke-miterlimit="10" stroke-linecap="round" stroke-linejoin="round"/>
<path d="M25.6182 73.2806H37.4904" stroke="#263238" stroke-width="0.5" stroke-miterlimit="10" stroke-linecap="round" stroke-linejoin="round"/>
<path d="M25.6182 74.5833H37.4904" stroke="#263238" stroke-width="0.5" stroke-miterlimit="10" stroke-linecap="round" stroke-linejoin="round"/>
<path d="M66.2466 122.948H63.2817V134.24H66.2466V122.948Z" fill="white" stroke="#263238" stroke-miterlimit="10" stroke-linecap="round" stroke-linejoin="round"/>
<path d="M66.7103 122.948H62.8184V131.147H66.7103V122.948Z" fill="#263238" stroke="#263238" stroke-miterlimit="10" stroke-linecap="round" stroke-linejoin="round"/>
<path d="M90.0011 85.3798H40.9277V123.765H90.0011V85.3798Z" fill="white" stroke="#263238" stroke-miterlimit="10" stroke-linecap="round" stroke-linejoin="round"/>
<path d="M87.3758 87.4332H43.5527V121.712H87.3758V87.4332Z" fill="#263238" stroke="#263238" stroke-miterlimit="10" stroke-linecap="round" stroke-linejoin="round"/>
<path d="M47.7224 89.7916H46.5929C46.439 89.7916 46.3145 89.6671 46.3145 89.5129C46.3145 89.359 46.439 89.2345 46.5929 89.2345H47.7224C47.8763 89.2345 48.0008 89.359 48.0008 89.5129C48.0008 89.6668 47.8763 89.7916 47.7224 89.7916ZM48.0008 90.8038C48.0008 90.6499 47.8763 90.5254 47.7224 90.5254H46.5929C46.439 90.5254 46.3145 90.6499 46.3145 90.8038C46.3145 90.9577 46.439 91.0825 46.5929 91.0825H47.7224C47.8763 91.0825 48.0008 90.958 48.0008 90.8038ZM48.0008 92.0947C48.0008 91.9408 47.8763 91.8163 47.7224 91.8163H46.5929C46.439 91.8163 46.3145 91.9408 46.3145 92.0947C46.3145 92.2486 46.439 92.3734 46.5929 92.3734H47.7224C47.8763 92.3734 48.0008 92.2489 48.0008 92.0947ZM48.0008 93.3856C48.0008 93.2317 47.8763 93.1069 47.7224 93.1069H46.5929C46.439 93.1069 46.3145 93.2314 46.3145 93.3856C46.3145 93.5395 46.439 93.6643 46.5929 93.6643H47.7224C47.8763 93.6643 48.0008 93.5398 48.0008 93.3856ZM48.0008 94.6768C48.0008 94.5229 47.8763 94.3981 47.7224 94.3981H46.5929C46.439 94.3981 46.3145 94.5226 46.3145 94.6768C46.3145 94.8307 46.439 94.9552 46.5929 94.9552H47.7224C47.8763 94.9552 48.0008 94.8307 48.0008 94.6768ZM48.0008 95.9677C48.0008 95.8138 47.8763 95.6893 47.7224 95.6893H46.5929C46.439 95.6893 46.3145 95.8138 46.3145 95.9677C46.3145 96.1216 46.439 96.2464 46.5929 96.2464H47.7224C47.8763 96.2464 48.0008 96.1219 48.0008 95.9677ZM48.0008 97.2589C48.0008 97.105 47.8763 96.9802 47.7224 96.9802H46.5929C46.439 96.9802 46.3145 97.1047 46.3145 97.2589C46.3145 97.4128 46.439 97.5376 46.5929 97.5376H47.7224C47.8763 97.5373 48.0008 97.4128 48.0008 97.2589ZM48.0008 98.5498C48.0008 98.3959 47.8763 98.2711 47.7224 98.2711H46.5929C46.439 98.2711 46.3145 98.3956 46.3145 98.5498C46.3145 98.7037 46.439 98.8282 46.5929 98.8282H47.7224C47.8763 98.8282 48.0008 98.7037 48.0008 98.5498ZM52.2269 89.5129C52.2269 89.359 52.1024 89.2345 51.9485 89.2345H48.9833C48.8294 89.2345 48.7049 89.359 48.7049 89.5129C48.7049 89.6668 48.8294 89.7916 48.9833 89.7916H51.9485C52.1021 89.7916 52.2269 89.6668 52.2269 89.5129ZM52.2269 90.8038C52.2269 90.6499 52.1024 90.5254 51.9485 90.5254H48.9833C48.8294 90.5254 48.7049 90.6499 48.7049 90.8038C48.7049 90.9577 48.8294 91.0825 48.9833 91.0825H51.9485C52.1021 91.0825 52.2269 90.958 52.2269 90.8038ZM52.2269 92.0947C52.2269 91.9408 52.1024 91.8163 51.9485 91.8163H48.9833C48.8294 91.8163 48.7049 91.9408 48.7049 92.0947C48.7049 92.2486 48.8294 92.3734 48.9833 92.3734H51.9485C52.1021 92.3734 52.2269 92.2489 52.2269 92.0947ZM52.2269 93.3856C52.2269 93.2317 52.1024 93.1069 51.9485 93.1069H48.9833C48.8294 93.1069 48.7049 93.2314 48.7049 93.3856C48.7049 93.5395 48.8294 93.6643 48.9833 93.6643H51.9485C52.1021 93.6643 52.2269 93.5398 52.2269 93.3856ZM52.2269 94.6768C52.2269 94.5229 52.1024 94.3981 51.9485 94.3981H48.9833C48.8294 94.3981 48.7049 94.5226 48.7049 94.6768C48.7049 94.8307 48.8294 94.9552 48.9833 94.9552H51.9485C52.1021 94.9552 52.2269 94.8307 52.2269 94.6768ZM55.7768 95.9677C55.7768 95.8138 55.6523 95.6893 55.4981 95.6893H52.5329C52.379 95.6893 52.2542 95.8138 52.2542 95.9677C52.2542 96.1216 52.3787 96.2464 52.5329 96.2464H55.4981C55.6523 96.2464 55.7768 96.1219 55.7768 95.9677ZM55.7768 97.2589C55.7768 97.105 55.6523 96.9802 55.4981 96.9802H52.5329C52.379 96.9802 52.2542 97.1047 52.2542 97.2589C52.2542 97.4128 52.3787 97.5376 52.5329 97.5376H55.4981C55.6523 97.5373 55.7768 97.4128 55.7768 97.2589ZM55.7768 98.5498C55.7768 98.3959 55.6523 98.2711 55.4981 98.2711H52.5329C52.379 98.2711 52.2542 98.3956 52.2542 98.5498C52.2542 98.7037 52.3787 98.8282 52.5329 98.8282H55.4981C55.6523 98.8282 55.7768 98.7037 55.7768 98.5498ZM53.5316 89.5129C53.5316 89.3347 53.387 89.1901 53.2088 89.1901C53.0306 89.1901 52.886 89.3344 52.886 89.5129C52.886 89.6911 53.0306 89.8357 53.2088 89.8357C53.3873 89.8357 53.5316 89.6911 53.5316 89.5129ZM54.4997 89.5129C54.4997 89.3347 54.3554 89.1901 54.1769 89.1901C53.9987 89.1901 53.8541 89.3344 53.8541 89.5129C53.8541 89.6911 53.9987 89.8357 54.1769 89.8357C54.3554 89.8357 54.4997 89.6911 54.4997 89.5129ZM55.4681 89.5129C55.4681 89.3347 55.3235 89.1901 55.1453 89.1901C54.9671 89.1901 54.8225 89.3344 54.8225 89.5129C54.8225 89.6911 54.9671 89.8357 55.1453 89.8357C55.3235 89.8357 55.4681 89.6911 55.4681 89.5129ZM56.4362 89.5129C56.4362 89.3347 56.2916 89.1901 56.1134 89.1901C55.9352 89.1901 55.7906 89.3344 55.7906 89.5129C55.7906 89.6911 55.9352 89.8357 56.1134 89.8357C56.2919 89.8357 56.4362 89.6911 56.4362 89.5129ZM57.4046 89.5129C57.4046 89.3347 57.26 89.1901 57.0818 89.1901C56.9036 89.1901 56.759 89.3344 56.759 89.5129C56.759 89.6911 56.9036 89.8357 57.0818 89.8357C57.26 89.8357 57.4046 89.6911 57.4046 89.5129ZM58.3727 89.5129C58.3727 89.3347 58.2281 89.1901 58.0499 89.1901C57.8716 89.1901 57.7271 89.3344 57.7271 89.5129C57.7271 89.6911 57.8716 89.8357 58.0499 89.8357C58.2283 89.8357 58.3727 89.6911 58.3727 89.5129ZM53.5316 92.095C53.5316 91.9168 53.387 91.7722 53.2088 91.7722C53.0306 91.7722 52.886 91.9168 52.886 92.095C52.886 92.2732 53.0306 92.4178 53.2088 92.4178C53.3873 92.4175 53.5316 92.2732 53.5316 92.095ZM54.4997 92.095C54.4997 91.9168 54.3554 91.7722 54.1769 91.7722C53.9987 91.7722 53.8541 91.9168 53.8541 92.095C53.8541 92.2732 53.9987 92.4178 54.1769 92.4178C54.3554 92.4175 54.4997 92.2732 54.4997 92.095ZM55.4681 92.095C55.4681 91.9168 55.3235 91.7722 55.1453 91.7722C54.9671 91.7722 54.8225 91.9168 54.8225 92.095C54.8225 92.2732 54.9671 92.4178 55.1453 92.4178C55.3235 92.4175 55.4681 92.2732 55.4681 92.095ZM56.4362 92.095C56.4362 91.9168 56.2916 91.7722 56.1134 91.7722C55.9352 91.7722 55.7906 91.9168 55.7906 92.095C55.7906 92.2732 55.9352 92.4178 56.1134 92.4178C56.2919 92.4175 56.4362 92.2732 56.4362 92.095ZM57.4046 92.095C57.4046 91.9168 57.26 91.7722 57.0818 91.7722C56.9036 91.7722 56.759 91.9168 56.759 92.095C56.759 92.2732 56.9036 92.4178 57.0818 92.4178C57.26 92.4175 57.4046 92.2732 57.4046 92.095ZM58.3727 92.095C58.3727 91.9168 58.2281 91.7722 58.0499 91.7722C57.8716 91.7722 57.7271 91.9168 57.7271 92.095C57.7271 92.2732 57.8716 92.4178 58.0499 92.4178C58.2283 92.4175 58.3727 92.2732 58.3727 92.095ZM56.8397 95.8063C56.8397 95.6281 56.6951 95.4835 56.5169 95.4835C56.3387 95.4835 56.1941 95.6281 56.1941 95.8063C56.1941 95.9845 56.3387 96.1291 56.5169 96.1291C56.6951 96.1291 56.8397 95.9845 56.8397 95.8063ZM57.8081 95.8063C57.8081 95.6281 57.6635 95.4835 57.4853 95.4835C57.3071 95.4835 57.1625 95.6281 57.1625 95.8063C57.1625 95.9845 57.3071 96.1291 57.4853 96.1291C57.6635 96.1291 57.8081 95.9845 57.8081 95.8063ZM58.7762 95.8063C58.7762 95.6281 58.6316 95.4835 58.4534 95.4835C58.2752 95.4835 58.1306 95.6281 58.1306 95.8063C58.1306 95.9845 58.2752 96.1291 58.4534 96.1291C58.6316 96.1291 58.7762 95.9845 58.7762 95.8063ZM59.7443 95.8063C59.7443 95.6281 59.5997 95.4835 59.4215 95.4835C59.2433 95.4835 59.0987 95.6281 59.0987 95.8063C59.0987 95.9845 59.2433 96.1291 59.4215 96.1291C59.6 96.1291 59.7443 95.9845 59.7443 95.8063ZM60.7127 95.8063C60.7127 95.6281 60.5681 95.4835 60.3899 95.4835C60.2117 95.4835 60.0671 95.6281 60.0671 95.8063C60.0671 95.9845 60.2117 96.1291 60.3899 96.1291C60.5681 96.1291 60.7127 95.9845 60.7127 95.8063ZM61.6808 95.8063C61.6808 95.6281 61.5362 95.4835 61.358 95.4835C61.1798 95.4835 61.0352 95.6281 61.0352 95.8063C61.0352 95.9845 61.1798 96.1291 61.358 96.1291C61.5362 96.1291 61.6808 95.9845 61.6808 95.8063ZM56.8397 98.4691C56.8397 98.2909 56.6951 98.1463 56.5169 98.1463C56.3387 98.1463 56.1941 98.2909 56.1941 98.4691C56.1941 98.6473 56.3387 98.7919 56.5169 98.7919C56.6951 98.7916 56.8397 98.6473 56.8397 98.4691ZM57.8081 98.4691C57.8081 98.2909 57.6635 98.1463 57.4853 98.1463C57.3071 98.1463 57.1625 98.2909 57.1625 98.4691C57.1625 98.6473 57.3071 98.7919 57.4853 98.7919C57.6635 98.7916 57.8081 98.6473 57.8081 98.4691ZM58.7762 98.4691C58.7762 98.2909 58.6316 98.1463 58.4534 98.1463C58.2752 98.1463 58.1306 98.2909 58.1306 98.4691C58.1306 98.6473 58.2752 98.7919 58.4534 98.7919C58.6316 98.7916 58.7762 98.6473 58.7762 98.4691ZM59.7443 98.4691C59.7443 98.2909 59.5997 98.1463 59.4215 98.1463C59.2433 98.1463 59.0987 98.2909 59.0987 98.4691C59.0987 98.6473 59.2433 98.7919 59.4215 98.7919C59.6 98.7916 59.7443 98.6473 59.7443 98.4691ZM60.7127 98.4691C60.7127 98.2909 60.5681 98.1463 60.3899 98.1463C60.2117 98.1463 60.0671 98.2909 60.0671 98.4691C60.0671 98.6473 60.2117 98.7919 60.3899 98.7919C60.5681 98.7916 60.7127 98.6473 60.7127 98.4691ZM61.6808 98.4691C61.6808 98.2909 61.5362 98.1463 61.358 98.1463C61.1798 98.1463 61.0352 98.2909 61.0352 98.4691C61.0352 98.6473 61.1798 98.7919 61.358 98.7919C61.5362 98.7916 61.6808 98.6473 61.6808 98.4691Z" fill="#4598E6"/>
<path d="M47.7224 100.122H46.5929C46.439 100.122 46.3145 99.9975 46.3145 99.8433C46.3145 99.6894 46.439 99.5646 46.5929 99.5646H47.7224C47.8763 99.5646 48.0008 99.6891 48.0008 99.8433C48.0008 99.9972 47.8763 100.122 47.7224 100.122ZM48.0008 101.134C48.0008 100.98 47.8763 100.856 47.7224 100.856H46.5929C46.439 100.856 46.3145 100.98 46.3145 101.134C46.3145 101.288 46.439 101.413 46.5929 101.413H47.7224C47.8763 101.413 48.0008 101.288 48.0008 101.134ZM48.0008 102.425C48.0008 102.271 47.8763 102.147 47.7224 102.147H46.5929C46.439 102.147 46.3145 102.271 46.3145 102.425C46.3145 102.579 46.439 102.704 46.5929 102.704H47.7224C47.8763 102.704 48.0008 102.579 48.0008 102.425ZM48.0008 103.716C48.0008 103.562 47.8763 103.437 47.7224 103.437H46.5929C46.439 103.437 46.3145 103.562 46.3145 103.716C46.3145 103.87 46.439 103.994 46.5929 103.994H47.7224C47.8763 103.995 48.0008 103.87 48.0008 103.716ZM48.0008 105.007C48.0008 104.853 47.8763 104.728 47.7224 104.728H46.5929C46.439 104.728 46.3145 104.853 46.3145 105.007C46.3145 105.161 46.439 105.285 46.5929 105.285H47.7224C47.8763 105.286 48.0008 105.161 48.0008 105.007ZM48.0008 106.298C48.0008 106.144 47.8763 106.02 47.7224 106.02H46.5929C46.439 106.02 46.3145 106.144 46.3145 106.298C46.3145 106.452 46.439 106.577 46.5929 106.577H47.7224C47.8763 106.577 48.0008 106.452 48.0008 106.298ZM48.0008 107.589C48.0008 107.435 47.8763 107.31 47.7224 107.31H46.5929C46.439 107.31 46.3145 107.435 46.3145 107.589C46.3145 107.743 46.439 107.867 46.5929 107.867H47.7224C47.8763 107.868 48.0008 107.743 48.0008 107.589ZM48.0008 108.88C48.0008 108.726 47.8763 108.601 47.7224 108.601H46.5929C46.439 108.601 46.3145 108.726 46.3145 108.88C46.3145 109.034 46.439 109.158 46.5929 109.158H47.7224C47.8763 109.159 48.0008 109.034 48.0008 108.88ZM52.2269 99.8433C52.2269 99.6894 52.1024 99.5646 51.9485 99.5646H48.9833C48.8294 99.5646 48.7049 99.6891 48.7049 99.8433C48.7049 99.9972 48.8294 100.122 48.9833 100.122H51.9485C52.1021 100.122 52.2269 99.9972 52.2269 99.8433ZM52.2269 101.134C52.2269 100.98 52.1024 100.856 51.9485 100.856H48.9833C48.8294 100.856 48.7049 100.98 48.7049 101.134C48.7049 101.288 48.8294 101.413 48.9833 101.413H51.9485C52.1021 101.413 52.2269 101.288 52.2269 101.134ZM52.2269 102.425C52.2269 102.271 52.1024 102.147 51.9485 102.147H48.9833C48.8294 102.147 48.7049 102.271 48.7049 102.425C48.7049 102.579 48.8294 102.704 48.9833 102.704H51.9485C52.1021 102.704 52.2269 102.579 52.2269 102.425ZM52.2269 103.716C52.2269 103.562 52.1024 103.437 51.9485 103.437H48.9833C48.8294 103.437 48.7049 103.562 48.7049 103.716C48.7049 103.87 48.8294 103.994 48.9833 103.994H51.9485C52.1021 103.995 52.2269 103.87 52.2269 103.716ZM52.2269 105.007C52.2269 104.853 52.1024 104.728 51.9485 104.728H48.9833C48.8294 104.728 48.7049 104.853 48.7049 105.007C48.7049 105.161 48.8294 105.285 48.9833 105.285H51.9485C52.1021 105.286 52.2269 105.161 52.2269 105.007ZM55.7768 106.298C55.7768 106.144 55.6523 106.02 55.4981 106.02H52.5329C52.379 106.02 52.2542 106.144 52.2542 106.298C52.2542 106.452 52.3787 106.577 52.5329 106.577H55.4981C55.6523 106.577 55.7768 106.452 55.7768 106.298ZM55.7768 107.589C55.7768 107.435 55.6523 107.31 55.4981 107.31H52.5329C52.379 107.31 52.2542 107.435 52.2542 107.589C52.2542 107.743 52.3787 107.867 52.5329 107.867H55.4981C55.6523 107.868 55.7768 107.743 55.7768 107.589ZM55.7768 108.88C55.7768 108.726 55.6523 108.601 55.4981 108.601H52.5329C52.379 108.601 52.2542 108.726 52.2542 108.88C52.2542 109.034 52.3787 109.158 52.5329 109.158H55.4981C55.6523 109.159 55.7768 109.034 55.7768 108.88ZM53.5316 99.8433C53.5316 99.6651 53.387 99.5205 53.2088 99.5205C53.0306 99.5205 52.886 99.6651 52.886 99.8433C52.886 100.022 53.0306 100.166 53.2088 100.166C53.3873 100.166 53.5316 100.022 53.5316 99.8433ZM54.4997 99.8433C54.4997 99.6651 54.3554 99.5205 54.1769 99.5205C53.9987 99.5205 53.8541 99.6651 53.8541 99.8433C53.8541 100.022 53.9987 100.166 54.1769 100.166C54.3554 100.166 54.4997 100.022 54.4997 99.8433ZM55.4681 99.8433C55.4681 99.6651 55.3235 99.5205 55.1453 99.5205C54.9671 99.5205 54.8225 99.6651 54.8225 99.8433C54.8225 100.022 54.9671 100.166 55.1453 100.166C55.3235 100.166 55.4681 100.022 55.4681 99.8433ZM56.4362 99.8433C56.4362 99.6651 56.2916 99.5205 56.1134 99.5205C55.9352 99.5205 55.7906 99.6651 55.7906 99.8433C55.7906 100.022 55.9352 100.166 56.1134 100.166C56.2919 100.166 56.4362 100.022 56.4362 99.8433ZM57.4046 99.8433C57.4046 99.6651 57.26 99.5205 57.0818 99.5205C56.9036 99.5205 56.759 99.6651 56.759 99.8433C56.759 100.022 56.9036 100.166 57.0818 100.166C57.26 100.166 57.4046 100.022 57.4046 99.8433ZM58.3727 99.8433C58.3727 99.6651 58.2281 99.5205 58.0499 99.5205C57.8716 99.5205 57.7271 99.6651 57.7271 99.8433C57.7271 100.022 57.8716 100.166 58.0499 100.166C58.2283 100.166 58.3727 100.022 58.3727 99.8433ZM53.5316 102.425C53.5316 102.247 53.387 102.102 53.2088 102.102C53.0306 102.102 52.886 102.247 52.886 102.425C52.886 102.603 53.0306 102.748 53.2088 102.748C53.3873 102.748 53.5316 102.603 53.5316 102.425ZM54.4997 102.425C54.4997 102.247 54.3554 102.102 54.1769 102.102C53.9987 102.102 53.8541 102.247 53.8541 102.425C53.8541 102.603 53.9987 102.748 54.1769 102.748C54.3554 102.748 54.4997 102.603 54.4997 102.425ZM55.4681 102.425C55.4681 102.247 55.3235 102.102 55.1453 102.102C54.9671 102.102 54.8225 102.247 54.8225 102.425C54.8225 102.603 54.9671 102.748 55.1453 102.748C55.3235 102.748 55.4681 102.603 55.4681 102.425ZM56.4362 102.425C56.4362 102.247 56.2916 102.102 56.1134 102.102C55.9352 102.102 55.7906 102.247 55.7906 102.425C55.7906 102.603 55.9352 102.748 56.1134 102.748C56.2919 102.748 56.4362 102.603 56.4362 102.425ZM57.4046 102.425C57.4046 102.247 57.26 102.102 57.0818 102.102C56.9036 102.102 56.759 102.247 56.759 102.425C56.759 102.603 56.9036 102.748 57.0818 102.748C57.26 102.748 57.4046 102.603 57.4046 102.425ZM58.3727 102.425C58.3727 102.247 58.2281 102.102 58.0499 102.102C57.8716 102.102 57.7271 102.247 57.7271 102.425C57.7271 102.603 57.8716 102.748 58.0499 102.748C58.2283 102.748 58.3727 102.603 58.3727 102.425ZM56.8397 106.137C56.8397 105.959 56.6951 105.814 56.5169 105.814C56.3387 105.814 56.1941 105.959 56.1941 106.137C56.1941 106.315 56.3387 106.46 56.5169 106.46C56.6951 106.46 56.8397 106.315 56.8397 106.137ZM57.8081 106.137C57.8081 105.959 57.6635 105.814 57.4853 105.814C57.3071 105.814 57.1625 105.959 57.1625 106.137C57.1625 106.315 57.3071 106.46 57.4853 106.46C57.6635 106.46 57.8081 106.315 57.8081 106.137ZM58.7762 106.137C58.7762 105.959 58.6316 105.814 58.4534 105.814C58.2752 105.814 58.1306 105.959 58.1306 106.137C58.1306 106.315 58.2752 106.46 58.4534 106.46C58.6316 106.46 58.7762 106.315 58.7762 106.137ZM59.7443 106.137C59.7443 105.959 59.5997 105.814 59.4215 105.814C59.2433 105.814 59.0987 105.959 59.0987 106.137C59.0987 106.315 59.2433 106.46 59.4215 106.46C59.6 106.46 59.7443 106.315 59.7443 106.137ZM60.7127 106.137C60.7127 105.959 60.5681 105.814 60.3899 105.814C60.2117 105.814 60.0671 105.959 60.0671 106.137C60.0671 106.315 60.2117 106.46 60.3899 106.46C60.5681 106.46 60.7127 106.315 60.7127 106.137ZM61.6808 106.137C61.6808 105.959 61.5362 105.814 61.358 105.814C61.1798 105.814 61.0352 105.959 61.0352 106.137C61.0352 106.315 61.1798 106.46 61.358 106.46C61.5362 106.46 61.6808 106.315 61.6808 106.137ZM56.8397 108.799C56.8397 108.621 56.6951 108.476 56.5169 108.476C56.3387 108.476 56.1941 108.621 56.1941 108.799C56.1941 108.977 56.3387 109.122 56.5169 109.122C56.6951 109.122 56.8397 108.977 56.8397 108.799ZM57.8081 108.799C57.8081 108.621 57.6635 108.476 57.4853 108.476C57.3071 108.476 57.1625 108.621 57.1625 108.799C57.1625 108.977 57.3071 109.122 57.4853 109.122C57.6635 109.122 57.8081 108.977 57.8081 108.799ZM58.7762 108.799C58.7762 108.621 58.6316 108.476 58.4534 108.476C58.2752 108.476 58.1306 108.621 58.1306 108.799C58.1306 108.977 58.2752 109.122 58.4534 109.122C58.6316 109.122 58.7762 108.977 58.7762 108.799ZM59.7443 108.799C59.7443 108.621 59.5997 108.476 59.4215 108.476C59.2433 108.476 59.0987 108.621 59.0987 108.799C59.0987 108.977 59.2433 109.122 59.4215 109.122C59.6 109.122 59.7443 108.977 59.7443 108.799ZM60.7127 108.799C60.7127 108.621 60.5681 108.476 60.3899 108.476C60.2117 108.476 60.0671 108.621 60.0671 108.799C60.0671 108.977 60.2117 109.122 60.3899 109.122C60.5681 109.122 60.7127 108.977 60.7127 108.799ZM61.6808 108.799C61.6808 108.621 61.5362 108.476 61.358 108.476C61.1798 108.476 61.0352 108.621 61.0352 108.799C61.0352 108.977 61.1798 109.122 61.358 109.122C61.5362 109.122 61.6808 108.977 61.6808 108.799Z" fill="#4598E6"/>
<path d="M47.7224 110.702H46.5929C46.439 110.702 46.3145 110.577 46.3145 110.423C46.3145 110.269 46.439 110.144 46.5929 110.144H47.7224C47.8763 110.144 48.0008 110.269 48.0008 110.423C48.0008 110.577 47.8763 110.702 47.7224 110.702ZM48.0008 111.714C48.0008 111.56 47.8763 111.436 47.7224 111.436H46.5929C46.439 111.436 46.3145 111.56 46.3145 111.714C46.3145 111.868 46.439 111.993 46.5929 111.993H47.7224C47.8763 111.993 48.0008 111.868 48.0008 111.714ZM48.0008 113.005C48.0008 112.851 47.8763 112.726 47.7224 112.726H46.5929C46.439 112.726 46.3145 112.851 46.3145 113.005C46.3145 113.159 46.439 113.283 46.5929 113.283H47.7224C47.8763 113.284 48.0008 113.159 48.0008 113.005ZM48.0008 114.296C48.0008 114.142 47.8763 114.017 47.7224 114.017H46.5929C46.439 114.017 46.3145 114.142 46.3145 114.296C46.3145 114.45 46.439 114.574 46.5929 114.574H47.7224C47.8763 114.575 48.0008 114.45 48.0008 114.296ZM48.0008 115.587C48.0008 115.433 47.8763 115.308 47.7224 115.308H46.5929C46.439 115.308 46.3145 115.433 46.3145 115.587C46.3145 115.741 46.439 115.865 46.5929 115.865H47.7224C47.8763 115.865 48.0008 115.741 48.0008 115.587ZM48.0008 116.878C48.0008 116.724 47.8763 116.599 47.7224 116.599H46.5929C46.439 116.599 46.3145 116.724 46.3145 116.878C46.3145 117.032 46.439 117.157 46.5929 117.157H47.7224C47.8763 117.157 48.0008 117.032 48.0008 116.878ZM48.0008 118.169C48.0008 118.015 47.8763 117.89 47.7224 117.89H46.5929C46.439 117.89 46.3145 118.015 46.3145 118.169C46.3145 118.323 46.439 118.447 46.5929 118.447H47.7224C47.8763 118.448 48.0008 118.323 48.0008 118.169ZM48.0008 119.46C48.0008 119.306 47.8763 119.181 47.7224 119.181H46.5929C46.439 119.181 46.3145 119.306 46.3145 119.46C46.3145 119.614 46.439 119.738 46.5929 119.738H47.7224C47.8763 119.738 48.0008 119.614 48.0008 119.46ZM52.2269 110.423C52.2269 110.269 52.1024 110.144 51.9485 110.144H48.9833C48.8294 110.144 48.7049 110.269 48.7049 110.423C48.7049 110.577 48.8294 110.702 48.9833 110.702H51.9485C52.1021 110.702 52.2269 110.577 52.2269 110.423ZM52.2269 111.714C52.2269 111.56 52.1024 111.436 51.9485 111.436H48.9833C48.8294 111.436 48.7049 111.56 48.7049 111.714C48.7049 111.868 48.8294 111.993 48.9833 111.993H51.9485C52.1021 111.993 52.2269 111.868 52.2269 111.714ZM52.2269 113.005C52.2269 112.851 52.1024 112.726 51.9485 112.726H48.9833C48.8294 112.726 48.7049 112.851 48.7049 113.005C48.7049 113.159 48.8294 113.283 48.9833 113.283H51.9485C52.1021 113.284 52.2269 113.159 52.2269 113.005ZM52.2269 114.296C52.2269 114.142 52.1024 114.017 51.9485 114.017H48.9833C48.8294 114.017 48.7049 114.142 48.7049 114.296C48.7049 114.45 48.8294 114.574 48.9833 114.574H51.9485C52.1021 114.575 52.2269 114.45 52.2269 114.296ZM52.2269 115.587C52.2269 115.433 52.1024 115.308 51.9485 115.308H48.9833C48.8294 115.308 48.7049 115.433 48.7049 115.587C48.7049 115.741 48.8294 115.865 48.9833 115.865H51.9485C52.1021 115.865 52.2269 115.741 52.2269 115.587ZM55.7768 116.878C55.7768 116.724 55.6523 116.599 55.4981 116.599H52.5329C52.379 116.599 52.2542 116.724 52.2542 116.878C52.2542 117.032 52.3787 117.157 52.5329 117.157H55.4981C55.6523 117.157 55.7768 117.032 55.7768 116.878ZM55.7768 118.169C55.7768 118.015 55.6523 117.89 55.4981 117.89H52.5329C52.379 117.89 52.2542 118.015 52.2542 118.169C52.2542 118.323 52.3787 118.447 52.5329 118.447H55.4981C55.6523 118.448 55.7768 118.323 55.7768 118.169ZM55.7768 119.46C55.7768 119.306 55.6523 119.181 55.4981 119.181H52.5329C52.379 119.181 52.2542 119.306 52.2542 119.46C52.2542 119.614 52.3787 119.738 52.5329 119.738H55.4981C55.6523 119.738 55.7768 119.614 55.7768 119.46ZM53.5316 110.423C53.5316 110.245 53.387 110.1 53.2088 110.1C53.0306 110.1 52.886 110.245 52.886 110.423C52.886 110.601 53.0306 110.746 53.2088 110.746C53.3873 110.746 53.5316 110.601 53.5316 110.423ZM54.4997 110.423C54.4997 110.245 54.3554 110.1 54.1769 110.1C53.9987 110.1 53.8541 110.245 53.8541 110.423C53.8541 110.601 53.9987 110.746 54.1769 110.746C54.3554 110.746 54.4997 110.601 54.4997 110.423ZM55.4681 110.423C55.4681 110.245 55.3235 110.1 55.1453 110.1C54.9671 110.1 54.8225 110.245 54.8225 110.423C54.8225 110.601 54.9671 110.746 55.1453 110.746C55.3235 110.746 55.4681 110.601 55.4681 110.423ZM56.4362 110.423C56.4362 110.245 56.2916 110.1 56.1134 110.1C55.9352 110.1 55.7906 110.245 55.7906 110.423C55.7906 110.601 55.9352 110.746 56.1134 110.746C56.2919 110.746 56.4362 110.601 56.4362 110.423ZM57.4046 110.423C57.4046 110.245 57.26 110.1 57.0818 110.1C56.9036 110.1 56.759 110.245 56.759 110.423C56.759 110.601 56.9036 110.746 57.0818 110.746C57.26 110.746 57.4046 110.601 57.4046 110.423ZM58.3727 110.423C58.3727 110.245 58.2281 110.1 58.0499 110.1C57.8716 110.1 57.7271 110.245 57.7271 110.423C57.7271 110.601 57.8716 110.746 58.0499 110.746C58.2283 110.746 58.3727 110.601 58.3727 110.423ZM53.5316 113.005C53.5316 112.827 53.387 112.682 53.2088 112.682C53.0306 112.682 52.886 112.827 52.886 113.005C52.886 113.183 53.0306 113.328 53.2088 113.328C53.3873 113.328 53.5316 113.183 53.5316 113.005ZM54.4997 113.005C54.4997 112.827 54.3554 112.682 54.1769 112.682C53.9987 112.682 53.8541 112.827 53.8541 113.005C53.8541 113.183 53.9987 113.328 54.1769 113.328C54.3554 113.328 54.4997 113.183 54.4997 113.005ZM55.4681 113.005C55.4681 112.827 55.3235 112.682 55.1453 112.682C54.9671 112.682 54.8225 112.827 54.8225 113.005C54.8225 113.183 54.9671 113.328 55.1453 113.328C55.3235 113.328 55.4681 113.183 55.4681 113.005ZM56.4362 113.005C56.4362 112.827 56.2916 112.682 56.1134 112.682C55.9352 112.682 55.7906 112.827 55.7906 113.005C55.7906 113.183 55.9352 113.328 56.1134 113.328C56.2919 113.328 56.4362 113.183 56.4362 113.005ZM57.4046 113.005C57.4046 112.827 57.26 112.682 57.0818 112.682C56.9036 112.682 56.759 112.827 56.759 113.005C56.759 113.183 56.9036 113.328 57.0818 113.328C57.26 113.328 57.4046 113.183 57.4046 113.005ZM58.3727 113.005C58.3727 112.827 58.2281 112.682 58.0499 112.682C57.8716 112.682 57.7271 112.827 57.7271 113.005C57.7271 113.183 57.8716 113.328 58.0499 113.328C58.2283 113.328 58.3727 113.183 58.3727 113.005ZM56.8397 116.717C56.8397 116.538 56.6951 116.394 56.5169 116.394C56.3387 116.394 56.1941 116.538 56.1941 116.717C56.1941 116.895 56.3387 117.039 56.5169 117.039C56.6951 117.039 56.8397 116.895 56.8397 116.717ZM57.8081 116.717C57.8081 116.538 57.6635 116.394 57.4853 116.394C57.3071 116.394 57.1625 116.538 57.1625 116.717C57.1625 116.895 57.3071 117.039 57.4853 117.039C57.6635 117.039 57.8081 116.895 57.8081 116.717ZM58.7762 116.717C58.7762 116.538 58.6316 116.394 58.4534 116.394C58.2752 116.394 58.1306 116.538 58.1306 116.717C58.1306 116.895 58.2752 117.039 58.4534 117.039C58.6316 117.039 58.7762 116.895 58.7762 116.717ZM59.7443 116.717C59.7443 116.538 59.5997 116.394 59.4215 116.394C59.2433 116.394 59.0987 116.538 59.0987 116.717C59.0987 116.895 59.2433 117.039 59.4215 117.039C59.6 117.039 59.7443 116.895 59.7443 116.717ZM60.7127 116.717C60.7127 116.538 60.5681 116.394 60.3899 116.394C60.2117 116.394 60.0671 116.538 60.0671 116.717C60.0671 116.895 60.2117 117.039 60.3899 117.039C60.5681 117.039 60.7127 116.895 60.7127 116.717ZM61.6808 116.717C61.6808 116.538 61.5362 116.394 61.358 116.394C61.1798 116.394 61.0352 116.538 61.0352 116.717C61.0352 116.895 61.1798 117.039 61.358 117.039C61.5362 117.039 61.6808 116.895 61.6808 116.717ZM56.8397 119.379C56.8397 119.201 56.6951 119.056 56.5169 119.056C56.3387 119.056 56.1941 119.201 56.1941 119.379C56.1941 119.557 56.3387 119.702 56.5169 119.702C56.6951 119.702 56.8397 119.557 56.8397 119.379ZM57.8081 119.379C57.8081 119.201 57.6635 119.056 57.4853 119.056C57.3071 119.056 57.1625 119.201 57.1625 119.379C57.1625 119.557 57.3071 119.702 57.4853 119.702C57.6635 119.702 57.8081 119.557 57.8081 119.379ZM58.7762 119.379C58.7762 119.201 58.6316 119.056 58.4534 119.056C58.2752 119.056 58.1306 119.201 58.1306 119.379C58.1306 119.557 58.2752 119.702 58.4534 119.702C58.6316 119.702 58.7762 119.557 58.7762 119.379ZM59.7443 119.379C59.7443 119.201 59.5997 119.056 59.4215 119.056C59.2433 119.056 59.0987 119.201 59.0987 119.379C59.0987 119.557 59.2433 119.702 59.4215 119.702C59.6 119.702 59.7443 119.557 59.7443 119.379ZM60.7127 119.379C60.7127 119.201 60.5681 119.056 60.3899 119.056C60.2117 119.056 60.0671 119.201 60.0671 119.379C60.0671 119.557 60.2117 119.702 60.3899 119.702C60.5681 119.702 60.7127 119.557 60.7127 119.379ZM61.6808 119.379C61.6808 119.201 61.5362 119.056 61.358 119.056C61.1798 119.056 61.0352 119.201 61.0352 119.379C61.0352 119.557 61.1798 119.702 61.358 119.702C61.5362 119.702 61.6808 119.557 61.6808 119.379Z" fill="#4598E6"/>
<path d="M65.0646 89.7916H63.9351C63.7812 89.7916 63.6567 89.6671 63.6567 89.5129C63.6567 89.359 63.7812 89.2345 63.9351 89.2345H65.0646C65.2185 89.2345 65.3433 89.359 65.3433 89.5129C65.3433 89.6668 65.2188 89.7916 65.0646 89.7916ZM65.3433 90.8038C65.3433 90.6499 65.2188 90.5254 65.0646 90.5254H63.9351C63.7812 90.5254 63.6567 90.6499 63.6567 90.8038C63.6567 90.9577 63.7812 91.0825 63.9351 91.0825H65.0646C65.2188 91.0825 65.3433 90.958 65.3433 90.8038ZM65.3433 92.0947C65.3433 91.9408 65.2188 91.8163 65.0646 91.8163H63.9351C63.7812 91.8163 63.6567 91.9408 63.6567 92.0947C63.6567 92.2486 63.7812 92.3734 63.9351 92.3734H65.0646C65.2188 92.3734 65.3433 92.2489 65.3433 92.0947ZM65.3433 93.3856C65.3433 93.2317 65.2188 93.1069 65.0646 93.1069H63.9351C63.7812 93.1069 63.6567 93.2314 63.6567 93.3856C63.6567 93.5395 63.7812 93.6643 63.9351 93.6643H65.0646C65.2188 93.6643 65.3433 93.5398 65.3433 93.3856ZM65.3433 94.6768C65.3433 94.5229 65.2188 94.3981 65.0646 94.3981H63.9351C63.7812 94.3981 63.6567 94.5226 63.6567 94.6768C63.6567 94.8307 63.7812 94.9552 63.9351 94.9552H65.0646C65.2188 94.9552 65.3433 94.8307 65.3433 94.6768ZM65.3433 95.9677C65.3433 95.8138 65.2188 95.6893 65.0646 95.6893H63.9351C63.7812 95.6893 63.6567 95.8138 63.6567 95.9677C63.6567 96.1216 63.7812 96.2464 63.9351 96.2464H65.0646C65.2188 96.2464 65.3433 96.1219 65.3433 95.9677ZM65.3433 97.2589C65.3433 97.105 65.2188 96.9802 65.0646 96.9802H63.9351C63.7812 96.9802 63.6567 97.1047 63.6567 97.2589C63.6567 97.4128 63.7812 97.5376 63.9351 97.5376H65.0646C65.2188 97.5373 65.3433 97.4128 65.3433 97.2589ZM65.3433 98.5498C65.3433 98.3959 65.2188 98.2711 65.0646 98.2711H63.9351C63.7812 98.2711 63.6567 98.3956 63.6567 98.5498C63.6567 98.7037 63.7812 98.8282 63.9351 98.8282H65.0646C65.2188 98.8282 65.3433 98.7037 65.3433 98.5498ZM69.5691 89.5129C69.5691 89.359 69.4446 89.2345 69.2904 89.2345H66.3252C66.1713 89.2345 66.0465 89.359 66.0465 89.5129C66.0465 89.6668 66.171 89.7916 66.3252 89.7916H69.2904C69.4446 89.7916 69.5691 89.6668 69.5691 89.5129ZM69.5691 90.8038C69.5691 90.6499 69.4446 90.5254 69.2904 90.5254H66.3252C66.1713 90.5254 66.0465 90.6499 66.0465 90.8038C66.0465 90.9577 66.171 91.0825 66.3252 91.0825H69.2904C69.4446 91.0825 69.5691 90.958 69.5691 90.8038ZM69.5691 92.0947C69.5691 91.9408 69.4446 91.8163 69.2904 91.8163H66.3252C66.1713 91.8163 66.0465 91.9408 66.0465 92.0947C66.0465 92.2486 66.171 92.3734 66.3252 92.3734H69.2904C69.4446 92.3734 69.5691 92.2489 69.5691 92.0947ZM69.5691 93.3856C69.5691 93.2317 69.4446 93.1069 69.2904 93.1069H66.3252C66.1713 93.1069 66.0465 93.2314 66.0465 93.3856C66.0465 93.5395 66.171 93.6643 66.3252 93.6643H69.2904C69.4446 93.6643 69.5691 93.5398 69.5691 93.3856ZM69.5691 94.6768C69.5691 94.5229 69.4446 94.3981 69.2904 94.3981H66.3252C66.1713 94.3981 66.0465 94.5226 66.0465 94.6768C66.0465 94.8307 66.171 94.9552 66.3252 94.9552H69.2904C69.4446 94.9552 69.5691 94.8307 69.5691 94.6768ZM73.1193 95.9677C73.1193 95.8138 72.9948 95.6893 72.8406 95.6893H69.8754C69.7215 95.6893 69.5967 95.8138 69.5967 95.9677C69.5967 96.1216 69.7212 96.2464 69.8754 96.2464H72.8406C72.9948 96.2464 73.1193 96.1219 73.1193 95.9677ZM73.1193 97.2589C73.1193 97.105 72.9948 96.9802 72.8406 96.9802H69.8754C69.7215 96.9802 69.5967 97.1047 69.5967 97.2589C69.5967 97.4128 69.7212 97.5376 69.8754 97.5376H72.8406C72.9948 97.5373 73.1193 97.4128 73.1193 97.2589ZM73.1193 98.5498C73.1193 98.3959 72.9948 98.2711 72.8406 98.2711H69.8754C69.7215 98.2711 69.5967 98.3956 69.5967 98.5498C69.5967 98.7037 69.7212 98.8282 69.8754 98.8282H72.8406C72.9948 98.8282 73.1193 98.7037 73.1193 98.5498ZM70.8741 89.5129C70.8741 89.3347 70.7295 89.1901 70.5513 89.1901C70.3731 89.1901 70.2285 89.3344 70.2285 89.5129C70.2285 89.6911 70.3728 89.8357 70.5513 89.8357C70.7295 89.8357 70.8741 89.6911 70.8741 89.5129ZM71.8422 89.5129C71.8422 89.3347 71.6976 89.1901 71.5194 89.1901C71.3412 89.1901 71.1966 89.3344 71.1966 89.5129C71.1966 89.6911 71.3412 89.8357 71.5194 89.8357C71.6979 89.8357 71.8422 89.6911 71.8422 89.5129ZM72.8106 89.5129C72.8106 89.3347 72.666 89.1901 72.4878 89.1901C72.3096 89.1901 72.165 89.3344 72.165 89.5129C72.165 89.6911 72.3096 89.8357 72.4878 89.8357C72.666 89.8357 72.8106 89.6911 72.8106 89.5129ZM73.7787 89.5129C73.7787 89.3347 73.6341 89.1901 73.4559 89.1901C73.2777 89.1901 73.1331 89.3344 73.1331 89.5129C73.1331 89.6911 73.2777 89.8357 73.4559 89.8357C73.6344 89.8357 73.7787 89.6911 73.7787 89.5129ZM74.7471 89.5129C74.7471 89.3347 74.6025 89.1901 74.4243 89.1901C74.2461 89.1901 74.1015 89.3344 74.1015 89.5129C74.1015 89.6911 74.2461 89.8357 74.4243 89.8357C74.6025 89.8357 74.7471 89.6911 74.7471 89.5129ZM75.7152 89.5129C75.7152 89.3347 75.5706 89.1901 75.3924 89.1901C75.2142 89.1901 75.0696 89.3344 75.0696 89.5129C75.0696 89.6911 75.2142 89.8357 75.3924 89.8357C75.5706 89.8357 75.7152 89.6911 75.7152 89.5129ZM70.8741 92.095C70.8741 91.9168 70.7295 91.7722 70.5513 91.7722C70.3731 91.7722 70.2285 91.9168 70.2285 92.095C70.2285 92.2732 70.3728 92.4178 70.5513 92.4178C70.7295 92.4175 70.8741 92.2732 70.8741 92.095ZM71.8422 92.095C71.8422 91.9168 71.6976 91.7722 71.5194 91.7722C71.3412 91.7722 71.1966 91.9168 71.1966 92.095C71.1966 92.2732 71.3412 92.4178 71.5194 92.4178C71.6979 92.4175 71.8422 92.2732 71.8422 92.095ZM72.8106 92.095C72.8106 91.9168 72.666 91.7722 72.4878 91.7722C72.3096 91.7722 72.165 91.9168 72.165 92.095C72.165 92.2732 72.3096 92.4178 72.4878 92.4178C72.666 92.4175 72.8106 92.2732 72.8106 92.095ZM73.7787 92.095C73.7787 91.9168 73.6341 91.7722 73.4559 91.7722C73.2777 91.7722 73.1331 91.9168 73.1331 92.095C73.1331 92.2732 73.2777 92.4178 73.4559 92.4178C73.6344 92.4175 73.7787 92.2732 73.7787 92.095ZM74.7471 92.095C74.7471 91.9168 74.6025 91.7722 74.4243 91.7722C74.2461 91.7722 74.1015 91.9168 74.1015 92.095C74.1015 92.2732 74.2461 92.4178 74.4243 92.4178C74.6025 92.4175 74.7471 92.2732 74.7471 92.095ZM75.7152 92.095C75.7152 91.9168 75.5706 91.7722 75.3924 91.7722C75.2142 91.7722 75.0696 91.9168 75.0696 92.095C75.0696 92.2732 75.2142 92.4178 75.3924 92.4178C75.5706 92.4175 75.7152 92.2732 75.7152 92.095ZM74.1822 95.8063C74.1822 95.6281 74.0376 95.4835 73.8594 95.4835C73.6812 95.4835 73.5366 95.6281 73.5366 95.8063C73.5366 95.9845 73.6812 96.1291 73.8594 96.1291C74.0376 96.1291 74.1822 95.9845 74.1822 95.8063ZM75.1506 95.8063C75.1506 95.6281 75.006 95.4835 74.8278 95.4835C74.6496 95.4835 74.505 95.6281 74.505 95.8063C74.505 95.9845 74.6493 96.1291 74.8278 96.1291C75.006 96.1291 75.1506 95.9845 75.1506 95.8063ZM76.1187 95.8063C76.1187 95.6281 75.9741 95.4835 75.7959 95.4835C75.6177 95.4835 75.4731 95.6281 75.4731 95.8063C75.4731 95.9845 75.6177 96.1291 75.7959 96.1291C75.9741 96.1291 76.1187 95.9845 76.1187 95.8063ZM77.0868 95.8063C77.0868 95.6281 76.9422 95.4835 76.764 95.4835C76.5858 95.4835 76.4412 95.6281 76.4412 95.8063C76.4412 95.9845 76.5858 96.1291 76.764 96.1291C76.9425 96.1291 77.0868 95.9845 77.0868 95.8063ZM78.0552 95.8063C78.0552 95.6281 77.9106 95.4835 77.7324 95.4835C77.5542 95.4835 77.4096 95.6281 77.4096 95.8063C77.4096 95.9845 77.5539 96.1291 77.7324 96.1291C77.9106 96.1291 78.0552 95.9845 78.0552 95.8063ZM79.0233 95.8063C79.0233 95.6281 78.8787 95.4835 78.7005 95.4835C78.5223 95.4835 78.3777 95.6281 78.3777 95.8063C78.3777 95.9845 78.5223 96.1291 78.7005 96.1291C78.8787 96.1291 79.0233 95.9845 79.0233 95.8063ZM74.1822 98.4691C74.1822 98.2909 74.0376 98.1463 73.8594 98.1463C73.6812 98.1463 73.5366 98.2909 73.5366 98.4691C73.5366 98.6473 73.6812 98.7919 73.8594 98.7919C74.0376 98.7916 74.1822 98.6473 74.1822 98.4691ZM75.1506 98.4691C75.1506 98.2909 75.006 98.1463 74.8278 98.1463C74.6496 98.1463 74.505 98.2909 74.505 98.4691C74.505 98.6473 74.6493 98.7919 74.8278 98.7919C75.006 98.7916 75.1506 98.6473 75.1506 98.4691ZM76.1187 98.4691C76.1187 98.2909 75.9741 98.1463 75.7959 98.1463C75.6177 98.1463 75.4731 98.2909 75.4731 98.4691C75.4731 98.6473 75.6177 98.7919 75.7959 98.7919C75.9741 98.7916 76.1187 98.6473 76.1187 98.4691ZM77.0868 98.4691C77.0868 98.2909 76.9422 98.1463 76.764 98.1463C76.5858 98.1463 76.4412 98.2909 76.4412 98.4691C76.4412 98.6473 76.5858 98.7919 76.764 98.7919C76.9425 98.7916 77.0868 98.6473 77.0868 98.4691ZM78.0552 98.4691C78.0552 98.2909 77.9106 98.1463 77.7324 98.1463C77.5542 98.1463 77.4096 98.2909 77.4096 98.4691C77.4096 98.6473 77.5539 98.7919 77.7324 98.7919C77.9106 98.7916 78.0552 98.6473 78.0552 98.4691ZM79.0233 98.4691C79.0233 98.2909 78.8787 98.1463 78.7005 98.1463C78.5223 98.1463 78.3777 98.2909 78.3777 98.4691C78.3777 98.6473 78.5223 98.7919 78.7005 98.7919C78.8787 98.7916 79.0233 98.6473 79.0233 98.4691Z" fill="#4598E6"/>
<path d="M65.0646 100.371H63.9351C63.7812 100.371 63.6567 100.247 63.6567 100.093C63.6567 99.9388 63.7812 99.814 63.9351 99.814H65.0646C65.2185 99.814 65.3433 99.9385 65.3433 100.093C65.3433 100.247 65.2188 100.371 65.0646 100.371ZM65.3433 101.384C65.3433 101.23 65.2188 101.105 65.0646 101.105H63.9351C63.7812 101.105 63.6567 101.23 63.6567 101.384C63.6567 101.537 63.7812 101.662 63.9351 101.662H65.0646C65.2188 101.662 65.3433 101.538 65.3433 101.384ZM65.3433 102.674C65.3433 102.521 65.2188 102.396 65.0646 102.396H63.9351C63.7812 102.396 63.6567 102.52 63.6567 102.674C63.6567 102.828 63.7812 102.953 63.9351 102.953H65.0646C65.2188 102.953 65.3433 102.829 65.3433 102.674ZM65.3433 103.966C65.3433 103.812 65.2188 103.687 65.0646 103.687H63.9351C63.7812 103.687 63.6567 103.811 63.6567 103.966C63.6567 104.12 63.7812 104.244 63.9351 104.244H65.0646C65.2188 104.244 65.3433 104.12 65.3433 103.966ZM65.3433 105.256C65.3433 105.102 65.2188 104.978 65.0646 104.978H63.9351C63.7812 104.978 63.6567 105.102 63.6567 105.256C63.6567 105.41 63.7812 105.535 63.9351 105.535H65.0646C65.2188 105.535 65.3433 105.41 65.3433 105.256ZM65.3433 106.548C65.3433 106.394 65.2188 106.269 65.0646 106.269H63.9351C63.7812 106.269 63.6567 106.394 63.6567 106.548C63.6567 106.702 63.7812 106.826 63.9351 106.826H65.0646C65.2188 106.826 65.3433 106.702 65.3433 106.548ZM65.3433 107.839C65.3433 107.685 65.2188 107.56 65.0646 107.56H63.9351C63.7812 107.56 63.6567 107.684 63.6567 107.839C63.6567 107.993 63.7812 108.117 63.9351 108.117H65.0646C65.2188 108.117 65.3433 107.993 65.3433 107.839ZM65.3433 109.13C65.3433 108.976 65.2188 108.851 65.0646 108.851H63.9351C63.7812 108.851 63.6567 108.975 63.6567 109.13C63.6567 109.284 63.7812 109.408 63.9351 109.408H65.0646C65.2188 109.408 65.3433 109.284 65.3433 109.13ZM69.5691 100.093C69.5691 99.9388 69.4446 99.814 69.2904 99.814H66.3252C66.1713 99.814 66.0465 99.9385 66.0465 100.093C66.0465 100.247 66.171 100.371 66.3252 100.371H69.2904C69.4446 100.371 69.5691 100.247 69.5691 100.093ZM69.5691 101.384C69.5691 101.23 69.4446 101.105 69.2904 101.105H66.3252C66.1713 101.105 66.0465 101.23 66.0465 101.384C66.0465 101.537 66.171 101.662 66.3252 101.662H69.2904C69.4446 101.662 69.5691 101.538 69.5691 101.384ZM69.5691 102.674C69.5691 102.521 69.4446 102.396 69.2904 102.396H66.3252C66.1713 102.396 66.0465 102.52 66.0465 102.674C66.0465 102.828 66.171 102.953 66.3252 102.953H69.2904C69.4446 102.953 69.5691 102.829 69.5691 102.674ZM69.5691 103.966C69.5691 103.812 69.4446 103.687 69.2904 103.687H66.3252C66.1713 103.687 66.0465 103.811 66.0465 103.966C66.0465 104.12 66.171 104.244 66.3252 104.244H69.2904C69.4446 104.244 69.5691 104.12 69.5691 103.966ZM69.5691 105.256C69.5691 105.102 69.4446 104.978 69.2904 104.978H66.3252C66.1713 104.978 66.0465 105.102 66.0465 105.256C66.0465 105.41 66.171 105.535 66.3252 105.535H69.2904C69.4446 105.535 69.5691 105.41 69.5691 105.256ZM73.1193 106.548C73.1193 106.394 72.9948 106.269 72.8406 106.269H69.8754C69.7215 106.269 69.5967 106.394 69.5967 106.548C69.5967 106.702 69.7212 106.826 69.8754 106.826H72.8406C72.9948 106.826 73.1193 106.702 73.1193 106.548ZM73.1193 107.839C73.1193 107.685 72.9948 107.56 72.8406 107.56H69.8754C69.7215 107.56 69.5967 107.684 69.5967 107.839C69.5967 107.993 69.7212 108.117 69.8754 108.117H72.8406C72.9948 108.117 73.1193 107.993 73.1193 107.839ZM73.1193 109.13C73.1193 108.976 72.9948 108.851 72.8406 108.851H69.8754C69.7215 108.851 69.5967 108.975 69.5967 109.13C69.5967 109.284 69.7212 109.408 69.8754 109.408H72.8406C72.9948 109.408 73.1193 109.284 73.1193 109.13ZM70.8741 100.093C70.8741 99.9145 70.7295 99.7699 70.5513 99.7699C70.3731 99.7699 70.2285 99.9145 70.2285 100.093C70.2285 100.271 70.3728 100.415 70.5513 100.415C70.7295 100.415 70.8741 100.271 70.8741 100.093ZM71.8422 100.093C71.8422 99.9145 71.6976 99.7699 71.5194 99.7699C71.3412 99.7699 71.1966 99.9145 71.1966 100.093C71.1966 100.271 71.3412 100.415 71.5194 100.415C71.6979 100.415 71.8422 100.271 71.8422 100.093ZM72.8106 100.093C72.8106 99.9145 72.666 99.7699 72.4878 99.7699C72.3096 99.7699 72.165 99.9145 72.165 100.093C72.165 100.271 72.3096 100.415 72.4878 100.415C72.666 100.415 72.8106 100.271 72.8106 100.093ZM73.7787 100.093C73.7787 99.9145 73.6341 99.7699 73.4559 99.7699C73.2777 99.7699 73.1331 99.9145 73.1331 100.093C73.1331 100.271 73.2777 100.415 73.4559 100.415C73.6344 100.415 73.7787 100.271 73.7787 100.093ZM74.7471 100.093C74.7471 99.9145 74.6025 99.7699 74.4243 99.7699C74.2461 99.7699 74.1015 99.9145 74.1015 100.093C74.1015 100.271 74.2461 100.415 74.4243 100.415C74.6025 100.415 74.7471 100.271 74.7471 100.093ZM75.7152 100.093C75.7152 99.9145 75.5706 99.7699 75.3924 99.7699C75.2142 99.7699 75.0696 99.9145 75.0696 100.093C75.0696 100.271 75.2142 100.415 75.3924 100.415C75.5706 100.415 75.7152 100.271 75.7152 100.093ZM70.8741 102.674C70.8741 102.496 70.7295 102.352 70.5513 102.352C70.3731 102.352 70.2285 102.496 70.2285 102.674C70.2285 102.853 70.3728 102.997 70.5513 102.997C70.7295 102.997 70.8741 102.853 70.8741 102.674ZM71.8422 102.674C71.8422 102.496 71.6976 102.352 71.5194 102.352C71.3412 102.352 71.1966 102.496 71.1966 102.674C71.1966 102.853 71.3412 102.997 71.5194 102.997C71.6979 102.997 71.8422 102.853 71.8422 102.674ZM72.8106 102.674C72.8106 102.496 72.666 102.352 72.4878 102.352C72.3096 102.352 72.165 102.496 72.165 102.674C72.165 102.853 72.3096 102.997 72.4878 102.997C72.666 102.997 72.8106 102.853 72.8106 102.674ZM73.7787 102.674C73.7787 102.496 73.6341 102.352 73.4559 102.352C73.2777 102.352 73.1331 102.496 73.1331 102.674C73.1331 102.853 73.2777 102.997 73.4559 102.997C73.6344 102.997 73.7787 102.853 73.7787 102.674ZM74.7471 102.674C74.7471 102.496 74.6025 102.352 74.4243 102.352C74.2461 102.352 74.1015 102.496 74.1015 102.674C74.1015 102.853 74.2461 102.997 74.4243 102.997C74.6025 102.997 74.7471 102.853 74.7471 102.674ZM75.7152 102.674C75.7152 102.496 75.5706 102.352 75.3924 102.352C75.2142 102.352 75.0696 102.496 75.0696 102.674C75.0696 102.853 75.2142 102.997 75.3924 102.997C75.5706 102.997 75.7152 102.853 75.7152 102.674ZM74.1822 106.386C74.1822 106.208 74.0376 106.063 73.8594 106.063C73.6812 106.063 73.5366 106.208 73.5366 106.386C73.5366 106.564 73.6812 106.709 73.8594 106.709C74.0376 106.709 74.1822 106.564 74.1822 106.386ZM75.1506 106.386C75.1506 106.208 75.006 106.063 74.8278 106.063C74.6496 106.063 74.505 106.208 74.505 106.386C74.505 106.564 74.6493 106.709 74.8278 106.709C75.006 106.709 75.1506 106.564 75.1506 106.386ZM76.1187 106.386C76.1187 106.208 75.9741 106.063 75.7959 106.063C75.6177 106.063 75.4731 106.208 75.4731 106.386C75.4731 106.564 75.6177 106.709 75.7959 106.709C75.9741 106.709 76.1187 106.564 76.1187 106.386ZM77.0868 106.386C77.0868 106.208 76.9422 106.063 76.764 106.063C76.5858 106.063 76.4412 106.208 76.4412 106.386C76.4412 106.564 76.5858 106.709 76.764 106.709C76.9425 106.709 77.0868 106.564 77.0868 106.386ZM78.0552 106.386C78.0552 106.208 77.9106 106.063 77.7324 106.063C77.5542 106.063 77.4096 106.208 77.4096 106.386C77.4096 106.564 77.5539 106.709 77.7324 106.709C77.9106 106.709 78.0552 106.564 78.0552 106.386ZM79.0233 106.386C79.0233 106.208 78.8787 106.063 78.7005 106.063C78.5223 106.063 78.3777 106.208 78.3777 106.386C78.3777 106.564 78.5223 106.709 78.7005 106.709C78.8787 106.709 79.0233 106.564 79.0233 106.386ZM74.1822 109.049C74.1822 108.871 74.0376 108.726 73.8594 108.726C73.6812 108.726 73.5366 108.871 73.5366 109.049C73.5366 109.227 73.6812 109.372 73.8594 109.372C74.0376 109.371 74.1822 109.227 74.1822 109.049ZM75.1506 109.049C75.1506 108.871 75.006 108.726 74.8278 108.726C74.6496 108.726 74.505 108.871 74.505 109.049C74.505 109.227 74.6493 109.372 74.8278 109.372C75.006 109.371 75.1506 109.227 75.1506 109.049ZM76.1187 109.049C76.1187 108.871 75.9741 108.726 75.7959 108.726C75.6177 108.726 75.4731 108.871 75.4731 109.049C75.4731 109.227 75.6177 109.372 75.7959 109.372C75.9741 109.371 76.1187 109.227 76.1187 109.049ZM77.0868 109.049C77.0868 108.871 76.9422 108.726 76.764 108.726C76.5858 108.726 76.4412 108.871 76.4412 109.049C76.4412 109.227 76.5858 109.372 76.764 109.372C76.9425 109.371 77.0868 109.227 77.0868 109.049ZM78.0552 109.049C78.0552 108.871 77.9106 108.726 77.7324 108.726C77.5542 108.726 77.4096 108.871 77.4096 109.049C77.4096 109.227 77.5539 109.372 77.7324 109.372C77.9106 109.371 78.0552 109.227 78.0552 109.049ZM79.0233 109.049C79.0233 108.871 78.8787 108.726 78.7005 108.726C78.5223 108.726 78.3777 108.871 78.3777 109.049C78.3777 109.227 78.5223 109.372 78.7005 109.372C78.8787 109.371 79.0233 109.227 79.0233 109.049Z" fill="#4598E6"/>
<path d="M99.2742 83.4968C99.2742 83.4968 95.1147 86.4863 92.9052 90.7757C90.6954 95.0651 88.6158 104.684 85.8861 109.233C83.1564 113.783 80.6868 117.162 78.087 119.112C75.4875 121.062 71.5878 122.362 69.3783 122.752C67.1685 123.142 61.1895 123.791 61.1895 123.791L61.4495 128.731C61.4495 128.731 66.519 128.861 76.1376 127.951C85.7562 127.041 97.4547 120.022 97.4547 120.022L97.0647 134.45H130.6C130.6 134.45 132.68 113.913 131.64 103.384C130.6 92.8556 124.621 85.1864 119.551 82.3268C114.482 79.4672 109.153 80.117 105.903 80.3771C102.654 80.6372 99.2742 83.4968 99.2742 83.4968Z" fill="#616161"/>
<mask id="mask0_166_2506" style="mask-type:luminance" maskUnits="userSpaceOnUse" x="61" y="80" width="71" height="55">
<path d="M99.2742 83.4968C99.2742 83.4968 95.1147 86.4863 92.9052 90.7757C90.6954 95.0651 88.6158 104.684 85.8861 109.233C83.1564 113.783 80.6868 117.162 78.087 119.112C75.4875 121.062 71.5878 122.362 69.3783 122.752C67.1685 123.142 61.1895 123.791 61.1895 123.791L61.4495 128.731C61.4495 128.731 66.519 128.861 76.1376 127.951C85.7562 127.041 97.4547 120.022 97.4547 120.022L97.0647 134.45H130.6C130.6 134.45 132.68 113.913 131.64 103.384C130.6 92.8556 124.621 85.1864 119.551 82.3268C114.482 79.4672 109.153 80.117 105.903 80.3771C102.654 80.6372 99.2742 83.4968 99.2742 83.4968Z" fill="white"/>
</mask>
<g mask="url(#mask0_166_2506)">
<path opacity="0.3" d="M119.551 82.3272C115.943 80.292 112.205 80.0349 109.177 80.1492L102.334 91.1649C102.334 91.1649 110.25 87.0003 112.5 86.4003C114.75 85.8003 119.4 87.7503 120.75 92.7003C122.1 97.6503 122.55 116.7 123 122.25C123.45 127.8 121.05 132.3 120.3 133.05C119.951 133.4 119.309 133.912 119.101 134.45H130.6C130.6 134.45 132.679 113.913 131.639 103.384C130.6 92.8557 124.621 85.1868 119.551 82.3272Z" fill="black"/>
</g>
<mask id="mask1_166_2506" style="mask-type:luminance" maskUnits="userSpaceOnUse" x="61" y="80" width="71" height="55">
<path d="M99.2742 83.4968C99.2742 83.4968 95.1147 86.4863 92.9052 90.7757C90.6954 95.0651 88.6158 104.684 85.8861 109.233C83.1564 113.783 80.6868 117.162 78.087 119.112C75.4875 121.062 71.5878 122.362 69.3783 122.752C67.1685 123.142 61.1895 123.791 61.1895 123.791L61.4495 128.731C61.4495 128.731 66.519 128.861 76.1376 127.951C85.7562 127.041 97.4547 120.022 97.4547 120.022L97.0647 134.45H130.6C130.6 134.45 132.68 113.913 131.64 103.384C130.6 92.8556 124.621 85.1864 119.551 82.3268C114.482 79.4672 109.153 80.117 105.903 80.3771C102.654 80.6372 99.2742 83.4968 99.2742 83.4968Z" fill="white"/>
</mask>
<g mask="url(#mask1_166_2506)">
<path d="M103.771 121.281C97.4856 121.09 98.9859 112.843 97.3317 108.207C95.6775 103.571 95.6397 95.6895 102.054 95.5464C108.468 95.4033 109.567 104.235 110.556 108.854C111.544 113.473 110.057 121.473 103.771 121.281ZM97.878 108.164C99.4542 112.239 98.1471 120.394 103.859 120.53C109.572 120.665 111.019 113.174 110.106 108.839C109.193 104.503 107.884 96.2184 102.068 96.324C96.252 96.4293 96.3018 104.089 97.878 108.164ZM105.763 98.6787C105.078 100.781 104.507 102.91 103.933 105.043C104.216 105.592 104.535 106.09 104.8 106.655C105.064 107.22 105.215 107.86 105.408 108.458C106.875 108.555 108.334 108.692 109.803 108.751C108.88 105.482 107.989 101.291 105.763 98.6787ZM101.871 104.974C100.986 102.78 99.9483 100.666 98.8956 98.5488C96.6957 101.493 97.0227 104.924 98.4522 108.134C99.5175 108.081 100.571 108.058 101.627 108.228C101.424 107.116 101.284 105.991 101.871 104.974ZM104.332 112.063C103.654 112.654 103.131 112.72 102.653 111.899C102.19 114.072 101.595 116.223 100.88 118.327C102.636 120.437 105.333 120.479 107.227 118.489C106.156 116.33 105.01 114.397 104.332 112.063ZM104.389 108.404C104.274 107.623 103.96 106.06 102.908 106.001C101.856 105.943 101.955 107.668 102.109 108.361C102.264 109.053 102.378 110.896 103.354 110.927C104.329 110.957 104.503 109.184 104.389 108.404Z" fill="#4598E6"/>
</g>
<mask id="mask2_166_2506" style="mask-type:luminance" maskUnits="userSpaceOnUse" x="61" y="80" width="71" height="55">
<path d="M99.2742 83.4968C99.2742 83.4968 95.1147 86.4863 92.9052 90.7757C90.6954 95.0651 88.6158 104.684 85.8861 109.233C83.1564 113.783 80.6868 117.162 78.087 119.112C75.4875 121.062 71.5878 122.362 69.3783 122.752C67.1685 123.142 61.1895 123.791 61.1895 123.791L61.4495 128.731C61.4495 128.731 66.519 128.861 76.1376 127.951C85.7562 127.041 97.4547 120.022 97.4547 120.022L97.0647 134.45H130.6C130.6 134.45 132.68 113.913 131.64 103.384C130.6 92.8556 124.621 85.1864 119.551 82.3268C114.482 79.4672 109.153 80.117 105.903 80.3771C102.654 80.6372 99.2742 83.4968 99.2742 83.4968Z" fill="white"/>
</mask>
<g mask="url(#mask2_166_2506)">
<path opacity="0.3" d="M95.8503 107.25C95.8503 107.25 94.0503 100.35 94.2003 103.5C94.3503 106.65 94.5003 114 91.0503 117.9C87.6003 121.8 84.9003 120.75 82.2003 122.4C80.6463 123.349 76.3791 126.007 73.1157 128.216C74.0679 128.139 75.0732 128.052 76.1373 127.951C85.7559 127.041 97.4544 120.022 97.4544 120.022L97.4073 121.768C97.5603 120.217 97.8447 114.978 95.8503 107.25Z" fill="black"/>
</g>
<mask id="mask3_166_2506" style="mask-type:luminance" maskUnits="userSpaceOnUse" x="61" y="80" width="71" height="55">
<path d="M99.2742 83.4968C99.2742 83.4968 95.1147 86.4863 92.9052 90.7757C90.6954 95.0651 88.6158 104.684 85.8861 109.233C83.1564 113.783 80.6868 117.162 78.087 119.112C75.4875 121.062 71.5878 122.362 69.3783 122.752C67.1685 123.142 61.1895 123.791 61.1895 123.791L61.4495 128.731C61.4495 128.731 66.519 128.861 76.1376 127.951C85.7562 127.041 97.4547 120.022 97.4547 120.022L97.0647 134.45H130.6C130.6 134.45 132.68 113.913 131.64 103.384C130.6 92.8556 124.621 85.1864 119.551 82.3268C114.482 79.4672 109.153 80.117 105.903 80.3771C102.654 80.6372 99.2742 83.4968 99.2742 83.4968Z" fill="white"/>
</mask>
<g mask="url(#mask3_166_2506)">
<path d="M97.5843 118.722C97.5843 118.722 97.0644 106.894 93.165 99.8748" stroke="#263238" stroke-miterlimit="10" stroke-linecap="round" stroke-linejoin="round"/>
</g>
<path d="M99.2742 83.4968C99.2742 83.4968 95.1147 86.4863 92.9052 90.7757C90.6954 95.0651 88.6158 104.684 85.8861 109.233C83.1564 113.783 80.6868 117.162 78.087 119.112C75.4875 121.062 71.5878 122.362 69.3783 122.752C67.1685 123.142 61.1895 123.791 61.1895 123.791L61.4495 128.731C61.4495 128.731 66.519 128.861 76.1376 127.951C85.7562 127.041 97.4547 120.022 97.4547 120.022L97.0647 134.45H130.6C130.6 134.45 132.68 113.913 131.64 103.384C130.6 92.8556 124.621 85.1864 119.551 82.3268C114.482 79.4672 109.153 80.117 105.903 80.3771C102.654 80.6372 99.2742 83.4968 99.2742 83.4968Z" stroke="#263238" stroke-miterlimit="10" stroke-linecap="round" stroke-linejoin="round"/>
<path d="M66.106 127.496C66.106 127.496 63.7351 123.779 61.9408 121.857C60.1465 119.934 55.2124 121.28 53.3539 121.537C51.4957 121.793 47.3944 124.356 46.6255 124.74C45.8566 125.125 46.9459 125.958 48.0352 126.214C49.1245 126.471 50.278 125.445 51.3673 125.253C52.4566 125.061 52.0723 125.574 53.6101 126.791C55.1479 128.008 55.7248 129.162 58.2238 129.739C60.7228 130.315 63.5425 129.995 65.2087 129.418C66.8749 128.841 66.106 127.496 66.106 127.496Z" fill="#263238" stroke="#616161" stroke-miterlimit="10" stroke-linecap="round" stroke-linejoin="round"/>
<path d="M65.3369 126.278C65.3369 126.278 63.2864 126.471 62.1329 127.111C60.9794 127.752 60.7232 129.226 61.4279 129.547C62.1329 129.867 64.3115 130.059 65.7212 129.482C67.1309 128.906 67.067 128.201 66.7466 127.175C66.4262 126.15 65.3369 126.278 65.3369 126.278Z" fill="#263238" stroke="#616161" stroke-miterlimit="10" stroke-linecap="round" stroke-linejoin="round"/>
<path d="M55.9814 120.383C55.9814 120.383 54.2513 119.678 53.354 120.255C52.457 120.831 52.1366 121.472 52.2005 122.626C52.2647 123.779 51.6878 126.022 51.5597 127.111C51.4316 128.201 51.8801 128.457 52.7132 128.585C53.5463 128.713 53.9309 128.009 54.251 126.983C54.5714 125.958 55.2764 122.818 55.6607 122.049C56.0456 121.28 55.9814 120.383 55.9814 120.383Z" fill="#263238" stroke="#616161" stroke-miterlimit="10" stroke-linecap="round" stroke-linejoin="round"/>
<path d="M59.3776 120.703C59.3776 120.703 58.7368 119.55 57.7114 119.55C56.686 119.55 55.4686 119.55 55.4044 120.447C55.3402 121.344 54.7636 124.933 54.1228 126.342C53.482 127.752 54.3151 128.585 55.2763 128.585C56.2375 128.585 56.3017 128.457 57.1987 126.919C58.0957 125.381 58.7365 122.433 58.7365 122.433" fill="#263238"/>
<path d="M59.3776 120.703C59.3776 120.703 58.7368 119.55 57.7114 119.55C56.686 119.55 55.4686 119.55 55.4044 120.447C55.3402 121.344 54.7636 124.933 54.1228 126.342C53.482 127.752 54.3151 128.585 55.2763 128.585C56.2375 128.585 56.3017 128.457 57.1987 126.919C58.0957 125.381 58.7365 122.433 58.7365 122.433" stroke="#616161" stroke-miterlimit="10" stroke-linecap="round" stroke-linejoin="round"/>
<path d="M62.5815 122.754C62.5815 122.754 61.8126 120.639 60.6591 120.447C59.5056 120.255 58.6086 120.319 58.5444 121.536C58.4802 122.754 58.2882 125.125 57.519 126.535C56.7498 127.944 56.1093 128.585 57.0705 128.905C58.0317 129.226 58.6725 129.29 59.4414 128.457C60.2103 127.624 61.3638 123.971 61.3638 123.779" fill="#263238"/>
<path d="M62.5815 122.754C62.5815 122.754 61.8126 120.639 60.6591 120.447C59.5056 120.255 58.6086 120.319 58.5444 121.536C58.4802 122.754 58.2882 125.125 57.519 126.535C56.7498 127.944 56.1093 128.585 57.0705 128.905C58.0317 129.226 58.6725 129.29 59.4414 128.457C60.2103 127.624 61.3638 123.971 61.3638 123.779" stroke="#616161" stroke-miterlimit="10" stroke-linecap="round" stroke-linejoin="round"/>
<path d="M83.6299 62.2458C83.6299 62.2458 84.1606 68.6133 84.028 74.1849C83.8954 79.7565 89.2015 83.736 92.3854 85.8585C95.569 87.981 98.4874 89.0421 99.814 89.8383C101.141 90.6342 101.804 91.6956 101.804 91.6956C101.804 91.6956 103.263 89.5731 105.651 88.6446C108.038 87.7161 111.886 84.7977 112.682 81.4812C113.477 78.1647 111.886 71.1342 103.661 65.8278C95.4364 60.5217 85.4872 60.9195 85.4872 60.9195L83.6299 62.2458Z" fill="#474747" stroke="#263238" stroke-miterlimit="10" stroke-linecap="round" stroke-linejoin="round"/>
<path d="M86.8105 62.4552C86.8105 62.4552 86.8105 68.064 87.1057 69.2448C87.4009 70.4256 89.3689 76.0344 89.8609 77.6088C90.3529 79.1832 94.1905 86.1696 95.0761 87.252C95.9617 88.3344 99.7993 85.6776 99.7993 85.6776L101.964 90.4008C101.964 90.4008 106.641 82.6371 107.723 80.7675C108.805 78.8979 109.42 76.8303 108.633 73.8783C107.846 70.9263 107.77 70.8192 102.85 68.4576C97.9297 66.096 90.7465 63.3408 89.3689 62.3568C87.9913 61.3728 87.0073 61.7664 86.8105 62.4552Z" fill="white"/>
<mask id="mask4_166_2506" style="mask-type:luminance" maskUnits="userSpaceOnUse" x="86" y="61" width="23" height="30">
<path d="M86.8105 62.4552C86.8105 62.4552 86.8105 68.064 87.1057 69.2448C87.4009 70.4256 89.3689 76.0344 89.8609 77.6088C90.3529 79.1832 94.1905 86.1696 95.0761 87.252C95.9617 88.3344 99.7993 85.6776 99.7993 85.6776L101.964 90.4008C101.964 90.4008 106.641 82.6371 107.723 80.7675C108.805 78.8979 109.42 76.8303 108.633 73.8783C107.846 70.9263 107.77 70.8192 102.85 68.4576C97.9297 66.096 90.7465 63.3408 89.3689 62.3568C87.9913 61.3728 87.0073 61.7664 86.8105 62.4552Z" fill="white"/>
</mask>
<g mask="url(#mask4_166_2506)">
<path d="M108.633 73.8782C107.845 70.9262 107.77 70.8191 102.85 68.4575C101.297 67.7123 99.5186 66.9278 97.7687 66.1721C99.7946 69.0548 103.632 74.7614 104.147 77.3348C104.851 80.8538 100.98 84.2555 97.4609 86.0147C96.4037 86.5433 95.6552 86.9654 95.123 87.2981C95.8964 88.0607 98.4449 86.5526 99.4172 85.9295L105.789 81.2054C105.789 81.2054 106.48 81.3233 106.975 82.0388C107.292 81.5042 107.552 81.062 107.723 80.7671C108.805 78.8975 109.42 76.8302 108.633 73.8782Z" fill="#4598E6"/>
</g>
<mask id="mask5_166_2506" style="mask-type:luminance" maskUnits="userSpaceOnUse" x="86" y="61" width="23" height="30">
<path d="M86.8105 62.4552C86.8105 62.4552 86.8105 68.064 87.1057 69.2448C87.4009 70.4256 89.3689 76.0344 89.8609 77.6088C90.3529 79.1832 94.1905 86.1696 95.0761 87.252C95.9617 88.3344 99.7993 85.6776 99.7993 85.6776L101.964 90.4008C101.964 90.4008 106.641 82.6371 107.723 80.7675C108.805 78.8979 109.42 76.8303 108.633 73.8783C107.846 70.9263 107.77 70.8192 102.85 68.4576C97.9297 66.096 90.7465 63.3408 89.3689 62.3568C87.9913 61.3728 87.0073 61.7664 86.8105 62.4552Z" fill="white"/>
</mask>
<g mask="url(#mask5_166_2506)">
<path opacity="0.5" d="M108.633 73.8782C107.845 70.9262 107.77 70.8191 102.85 68.4575C101.297 67.7123 99.5186 66.9278 97.7687 66.1721C99.7946 69.0548 103.632 74.7614 104.147 77.3348C104.851 80.8538 100.98 84.2555 97.4609 86.0147C96.4037 86.5433 95.6552 86.9654 95.123 87.2981C95.8964 88.0607 98.4449 86.5526 99.4172 85.9295L105.789 81.2054C105.789 81.2054 106.48 81.3233 106.975 82.0388C107.292 81.5042 107.552 81.062 107.723 80.7671C108.805 78.8975 109.42 76.8302 108.633 73.8782Z" fill="white"/>
</g>
<path d="M86.8105 62.4552C86.8105 62.4552 86.8105 68.064 87.1057 69.2448C87.4009 70.4256 89.3689 76.0344 89.8609 77.6088C90.3529 79.1832 94.1905 86.1696 95.0761 87.252C95.9617 88.3344 99.7993 85.6776 99.7993 85.6776L101.964 90.4008C101.964 90.4008 106.641 82.6371 107.723 80.7675C108.805 78.8979 109.42 76.8303 108.633 73.8783C107.846 70.9263 107.77 70.8192 102.85 68.4576C97.9297 66.096 90.7465 63.3408 89.3689 62.3568C87.9913 61.3728 87.0073 61.7664 86.8105 62.4552Z" stroke="#263238" stroke-miterlimit="10" stroke-linecap="round" stroke-linejoin="round"/>
<path d="M87.5044 62.0687C87.5044 62.0687 85.513 63.6617 85.1149 66.2507C84.7165 68.8394 85.5133 69.2378 86.7079 68.0429C87.9028 66.848 88.8985 65.4542 88.8985 65.4542C88.8985 65.4542 87.9028 67.0472 89.2969 67.4456C90.6907 67.8437 93.4789 66.2507 94.4743 65.8526C95.47 65.4542 93.2794 58.2851 87.5044 62.0687Z" fill="#263238" stroke="#263238" stroke-miterlimit="10" stroke-linecap="round" stroke-linejoin="round"/>
<path d="M87.4995 70.9175C87.4995 70.9175 88.0899 71.9999 91.5339 72.6887C94.9779 73.3775 99.6027 73.1807 101.079 72.7871C102.555 72.3935 105.113 71.3111 105.113 71.3111C105.113 71.3111 105.999 71.2127 105.9 71.9999C105.802 72.7871 103.637 73.1807 103.637 73.1807C103.637 73.1807 103.145 76.2311 102.259 77.1167C101.374 78.0023 96.9459 78.5927 95.0763 78.2975C93.2067 78.0023 92.6163 75.2471 92.3211 74.8535C92.0259 74.4599 91.7307 73.8695 91.1403 73.8695C90.5499 73.8695 90.5499 76.0343 90.6483 77.1167C90.7467 78.1991 90.8451 77.6087 89.8611 77.6087C88.8771 77.6087 87.3027 76.5263 87.1059 74.2631C86.9091 71.9999 86.4171 71.0159 87.4995 70.9175Z" fill="#263238" stroke="#263238" stroke-miterlimit="10" stroke-linecap="round" stroke-linejoin="round"/>
<path d="M92.6107 74.2676C92.6107 74.2676 93.0325 76.7978 94.192 77.2193C95.3515 77.6411 95.5624 77.6411 97.3546 76.1651C99.1468 74.6891 101.466 75.2162 101.466 75.2162C101.466 75.2162 102.731 73.8458 102.731 73.3187C102.731 72.7916 102.309 73.0025 102.309 73.0025C102.309 73.0025 101.515 73.5179 97.9819 73.6862C96.7183 73.7465 92.5054 73.4243 92.5054 73.4243L92.6107 74.2676Z" fill="#4598E6"/>
<path d="M90.5785 72.9122L90.6121 73.9553C90.6121 73.9553 90.5785 74.8976 89.4679 75.2339C88.3573 75.5705 87.3481 75.2675 87.3481 75.2675C87.3481 75.2675 86.9443 72.3062 86.9443 71.9699C86.9443 71.6333 87.079 71.4989 87.079 71.4989C87.079 71.4989 88.1221 72.6767 90.5785 72.9122Z" fill="#4598E6"/>
<path d="M102.032 75.8885C102.032 76.1573 101.75 76.3751 101.401 76.3751C101.053 76.3751 100.77 76.1573 100.77 75.8885C100.77 75.6197 101.052 75.4019 101.401 75.4019C101.75 75.4019 102.032 75.62 102.032 75.8885Z" fill="#4598E6"/>
<path d="M90.9433 74.3616C90.9433 74.3616 90.2545 79.1832 89.8609 80.4624C89.4673 81.7416 93.2065 81.1512 94.3873 80.9544" fill="white"/>
<path d="M90.9433 74.3616C90.9433 74.3616 90.2545 79.1832 89.8609 80.4624C89.4673 81.7416 93.2065 81.1512 94.3873 80.9544" stroke="#263238" stroke-miterlimit="10" stroke-linecap="round" stroke-linejoin="round"/>
<path d="M99.7993 85.6775C99.7993 85.6775 102.653 83.9063 104.916 82.0367" stroke="#263238" stroke-miterlimit="10" stroke-linecap="round" stroke-linejoin="round"/>
<path d="M93.0098 72.2952C93.0098 72.2952 93.4928 70.3644 98.5166 70.7661" stroke="#263238" stroke-width="3" stroke-miterlimit="10" stroke-linecap="round" stroke-linejoin="round"/>
<path d="M90.2547 71.8032C90.2547 71.8032 89.2707 70.1304 87.6963 70.032" stroke="#263238" stroke-width="3" stroke-miterlimit="10" stroke-linecap="round" stroke-linejoin="round"/>
<path d="M101.804 91.6952L100.39 98.4692L102.358 98.7644L101.804 91.6952Z" fill="white" stroke="#263238" stroke-miterlimit="10" stroke-linecap="round" stroke-linejoin="round"/>
<path d="M82.9268 62.0411C82.9268 62.0411 91.7216 67.154 97.5584 69.6743C103.395 72.1949 110.824 76.1744 111.354 79.4909C111.885 82.8074 108.171 85.8584 106.712 87.0521C105.252 88.2461 102.334 91.1645 102.334 91.1645C102.334 91.1645 109.497 87.185 112.018 85.3277C114.538 83.4707 115.467 80.2868 114.405 74.5826C113.344 68.8784 112.681 60.1232 109.497 55.2149C106.314 50.3066 98.4869 52.9598 92.7827 55.4801C87.0788 58.0007 82.9268 62.0411 82.9268 62.0411Z" fill="#616161"/>
<mask id="mask6_166_2506" style="mask-type:luminance" maskUnits="userSpaceOnUse" x="82" y="52" width="33" height="40">
<path d="M82.9268 62.0411C82.9268 62.0411 91.7216 67.154 97.5584 69.6743C103.395 72.1949 110.824 76.1744 111.354 79.4909C111.885 82.8074 108.171 85.8584 106.712 87.0521C105.252 88.2461 102.334 91.1645 102.334 91.1645C102.334 91.1645 109.497 87.185 112.018 85.3277C114.538 83.4707 115.467 80.2868 114.405 74.5826C113.344 68.8784 112.681 60.1232 109.497 55.2149C106.314 50.3066 98.4869 52.9598 92.7827 55.4801C87.0788 58.0007 82.9268 62.0411 82.9268 62.0411Z" fill="white"/>
</mask>
<g mask="url(#mask6_166_2506)">
<path opacity="0.3" d="M91.1271 63.0245C91.1271 63.0245 96.6402 66.3089 101.097 68.6549C105.555 71.0009 111.067 74.5199 112.358 76.514C113.648 78.5081 113.296 79.6811 112.123 81.7925C110.95 83.9039 109.425 85.0769 111.067 85.1942C112.71 85.3115 114.352 82.1444 114.352 79.5638C114.352 76.9832 113.883 74.4026 113.179 70.0628C112.475 65.7227 110.481 57.1601 108.487 55.0487C106.493 52.9373 102.974 53.2892 99.3378 55.7525C95.7015 58.2158 102.74 59.3888 102.035 61.2659C101.536 62.5967 98.4639 61.2929 97.632 61.0559C94.8288 60.2576 93.5274 60.3782 90.8061 61.4996C89.982 61.8389 90.5748 62.6954 91.1271 63.0245Z" fill="black"/>
</g>
<path d="M82.9268 62.0411C82.9268 62.0411 91.7216 67.154 97.5584 69.6743C103.395 72.1949 110.824 76.1744 111.354 79.4909C111.885 82.8074 108.171 85.8584 106.712 87.0521C105.252 88.2461 102.334 91.1645 102.334 91.1645C102.334 91.1645 109.497 87.185 112.018 85.3277C114.538 83.4707 115.467 80.2868 114.405 74.5826C113.344 68.8784 112.681 60.1232 109.497 55.2149C106.314 50.3066 98.4869 52.9598 92.7827 55.4801C87.0788 58.0007 82.9268 62.0411 82.9268 62.0411Z" stroke="#263238" stroke-miterlimit="10" stroke-linecap="round" stroke-linejoin="round"/>
<path d="M118.512 88.4364C118.512 88.4364 114.612 88.4364 112.272 94.8054C109.933 101.174 107.333 117.292 107.333 117.292C107.333 117.292 101.614 121.712 97.3243 123.792C93.0349 125.871 90.0454 126.911 90.0454 126.911C90.0454 126.911 92.0482 130.951 91.8652 132.501C91.8004 133.05 92.5126 133.816 92.5126 133.816C92.5126 133.816 103.304 133.021 109.413 131.851C115.522 130.681 123.061 127.951 124.101 122.362C125.141 116.773 129.421 104.273 127.731 100.894" fill="#616161"/>
<mask id="mask7_166_2506" style="mask-type:luminance" maskUnits="userSpaceOnUse" x="90" y="88" width="39" height="46">
<path d="M118.512 88.4364C118.512 88.4364 114.612 88.4364 112.272 94.8054C109.933 101.174 107.333 117.292 107.333 117.292C107.333 117.292 101.614 121.712 97.3243 123.792C93.0349 125.871 90.0454 126.911 90.0454 126.911C90.0454 126.911 92.0482 130.951 91.8652 132.501C91.8004 133.05 92.5126 133.816 92.5126 133.816C92.5126 133.816 103.304 133.021 109.413 131.851C115.522 130.681 123.061 127.951 124.101 122.362C125.141 116.773 129.421 104.273 127.731 100.894" fill="white"/>
</mask>
<g mask="url(#mask7_166_2506)">
<path opacity="0.3" d="M118.511 88.4364C118.511 88.4364 117.875 88.437 116.963 88.8561L117 89.25C117 89.25 119.1 89.1 121.05 92.1C123 95.1 122.4 97.35 123 104.85C123.6 112.35 123.15 119.4 121.8 119.4C120.45 119.4 116.55 117.75 117.15 118.65C117.75 119.55 118.65 120.3 118.65 121.5C118.65 122.7 115.8 119.25 115.05 119.25C114.3 119.25 114.75 119.7 115.2 122.25C115.65 124.8 115.2 122.7 110.4 124.2C105.6 125.7 98.0999 131.4 96.1499 132.15C94.9031 132.63 93.0443 133.415 91.8647 133.92C91.8647 134.059 91.8647 134.06 91.8647 134.06C91.8647 134.06 103.303 133.021 109.412 131.851C115.522 130.681 123.061 127.951 124.1 122.362C125.14 116.773 129.43 103.904 127.74 100.525L118.511 88.4364Z" fill="black"/>
</g>
<mask id="mask8_166_2506" style="mask-type:luminance" maskUnits="userSpaceOnUse" x="90" y="88" width="39" height="46">
<path d="M118.512 88.4364C118.512 88.4364 114.612 88.4364 112.272 94.8054C109.933 101.174 107.333 117.292 107.333 117.292C107.333 117.292 101.614 121.712 97.3243 123.792C93.0349 125.871 90.0454 126.911 90.0454 126.911C90.0454 126.911 92.0482 130.951 91.8652 132.501C91.8004 133.05 92.5126 133.816 92.5126 133.816C92.5126 133.816 103.304 133.021 109.413 131.851C115.522 130.681 123.061 127.951 124.101 122.362C125.141 116.773 129.421 104.273 127.731 100.894" fill="white"/>
</mask>
<g mask="url(#mask8_166_2506)">
<path d="M108.113 117.682C108.113 117.682 112.662 118.202 114.872 120.932" stroke="#263238" stroke-miterlimit="10" stroke-linecap="round" stroke-linejoin="round"/>
</g>
<mask id="mask9_166_2506" style="mask-type:luminance" maskUnits="userSpaceOnUse" x="90" y="88" width="39" height="46">
<path d="M118.512 88.4364C118.512 88.4364 114.612 88.4364 112.272 94.8054C109.933 101.174 107.333 117.292 107.333 117.292C107.333 117.292 101.614 121.712 97.3243 123.792C93.0349 125.871 90.0454 126.911 90.0454 126.911C90.0454 126.911 92.0482 130.951 91.8652 132.501C91.8004 133.05 92.5126 133.816 92.5126 133.816C92.5126 133.816 103.304 133.021 109.413 131.851C115.522 130.681 123.061 127.951 124.101 122.362C125.141 116.773 129.421 104.273 127.731 100.894" fill="white"/>
</mask>
<g mask="url(#mask9_166_2506)">
<path d="M112.142 118.072C112.142 118.072 115.262 117.942 117.211 121.322" stroke="#263238" stroke-miterlimit="10" stroke-linecap="round" stroke-linejoin="round"/>
</g>
<path d="M118.512 88.4364C118.512 88.4364 114.612 88.4364 112.272 94.8054C109.933 101.174 107.333 117.293 107.333 117.293C107.333 117.293 101.614 121.712 97.3243 123.792C93.0349 125.871 90.0454 126.911 90.0454 126.911C90.0454 126.911 92.0482 130.951 91.8652 132.501C91.8004 133.05 92.5126 133.816 92.5126 133.816C92.5126 133.816 103.304 133.021 109.413 131.851C115.522 130.681 123.061 127.951 124.101 122.362C125.141 116.773 129.421 104.273 127.731 100.894" stroke="#263238" stroke-miterlimit="10" stroke-linecap="round" stroke-linejoin="round"/>
<path d="M92.9829 130.219C92.8677 129.588 92.6353 128.986 92.2887 128.447C91.9209 127.874 91.4065 127.172 90.9547 126.908C90.142 126.434 88.4487 126.976 87.2973 127.111C86.1459 127.247 85.6719 126.57 83.4369 124.809C81.2019 123.048 71.3139 121.829 70.0272 121.829C68.7405 121.829 67.5213 122.506 65.2185 122.641C62.9157 122.777 62.2386 123.454 63.9993 124.538C65.7603 125.621 68.1984 125.215 69.8238 124.741C71.4492 124.267 72.7359 126.84 73.2102 126.84C73.6842 126.84 73.278 127.314 72.3975 127.585C71.517 127.856 69.4176 127.585 68.1306 127.653C66.8439 127.721 65.0151 129.278 65.7603 129.82C66.5052 130.362 68.4015 130.294 70.5012 130.294C72.6006 130.294 76.0548 130.023 76.7997 130.159C77.5446 130.294 79.5087 131.716 82.4212 132.732C85.3335 133.748 87.8392 133.003 88.2457 132.935C88.6519 132.868 91.1577 134.087 92.5122 133.816C93.4578 133.627 93.2157 131.492 92.9829 130.219Z" fill="#263238" stroke="#616161" stroke-miterlimit="10" stroke-linecap="round" stroke-linejoin="round"/>
<path d="M75.9197 121.016C75.9197 121.016 73.8878 120 72.7364 120C71.585 120 71.2463 121.151 71.2463 122.235C71.2463 123.319 70.9076 126.231 70.6367 127.179C70.3658 128.127 70.9076 128.804 72.1268 128.601C73.346 128.398 74.294 123.657 74.4971 122.506C74.7002 121.354 75.9194 121.896 76.3256 121.625C76.7324 121.354 75.9197 121.016 75.9197 121.016Z" fill="#263238" stroke="#616161" stroke-miterlimit="10" stroke-linecap="round" stroke-linejoin="round"/>
<path d="M79.7801 121.964C79.7801 121.964 78.1547 120.542 77.0033 120.406C75.8519 120.271 74.633 120.745 74.3621 121.829C74.0912 122.912 74.2265 125.147 73.8203 126.231C73.4138 127.315 72.398 128.805 73.3463 129.008C74.2946 129.211 74.9717 128.94 75.5813 128.263C76.1909 127.585 77.1389 125.893 77.8163 124.809C78.4934 123.725 79.7801 121.964 79.7801 121.964Z" fill="#263238" stroke="#616161" stroke-miterlimit="10" stroke-linecap="round" stroke-linejoin="round"/>
<path d="M85.6045 127.179C85.6045 127.179 84.3853 123.928 82.4215 122.709C80.4577 121.49 78.8998 121.084 78.2902 122.303C77.6806 123.522 77.4775 125.418 76.5292 126.976C75.5809 128.533 75.9196 129.008 77.2741 128.872C78.6286 128.737 79.2382 126.908 80.1862 125.689C81.1345 124.47 81.202 124.808 81.202 124.808" fill="#263238"/>
<path d="M85.6045 127.179C85.6045 127.179 84.3853 123.928 82.4215 122.709C80.4577 121.49 78.8998 121.084 78.2902 122.303C77.6806 123.522 77.4775 125.418 76.5292 126.976C75.5809 128.533 75.9196 129.008 77.2741 128.872C78.6286 128.737 79.2382 126.908 80.1862 125.689C81.1345 124.47 81.202 124.808 81.202 124.808" stroke="#616161" stroke-miterlimit="10" stroke-linecap="round" stroke-linejoin="round"/>
<path d="M42.7094 131.504H40.3721V132.283H42.7094V131.504Z" fill="white" stroke="#263238" stroke-miterlimit="10" stroke-linecap="round" stroke-linejoin="round"/>
<path d="M45.9994 131.504H43.6621V132.283H45.9994V131.504Z" fill="white" stroke="#263238" stroke-miterlimit="10" stroke-linecap="round" stroke-linejoin="round"/>
<path d="M49.289 131.504H46.9517V132.283H49.289V131.504Z" fill="white" stroke="#263238" stroke-miterlimit="10" stroke-linecap="round" stroke-linejoin="round"/>
<path d="M52.578 131.504H50.2407V132.283H52.578V131.504Z" fill="white" stroke="#263238" stroke-miterlimit="10" stroke-linecap="round" stroke-linejoin="round"/>
<path d="M55.8676 131.504H53.5303V132.283H55.8676V131.504Z" fill="white" stroke="#263238" stroke-miterlimit="10" stroke-linecap="round" stroke-linejoin="round"/>
<path d="M59.1571 131.504H56.8198V132.283H59.1571V131.504Z" fill="white" stroke="#263238" stroke-miterlimit="10" stroke-linecap="round" stroke-linejoin="round"/>
<path d="M62.4472 131.504H60.1099V132.283H62.4472V131.504Z" fill="white" stroke="#263238" stroke-miterlimit="10" stroke-linecap="round" stroke-linejoin="round"/>
<path d="M65.7367 131.504H63.3994V132.283H65.7367V131.504Z" fill="white" stroke="#263238" stroke-miterlimit="10" stroke-linecap="round" stroke-linejoin="round"/>
<path d="M69.0263 131.504H66.689V132.283H69.0263V131.504Z" fill="white" stroke="#263238" stroke-miterlimit="10" stroke-linecap="round" stroke-linejoin="round"/>
<path d="M72.3153 131.504H69.978V132.283H72.3153V131.504Z" fill="white" stroke="#263238" stroke-miterlimit="10" stroke-linecap="round" stroke-linejoin="round"/>
<path d="M75.6054 131.504H73.2681V132.283H75.6054V131.504Z" fill="white" stroke="#263238" stroke-miterlimit="10" stroke-linecap="round" stroke-linejoin="round"/>
<path d="M78.8949 131.504H76.5576V132.283H78.8949V131.504Z" fill="white" stroke="#263238" stroke-miterlimit="10" stroke-linecap="round" stroke-linejoin="round"/>
<path d="M82.1845 131.504H79.8472V132.283H82.1845V131.504Z" fill="white" stroke="#263238" stroke-miterlimit="10" stroke-linecap="round" stroke-linejoin="round"/>
<path d="M85.474 131.504H83.1367V132.283H85.474V131.504Z" stroke="#263238" stroke-miterlimit="10" stroke-linecap="round" stroke-linejoin="round"/>
<path d="M88.7636 131.504H86.4263V132.283H88.7636V131.504Z" stroke="#263238" stroke-miterlimit="10" stroke-linecap="round" stroke-linejoin="round"/>
<path d="M89.5139 132.162H38.7275V133.582H89.5139V132.162Z" fill="#263238" stroke="#263238" stroke-miterlimit="10" stroke-linecap="round" stroke-linejoin="round"/>
<path d="M89.5138 132.162H72.4888V133.582H89.5138V132.162Z" fill="white" stroke="#263238" stroke-miterlimit="10" stroke-linecap="round" stroke-linejoin="round"/>
<path d="M61.7938 116.112H28.6438L19.8853 78.312H53.035L61.7938 116.112Z" fill="white" stroke="#263238" stroke-miterlimit="10" stroke-linecap="round" stroke-linejoin="round"/>
<path d="M59.8436 116.112H26.6936L17.9351 78.312H51.0848L59.8436 116.112Z" fill="#263238" stroke="#263238" stroke-miterlimit="10" stroke-linecap="round" stroke-linejoin="round"/>
<path d="M44.4308 101.262H35.6642L29.1074 132.05C28.9307 132.88 29.5634 133.662 30.4118 133.662H50.5829L49.6079 132.687H38.5949C38.162 132.687 37.835 132.295 37.9121 131.869L44.4308 101.262Z" fill="white" stroke="#263238" stroke-miterlimit="10" stroke-linecap="round" stroke-linejoin="round"/>
<path d="M30.4118 133.662H36.9089C36.8843 133.568 36.8786 133.467 36.8972 133.364L43.4156 101.262H35.6642L29.1074 132.05C28.9307 132.88 29.5634 133.662 30.4118 133.662Z" fill="#616161" stroke="#263238" stroke-miterlimit="10" stroke-linecap="round" stroke-linejoin="round"/>
<path d="M136.014 133.462H16.0142V136.262H136.014V133.462Z" fill="#263238" stroke="#263238" stroke-miterlimit="10" stroke-linecap="round" stroke-linejoin="round"/>
<path d="M136.014 133.462H98.8555V136.262H136.014V133.462Z" fill="white" stroke="#263238" stroke-miterlimit="10" stroke-linecap="round" stroke-linejoin="round"/>
</svg>
