<svg width="191" height="127" viewBox="0 0 191 127" fill="none" xmlns="http://www.w3.org/2000/svg">
<path d="M159.834 101.225H45.0046C42.526 101.225 40.5166 99.2158 40.5166 96.7372V14.404C40.5166 11.9254 42.526 9.91602 45.0046 9.91602H159.834C162.313 9.91602 164.322 11.9254 164.322 14.404V96.7368C164.322 99.2158 162.313 101.225 159.834 101.225Z" fill="#CACAFF"/>
<path d="M69.1971 49.8618H64.5361V61.2221H69.1971V49.8618Z" fill="white"/>
<path d="M75.8133 48.2781H71.1523V61.2215H75.8133V48.2781Z" fill="#41BCBC"/>
<path d="M82.429 45.7974H77.7676V61.222H82.429V45.7974Z" fill="#6A6AE2"/>
<path d="M89.0448 40.1196H84.3838V61.222H89.0448V40.1196Z" fill="#171659"/>
<path d="M95.6605 34.2942H90.999V61.222H95.6605V34.2942Z" fill="white"/>
<path d="M102.277 37.2977H97.6157V61.2221H102.277V37.2977Z" fill="#41BCBC"/>
<path d="M108.893 35.4224H104.231V61.2221H108.893V35.4224Z" fill="#6A6AE2"/>
<path d="M52.29 26.4796V61.222H114.613" stroke="#130F40" stroke-width="0.75" stroke-miterlimit="10" stroke-linecap="round" stroke-linejoin="round"/>
<path d="M56.6553 55.5904L68.8488 41.274L73.9671 46.7161L94.8321 29.1007L101.516 35.1976L111.903 27.1198" stroke="#6A6AE2" stroke-width="2" stroke-miterlimit="10" stroke-linecap="round" stroke-linejoin="round"/>
<path d="M111.904 27.7596C112.257 27.7596 112.544 27.4731 112.544 27.1196C112.544 26.7662 112.257 26.4796 111.904 26.4796C111.55 26.4796 111.264 26.7662 111.264 27.1196C111.264 27.4731 111.55 27.7596 111.904 27.7596Z" fill="#130F40"/>
<path d="M57.2953 55.5901C57.2953 55.9437 57.0088 56.2301 56.6557 56.2301C56.3026 56.2301 56.0161 55.9437 56.0161 55.5901C56.0161 55.2366 56.3026 54.9506 56.6557 54.9506C57.0088 54.9506 57.2953 55.2366 57.2953 55.5901Z" fill="#130F40"/>
<path d="M81.0428 70.9001H52.29V85.9161H81.0428V70.9001Z" fill="white"/>
<path d="M89.9253 70.9001H106.557" stroke="#6A6AE2" stroke-width="0.75" stroke-miterlimit="10" stroke-linecap="round" stroke-linejoin="round"/>
<path d="M89.9253 73.9034H114.614" stroke="#6A6AE2" stroke-width="0.75" stroke-miterlimit="10" stroke-linecap="round" stroke-linejoin="round"/>
<path d="M89.9253 76.9065H114.614" stroke="#6A6AE2" stroke-width="0.75" stroke-miterlimit="10" stroke-linecap="round" stroke-linejoin="round"/>
<path d="M89.9253 79.9098H114.614" stroke="#6A6AE2" stroke-width="0.75" stroke-miterlimit="10" stroke-linecap="round" stroke-linejoin="round"/>
<path d="M89.9253 82.9128H114.614" stroke="#6A6AE2" stroke-width="0.75" stroke-miterlimit="10" stroke-linecap="round" stroke-linejoin="round"/>
<path d="M89.9253 85.9161H114.614" stroke="#6A6AE2" stroke-width="0.75" stroke-miterlimit="10" stroke-linecap="round" stroke-linejoin="round"/>
<path d="M127.86 22.2817H144.493" stroke="#6A6AE2" stroke-width="0.75" stroke-miterlimit="10" stroke-linecap="round" stroke-linejoin="round"/>
<path d="M127.86 25.2847H152.549" stroke="#6A6AE2" stroke-width="0.75" stroke-miterlimit="10" stroke-linecap="round" stroke-linejoin="round"/>
<path d="M127.86 28.2878H152.549" stroke="#6A6AE2" stroke-width="0.75" stroke-miterlimit="10" stroke-linecap="round" stroke-linejoin="round"/>
<path d="M127.86 31.291H152.549" stroke="#6A6AE2" stroke-width="0.75" stroke-miterlimit="10" stroke-linecap="round" stroke-linejoin="round"/>
<path d="M127.86 34.2942H152.549" stroke="#6A6AE2" stroke-width="0.75" stroke-miterlimit="10" stroke-linecap="round" stroke-linejoin="round"/>
<path d="M127.86 37.2977H152.549" stroke="#6A6AE2" stroke-width="0.75" stroke-miterlimit="10" stroke-linecap="round" stroke-linejoin="round"/>
<path d="M127.86 46.2062H144.493" stroke="#6A6AE2" stroke-width="0.75" stroke-miterlimit="10" stroke-linecap="round" stroke-linejoin="round"/>
<path d="M127.86 49.209H152.549" stroke="#6A6AE2" stroke-width="0.75" stroke-miterlimit="10" stroke-linecap="round" stroke-linejoin="round"/>
<path d="M127.86 52.2125H152.549" stroke="#6A6AE2" stroke-width="0.75" stroke-miterlimit="10" stroke-linecap="round" stroke-linejoin="round"/>
<path d="M127.86 55.2157H152.549" stroke="#6A6AE2" stroke-width="0.75" stroke-miterlimit="10" stroke-linecap="round" stroke-linejoin="round"/>
<path d="M127.86 58.2186H152.549" stroke="#6A6AE2" stroke-width="0.75" stroke-miterlimit="10" stroke-linecap="round" stroke-linejoin="round"/>
<path d="M127.86 61.222H152.549" stroke="#6A6AE2" stroke-width="0.75" stroke-miterlimit="10" stroke-linecap="round" stroke-linejoin="round"/>
<path d="M149.566 88.8599H130.844C129.196 88.8599 127.86 87.5243 127.86 85.8767V70.9396C127.86 69.2921 129.196 67.9564 130.844 67.9564H149.566C151.213 67.9564 152.549 69.2921 152.549 70.9396V85.8767C152.549 87.5243 151.213 88.8599 149.566 88.8599Z" fill="#6A6AE2"/>
<path d="M145.86 75.7973C145.86 72.5955 143.199 70.0153 139.968 70.1476C137.033 70.268 134.626 72.7164 134.553 75.6527C134.503 77.6319 135.473 79.3833 136.973 80.4298C137.469 80.7759 137.75 81.3546 137.75 81.9591V82.2706C137.75 82.7069 138.104 83.0608 138.54 83.0608H141.87C142.307 83.0608 142.661 82.7069 142.661 82.2706V81.9586C142.661 81.3471 142.953 80.7702 143.454 80.4189C144.908 79.3964 145.86 77.7099 145.86 75.7973Z" fill="white"/>
<path d="M139.175 78.3229H139.598L139.81 78.704L140.266 78.1108L140.515 78.6334L140.769 78.3088L141.235 78.2944" stroke="#F4CC4D" stroke-width="0.75" stroke-miterlimit="10" stroke-linecap="round" stroke-linejoin="round"/>
<path d="M139.429 83.0609L139.175 78.4082" stroke="#6A6AE2" stroke-width="0.75" stroke-miterlimit="10" stroke-linecap="round" stroke-linejoin="round"/>
<path d="M140.981 83.0609L141.235 78.4082" stroke="#6A6AE2" stroke-width="0.75" stroke-miterlimit="10" stroke-linecap="round" stroke-linejoin="round"/>
<path d="M140.909 86.6735H139.501C138.9 86.6735 138.413 86.1864 138.413 85.5854V83.0608H141.998V85.5854C141.997 86.1864 141.51 86.6735 140.909 86.6735Z" fill="#CACAFF"/>
<path d="M138.413 83.8087H141.997" stroke="#6A6AE2" stroke-width="0.75" stroke-miterlimit="10" stroke-linecap="round" stroke-linejoin="round"/>
<path d="M138.413 84.5143H141.997" stroke="#6A6AE2" stroke-width="0.75" stroke-miterlimit="10" stroke-linecap="round" stroke-linejoin="round"/>
<path d="M138.413 85.2201H141.997" stroke="#6A6AE2" stroke-width="0.75" stroke-miterlimit="10" stroke-linecap="round" stroke-linejoin="round"/>
<path d="M138.413 85.9258H141.997" stroke="#6A6AE2" stroke-width="0.75" stroke-miterlimit="10" stroke-linecap="round" stroke-linejoin="round"/>
<path d="M2.22556 107.779C5.60434 120.708 18.8238 128.449 31.7524 125.071C44.6809 121.692 52.4229 108.473 49.0445 95.5438C45.6657 82.6157 32.4463 74.8738 19.5177 78.2521C6.58867 81.6309 -1.15279 94.8504 2.22556 107.779Z" fill="#C9A645"/>
<path d="M1.49426 104.982C4.87305 117.911 18.0925 125.653 31.0211 122.275C43.9501 118.896 51.6916 105.676 48.3128 92.7481C44.9344 79.8196 31.7145 72.0772 18.786 75.4564C5.85738 78.8344 -1.88453 92.0542 1.49426 104.982Z" fill="#F4CC4D"/>
<path d="M4.99968 104.066C7.8725 115.059 19.1123 121.642 30.1051 118.769C41.0979 115.896 47.6807 104.656 44.8079 93.6632C41.935 82.6704 30.6952 76.088 19.702 78.9609C8.70921 81.8337 2.12686 93.074 4.99968 104.066Z" fill="#C9A645"/>
<path d="M17.9051 102.111C18.408 101.122 19.1085 100.301 20.0109 99.646C20.7902 99.0809 21.7806 98.472 22.984 97.8228C23.1724 97.7199 23.3682 97.6147 23.5671 97.5087C24.5102 96.9971 25.2738 96.5629 25.8546 96.1954C25.9335 96.1442 26.0088 96.0938 26.0811 96.0478C26.6865 95.6553 27.1544 95.2098 27.4864 94.7152C27.8189 94.2206 27.907 93.6744 27.7488 93.0698C27.5241 92.209 26.9643 91.6133 26.0759 91.2878C25.6334 91.1261 25.1147 91.0543 24.5159 91.0727C23.9053 91.0898 23.2079 91.2032 22.4264 91.4069C22.0807 91.4972 21.7364 91.6067 21.393 91.7351C20.7989 91.9633 20.2036 92.2458 19.6135 92.5923C18.6827 93.1355 17.8284 93.7974 17.0452 94.5829L15.0156 91.8634C15.7621 91.0258 16.7179 90.2837 17.8753 89.6354C18.7322 89.1614 19.6179 88.7685 20.537 88.4592L19.7239 85.349L22.8092 84.5425L23.6494 87.7574C24.6596 87.6356 25.5931 87.6457 26.4482 87.7837C27.8693 88.0119 29.021 88.5188 29.9037 89.3073C30.7829 90.0967 31.3764 91.0723 31.6813 92.2384C32.0427 93.6209 31.974 94.8155 31.4737 95.8156C30.9725 96.8118 30.2756 97.6323 29.3819 98.2736C28.7025 98.7625 27.8487 99.2934 26.8153 99.8712C26.4903 100.056 26.1442 100.247 25.7828 100.438C25.0613 100.826 24.4485 101.174 23.9412 101.484C23.691 101.63 23.4659 101.77 23.2687 101.898C22.6647 102.295 22.1972 102.744 21.8669 103.245C21.5375 103.75 21.4512 104.304 21.608 104.905C21.8236 105.729 22.3856 106.29 23.2867 106.589C23.8382 106.772 24.5172 106.825 25.3154 106.744C25.8249 106.692 26.386 106.587 26.9945 106.428C27.4733 106.303 27.9438 106.146 28.4059 105.959C29.1646 105.653 29.8971 105.262 30.6046 104.792C31.7444 104.033 32.6573 103.198 33.3425 102.288L35.4912 104.976C34.8087 105.97 33.77 106.895 32.3757 107.755C31.3948 108.358 30.3584 108.852 29.2632 109.238L30.0846 112.381L26.9993 113.187L26.1722 110.022C24.9938 110.207 23.9083 110.217 22.9257 110.063C21.4937 109.837 20.3394 109.335 19.4585 108.554C18.5784 107.776 17.9905 106.807 17.6856 105.64C17.3286 104.277 17.4018 103.101 17.9051 102.111Z" fill="#F4CC4D"/>
<path d="M49.292 112.452L67.3315 99.889C70.6612 97.5703 75.2775 98.8192 76.9833 102.501L85.5514 120.993H75.2871L70.2617 108.688L55.6387 119.869L49.292 112.452Z" fill="#41BCBC"/>
<path d="M91.9948 118.97C91.9948 118.97 96.7149 112.785 101.36 111.869L97.6138 125.863H90.646L91.9948 118.97Z" fill="#171659"/>
<path d="M51.3871 90.5431C50.9556 88.6191 49.998 86.9019 48.6628 85.5487C47.4502 84.3142 45.9227 83.3833 44.2007 82.88V92.7513L45.5968 92.7684L49.4088 111.869L49.8675 114.175L55.9947 111.141L51.3871 90.5431Z" fill="white"/>
<path d="M32.3374 114.625L33.1504 119.45C33.7743 123.152 36.98 125.863 40.7338 125.863H91.7884L92.7998 117.659H52.1169L49.5318 110.59L32.3374 114.625Z" fill="#41BCBC"/>
<path d="M49.8271 109.006L50.6585 111.478L49.4087 111.869L32.658 117.103C32.3821 117.189 32.0956 117.005 32.0601 116.718L31.778 114.454C31.4407 114.261 31.1664 113.986 30.9689 113.667C30.7709 113.343 30.6543 112.97 30.6364 112.584C30.2452 104.451 30.8567 93.8696 31.3285 87.5356C31.0184 86.3266 30.4743 85.4452 29.5303 84.7846C30.1777 84.2721 30.8878 83.8362 31.6474 83.4901C32.3803 83.1576 33.1579 82.9013 33.9714 82.7485L34.7717 82.5956L41.1596 89.6217L43.8344 82.7752L44.0814 82.8426C44.1217 82.8518 44.1625 82.8698 44.1984 82.8786C45.9244 83.3775 47.4484 84.3124 48.6623 85.5486C49.3049 90.4799 48.9816 95.4383 48.6938 98.2121C48.5365 99.7405 48.788 101.283 49.4355 102.676L50.7299 105.463C51.3104 106.708 50.9328 108.187 49.8271 109.006Z" fill="white"/>
<path d="M43.8356 82.7748L42.2621 86.8072L41.1608 89.6213L38.9131 87.1489L34.7729 82.5952L35.3394 82.4874C35.8204 82.3932 36.2203 82.0875 36.445 81.674C36.7731 81.7458 37.2498 81.8448 37.8206 81.9346C39.1378 82.1457 40.9628 82.3078 42.6169 82.0292C42.6528 82.2001 42.7518 82.3486 42.8868 82.4563C42.9586 82.5102 43.044 82.5553 43.1386 82.5821L43.8356 82.7748Z" fill="white"/>
<path d="M47.9841 68.3852C47.9841 68.3808 47.9841 68.3808 47.9841 68.3808C47.1119 66.1287 45.0127 64.4071 42.3379 64.2091C39.3845 63.9932 36.6019 65.8724 35.6938 68.6909C34.8532 71.3071 35.721 73.9683 37.5862 75.6049L37.577 75.6632L36.9344 79.3495L36.6159 81.185C36.5857 81.3598 36.5257 81.5236 36.4442 81.6738C37.5302 81.9196 40.2483 82.4299 42.6187 82.0269C42.6016 81.9489 42.5933 81.8675 42.6029 81.7842L42.7922 80.1314C46.3795 81.2958 47.3954 77.4838 48.3394 71.7162H48.3302C48.5146 70.5567 48.3753 69.4146 47.9841 68.3852Z" fill="#FFCFC0"/>
<path d="M47.9842 68.3808C47.9842 68.3808 47.9842 68.3808 47.9842 68.3852C47.2605 70.4305 41.2091 67.4679 41.2091 67.4679C40.5625 71.2983 38.6065 74.4269 37.5771 75.6632L37.5863 75.6049C35.7206 73.9687 34.8532 71.3075 35.6939 68.6909C36.602 65.8724 39.3845 63.9932 42.338 64.2091C45.0128 64.4067 47.112 66.1287 47.9842 68.3808Z" fill="#171659"/>
<path d="M45.2035 71.8652C45.2035 71.8652 43.9629 74.098 46.7858 75.3973L44.5298 76.3856" stroke="#FF8E77" stroke-width="0.75" stroke-miterlimit="10" stroke-linecap="round" stroke-linejoin="round"/>
<path d="M46.7955 73.77C46.7373 74.0657 46.7982 74.3268 46.9318 74.3526C47.0649 74.3789 47.22 74.1603 47.2783 73.8646C47.3365 73.5689 47.2757 73.3083 47.1425 73.282C47.0089 73.2561 46.8538 73.4747 46.7955 73.77Z" fill="#130F40"/>
<path d="M42.215 72.8698C42.1567 73.1655 42.2176 73.4261 42.3512 73.4524C42.4844 73.4787 42.6395 73.2601 42.6977 72.9644C42.756 72.6687 42.6951 72.4081 42.5619 72.3818C42.4283 72.3555 42.2732 72.5741 42.215 72.8698Z" fill="#130F40"/>
<path d="M39.0597 73.3905C39.0597 73.3905 38.3439 70.2338 36.2741 70.8576C34.2042 71.4814 34.9599 77.7387 38.4889 76.2944L39.0597 73.3905Z" fill="#FFCFC0"/>
<path d="M38.0222 74.3985C38.0222 74.3985 37.9394 72.6353 36.9735 72.1596C36.0075 71.6834 35.9541 72.9757 35.9541 72.9757" stroke="#FF8E77" stroke-width="0.75" stroke-miterlimit="10" stroke-linecap="round" stroke-linejoin="round"/>
<path d="M37.352 72.5643C37.352 72.5643 36.1202 73.2227 37.1207 75.0517" stroke="#FF8E77" stroke-width="0.75" stroke-miterlimit="10" stroke-linecap="round" stroke-linejoin="round"/>
<path d="M42.4556 70.0926C42.4556 70.0926 43.492 69.8118 44.2783 70.4579" stroke="#130F40" stroke-width="0.75" stroke-miterlimit="10" stroke-linecap="round" stroke-linejoin="round"/>
<path d="M47.0371 71.1039C47.0371 71.1039 47.9881 70.7105 48.4091 71.5814" stroke="#130F40" stroke-width="0.75" stroke-miterlimit="10" stroke-linecap="round" stroke-linejoin="round"/>
<path d="M42.2837 76.3856C42.2837 76.3856 42.4243 77.7905 44.0539 78.1278" stroke="#FF8E77" stroke-width="0.75" stroke-miterlimit="10" stroke-linecap="round" stroke-linejoin="round"/>
<path d="M42.7919 80.1314L42.5895 81.916C38.2785 80.6303 38.6877 76.6654 38.6877 76.6654C38.6877 76.6654 39.9506 79.4213 42.7919 80.1314Z" fill="#FF8E77"/>
<path d="M38.5747 103.985L43.8967 101.518C44.7619 101.116 45.7787 101.255 46.508 101.869C47.8779 103.023 49.2197 103.719 49.7374 105.051C50.5242 107.074 45.8049 106.907 45.8049 106.907C45.8049 106.907 42.8213 108.93 39.7614 108.068L38.5747 103.985Z" fill="#FFCFC0"/>
<path d="M45.6177 105.484C45.6177 105.484 48.4296 105.255 49.3276 106.287" stroke="#FF8E77" stroke-width="0.75" stroke-miterlimit="10" stroke-linecap="round" stroke-linejoin="round"/>
<path d="M45.4302 104.023C45.4302 104.023 48.0507 103.645 49.7372 105.052" stroke="#FF8E77" stroke-width="0.75" stroke-miterlimit="10" stroke-linecap="round" stroke-linejoin="round"/>
<path d="M45.2432 102.337C45.2432 102.337 47.1255 102.447 48.8252 103.741" stroke="#FF8E77" stroke-width="0.75" stroke-miterlimit="10" stroke-linecap="round" stroke-linejoin="round"/>
<path d="M29.5298 84.7864C27.8455 86.119 26.5852 87.9693 25.9885 90.1202C24.6892 94.8132 23.3001 101.606 23.5612 108.564C23.6917 111.923 27.081 114.17 30.2456 113.051L40.7333 109.342L38.6788 102.433L31.1581 105.238L31.7201 92.597C31.7201 88.47 31.4831 86.1453 29.5298 84.7864Z" fill="white"/>
<path d="M41.2718 85.6161L42.2609 86.8072L41.1596 89.6213L38.9119 87.1489L39.6987 85.6161L37.8198 81.9342C39.1371 82.1454 40.9621 82.3074 42.6162 82.0288C42.6521 82.1997 42.7511 82.3482 42.886 82.4559L41.2718 85.6161Z" fill="#171659"/>
<path d="M43.8353 82.7748L42.7791 85.4763L39.9111 82.1589C40.7921 82.1992 41.7317 82.1768 42.6175 82.0283C42.6758 82.289 42.8694 82.5049 43.1388 82.5812L43.8353 82.7748Z" fill="white"/>
<path d="M39.911 82.1593L37.5196 85.6161L34.7729 82.5952L35.3394 82.4874C35.8204 82.3932 36.2203 82.0875 36.445 81.674C37.124 81.8264 38.4409 82.0827 39.911 82.1593Z" fill="white"/>
<path d="M37.519 85.6161L39.9104 82.1593L42.7784 85.4768" stroke="#130F40" stroke-width="0.75" stroke-miterlimit="10" stroke-linecap="round" stroke-linejoin="round"/>
<path d="M31.1579 105.238C28.6855 106.083 26.8872 107.601 26.8872 107.601" stroke="#130F40" stroke-width="0.75" stroke-miterlimit="10" stroke-linecap="round" stroke-linejoin="round"/>
<path d="M49.4086 111.869L50.6584 111.478L49.8269 109.005C50.9326 108.187 51.3102 106.708 50.7306 105.463L49.4362 102.676C48.7887 101.282 48.5767 99.744 48.6945 98.2121C48.9709 94.6204 48.6704 91.0239 47.5845 88.7201" stroke="#130F40" stroke-width="0.75" stroke-miterlimit="10" stroke-linecap="round" stroke-linejoin="round"/>
<path d="M31.7197 92.5973L31.1577 105.238L38.6784 102.433L39.1033 103.74" stroke="#130F40" stroke-width="0.75" stroke-miterlimit="10" stroke-linecap="round" stroke-linejoin="round"/>
<path d="M40.4178 108.282L40.7332 109.342L30.6753 112.899" stroke="#130F40" stroke-width="0.75" stroke-miterlimit="10" stroke-linecap="round" stroke-linejoin="round"/>
<path d="M32.3374 114.175L47.9027 109.342" stroke="#130F40" stroke-width="0.75" stroke-miterlimit="10" stroke-linecap="round" stroke-linejoin="round"/>
<path d="M42.616 117.692H63.6944C63.9936 117.692 64.256 117.491 64.3339 117.202L68.4027 102.126C68.5161 101.705 68.199 101.291 67.7631 101.291H46.6848C46.3856 101.291 46.1232 101.492 46.0452 101.781L41.9765 116.857C41.8626 117.278 42.1797 117.692 42.616 117.692Z" fill="#6A6AE2"/>
<path d="M46.873 102.072L42.8047 117.148" stroke="#130F40" stroke-width="0.75" stroke-miterlimit="10" stroke-linecap="round" stroke-linejoin="round"/>
<path d="M45.5952 108.688L47.4728 115.925C47.7426 116.966 48.6814 117.692 49.7559 117.692H67.5886C68.1148 117.692 68.4994 117.195 68.3675 116.686L66.2968 108.688H45.5952Z" fill="#CACAFF"/>
<path d="M73.9258 117.659L84.0223 117.692" stroke="#130F40" stroke-width="0.75" stroke-miterlimit="10" stroke-linecap="round" stroke-linejoin="round"/>
<path d="M34.7729 82.5952L41.1608 89.6213L44.0827 82.8423" stroke="#130F40" stroke-width="0.75" stroke-miterlimit="10" stroke-linecap="round" stroke-linejoin="round"/>
<path d="M34.6534 41.5345V55.4019C34.6534 57.9269 32.6067 59.9735 30.0817 59.9735H25.9416V67.4613L18.459 59.9735H8.89829C6.37329 59.9735 4.32666 57.9264 4.32666 55.4019V41.5345C4.32666 39.0095 6.37373 36.9629 8.89829 36.9629H30.0817C32.6063 36.9629 34.6534 39.0095 34.6534 41.5345Z" fill="#41BCBC"/>
<path d="M13.7272 52.2122C13.7272 53.0494 13.0486 53.7279 12.2115 53.7279C11.3744 53.7279 10.6958 53.0494 10.6958 52.2122C10.6958 51.3751 11.3744 50.6965 12.2115 50.6965C13.0486 50.6961 13.7272 51.3751 13.7272 52.2122Z" fill="white"/>
<path d="M21.0055 52.2122C21.0055 53.0494 20.327 53.7279 19.4898 53.7279C18.6527 53.7279 17.9741 53.0494 17.9741 52.2122C17.9741 51.3751 18.6527 50.6965 19.4898 50.6965C20.327 50.6961 21.0055 51.3751 21.0055 52.2122Z" fill="white"/>
<path d="M28.2829 52.2122C28.2829 53.0494 27.6043 53.7279 26.7672 53.7279C25.93 53.7279 25.2515 53.0494 25.2515 52.2122C25.2515 51.3751 25.93 50.6965 26.7672 50.6965C27.6043 50.6965 28.2829 51.3751 28.2829 52.2122Z" fill="white"/>
<path d="M143.424 104.444H112.637V125.83H143.424V104.444Z" fill="#F4CC4D"/>
<path d="M143.423 104.444V125.83H132.634C123.325 121.055 123.102 109.902 123.614 104.444H143.423Z" fill="#C9A645"/>
<path d="M112.571 120.818H143.487" stroke="#130F40" stroke-width="0.75" stroke-miterlimit="10" stroke-linecap="round" stroke-linejoin="round"/>
<path d="M112.571 115.136H143.487" stroke="#130F40" stroke-width="0.75" stroke-miterlimit="10" stroke-linecap="round" stroke-linejoin="round"/>
<path d="M112.571 109.453H143.487" stroke="#130F40" stroke-width="0.75" stroke-miterlimit="10" stroke-linecap="round" stroke-linejoin="round"/>
<path d="M157.455 102.344C161.945 109.557 159.738 119.046 152.525 123.536C145.312 128.027 135.824 125.82 131.333 118.607C126.842 111.393 129.049 101.905 136.263 97.4144C143.476 92.9242 152.964 95.1312 157.455 102.344Z" fill="#C9A645"/>
<path d="M156.484 100.784C160.975 107.998 158.768 117.486 151.554 121.976C144.341 126.467 134.853 124.26 130.363 117.047C125.872 109.834 128.079 100.345 135.292 95.8545C142.505 91.3639 151.993 93.5709 156.484 100.784Z" fill="#F4CC4D"/>
<path d="M154.528 102.002C158.346 108.135 156.469 116.202 150.336 120.021C144.203 123.839 136.135 121.963 132.317 115.829C128.499 109.695 130.376 101.629 136.509 97.8099C142.642 93.9918 150.709 95.8684 154.528 102.002Z" fill="#C9A645"/>
<path d="M147.982 107.104C147.306 106.903 146.62 106.868 145.923 106.998C145.322 107.111 144.607 107.302 143.781 107.573C143.651 107.615 143.517 107.66 143.382 107.705C142.733 107.917 142.199 108.079 141.775 108.187C141.717 108.201 141.661 108.214 141.608 108.227C141.162 108.335 140.752 108.356 140.378 108.293C140.004 108.23 139.714 108.032 139.504 107.695C139.205 107.214 139.174 106.695 139.413 106.143C139.532 105.868 139.725 105.597 139.996 105.329C140.271 105.054 140.628 104.782 141.064 104.51C141.256 104.39 141.458 104.279 141.667 104.176C142.032 104.002 142.423 103.851 142.841 103.73C143.499 103.537 144.178 103.433 144.883 103.415L144.515 101.289C143.802 101.267 143.042 101.384 142.236 101.634C141.642 101.823 141.074 102.06 140.529 102.349L139.449 100.613L137.727 101.685L138.844 103.479C138.346 103.892 137.942 104.327 137.631 104.782C137.115 105.538 136.846 106.291 136.824 107.044C136.804 107.794 136.995 108.495 137.399 109.146C137.879 109.917 138.461 110.408 139.141 110.614C139.82 110.819 140.504 110.856 141.191 110.723C141.714 110.623 142.332 110.462 143.051 110.237C143.279 110.168 143.518 110.091 143.764 110.008C144.259 109.845 144.688 109.714 145.053 109.615C145.23 109.564 145.393 109.521 145.538 109.486C145.985 109.381 146.397 109.361 146.773 109.428C147.15 109.497 147.443 109.699 147.652 110.034C147.939 110.494 147.952 110.999 147.696 111.546C147.539 111.881 147.266 112.218 146.88 112.55C146.633 112.763 146.339 112.976 146 113.187C145.733 113.353 145.454 113.502 145.166 113.633C144.693 113.85 144.192 114.017 143.666 114.138C142.817 114.332 142.033 114.389 141.313 114.307L141.614 116.475C142.372 116.594 143.253 116.519 144.26 116.252C144.967 116.062 145.648 115.801 146.305 115.464L147.397 117.217L149.118 116.146L148.019 114.38C148.619 113.917 149.099 113.421 149.457 112.9C149.979 112.14 150.253 111.387 150.277 110.639C150.303 109.893 150.112 109.197 149.708 108.547C149.234 107.785 148.658 107.304 147.982 107.104Z" fill="#F4CC4D"/>
<path d="M143.424 125.829H143.385C138.614 125.514 134.059 122.978 131.334 118.606C131.172 118.343 131.018 118.08 130.874 117.808C130.694 117.563 130.523 117.309 130.361 117.046C127.921 113.126 127.461 108.539 128.705 104.443" stroke="#130F40" stroke-width="0.75" stroke-miterlimit="10" stroke-linecap="round" stroke-linejoin="round"/>
<path d="M178.79 122.173C177.361 122.042 177.173 121.372 175.268 121.372C173.16 121.372 172.998 122.498 171.82 122.498C171.395 122.498 171.115 122.353 170.935 122.165L171.272 118.524H176.665C177.462 119.519 178.198 120.89 178.79 122.173Z" fill="#FFCFC0"/>
<path d="M180.279 125.862H170.589L170.935 122.165C171.115 122.353 171.395 122.498 171.82 122.498C172.998 122.498 173.16 121.372 175.267 121.372C177.173 121.372 177.361 122.042 178.789 122.173C179.696 124.114 180.279 125.862 180.279 125.862Z" fill="#171659"/>
<path d="M156.076 123.618C158.372 122.876 162.41 121.609 164.491 121.987L164.427 118.526H159.17C157.282 119.7 155.125 121.588 153.464 123.155C153.661 123.61 154.256 124.206 156.076 123.618Z" fill="#FFCFC0"/>
<path d="M156.076 123.618C154.257 124.206 153.661 123.61 153.464 123.155C151.873 124.656 150.738 125.863 150.738 125.863H164.564L164.492 121.987C162.41 121.61 158.373 122.876 156.076 123.618Z" fill="#171659"/>
<path d="M180.533 39.3401C180.463 41.1887 176.884 43.8828 176.884 43.8828C176.884 43.8828 167.501 42.9322 165.166 42.24C162.831 41.5435 161.99 39.1342 163.448 37.82C164.912 36.5058 165.678 33.9475 163.269 33.9431C160.859 33.9431 161.298 31.8054 161.298 31.8054C160.566 31.7353 159.361 30.995 159.326 29.3873C159.287 27.7752 161.258 27.0655 161.258 27.0655C160.785 26.7151 159.944 23.0003 166.335 20.7005C167.041 20.4464 167.676 20.2712 168.25 20.1529C172.876 19.2286 173.458 22.3782 173.458 22.3782C179.924 23.1098 176.446 31.8054 176.446 31.8054C176.446 31.8054 177.834 31.7616 177.834 33.102C177.834 34.4425 176.192 35.1303 176.192 35.1303C176.192 35.1303 177.195 34.9813 177.804 35.4282C178.01 35.5771 178.167 35.7917 178.233 36.1072C178.478 37.2768 177.16 38.2493 177.007 38.3588C178.54 37.601 180.607 37.4958 180.533 39.3401Z" fill="#130F40"/>
<path d="M182.938 54.072L182.478 55.7147L178.273 57.5108L177.16 57.9882L175.842 52.8629L175.163 50.217H162.025L158.463 54.0062L156.624 55.9644L155.975 55.2985L151.691 50.9267C152.913 49.1832 154.148 47.6412 155.414 46.3095C156.746 44.9033 158.113 43.7293 159.541 42.7962C162.226 41.0352 165.126 40.1196 168.403 40.1196C170.326 40.1196 172.078 40.3606 173.616 40.711C175.911 41.2367 177.918 42.4939 179.394 44.2199C180.432 45.429 181.208 46.8702 181.641 48.456C181.681 48.5962 181.716 48.7407 181.751 48.8853L182.938 54.072Z" fill="#6A6AE2"/>
<path d="M182.478 55.7146L180.239 63.7268C180.082 63.4815 179.955 63.2011 179.863 62.8901L178.272 57.5107L182.478 55.7146Z" fill="#FFCFC0"/>
<path d="M162.976 63.6831L160.4 68.0111L151.012 60.0033C149.098 58.3737 148.66 55.5789 150.005 53.4586C150.565 52.5738 151.126 51.7283 151.691 50.9266L155.975 55.2985L154.819 56.455L162.976 63.6831Z" fill="#FFCFC0"/>
<path d="M174.878 55.2067C174.107 57.086 173.958 59.1756 174.506 61.1293C175.001 62.886 175.382 64.7039 175.68 66.6533H159.616C160.435 62.0142 160.553 59.434 158.981 56.0741C158.678 55.4301 158.521 54.7292 158.464 54.0064C158.21 50.7998 159.962 47.2559 159.962 47.2559L159.541 42.7964C161.039 41.8107 162.608 41.0923 164.268 40.6499C164.167 41.5041 164.207 43.6462 167.238 43.6462C170.151 43.6462 172.263 41.561 173.086 40.5973C173.266 40.6323 173.441 40.6718 173.616 40.7112C175.912 41.2369 177.918 42.4941 179.394 44.2201L175.842 52.8631L174.878 55.2067Z" fill="#6A6AE2"/>
<path d="M175.68 66.6534H159.617C159.582 66.8514 159.548 67.0473 159.51 67.2531C158.594 72.2821 156.352 118.936 156.352 118.936H165.875L167.408 77.2103L169.274 118.936H178.141C178.141 118.936 176.941 81.3194 176.503 74.6915C176.307 71.7245 176.055 69.0882 175.68 66.6534Z" fill="#171659"/>
<path d="M171.867 33.6319L171.767 39.7692C171.762 40.1109 172.01 40.4 172.347 40.4583C172.597 40.5012 172.843 40.5476 173.085 40.5971C172.262 41.5609 170.15 43.6461 167.237 43.6461C164.206 43.6461 164.166 41.5039 164.267 40.6497C164.594 40.5621 164.925 40.4863 165.261 40.4206C165.565 40.3615 165.788 40.1013 165.812 39.7929L165.848 39.3399L166.041 36.9831C162.392 37.4212 162.134 33.5881 162.318 27.8933L162.326 27.8977C162.463 24.2477 165.686 21.3845 169.466 21.8441C172.329 22.1919 174.64 24.5128 174.976 27.3773C175.288 30.0376 173.96 32.4185 171.867 33.6319Z" fill="#FFCFC0"/>
<path d="M177.804 35.4282H173.437C171.325 32.9662 171.518 28.4761 171.518 28.4761C166.454 26.369 168.285 21.3575 168.285 21.3575L168.25 20.1529C172.876 19.2286 173.458 22.3782 173.458 22.3782C179.924 23.1098 176.446 31.8054 176.446 31.8054C176.446 31.8054 177.835 31.7616 177.835 33.102C177.835 34.4425 176.192 35.1303 176.192 35.1303C176.192 35.1303 177.195 34.9813 177.804 35.4282Z" fill="#130F40"/>
<path d="M168.89 33.1019C168.89 33.1019 168.618 33.4349 168.228 33.8072C167.357 34.6308 165.894 35.6471 165.591 33.5269L165.74 33.5093L168.89 33.1019Z" fill="#FF8E77"/>
<path d="M168.889 33.1019C168.889 33.1019 168.618 33.4349 168.228 33.8072C166.336 34.5081 165.858 33.908 165.74 33.5093L168.889 33.1019Z" fill="white"/>
<path d="M165.474 29.6533C165.474 30.5452 164.644 31.2689 163.619 31.2689C162.595 31.2689 161.765 30.5456 161.765 29.6533C161.765 28.761 162.595 28.0377 163.619 28.0377C164.644 28.0377 165.474 28.761 165.474 29.6533Z" stroke="white" stroke-width="0.75" stroke-miterlimit="10" stroke-linecap="round" stroke-linejoin="round"/>
<path d="M168.551 31.2689C169.575 31.2689 170.405 30.5456 170.405 29.6533C170.405 28.761 169.575 28.0377 168.551 28.0377C167.526 28.0377 166.696 28.761 166.696 29.6533C166.696 30.5456 167.526 31.2689 168.551 31.2689Z" stroke="white" stroke-width="0.75" stroke-miterlimit="10" stroke-linecap="round" stroke-linejoin="round"/>
<path d="M165.796 28.3118C165.796 28.3118 166.562 30.6799 163.619 31.3918L165.59 32.7607" stroke="#FF8E77" stroke-width="0.75" stroke-miterlimit="10" stroke-linecap="round" stroke-linejoin="round"/>
<path d="M165.475 29.6536C165.475 29.6536 165.884 29.0512 166.696 29.6536" stroke="white" stroke-width="0.75" stroke-miterlimit="10" stroke-linecap="round" stroke-linejoin="round"/>
<path d="M164.331 29.6373C164.331 29.9308 164.224 30.1691 164.092 30.1691C163.959 30.1691 163.852 29.9312 163.852 29.6373C163.852 29.3433 163.959 29.1055 164.092 29.1055C164.224 29.1059 164.331 29.3438 164.331 29.6373Z" fill="#130F40"/>
<path d="M168.641 30.1691C168.774 30.1691 168.881 29.931 168.881 29.6373C168.881 29.3436 168.774 29.1055 168.641 29.1055C168.509 29.1055 168.402 29.3436 168.402 29.6373C168.402 29.931 168.509 30.1691 168.641 30.1691Z" fill="#130F40"/>
<path d="M162.505 26.6258C162.505 26.6258 163.49 25.8062 164.753 26.3262" stroke="#130F40" stroke-width="0.75" stroke-miterlimit="10" stroke-linecap="round" stroke-linejoin="round"/>
<path d="M166.562 26.2855C166.562 26.2855 167.863 25.5325 169.423 26.2855" stroke="#130F40" stroke-width="0.75" stroke-miterlimit="10" stroke-linecap="round" stroke-linejoin="round"/>
<path d="M170.405 29.6534L173.782 30.3377" stroke="white" stroke-width="0.75" stroke-miterlimit="10" stroke-linecap="round" stroke-linejoin="round"/>
<path d="M170.966 35.13C170.843 35.3315 169.025 38.2884 165.849 39.3398L166.042 36.983C169.367 36.8034 170.874 35.2264 170.966 35.13Z" fill="#FF8E77"/>
<path d="M171.591 32.2726C171.591 32.2726 172.869 29.3888 174.73 30.3745C176.592 31.3601 174.694 37.2008 171.591 35.1568V32.2726Z" fill="#FFCFC0"/>
<path d="M172.394 33.4317C172.394 33.4317 172.805 31.7613 173.818 31.4876C174.831 31.2138 174.639 32.4596 174.639 32.4596" stroke="#FF8E77" stroke-width="0.75" stroke-miterlimit="10" stroke-linecap="round" stroke-linejoin="round"/>
<path d="M173.379 31.8035C173.379 31.8035 174.433 32.6647 173.133 34.2255" stroke="#FF8E77" stroke-width="0.75" stroke-miterlimit="10" stroke-linecap="round" stroke-linejoin="round"/>
<path d="M158.464 54.0063C158.21 50.7997 159.962 47.2557 159.962 47.2557" stroke="#130F40" stroke-width="0.75" stroke-miterlimit="10" stroke-linecap="round" stroke-linejoin="round"/>
<path d="M175.163 50.2169L175.841 52.8628" stroke="#130F40" stroke-width="0.75" stroke-miterlimit="10" stroke-linecap="round" stroke-linejoin="round"/>
<path d="M188.739 46.2175C188.655 47.2557 188.655 49.0386 188.165 50.3791C187.937 52.3372 187.652 54.2735 187.337 56.1396C187.337 56.1528 187.332 56.1703 187.328 56.1878C186.943 58.4701 186.505 60.6561 186.062 62.6668C185.996 62.969 185.896 63.245 185.764 63.4947C184.665 65.6412 181.511 65.7683 180.24 63.7269L182.939 54.072L184.17 49.6738L183.329 45.6962C183.175 44.969 183.272 44.2155 183.596 43.5497C184.437 41.8237 186.137 38.6127 186.96 39.0157C188.082 39.5633 185.839 41.0221 185.453 43.6461C185.453 43.6461 188.384 38.5119 189.396 39.3399C190.408 40.1678 188.252 41.0264 187.048 43.8739C187.188 43.6899 189.606 40.457 190.272 41.1228C190.96 41.8106 188.743 43.0678 187.95 44.8989C188.055 44.7719 189.886 42.564 190.574 42.989C191.284 43.427 188.822 45.1793 188.739 46.2175Z" fill="#FFCFC0"/>
<path d="M182.478 55.7146L181.43 59.4688" stroke="#FF8E77" stroke-width="0.75" stroke-miterlimit="10" stroke-linecap="round" stroke-linejoin="round"/>
<path d="M184.275 44.7939C184.275 44.7939 187.006 42.0214 187.776 42.9558C188.546 43.8902 186.52 44.5202 186.411 45.1225C186.411 45.1225 186.794 46.4323 186.575 47.2559" fill="#FFCFC0"/>
<path d="M184.275 44.7939C184.275 44.7939 187.006 42.0214 187.776 42.9558C188.546 43.8902 186.52 44.5202 186.411 45.1225C186.411 45.1225 186.794 46.4323 186.575 47.2559" stroke="#FF8E77" stroke-width="0.75" stroke-miterlimit="10" stroke-linecap="round" stroke-linejoin="round"/>
<path d="M173.92 18.9576C173.92 18.9576 174.005 12.6097 180.276 12.6171C180.276 12.6171 173.928 12.5312 173.935 6.26123C173.935 6.26123 173.849 12.6092 167.579 12.6018C167.579 12.6018 173.928 12.6881 173.92 18.9576Z" fill="#F4CC4D"/>
<path d="M180.925 23.5705C180.925 23.5705 180.968 20.395 184.104 20.3985C184.104 20.3985 180.929 20.3555 180.932 17.219C180.932 17.219 180.889 20.3945 177.753 20.391C177.753 20.391 180.929 20.4339 180.925 23.5705Z" fill="#F4CC4D"/>
<path d="M0.702148 125.863H189.302" stroke="#130F40" stroke-width="0.75" stroke-miterlimit="10" stroke-linecap="round" stroke-linejoin="round"/>
<path d="M127.165 106.905H84.7603C84.7603 103.458 87.5551 100.663 91.0027 100.663H91.0771C91.0465 100.356 91.0333 100.045 91.0333 99.73C91.0333 94.4382 95.322 90.1495 100.614 90.1495C104.753 90.1495 108.284 92.7735 109.62 96.4533C110.264 96.2781 110.939 96.1861 111.64 96.1861C115.635 96.1861 118.925 99.1912 119.38 103.068C120.195 102.437 121.216 102.065 122.324 102.065C124.996 102.065 127.165 104.233 127.165 106.905Z" fill="#6A6AE2"/>
<path d="M67.813 19.832H17.6245C17.6245 15.7515 20.9323 12.4436 25.0129 12.4436H25.1009C25.0646 12.0809 25.0493 11.7125 25.0493 11.3393C25.0493 5.07585 30.1251 0 36.3885 0C41.2883 0 45.467 3.10587 47.0484 7.4611C47.8106 7.25346 48.6092 7.14482 49.4385 7.14482C54.1669 7.14482 58.0609 10.7015 58.6001 15.2902C59.5647 14.5437 60.7725 14.103 62.0845 14.103C65.2469 14.103 67.813 16.6696 67.813 19.832Z" fill="#6A6AE2"/>
</svg>
