<svg width="151" height="150" viewBox="0 0 151 150" fill="none" xmlns="http://www.w3.org/2000/svg">
<path d="M24.7915 133.864C-3.07308 117.777 -3.07308 91.6935 24.7915 75.6057C52.6561 59.5182 97.834 59.5182 125.699 75.6057C153.563 91.6932 153.563 117.777 125.699 133.864C97.834 149.952 52.6561 149.952 24.7915 133.864Z" fill="#F0F0F0"/>
<path d="M62.5471 136.901L20.0059 112.322C18.3463 111.364 18.3463 109.796 20.0059 108.838L88.8871 69.0403C89.5705 68.6458 90.6886 68.6458 91.372 69.0403L134.957 94.2238C135.834 94.7302 135.833 95.9953 134.957 96.5014L65.032 136.901C64.3486 137.295 63.2305 137.295 62.5471 136.901Z" fill="#E0E0E0"/>
<path d="M115.532 133.494C124.24 133.494 131.299 129.418 131.299 124.391C131.299 119.364 124.24 115.288 115.532 115.288C106.824 115.288 99.7651 119.364 99.7651 124.391C99.7651 129.418 106.824 133.494 115.532 133.494Z" fill="#E0E0E0"/>
<path d="M24.3974 98.0418C24.3974 98.0418 24.3077 91.6377 21.6467 86.4096C18.9857 81.1815 14.963 77.6832 10.9562 76.962C6.94971 76.2405 3.31791 79.6317 7.38501 82.6131C11.4521 85.5945 18.8699 88.9626 21.4529 98.8572L24.3974 98.0418Z" fill="#4598E6"/>
<path opacity="0.15" d="M24.3974 98.0418C24.3974 98.0418 24.3077 91.6377 21.6467 86.4096C18.9857 81.1815 14.963 77.6832 10.9562 76.962C6.94971 76.2405 3.31791 79.6317 7.38501 82.6131C11.4521 85.5945 18.8699 88.9626 21.4529 98.8572L24.3974 98.0418Z" fill="black"/>
<path d="M23.3769 96.2792C23.3916 96.278 23.4063 96.2756 23.4207 96.2708C23.5356 96.2372 23.6013 96.1166 23.5674 96.0017C20.3505 85.082 12.6732 79.892 9.06304 78.6734C8.95024 78.6341 8.82694 78.6962 8.78824 78.8093C8.75014 78.923 8.81074 79.0457 8.92444 79.0838C12.4605 80.2775 19.9848 85.3757 23.1516 96.1238C23.1813 96.2246 23.277 96.2873 23.3769 96.2792Z" fill="white"/>
<path d="M24.8039 104.085C23.3165 104.941 22.4636 105.494 19.7354 105.724C18.1079 105.861 15.9053 105.63 14.006 104.946C13.4999 104.763 12.7172 104.364 13.157 103.877C13.3844 103.625 16.0604 103.2 17.0174 102.074C15.8969 102.374 14.4236 102.714 13.2644 102.739C12.1049 102.765 10.8989 102.487 10.0091 101.743C9.1259 101.004 8.6483 99.9014 8.201 98.8406C8.0483 98.4785 7.9034 98.0345 8.138 97.7189C8.2871 97.5185 8.5457 97.4396 8.7863 97.3724C9.7997 97.0901 10.8134 96.8081 11.8268 96.5258C12.4883 96.3848 12.0215 95.9477 11.771 95.9105C11.3369 95.846 10.9214 95.8475 10.6688 95.861C9.5078 95.9231 8.2256 96.1418 7.2779 95.4683C6.7106 95.0651 6.3761 94.3976 6.2339 93.7163C6.1838 93.4763 5.984 90.3431 6.122 90.3056C6.8765 90.1001 7.667 89.9906 8.4419 89.9018C9.1772 89.8175 9.8939 89.7833 10.6262 89.6846C11.4533 89.573 12.2879 89.5181 13.1222 89.5208C13.4054 89.5217 13.7045 89.5337 13.9442 89.6849C14.2733 89.8925 14.4038 90.3074 14.4458 90.6944C14.4878 91.0811 14.4677 91.4819 14.6021 91.847C14.9585 91.8161 15.0749 91.3532 15.0656 90.9956C15.0563 90.638 15.0632 90.1922 15.386 90.038C15.5498 89.9597 15.7424 89.9912 15.92 90.0275C17.0531 90.2597 18.1583 90.6272 19.2044 91.1198C19.6829 91.3451 20.1611 91.6058 20.5055 92.0075C21.014 92.6003 21.1643 93.4226 21.1688 94.2038C21.1733 94.9847 21.0521 95.7653 21.1031 96.5447C21.7142 95.999 22.5644 94.3394 22.631 93.5231C23.945 94.3679 24.7238 96.1094 24.9686 98.4902C25.13 100.061 25.0904 102.13 24.872 103.723C24.8648 103.779 24.8525 104.057 24.8039 104.085Z" fill="#4598E6"/>
<path opacity="0.3" d="M24.8039 104.085C23.3165 104.941 22.4636 105.494 19.7354 105.724C18.1079 105.861 15.9053 105.63 14.006 104.946C13.4999 104.763 12.7172 104.364 13.157 103.877C13.3844 103.625 16.0604 103.2 17.0174 102.074C15.8969 102.374 14.4236 102.714 13.2644 102.739C12.1049 102.765 10.8989 102.487 10.0091 101.743C9.1259 101.004 8.6483 99.9014 8.201 98.8406C8.0483 98.4785 7.9034 98.0345 8.138 97.7189C8.2871 97.5185 8.5457 97.4396 8.7863 97.3724C9.7997 97.0901 10.8134 96.8081 11.8268 96.5258C12.4883 96.3848 12.0215 95.9477 11.771 95.9105C11.3369 95.846 10.9214 95.8475 10.6688 95.861C9.5078 95.9231 8.2256 96.1418 7.2779 95.4683C6.7106 95.0651 6.3761 94.3976 6.2339 93.7163C6.1838 93.4763 5.984 90.3431 6.122 90.3056C6.8765 90.1001 7.667 89.9906 8.4419 89.9018C9.1772 89.8175 9.8939 89.7833 10.6262 89.6846C11.4533 89.573 12.2879 89.5181 13.1222 89.5208C13.4054 89.5217 13.7045 89.5337 13.9442 89.6849C14.2733 89.8925 14.4038 90.3074 14.4458 90.6944C14.4878 91.0811 14.4677 91.4819 14.6021 91.847C14.9585 91.8161 15.0749 91.3532 15.0656 90.9956C15.0563 90.638 15.0632 90.1922 15.386 90.038C15.5498 89.9597 15.7424 89.9912 15.92 90.0275C17.0531 90.2597 18.1583 90.6272 19.2044 91.1198C19.6829 91.3451 20.1611 91.6058 20.5055 92.0075C21.014 92.6003 21.1643 93.4226 21.1688 94.2038C21.1733 94.9847 21.0521 95.7653 21.1031 96.5447C21.7142 95.999 22.5644 94.3394 22.631 93.5231C23.945 94.3679 24.7238 96.1094 24.9686 98.4902C25.13 100.061 25.0904 102.13 24.872 103.723C24.8648 103.779 24.8525 104.057 24.8039 104.085Z" fill="black"/>
<path d="M24.5578 103.789C24.4927 103.789 24.43 103.753 24.3979 103.692C20.1421 95.5197 10.7269 92.0756 8.43847 91.6007C8.34127 91.5806 8.27857 91.4849 8.29867 91.3877C8.31907 91.2905 8.41627 91.2302 8.51167 91.2479C10.8355 91.73 20.3959 95.2274 24.7174 103.525C24.7633 103.614 24.7291 103.722 24.6409 103.768C24.6142 103.782 24.5857 103.789 24.5578 103.789Z" fill="white"/>
<path d="M12.1907 99.0797C12.0977 99.0797 12.0191 99.0083 12.0113 98.9138C12.0038 98.8148 12.0779 98.7281 12.1769 98.72C16.874 98.3513 18.3932 96.5123 18.4082 96.4934C18.4697 96.4154 18.5828 96.4031 18.6608 96.4643C18.7385 96.5261 18.752 96.6386 18.6908 96.7166C18.6272 96.7973 17.0798 98.696 12.2054 99.0791C12.2003 99.0797 12.1952 99.0797 12.1907 99.0797Z" fill="white"/>
<path d="M138.256 76.2891C136.174 78.5661 132.355 82.3131 130.135 85.9311C130.129 85.9401 130.123 85.9491 130.12 85.9581C129.253 87.3771 128.632 88.7751 128.461 90.0561L128.305 92.3691L127.354 91.8201L127.195 91.7271L126.802 91.5021C126.239 91.176 125.885 90.5796 125.868 89.9292C125.715 84.2889 127.222 79.4946 128.68 76.5927C130.675 72.6297 134.413 68.5884 137.662 68.9844C140.683 69.3531 141.16 73.1151 138.256 76.2891Z" fill="#4598E6"/>
<path opacity="0.15" d="M138.256 76.2891C136.174 78.5661 132.355 82.3131 130.135 85.9311C130.129 85.9401 130.123 85.9491 130.12 85.9581C129.253 87.3771 128.632 88.7751 128.461 90.0561L128.305 92.3691L127.354 91.8201L127.195 91.7271L126.802 91.5021C126.239 91.176 125.885 90.5796 125.868 89.9292C125.715 84.2889 127.222 79.4946 128.68 76.5927C130.675 72.6297 134.413 68.5884 137.662 68.9844C140.683 69.3531 141.16 73.1151 138.256 76.2891Z" fill="black"/>
<path d="M136.723 71.1711C132.745 73.6851 127.066 82.4481 127.195 91.7271L126.802 91.5021C126.769 82.1661 132.496 73.3821 136.513 70.8411C136.606 70.7811 136.726 70.8111 136.783 70.9041C136.84 70.9941 136.813 71.1141 136.723 71.1711Z" fill="white"/>
<path d="M140.614 83.7231C139.921 85.6041 135.967 87.2361 133.048 89.9511C132.281 90.666 131.612 91.4031 131.046 92.127C130.481 92.8491 129.471 93.0414 128.677 92.5821L128.329 92.3811L128.305 92.3691L127.354 91.8201C127.918 89.6961 128.932 87.6831 130.12 85.9581C130.123 85.9491 130.129 85.9401 130.135 85.9311C132.067 83.1291 134.452 81.1041 136.117 80.6451C139.39 79.7451 141.445 81.4641 140.614 83.7231Z" fill="#4598E6"/>
<path opacity="0.3" d="M140.614 83.7231C139.921 85.6041 135.967 87.2361 133.048 89.9511C132.281 90.666 131.612 91.4031 131.046 92.127C130.481 92.8491 129.471 93.0414 128.677 92.5821L128.329 92.3811L128.305 92.3691L127.354 91.8201C127.918 89.6961 128.932 87.6831 130.12 85.9581C130.123 85.9491 130.129 85.9401 130.135 85.9311C132.067 83.1291 134.452 81.1041 136.117 80.6451C139.39 79.7451 141.445 81.4641 140.614 83.7231Z" fill="black"/>
<path d="M137.833 82.5921C135.442 83.2671 130.81 86.1831 128.677 92.5821L128.329 92.3811C130.492 85.9041 135.097 82.9581 137.728 82.2171C137.836 82.1871 137.938 82.2471 137.968 82.3521C137.998 82.4571 137.938 82.5651 137.833 82.5921Z" fill="white"/>
<path d="M22.1748 107.793C22.1748 108.834 22.9542 110.127 23.9151 110.682L61.8012 132.56C62.7621 133.115 64.3203 133.115 65.2815 132.56L131.994 94.0433C132.955 93.4886 133.734 92.1947 133.735 91.1537C133.735 90.1127 132.956 88.8188 131.995 88.2641L94.1085 66.3863C93.1476 65.8313 91.5894 65.8313 90.6282 66.3863L23.9148 104.903C22.9539 105.458 22.1748 106.752 22.1748 107.793Z" fill="#455A64"/>
<path d="M133.736 91.1537C133.736 92.1956 132.956 93.4871 131.995 94.0424L65.2806 132.561C64.8003 132.836 64.17 132.976 63.543 132.976V129.208C64.17 129.208 64.8003 129.067 65.2806 128.789L131.995 90.2738C132.837 89.7887 132.942 89.0381 132.31 88.4858C133.119 89.1143 133.736 90.23 133.736 91.1537Z" fill="#37474F"/>
<path d="M63.5419 129.209V132.975C62.911 132.975 62.2801 132.838 61.8019 132.561L23.9143 110.682C22.9537 110.127 22.1743 108.833 22.1743 107.793C22.1743 106.816 22.8616 105.619 23.7376 105.016C22.9579 105.574 23.0182 106.394 23.9143 106.913L61.8019 128.791C62.2798 129.069 62.911 129.209 63.5419 129.209Z" fill="#263238"/>
<path d="M20.5425 104.965C19.692 104.365 19.6902 103.566 19.6902 102.456L19.6899 46.3935C19.6899 45.2838 20.469 43.9344 21.4299 43.3794L88.1427 4.86267C89.1036 4.30767 89.9901 4.70997 90.8919 5.23047C91.7934 5.75097 92.3682 6.20007 92.3682 7.30977V63.3726C92.3682 64.4823 91.5891 65.8317 90.6279 66.3867L23.9148 104.903C22.4601 105.884 21.4683 105.619 20.5425 104.965Z" fill="#37474F"/>
<path d="M23.915 104.904C22.4606 105.883 21.467 105.618 20.5427 104.964C19.6931 104.365 19.6904 103.565 19.6904 102.456V46.394C19.6904 45.8381 19.8863 45.2249 20.1971 44.6804L22.6823 46.1261C22.3682 46.6676 22.1753 47.2808 22.1753 47.8337V103.898C22.1756 105.007 22.9532 105.457 23.915 104.904Z" fill="#263238"/>
<path d="M92.3686 7.30795C92.3686 6.20035 91.5886 5.75125 90.6277 6.30355L23.9137 44.822C23.4334 45.0995 22.9966 45.5768 22.6846 46.1228L20.2012 44.6783H20.1982C20.5132 44.1323 20.95 43.655 21.4306 43.3775L88.1416 4.86205C89.1025 4.30675 89.9887 4.70845 90.8905 5.22955C91.7917 5.75065 92.3686 6.20035 92.3686 7.30795Z" fill="#455A64"/>
<path d="M24.8506 46.8288L89.1706 9.70317C89.7472 9.37017 90.2146 9.64017 90.2146 10.3062V61.728C90.2146 62.394 89.7472 63.2034 89.1706 63.5364L24.8506 100.661C24.274 100.994 23.8066 100.724 23.8066 100.058V48.6372C23.8066 47.9712 24.274 47.1618 24.8506 46.8288Z" fill="#263238"/>
<path d="M24.8506 46.8287C24.274 47.1617 23.8066 47.9711 23.8066 48.6371V99.7481L87.7483 62.8418C88.3249 62.5088 88.7923 61.6994 88.7923 61.0334V9.92151L24.8506 46.8287Z" fill="#4598E6"/>
<path opacity="0.65" d="M24.8506 46.8287C24.274 47.1617 23.8066 47.9711 23.8066 48.6371V99.7481L87.7483 62.8418C88.3249 62.5088 88.7923 61.6994 88.7923 61.0334V9.92151L24.8506 46.8287Z" fill="white"/>
<path d="M28.7306 105.006L90.6548 69.254C91.1354 68.9765 91.9145 68.9765 92.3951 69.254L94.1966 70.2005C94.6772 70.478 94.6772 70.9277 94.1966 71.2049L32.2631 106.951C31.7825 107.229 31.0034 107.228 30.5228 106.951L28.7306 106.01C28.25 105.733 28.25 105.283 28.7306 105.006Z" fill="#37474F"/>
<path d="M33.5876 107.894L95.5112 72.1419C95.9918 71.8644 96.7034 71.8257 97.1012 72.0552L113.219 81.3612C113.617 81.5907 113.55 82.0017 113.069 82.2792L51.2171 117.982C50.7365 118.26 50.024 118.3 49.6253 118.072L33.4391 108.809C33.0404 108.581 33.107 108.171 33.5876 107.894Z" fill="#263238"/>
<path d="M86.7336 87.0117L88.6725 85.8924C88.755 85.8447 88.767 85.7745 88.6995 85.7355L86.9892 84.7482C86.9217 84.7092 86.8002 84.7164 86.7177 84.7638L84.7788 85.8831C84.6966 85.9305 84.6846 86.0007 84.7521 86.0397L86.4624 87.0273C86.5299 87.0663 86.6514 87.0591 86.7336 87.0117ZM84.0282 83.211L82.0893 84.3303C82.0071 84.378 81.9948 84.4482 82.0623 84.4869L83.7726 85.4742C83.8401 85.5132 83.9616 85.506 84.0438 85.4586L85.9827 84.339C86.0652 84.2916 86.0775 84.2211 86.0097 84.1824L84.2994 83.1948C84.2322 83.1564 84.1107 83.1636 84.0282 83.211ZM77.7642 86.8275L74.4831 88.7217C74.4009 88.7691 74.3886 88.8393 74.4561 88.8783L76.1664 89.8659C76.2339 89.9049 76.3554 89.8977 76.4376 89.8503L79.7187 87.9561C79.8012 87.9087 79.8132 87.8382 79.7457 87.7995L78.0357 86.8119C77.9682 86.7729 77.8467 86.7798 77.7642 86.8275ZM81.1947 84.8469L79.2558 85.9665C79.1736 86.0139 79.1613 86.0841 79.2291 86.1231L80.9394 87.1107C81.0066 87.1497 81.1284 87.1428 81.2106 87.0951L83.1495 85.9758C83.232 85.9281 83.244 85.8579 83.1765 85.8192L81.4662 84.8319C81.3984 84.7923 81.2769 84.7995 81.1947 84.8469ZM73.5885 89.2383L71.6499 90.3576C71.5674 90.4053 71.5554 90.4755 71.6229 90.5142L73.3332 91.5018C73.4007 91.5408 73.5219 91.5339 73.6044 91.4862L75.5433 90.3666C75.6255 90.3192 75.6375 90.249 75.57 90.21L73.86 89.2224C73.7922 89.184 73.6707 89.1909 73.5885 89.2383ZM70.7547 90.8745L68.8158 91.9938C68.7333 92.0412 68.7213 92.1114 68.7888 92.1504L70.4991 93.1377C70.5666 93.1767 70.6878 93.1698 70.7703 93.1221L72.7092 92.0028C72.7917 91.9551 72.8037 91.8852 72.7362 91.8462L71.0259 90.8589C70.9584 90.8199 70.8372 90.8268 70.7547 90.8745ZM77.9394 95.1948L79.8783 94.0752C79.9605 94.0278 79.9728 93.9576 79.905 93.9186L78.1947 92.9313C78.1272 92.8923 78.0057 92.8992 77.9235 92.9469L75.9846 94.0662C75.9021 94.1139 75.8901 94.1841 75.9576 94.2231L77.6679 95.2104C77.7354 95.2494 77.8572 95.2425 77.9394 95.1948ZM75.1059 96.8307L77.0448 95.7114C77.1273 95.6637 77.1393 95.5938 77.0718 95.5548L75.3618 94.5675C75.2943 94.5285 75.1728 94.5354 75.0903 94.5831L73.1514 95.7024C73.0689 95.7501 73.0569 95.82 73.1244 95.859L74.8347 96.8466C74.9019 96.8853 75.0234 96.8784 75.1059 96.8307ZM72.2721 98.4669L74.211 97.3473C74.2935 97.2999 74.3055 97.2297 74.238 97.1907L72.5277 96.2031C72.4602 96.1641 72.3387 96.1713 72.2565 96.2187L70.3176 97.338C70.2351 97.3857 70.2231 97.4556 70.2906 97.4946L72.0009 98.4822C72.0684 98.5215 72.1896 98.5143 72.2721 98.4669ZM69.4383 100.103L71.3772 98.9835C71.4597 98.9361 71.4717 98.8659 71.4042 98.8269L69.6939 97.8396C69.6264 97.8006 69.5049 97.8075 69.4227 97.8552L67.4838 98.9745C67.4013 99.0219 67.3893 99.0921 67.4568 99.1311L69.1671 100.118C69.2346 100.157 69.3561 100.151 69.4383 100.103ZM83.9001 88.6479L85.8387 87.5283C85.9209 87.4809 85.9332 87.4107 85.8657 87.3717L84.1554 86.3841C84.0882 86.3451 83.9664 86.3523 83.8842 86.3997L81.9453 87.519C81.8628 87.5667 81.8508 87.6369 81.918 87.6756L83.6283 88.6632C83.6961 88.7022 83.8176 88.6953 83.9001 88.6479ZM80.7732 93.5589L85.0983 91.0617C85.1808 91.014 85.1928 90.9441 85.1253 90.9051L80.7255 88.3647C80.658 88.3257 80.5365 88.3329 80.4543 88.3803L78.2172 89.6718C78.1347 89.7195 78.1227 89.7894 78.1899 89.8284L80.6355 91.2402C80.703 91.2792 80.6907 91.3494 80.6085 91.3968L78.819 92.4303C78.7365 92.4777 78.7245 92.5479 78.792 92.5869L80.5023 93.5745C80.5692 93.6135 80.691 93.6063 80.7732 93.5589ZM67.9212 92.5104L65.9823 93.63C65.9001 93.6774 65.8878 93.7476 65.9556 93.7866L67.6659 94.7742C67.7334 94.8132 67.8549 94.806 67.9371 94.7586L69.876 93.6393C69.9582 93.5916 69.9705 93.5214 69.903 93.4827L68.193 92.4951C68.1249 92.4561 68.0034 92.463 67.9212 92.5104ZM65.0874 94.1466L63.1485 95.2659C63.066 95.3136 63.054 95.3838 63.1215 95.4228L64.8318 96.4104C64.8993 96.4494 65.0208 96.4422 65.103 96.3948L67.0419 95.2755C67.1244 95.2281 67.1364 95.1576 67.0689 95.1189L65.3586 94.1316C65.2911 94.092 65.1696 94.0992 65.0874 94.1466ZM49.3314 111.571C49.3989 111.61 49.5204 111.603 49.6026 111.555L51.5415 110.436C51.6237 110.388 51.636 110.318 51.5685 110.279L49.8582 109.292C49.7907 109.253 49.6692 109.26 49.5867 109.307L47.6481 110.427C47.5656 110.474 47.5536 110.544 47.6211 110.583L49.3314 111.571ZM42.4179 107.235L40.479 108.354C40.3965 108.402 40.3845 108.472 40.452 108.511L42.1623 109.498C42.2298 109.537 42.3513 109.53 42.4335 109.482L44.3724 108.363C44.4549 108.315 44.4669 108.245 44.3994 108.206L42.6891 107.219C42.6216 107.18 42.5001 107.187 42.4179 107.235ZM45.8958 110.448C45.9633 110.487 46.0848 110.48 46.167 110.433L48.1059 109.313C48.1881 109.266 48.2004 109.196 48.1329 109.157L46.4226 108.169C46.3551 108.13 46.2336 108.137 46.1511 108.185L44.2122 109.304C44.1297 109.352 44.1177 109.421 44.1852 109.46L45.8958 110.448ZM53.7837 112.247L55.7226 111.128C55.8051 111.08 55.8171 111.01 55.7496 110.971L54.0393 109.984C53.9718 109.945 53.8503 109.952 53.7678 109.999L51.8289 111.119C51.7467 111.166 51.7344 111.236 51.8019 111.275L53.5122 112.262C53.5797 112.301 53.7012 112.295 53.7837 112.247ZM50.6787 113.899C50.7459 113.938 50.8677 113.931 50.9499 113.883L52.8888 112.763C52.971 112.716 52.9833 112.646 52.9158 112.607L51.2055 111.619C51.138 111.58 51.0165 111.587 50.9343 111.635L48.9954 112.754C48.9132 112.802 48.9012 112.872 48.9687 112.911L50.6787 113.899ZM45.2514 105.599L43.3125 106.718C43.23 106.766 43.218 106.836 43.2855 106.875L44.9958 107.862C45.0633 107.901 45.1848 107.894 45.267 107.847L47.2059 106.727C47.2884 106.68 47.3004 106.61 47.2329 106.571L45.5226 105.583C45.4554 105.544 45.3339 105.551 45.2514 105.599ZM59.4198 97.4187L57.4809 98.538C57.3987 98.5857 57.3864 98.6556 57.4539 98.6946L59.1642 99.6822C59.2317 99.7212 59.3532 99.7143 59.4354 99.6666L61.3743 98.547C61.4568 98.4996 61.4688 98.4294 61.4013 98.3904L59.691 97.4028C59.6238 97.3641 59.5023 97.371 59.4198 97.4187ZM48.0852 103.963L46.1463 105.082C46.0638 105.13 46.0518 105.2 46.1193 105.239L47.8296 106.226C47.8971 106.265 48.0186 106.259 48.1008 106.211L50.0397 105.092C50.1222 105.044 50.1342 104.974 50.0667 104.935L48.3567 103.947C48.2889 103.908 48.1677 103.915 48.0852 103.963ZM62.2536 95.7825L60.3147 96.9021C60.2322 96.9495 60.2202 97.0197 60.288 97.0587L61.9983 98.0463C62.0658 98.0853 62.187 98.0784 62.2695 98.0307L64.2084 96.9114C64.2909 96.8637 64.3029 96.7938 64.2354 96.7548L62.5251 95.7672C62.4573 95.7279 62.3358 95.7351 62.2536 95.7825ZM56.5863 99.0546L54.6474 100.174C54.5649 100.221 54.5529 100.292 54.6204 100.331L56.3307 101.318C56.3979 101.357 56.5197 101.35 56.6019 101.302L58.5405 100.183C58.623 100.136 58.635 100.065 58.5675 100.026L56.8572 99.039C56.79 99.0003 56.6685 99.0069 56.5863 99.0546ZM53.7525 100.691L51.8136 101.81C51.7311 101.858 51.7191 101.928 51.7866 101.967L53.4969 102.954C53.5644 102.993 53.6859 102.986 53.7681 102.939L55.707 101.819C55.7892 101.772 55.8015 101.702 55.734 101.663L54.0237 100.675C53.9565 100.636 53.8347 100.643 53.7525 100.691ZM50.919 102.327L48.9801 103.446C48.8976 103.494 48.8856 103.564 48.9531 103.603L50.6634 104.59C50.7309 104.629 50.8524 104.622 50.9346 104.575L52.8735 103.455C52.9557 103.408 52.9677 103.337 52.9002 103.298L51.1899 102.311C51.1227 102.272 51.0012 102.279 50.919 102.327ZM63.771 103.375L65.7099 102.256C65.7924 102.208 65.8044 102.138 65.7369 102.099L64.0266 101.112C63.9591 101.073 63.8376 101.08 63.7554 101.127L61.8165 102.247C61.734 102.294 61.7223 102.365 61.7898 102.404L63.4998 103.391C63.5673 103.43 63.6885 103.423 63.771 103.375ZM90.2922 79.5945L88.3533 80.7138C88.2708 80.7612 88.2591 80.8314 88.3263 80.8704L90.0366 81.8577C90.1041 81.8967 90.2256 81.8895 90.3078 81.8421L92.2467 80.7228C92.3292 80.6751 92.3412 80.6052 92.2737 80.5662L90.5634 79.5786C90.4962 79.5399 90.3747 79.5468 90.2922 79.5945ZM86.862 81.5751L84.9231 82.6944C84.8406 82.7418 84.8286 82.812 84.8961 82.851L86.6064 83.8386C86.6739 83.8776 86.7954 83.8704 86.8776 83.823L88.8165 82.7037C88.899 82.656 88.911 82.5858 88.8435 82.5471L87.1332 81.5595C87.0657 81.5205 86.9442 81.5274 86.862 81.5751ZM93.1257 77.9586L91.1871 79.0779C91.1049 79.1253 91.0926 79.1955 91.1601 79.2345L92.8704 80.2218C92.9379 80.2608 93.0594 80.2539 93.1416 80.2062L95.0805 79.0869C95.163 79.0392 95.175 78.969 95.1075 78.9303L93.3972 77.9427C93.3297 77.904 93.2085 77.9109 93.1257 77.9586ZM77.3379 92.4363L79.2768 91.317C79.3593 91.2693 79.3713 91.1994 79.3038 91.1601L77.5938 90.1725C77.5263 90.1335 77.4048 90.1407 77.3226 90.1881L75.3837 91.3074C75.3012 91.3548 75.2895 91.425 75.3567 91.464L77.067 92.4513C77.1339 92.4909 77.2554 92.484 77.3379 92.4363ZM96.231 76.3068C96.1635 76.2678 96.042 76.2747 95.9595 76.3221L94.0209 77.4414C93.9384 77.4891 93.9264 77.559 93.9939 77.598L95.7042 78.5856C95.7714 78.6246 95.8932 78.6177 95.9754 78.57L97.9143 77.4504C97.9968 77.403 98.0088 77.3328 97.9413 77.2938L96.231 76.3068ZM66.6048 101.739L68.5437 100.62C68.6262 100.572 68.6382 100.502 68.5707 100.463L66.8604 99.4755C66.7929 99.4365 66.6714 99.4434 66.5892 99.4911L64.6503 100.611C64.5678 100.658 64.5558 100.728 64.6236 100.767L66.3339 101.755C66.4008 101.794 66.5223 101.787 66.6048 101.739ZM101.355 81.6759L103.293 80.5566C103.376 80.5092 103.388 80.4387 103.32 80.4L101.61 79.4127C101.542 79.3737 101.421 79.3806 101.339 79.4283L99.3999 80.5476C99.3177 80.595 99.3054 80.6655 99.3729 80.7042L101.083 81.6915C101.151 81.7305 101.272 81.7236 101.355 81.6759ZM95.8314 81.7593L97.7703 80.6397C97.8525 80.5923 97.8648 80.5221 97.797 80.4831L96.0867 79.4958C96.0195 79.4568 95.8977 79.4637 95.8155 79.5114L93.8766 80.6307C93.7941 80.6784 93.7821 80.7486 93.8496 80.7873L95.5599 81.7746C95.6274 81.8139 95.7489 81.8067 95.8314 81.7593ZM98.9205 77.8599C98.8533 77.8209 98.7315 77.8278 98.6493 77.8755L96.7104 78.9951C96.6282 79.0425 96.6162 79.1127 96.6837 79.1517L98.394 80.139C98.4615 80.178 98.583 80.1711 98.6652 80.1237L100.604 79.0044C100.687 78.9567 100.699 78.8868 100.631 78.8478L98.9205 77.8599ZM99.5172 77.5152L103.917 80.0556C103.984 80.0946 104.106 80.0874 104.188 80.04L106.127 78.9207C106.21 78.873 106.222 78.8028 106.154 78.7641L101.754 76.2237C101.686 76.1847 101.565 76.1919 101.482 76.2393L99.5436 77.3586C99.4617 77.4063 99.4497 77.4765 99.5172 77.5152ZM92.982 81.1476L91.0431 82.2669C90.9606 82.3143 90.9486 82.3845 91.0161 82.4235L92.7264 83.4108C92.7939 83.4498 92.9154 83.4429 92.9976 83.3952L94.9365 82.2759C95.0187 82.2282 95.031 82.158 94.9635 82.1193L93.2532 81.1317C93.1857 81.093 93.0642 81.0999 92.982 81.1476ZM71.6547 93.4605L69.7158 94.5801C69.6333 94.6278 69.6213 94.6977 69.6888 94.7367L71.3991 95.724C71.4666 95.763 71.5881 95.7561 71.6703 95.7084L73.6092 94.5891C73.6917 94.5414 73.7037 94.4715 73.6362 94.4325L71.9259 93.4449C71.8584 93.4059 71.7372 93.4131 71.6547 93.4605ZM98.2497 83.3277C98.3169 83.3667 98.4387 83.3595 98.5209 83.3121L100.46 82.1928C100.542 82.1451 100.554 82.0752 100.487 82.0362L98.7765 81.0486C98.7093 81.0096 98.5875 81.0168 98.5053 81.0642L96.5664 82.1838C96.4839 82.2312 96.4719 82.3014 96.5394 82.3404L98.2497 83.3277ZM74.4882 91.8246L72.5496 92.9439C72.4671 92.9916 72.4551 93.0615 72.5226 93.1005L74.2329 94.0881C74.3004 94.1271 74.4219 94.1202 74.5041 94.0725L76.443 92.9529C76.5255 92.9055 76.5375 92.8353 76.47 92.7963L74.7597 91.8087C74.6922 91.77 74.5707 91.7772 74.4882 91.8246ZM52.1649 109.935C52.2324 109.974 52.3539 109.967 52.4364 109.919L54.3753 108.8C54.4575 108.752 54.4695 108.682 54.402 108.643L52.6917 107.656C52.6242 107.617 52.5027 107.624 52.4205 107.671L50.4816 108.791C50.3991 108.838 50.3871 108.908 50.4546 108.947L52.1649 109.935ZM48.9852 106.549L47.0463 107.669C46.9641 107.716 46.9518 107.786 47.0193 107.825L48.7296 108.812C48.7971 108.851 48.9186 108.844 49.0008 108.797L50.9397 107.678C51.0222 107.63 51.0342 107.56 50.9667 107.521L49.2567 106.534C49.1889 106.494 49.0674 106.502 48.9852 106.549ZM55.2699 108.283L57.2088 107.164C57.2913 107.117 57.3033 107.046 57.2358 107.007L55.5255 106.02C55.458 105.981 55.3365 105.988 55.254 106.036L53.3151 107.155C53.2329 107.202 53.2206 107.273 53.2881 107.312L54.9984 108.299C55.0662 108.338 55.1874 108.331 55.2699 108.283ZM58.1034 106.647L60.0423 105.528C60.1248 105.48 60.1368 105.41 60.0693 105.371L58.359 104.384C58.2918 104.345 58.17 104.352 58.0878 104.399L56.1489 105.519C56.0667 105.566 56.0544 105.637 56.1219 105.675L57.8322 106.663C57.8997 106.702 58.0212 106.694 58.1034 106.647ZM60.9372 105.011L62.8761 103.892C62.9586 103.844 62.9706 103.774 62.9031 103.735L61.1928 102.748C61.1253 102.709 61.0038 102.716 60.9213 102.764L58.9827 103.883C58.9002 103.93 58.8882 104.001 58.9557 104.039L60.6657 105.027C60.7335 105.066 60.855 105.059 60.9372 105.011ZM51.8187 104.913L49.8801 106.032C49.7976 106.08 49.7856 106.15 49.8531 106.189L51.5634 107.176C51.6309 107.215 51.7524 107.208 51.8346 107.161L53.7735 106.041C53.856 105.994 53.868 105.923 53.8005 105.885L52.0902 104.897C52.0227 104.858 51.9012 104.865 51.8187 104.913ZM54.6525 103.277L52.7136 104.396C52.6311 104.444 52.6191 104.514 52.6866 104.553L54.3969 105.54C54.4644 105.579 54.5859 105.572 54.6681 105.525L56.607 104.405C56.6892 104.358 56.7015 104.288 56.634 104.249L54.9237 103.261C54.8565 103.222 54.7347 103.229 54.6525 103.277ZM65.9874 96.7329L64.0485 97.8522C63.966 97.8999 63.954 97.9701 64.0218 98.0091L65.7318 98.9964C65.7993 99.0354 65.9208 99.0285 66.0033 98.9808L67.9419 97.8615C68.0244 97.8141 68.0364 97.7436 67.9689 97.7046L66.2586 96.7173C66.1911 96.6783 66.0696 96.6852 65.9874 96.7329ZM63.1536 98.3688L61.2147 99.4881C61.1325 99.5355 61.1202 99.606 61.1877 99.6447L62.898 100.632C62.9655 100.671 63.087 100.664 63.1692 100.617L65.1081 99.4974C65.1906 99.4497 65.2026 99.3795 65.1351 99.3405L63.4248 98.3532C63.3573 98.3142 63.2361 98.3211 63.1536 98.3688ZM68.8209 95.0967L66.882 96.216C66.7995 96.2637 66.7875 96.3336 66.855 96.3726L68.565 97.3602C68.6325 97.3992 68.754 97.392 68.8365 97.3446L70.7754 96.225C70.8579 96.1776 70.8696 96.1074 70.8021 96.0684L69.0918 95.0808C69.0249 95.0421 68.9034 95.0493 68.8209 95.0967ZM57.4863 101.641L55.5474 102.76C55.4649 102.808 55.4529 102.878 55.5204 102.917L57.2307 103.904C57.2982 103.943 57.4197 103.936 57.5019 103.889L59.4405 102.769C59.523 102.722 59.535 102.651 59.4675 102.613L57.7572 101.625C57.69 101.586 57.5685 101.593 57.4863 101.641ZM60.3198 100.005L58.3809 101.124C58.2987 101.172 58.2864 101.242 58.3539 101.281L60.0642 102.268C60.1314 102.307 60.2532 102.3 60.3354 102.253L62.2743 101.133C62.3568 101.086 62.3688 101.015 62.3013 100.976L60.591 99.9888C60.5238 99.9504 60.402 99.9573 60.3198 100.005ZM56.6172 110.611L58.5561 109.492C58.6386 109.444 58.6506 109.374 58.5831 109.335L56.8728 108.348C56.8053 108.309 56.6841 108.316 56.6016 108.363L54.6627 109.483C54.5802 109.53 54.5682 109.6 54.6357 109.639L56.346 110.627C56.4135 110.666 56.535 110.659 56.6172 110.611ZM41.5659 109.843L39.8556 108.855C39.7881 108.816 39.6666 108.824 39.5844 108.871L37.6455 109.991C37.5633 110.038 37.551 110.108 37.6185 110.147L39.3285 111.135C39.396 111.174 39.5175 111.167 39.6 111.119L41.5389 110C41.6211 109.952 41.6331 109.882 41.5659 109.843ZM45.2991 110.793L43.5888 109.805C43.5213 109.766 43.4001 109.773 43.3176 109.821L40.3347 111.543C40.2522 111.59 40.2402 111.661 40.3077 111.7L42.018 112.687C42.0855 112.726 42.2067 112.719 42.2892 112.671L45.2721 110.949C45.3546 110.902 45.3666 110.832 45.2991 110.793ZM39.0477 107.872L37.3374 106.885C37.2699 106.846 37.1484 106.853 37.0662 106.901L34.68 108.278C34.5978 108.326 34.5855 108.396 34.653 108.435L36.363 109.422C36.4305 109.461 36.5523 109.454 36.6342 109.406L39.0207 108.029C39.1032 107.982 39.1152 107.911 39.0477 107.872ZM40.8774 106.816C40.9446 106.855 41.0664 106.848 41.1486 106.801L43.0875 105.681C43.17 105.634 43.182 105.563 43.1145 105.524L41.4042 104.537C41.337 104.498 41.2152 104.505 41.1327 104.552L39.1941 105.672C39.1116 105.719 39.0996 105.79 39.1671 105.828L40.8774 106.816ZM48.7347 111.915L47.0244 110.928C46.9569 110.889 46.8354 110.896 46.7532 110.944L43.0245 113.096C42.942 113.144 42.93 113.214 42.9975 113.253L44.7075 114.24C44.775 114.279 44.8965 114.272 44.9787 114.225L48.7074 112.072C48.7902 112.024 48.8022 111.954 48.7347 111.915ZM50.0823 114.243L48.372 113.256C48.3048 113.217 48.183 113.224 48.1008 113.271L45.7146 114.649C45.6321 114.697 45.6201 114.767 45.6876 114.806L47.3979 115.793C47.4654 115.832 47.5869 115.825 47.6691 115.778L50.0553 114.4C50.1375 114.352 50.1495 114.282 50.0823 114.243ZM61.9461 94.6521C62.0133 94.6911 62.1348 94.6842 62.2173 94.6368L64.1562 93.5172C64.2387 93.4698 64.2507 93.3996 64.1832 93.3606L62.4732 92.3733C62.4057 92.3343 62.2842 92.3412 62.2017 92.3889L60.2631 93.5082C60.1806 93.5559 60.1686 93.6258 60.2361 93.6648L61.9461 94.6521ZM56.2785 97.9242C56.346 97.9632 56.4675 97.956 56.5497 97.9086L58.4886 96.789C58.5708 96.7416 58.5828 96.6714 58.5153 96.6324L56.8053 95.6451C56.7378 95.6061 56.6163 95.613 56.5341 95.6607L54.5952 96.78C54.5127 96.8277 54.5007 96.8976 54.5682 96.9369L56.2785 97.9242ZM43.7109 105.18C43.7784 105.219 43.8999 105.212 43.9821 105.164L45.921 104.045C46.0032 103.998 46.0155 103.927 45.948 103.889L44.2377 102.901C44.1702 102.862 44.0487 102.869 43.9665 102.917L42.0276 104.036C41.9454 104.083 41.9331 104.153 42.0006 104.192L43.7109 105.18ZM59.1123 96.288C59.1798 96.327 59.3013 96.3201 59.3835 96.2724L61.3224 95.1531C61.4046 95.1057 61.4169 95.0355 61.3494 94.9965L59.6391 94.0092C59.5716 93.9705 59.4504 93.9771 59.3679 94.0248L57.429 95.1441C57.3465 95.1915 57.3345 95.2617 57.402 95.3007L59.1123 96.288ZM53.445 99.5604C53.5125 99.5991 53.634 99.5922 53.7165 99.5445L55.6551 98.4252C55.7376 98.3778 55.7496 98.3076 55.6821 98.2686L53.9721 97.2813C53.9046 97.2423 53.7831 97.2492 53.7006 97.2969L51.7617 98.4162C51.6792 98.4639 51.6675 98.5341 51.7347 98.5728L53.445 99.5604ZM51.6582 114.464C51.5904 114.425 51.4692 114.432 51.3867 114.48L48.4038 116.202C48.3213 116.249 48.3093 116.319 48.3768 116.358L50.0871 117.346C50.1546 117.385 50.2761 117.378 50.3583 117.33L53.3412 115.608C53.4237 115.561 53.4354 115.49 53.3679 115.451L51.6582 114.464ZM49.3782 101.908C49.4457 101.947 49.5672 101.94 49.6494 101.893L51.5883 100.773C51.6708 100.726 51.6825 100.655 51.6153 100.616L49.905 99.6288C49.8375 99.5898 49.716 99.597 49.6335 99.6444L47.6946 100.764C47.6121 100.811 47.6001 100.881 47.6676 100.92L49.3782 101.908ZM46.5447 103.544C46.6122 103.583 46.7337 103.576 46.8159 103.529L48.7548 102.409C48.837 102.362 48.8493 102.291 48.7818 102.252L47.0715 101.265C47.004 101.226 46.8825 101.233 46.8003 101.281L44.8614 102.4C44.7792 102.448 44.7672 102.518 44.8347 102.557L46.5447 103.544ZM104.156 84.1545C104.088 84.1155 103.967 84.1224 103.885 84.1701L99.1122 86.9256C99.0297 86.973 99.0177 87.0432 99.0849 87.0825L100.795 88.0698C100.863 88.1088 100.984 88.1019 101.067 88.0542L105.839 85.2987C105.921 85.2513 105.934 85.1811 105.866 85.1421L104.156 84.1545ZM97.8918 87.771C97.8243 87.732 97.7031 87.7389 97.6206 87.7866L95.6817 88.9059C95.5992 88.9536 95.5872 89.0235 95.6547 89.0625L97.3647 90.0498C97.4322 90.0885 97.5537 90.0816 97.6362 90.0342L99.5751 88.9149C99.6576 88.8675 99.6696 88.7973 99.6021 88.7583L97.8918 87.771ZM59.451 108.975L61.3899 107.856C61.4721 107.808 61.4841 107.738 61.4166 107.699L59.7066 106.712C59.6391 106.673 59.5176 106.679 59.4354 106.727L57.4965 107.846C57.414 107.894 57.402 107.964 57.4695 108.003L59.1798 108.991C59.2473 109.03 59.3688 109.022 59.451 108.975ZM92.2245 91.0431C92.157 91.0041 92.0355 91.0113 91.9533 91.0587L90.0144 92.178C89.9319 92.2257 89.9199 92.2956 89.9874 92.3346L91.6977 93.3219C91.7652 93.3609 91.8867 93.354 91.9689 93.3063L93.9078 92.1867C93.9903 92.1393 94.0023 92.0691 93.9348 92.0301L92.2245 91.0431ZM106.99 82.5183C106.922 82.4793 106.801 82.4862 106.718 82.5339L104.779 83.6535C104.697 83.7009 104.685 83.7714 104.752 83.8101L106.462 84.7974C106.53 84.8364 106.651 84.8295 106.734 84.7818L108.673 83.6625C108.755 83.6148 108.767 83.5449 108.7 83.5059L106.99 82.5183ZM111.534 81.87L107.134 79.3296C107.066 79.2906 106.945 79.2975 106.862 79.3452L104.923 80.4648C104.841 80.5122 104.829 80.5824 104.896 80.6214L109.296 83.1618C109.364 83.2008 109.485 83.1936 109.567 83.1462L111.506 82.0266C111.589 81.9789 111.601 81.9087 111.534 81.87ZM81.6357 97.1565C81.5682 97.1175 81.4467 97.1244 81.3645 97.1721L78.9783 98.5497C78.8958 98.5971 78.8838 98.6673 78.9513 98.7063L80.6616 99.6936C80.7291 99.7326 80.8506 99.7257 80.9328 99.678L83.319 98.3004C83.4015 98.253 83.4135 98.1825 83.346 98.1438L81.6357 97.1565ZM88.7943 93.0234C88.7268 92.9844 88.6053 92.9916 88.5231 93.039L85.5402 94.7613C85.458 94.8087 85.446 94.8789 85.5132 94.9179L87.2235 95.9052C87.291 95.9442 87.4125 95.937 87.4947 95.8896L90.4776 94.1673C90.5601 94.1199 90.5721 94.0497 90.5046 94.0107L88.7943 93.0234ZM75.0735 100.945C75.006 100.906 74.8845 100.913 74.8023 100.961L58.8441 110.174C58.7616 110.222 58.7496 110.292 58.8171 110.331L60.5274 111.319C60.5949 111.358 60.7164 111.351 60.7986 111.303L76.7568 102.09C76.8393 102.042 76.8513 101.972 76.7838 101.933L75.0735 100.945ZM58.2204 110.675C58.1529 110.636 58.0314 110.643 57.9492 110.691L55.5627 112.069C55.4802 112.116 55.4682 112.186 55.5357 112.225L57.246 113.213C57.3135 113.252 57.435 113.245 57.5172 113.197L59.9037 111.819C59.9859 111.772 59.9979 111.701 59.9304 111.663L58.2204 110.675ZM78.3543 99.051C78.2868 99.012 78.1656 99.0189 78.0831 99.0666L75.6969 100.444C75.6144 100.492 75.6024 100.562 75.6699 100.601L77.3802 101.588C77.4474 101.627 77.5692 101.62 77.6514 101.573L80.0376 100.195C80.1201 100.148 80.1321 100.077 80.0643 100.038L78.3543 99.051ZM54.9393 112.57C54.8718 112.531 54.7503 112.538 54.6681 112.585L52.2819 113.963C52.1994 114.011 52.1874 114.08 52.2549 114.119L53.9649 115.107C54.0324 115.146 54.1539 115.139 54.2361 115.091L56.6223 113.714C56.7048 113.666 56.7168 113.596 56.6493 113.557L54.9393 112.57ZM84.9165 95.2623C84.849 95.2233 84.7278 95.2302 84.6453 95.2779L82.2588 96.6555C82.1766 96.7029 82.1643 96.7731 82.2318 96.8121L83.9421 97.7997C84.0093 97.8387 84.1311 97.8318 84.2133 97.7841L86.5995 96.4065C86.682 96.3591 86.694 96.2889 86.6265 96.2499L84.9165 95.2623ZM95.0583 89.4069C94.9908 89.3679 94.8693 89.3751 94.7868 89.4225L92.8479 90.5418C92.7654 90.5892 92.7537 90.6594 92.8212 90.6984L94.5315 91.686C94.599 91.725 94.7205 91.7178 94.8027 91.6704L96.7416 90.5511C96.8241 90.5034 96.8361 90.4335 96.7686 90.3942L95.0583 89.4069ZM101.211 84.8649L103.15 83.7456C103.232 83.6979 103.244 83.628 103.177 83.589L101.466 82.6017C101.399 82.5627 101.277 82.5696 101.195 82.6173L99.2562 83.7366C99.174 83.784 99.1617 83.8542 99.2292 83.8932L100.939 84.8805C101.007 84.9195 101.128 84.9126 101.211 84.8649ZM89.5674 85.3758L91.5063 84.2565C91.5888 84.2091 91.6008 84.1389 91.5333 84.0999L89.823 83.1126C89.7555 83.0736 89.634 83.0805 89.5518 83.1282L87.6129 84.2475C87.5304 84.2952 87.5184 84.3651 87.5859 84.4041L89.2959 85.3914C89.3634 85.4301 89.4849 85.4232 89.5674 85.3758ZM82.1205 95.8866L87.7878 92.6145C87.8703 92.5668 87.8823 92.4969 87.8148 92.4579L86.1045 91.4703C86.037 91.4316 85.9158 91.4382 85.8333 91.4859L80.166 94.758C80.0835 94.8054 80.0715 94.8756 80.139 94.9146L81.8493 95.9019C81.9168 95.9412 82.038 95.9343 82.1205 95.8866ZM98.1057 86.5164C98.1729 86.5554 98.2947 86.5485 98.3769 86.5008L100.316 85.3815C100.398 85.3338 100.41 85.2639 100.343 85.2246L98.6325 84.237C98.565 84.198 98.4435 84.2052 98.3613 84.2526L96.4224 85.3722C96.3402 85.4196 96.3282 85.4898 96.3954 85.5288L98.1057 86.5164ZM95.6874 84.9483L97.6263 83.8287C97.7085 83.7813 97.7208 83.7111 97.6533 83.6721L95.943 82.6845C95.8755 82.6455 95.754 82.6524 95.6718 82.7001L93.7329 83.8194C93.6504 83.8671 93.6384 83.937 93.7059 83.976L95.4162 84.9636C95.4834 85.0026 95.6049 84.9957 95.6874 84.9483ZM79.2867 97.5228L81.2256 96.4032C81.3081 96.3555 81.3201 96.2856 81.2526 96.2466L79.5423 95.259C79.4748 95.22 79.3533 95.2269 79.2711 95.2746L77.3322 96.3942C77.2497 96.4416 77.2377 96.5118 77.3052 96.5508L79.0155 97.5384C79.083 97.5774 79.2045 97.5702 79.2867 97.5228ZM91.8417 90.1332C91.9092 90.1722 92.0307 90.165 92.1132 90.1176L94.0521 88.998C94.1346 88.9506 94.1466 88.8804 94.0791 88.8414L92.3688 87.8538C92.3013 87.8148 92.1798 87.8217 92.0976 87.8694L90.1587 88.9887C90.0762 89.0364 90.0642 89.1063 90.1317 89.1453L91.8417 90.1332ZM65.1186 105.703L67.0575 104.583C67.1397 104.536 67.1517 104.466 67.0845 104.427L65.3742 103.439C65.3067 103.4 65.1852 103.407 65.103 103.455L63.1641 104.574C63.0816 104.622 63.0699 104.692 63.1371 104.731L64.8474 105.719C64.9146 105.758 65.0361 105.75 65.1186 105.703ZM67.9521 104.067L69.891 102.947C69.9735 102.9 69.9855 102.83 69.918 102.791L68.2077 101.803C68.1402 101.765 68.019 101.771 67.9365 101.819L65.9976 102.938C65.9151 102.986 65.9031 103.056 65.9706 103.095L67.6809 104.082C67.7484 104.121 67.8696 104.114 67.9521 104.067ZM62.2848 107.339L64.2237 106.22C64.3062 106.172 64.3182 106.102 64.2507 106.063L62.5404 105.076C62.4729 105.037 62.3514 105.044 62.2692 105.091L60.3303 106.211C60.2478 106.258 60.2358 106.328 60.3033 106.367L62.0136 107.355C62.0811 107.393 62.2023 107.387 62.2848 107.339ZM73.6194 100.795L75.558 99.6756C75.6405 99.6279 75.6525 99.5577 75.585 99.519L73.8747 98.5317C73.8072 98.4927 73.6857 98.4999 73.6032 98.5473L71.6643 99.6669C71.5821 99.7143 71.5698 99.7845 71.6373 99.8235L73.3476 100.811C73.4157 100.849 73.5372 100.842 73.6194 100.795ZM70.7859 102.431L72.7248 101.312C72.8073 101.264 72.8193 101.194 72.7518 101.155L71.0415 100.168C70.974 100.129 70.8525 100.136 70.77 100.183L68.8311 101.303C68.7489 101.35 68.7366 101.42 68.8041 101.459L70.5144 102.447C70.5819 102.485 70.7034 102.479 70.7859 102.431ZM76.4532 99.1587L78.3921 98.0394C78.4743 97.992 78.4866 97.9218 78.4191 97.8828L76.7088 96.8955C76.6413 96.8565 76.5198 96.8634 76.4376 96.9111L74.4987 98.0304C74.4165 98.0778 74.4042 98.148 74.472 98.187L76.182 99.1746C76.2492 99.2133 76.3707 99.2064 76.4532 99.1587ZM92.1111 76.5117C92.1786 76.5507 92.3001 76.5438 92.3826 76.4961L94.3215 75.3765C94.404 75.3291 94.4157 75.2589 94.3482 75.2199L93.8931 74.9568C93.8256 74.9178 93.7041 74.925 93.6216 74.9724L91.6827 76.092C91.6008 76.1394 91.5885 76.2096 91.656 76.2486L92.1111 76.5117ZM77.9739 85.3983C78.0414 85.4373 78.1629 85.4304 78.2451 85.3827L80.184 84.2634C80.2662 84.2157 80.2785 84.1455 80.211 84.1068L78.5007 83.1195C78.4332 83.0802 78.3117 83.0874 78.2295 83.1348L76.2906 84.2544C76.2081 84.3018 76.1961 84.372 76.2636 84.411L77.9739 85.3983ZM83.6412 82.1265C83.7084 82.1655 83.8302 82.1583 83.9124 82.1109L85.8513 80.9916C85.9338 80.9439 85.9458 80.874 85.8786 80.8347L84.1683 79.8474C84.1008 79.8084 83.9793 79.8156 83.8971 79.863L81.9582 80.9823C81.876 81.0297 81.8637 81.1002 81.9312 81.1389L83.6412 82.1265ZM74.5137 87.3963C74.5812 87.4353 74.7024 87.4284 74.7849 87.3807L76.7238 86.2614C76.806 86.214 76.818 86.1438 76.7508 86.1048L75.0405 85.1172C74.973 85.0785 74.8515 85.0854 74.7693 85.1331L72.8304 86.2524C72.7479 86.2998 72.7359 86.37 72.8034 86.409L74.5137 87.3963ZM80.8074 83.7624C80.8746 83.8014 80.9964 83.7945 81.0789 83.7468L83.0178 82.6272C83.1 82.5798 83.1123 82.5096 83.0445 82.4706L81.3342 81.4833C81.267 81.4443 81.1455 81.4512 81.063 81.4989L79.1241 82.6182C79.0416 82.6659 79.0296 82.7358 79.0971 82.7748L80.8074 83.7624ZM68.8461 90.6684C68.9136 90.7071 69.0351 90.7002 69.1176 90.6525L71.0565 89.5332C71.139 89.4858 71.151 89.4156 71.0835 89.3763L69.3732 88.389C69.3057 88.35 69.1842 88.3569 69.102 88.4046L67.1631 89.5239C67.0806 89.5716 67.0689 89.6418 67.1361 89.6805L68.8461 90.6684ZM71.6799 89.0322C71.7474 89.0712 71.8689 89.064 71.9511 89.0166L73.89 87.8973C73.9722 87.8499 73.9842 87.7797 73.9167 87.7407L72.2067 86.7531C72.1392 86.7141 72.0177 86.7213 71.9355 86.7687L69.9966 87.888C69.9141 87.9357 69.9021 88.0056 69.9696 88.0446L71.6799 89.0322ZM86.4438 79.7838C86.5113 79.8228 86.6328 79.8156 86.7153 79.7682L88.6542 78.6486C88.7364 78.6012 88.7487 78.531 88.6812 78.4923L88.2258 78.2295C88.1583 78.1905 88.0368 78.1974 87.9546 78.2448L86.0157 79.3644C85.9332 79.4118 85.9212 79.482 85.9887 79.521L86.4438 79.7838ZM94.9449 74.8755C95.0124 74.9145 95.1339 74.9076 95.2164 74.8602L97.1553 73.7406C97.2378 73.6929 97.2498 73.623 97.1823 73.584L96.7272 73.3209C96.6597 73.2822 96.5382 73.2891 96.456 73.3365L94.5171 74.4558C94.4349 74.5032 94.4226 74.5737 94.4901 74.6127L94.9449 74.8755ZM98.5377 76.9497C98.6052 76.9887 98.7267 76.9818 98.8092 76.9341L100.748 75.8148C100.831 75.7671 100.843 75.6972 100.775 75.6582L99.0648 74.6706C98.9976 74.6316 98.8758 74.6385 98.7936 74.6862L96.8547 75.8058C96.7722 75.8532 96.7602 75.9234 96.8277 75.9624L98.5377 76.9497ZM104.044 83.229L105.983 82.1094C106.066 82.062 106.078 81.9918 106.01 81.9528L104.3 80.9652C104.233 80.9262 104.111 80.9334 104.028 80.9808L102.089 82.1001C102.007 82.1478 101.995 82.2177 102.062 82.2567L103.772 83.2443C103.84 83.2836 103.962 83.2764 104.044 83.229ZM89.2776 78.1476C89.3451 78.1866 89.4666 78.1797 89.5488 78.132L91.4877 77.0127C91.5702 76.9653 91.5822 76.8948 91.5147 76.8561L91.0593 76.5933C90.9918 76.5543 90.8703 76.5612 90.7881 76.6089L88.8492 77.7282C88.767 77.7759 88.7547 77.8458 88.8222 77.8848L89.2776 78.1476ZM66.0126 92.3043C66.0801 92.3433 66.2016 92.3364 66.2838 92.2887L68.2227 91.1694C68.3052 91.1217 68.3172 91.0518 68.2497 91.0128L66.5394 90.0255C66.4719 89.9865 66.3504 89.9934 66.2682 90.0411L64.3293 91.1607C64.2471 91.2081 64.2348 91.2783 64.3026 91.3173L66.0126 92.3043Z" fill="#455A64"/>
<path d="M74.6885 106.937L75.086 107.167L85.6451 113.262L104.423 102.42L104.814 102.197L93.8576 95.873L74.6885 106.937Z" fill="#263238"/>
<path d="M104.248 102.521L93.8574 96.5267L75.2607 107.268L85.6449 113.262L104.248 102.521Z" fill="#37474F"/>
<path d="M116.11 19.0269C116.11 18.2364 115.835 17.6796 115.388 17.4171C114.936 17.1513 112.319 15.642 111.864 15.3828C111.413 15.126 110.792 15.1653 110.107 15.561L61.1304 43.8378V60.0468L64.6398 62.0727L113.617 33.7962C114.994 33.0009 116.11 31.0668 116.11 29.4765V19.0269Z" fill="#4598E6"/>
<path opacity="0.15" d="M116.11 19.0269C116.11 18.2364 115.835 17.6796 115.388 17.4171C114.936 17.1513 112.319 15.642 111.864 15.3828C111.413 15.126 110.792 15.1653 110.107 15.561L61.1304 43.8378V60.0468L64.6398 62.0727L113.617 33.7962C114.994 33.0009 116.11 31.0668 116.11 29.4765V19.0269Z" fill="black"/>
<path d="M113.616 17.5871C114.994 16.7918 116.11 17.4365 116.11 19.0271V29.4767C116.11 31.0673 114.994 33.0011 113.616 33.7964L64.6396 62.0729V45.8639L113.616 17.5871Z" fill="#4598E6"/>
<path d="M113.114 32.4611C114.038 31.9271 114.795 30.617 114.795 29.5493V19.8962C114.795 19.1354 114.256 18.824 113.597 19.2044L65.6255 46.9205V59.8985L113.114 32.4611Z" fill="#FAFAFA"/>
<path d="M73.9871 51.8927C73.9871 51.9671 73.9694 52.0412 73.9343 52.115C73.8992 52.1897 73.8575 52.2407 73.8092 52.2686L72.9806 52.7471C72.9323 52.775 72.8906 52.772 72.8555 52.7381C72.8207 52.7048 72.803 52.6508 72.803 52.5764V50.0144C72.803 49.7243 72.7571 49.5179 72.665 49.3955C72.5726 49.2737 72.4283 49.2689 72.2309 49.3832C72.0335 49.4969 71.8898 49.6679 71.7998 49.8947C71.7101 50.1227 71.6651 50.3813 71.6651 50.6714V53.2334C71.6651 53.3078 71.6474 53.3819 71.6123 53.456C71.5775 53.5304 71.5358 53.5814 71.4875 53.6093L70.6586 54.0878C70.6103 54.116 70.5686 54.113 70.5338 54.0791C70.4984 54.0455 70.481 53.9918 70.481 53.9174V47.2739C70.481 47.1995 70.4984 47.1254 70.5338 47.0513C70.5686 46.9769 70.6103 46.9259 70.6586 46.8977L71.4875 46.4192C71.5358 46.3913 71.5775 46.3946 71.6123 46.4282C71.6474 46.4618 71.6651 46.5158 71.6651 46.5899V48.7466C71.7395 48.5621 71.8559 48.3581 72.0137 48.1355C72.1715 47.9126 72.3533 47.7422 72.5594 47.6228C72.7697 47.5016 72.9629 47.4353 73.1384 47.4254C73.3136 47.4155 73.4639 47.4689 73.589 47.5856C73.7138 47.7026 73.8113 47.8859 73.8815 48.1355C73.9517 48.3851 73.9871 48.7094 73.9871 49.1075V51.8927Z" fill="#455A64"/>
<path d="M76.2623 48.7967C76.2623 48.9521 76.2842 49.0592 76.328 49.118C76.3718 49.1768 76.4443 49.1774 76.5454 49.1192L77.0714 48.8153C77.1197 48.7877 77.1613 48.7907 77.1964 48.824C77.2312 48.8579 77.249 48.9119 77.249 48.9863V50.0087C77.249 50.0831 77.2312 50.1572 77.1964 50.2313C77.1613 50.3057 77.1197 50.3567 77.0714 50.3849L76.4468 50.7452C76.2404 50.8646 76.0529 50.9267 75.8843 50.9333C75.7157 50.9399 75.5719 50.891 75.4534 50.7872C75.3352 50.6834 75.2432 50.5274 75.1775 50.3189C75.1118 50.1107 75.0788 49.8512 75.0788 49.5404V47.8388L74.5922 48.1202C74.5439 48.1481 74.5022 48.1454 74.4671 48.1115C74.4323 48.0779 74.4146 48.0236 74.4146 47.9492V46.9268C74.4146 46.8524 74.4323 46.7783 74.4671 46.7042C74.5022 46.6301 74.5439 46.5788 74.5922 46.5506L75.0788 46.2698V44.6192C75.0788 44.5448 75.0965 44.4707 75.1313 44.3966C75.1664 44.3225 75.2081 44.2712 75.2564 44.243L76.0853 43.7648C76.1333 43.7366 76.175 43.7402 76.2104 43.7735C76.2452 43.8071 76.2629 43.8614 76.2629 43.9352V45.5858L77.0063 45.1568C77.0543 45.1289 77.096 45.1322 77.1314 45.1655C77.1662 45.1994 77.1839 45.2534 77.1839 45.3275V46.3502C77.1839 46.4246 77.1662 46.499 77.1314 46.5728C77.096 46.6475 77.0543 46.6982 77.0063 46.7261L76.2629 47.1554V48.7967H76.2623Z" fill="#455A64"/>
<path d="M79.3799 46.9968C79.3799 47.1522 79.4015 47.2593 79.4456 47.3184C79.4897 47.3772 79.562 47.3775 79.6631 47.3196L80.189 47.0157C80.237 46.9878 80.2787 46.9908 80.3141 47.0241C80.3489 47.058 80.3666 47.1123 80.3666 47.1864V48.2091C80.3666 48.2835 80.3489 48.3576 80.3141 48.4314C80.2787 48.5061 80.237 48.5571 80.189 48.585L79.5644 48.9456C79.358 49.0647 79.1705 49.1271 79.0019 49.1334C78.833 49.1397 78.6896 49.0911 78.5711 48.9876C78.4529 48.8838 78.3608 48.7278 78.2951 48.5193C78.2294 48.3108 78.1964 48.051 78.1964 47.7405V46.0392L77.7098 46.32C77.6615 46.3482 77.6198 46.3452 77.5847 46.3113C77.5499 46.278 77.5322 46.2237 77.5322 46.1493V45.1266C77.5322 45.0525 77.5499 44.9784 77.5847 44.904C77.6198 44.8302 77.6615 44.7786 77.7098 44.7507L78.1964 44.4699V42.8193C78.1964 42.7452 78.2141 42.6711 78.2489 42.5967C78.284 42.5229 78.3257 42.4713 78.374 42.4434L79.2029 41.9649C79.2509 41.937 79.2926 41.9403 79.328 41.9736C79.3628 42.0075 79.3805 42.0615 79.3805 42.1356V43.7862L80.1239 43.3569C80.1719 43.3293 80.2136 43.3323 80.249 43.3659C80.2838 43.3995 80.3015 43.4535 80.3015 43.5279V44.5503C80.3015 44.6247 80.2838 44.6991 80.249 44.7732C80.2136 44.8479 80.1719 44.8983 80.1239 44.9265L79.3805 45.3555V46.9968H79.3799Z" fill="#455A64"/>
<path d="M82.9903 47.069C82.8634 47.1425 82.7515 47.1869 82.6552 47.2019C82.5586 47.2172 82.4752 47.2145 82.4053 47.1944C82.3351 47.174 82.2757 47.1425 82.2274 47.0996C82.1794 47.0567 82.1398 47.0135 82.1092 46.9703V49.127C82.1092 49.2011 82.0912 49.2755 82.0564 49.3496C82.0213 49.424 81.9796 49.475 81.9316 49.5029L81.1024 49.9817C81.0544 50.0093 81.0127 50.0063 80.9776 49.9724C80.9425 49.9391 80.9248 49.8851 80.9248 49.8107V43.1678C80.9248 43.094 80.9425 43.0196 80.9776 42.9452C81.0127 42.8714 81.0544 42.8198 81.1024 42.7922L81.8983 42.3326C81.9463 42.3047 81.9883 42.308 82.0234 42.3416C82.0582 42.3749 82.0759 42.4292 82.0759 42.5033V42.7361C82.1152 42.6461 82.1584 42.5504 82.2043 42.4499C82.2502 42.3485 82.3072 42.2501 82.375 42.1535C82.4431 42.0569 82.5265 41.9615 82.6249 41.8676C82.7236 41.7731 82.8454 41.6849 82.99 41.6009C83.1874 41.4872 83.3737 41.4251 83.5492 41.4146C83.7247 41.4047 83.8783 41.4581 84.0094 41.5745C84.1411 41.6906 84.2473 41.8709 84.3283 42.1142C84.4096 42.3575 84.4543 42.6761 84.463 43.0691C84.4675 43.1678 84.4696 43.3034 84.4696 43.4753C84.4696 43.6475 84.4672 43.7852 84.463 43.8893C84.4543 44.2928 84.4093 44.663 84.3283 45.0002C84.247 45.3374 84.1411 45.6398 84.0094 45.908C83.878 46.1765 83.7247 46.4084 83.5492 46.604C83.374 46.7999 83.1877 46.9553 82.9903 47.069ZM83.2864 44.4473C83.2993 44.2511 83.2993 44.0618 83.2864 43.8803C83.2732 43.6517 83.2228 43.475 83.1349 43.3496C83.0473 43.2251 82.9006 43.2218 82.6945 43.3409C82.5979 43.3967 82.5145 43.4687 82.4446 43.5563C82.3744 43.6439 82.3159 43.7402 82.2703 43.8443C82.2241 43.9487 82.1881 44.0552 82.1617 44.1653C82.1353 44.2748 82.1176 44.3828 82.1092 44.489C82.1002 44.5952 82.096 44.7161 82.096 44.8511C82.096 44.9861 82.1002 45.1016 82.1092 45.1976C82.1176 45.2939 82.1353 45.3815 82.1617 45.4613C82.1881 45.5405 82.2241 45.6053 82.2703 45.6563C82.3159 45.7076 82.3744 45.7367 82.4446 45.743C82.5145 45.7499 82.5979 45.7253 82.6945 45.6698C82.9003 45.551 83.0473 45.3782 83.1349 45.1523C83.2231 44.9267 83.2735 44.6915 83.2864 44.4473Z" fill="#455A64"/>
<path d="M86.2917 41.2442C86.2917 41.3186 86.274 41.3927 86.2392 41.4668C86.2041 41.5412 86.1624 41.5922 86.1141 41.6204L85.2528 42.1175C85.2042 42.1454 85.1625 42.1424 85.1277 42.1085C85.0926 42.0752 85.0752 42.0212 85.0752 41.9468V40.6202C85.0752 40.5461 85.0926 40.472 85.1277 40.3976C85.1625 40.3232 85.2042 40.2722 85.2528 40.2443L86.1141 39.7472C86.1624 39.719 86.2041 39.722 86.2392 39.7556C86.274 39.7895 86.2917 39.8438 86.2917 39.9176V41.2442ZM86.2917 44.7884C86.2917 44.8628 86.274 44.9366 86.2392 45.0107C86.2041 45.0854 86.1624 45.1364 86.1141 45.164L85.2528 45.6614C85.2042 45.6896 85.1625 45.6866 85.1277 45.6527C85.0926 45.6188 85.0752 45.5651 85.0752 45.4907V44.1641C85.0752 44.09 85.0926 44.0156 85.1277 43.9412C85.1625 43.8674 85.2042 43.8164 85.2528 43.7882L86.1141 43.2908C86.1624 43.2632 86.2041 43.2662 86.2392 43.2995C86.274 43.3334 86.2917 43.3874 86.2917 43.4618V44.7884Z" fill="#455A64"/>
<path d="M89.0282 35.8265C89.0498 35.7398 89.0831 35.6519 89.1266 35.5622C89.1704 35.4728 89.234 35.4041 89.3177 35.3558L90.1331 34.8851C90.1724 34.8623 90.2063 34.8647 90.2351 34.892C90.2636 34.9196 90.278 34.9634 90.278 35.0243C90.278 35.0513 90.2735 35.084 90.2648 35.123L88.0484 44.5943C88.0304 44.6717 87.9998 44.7572 87.9563 44.8502C87.9125 44.9429 87.8465 45.0146 87.7589 45.0653L86.9564 45.5285C86.9168 45.5513 86.8829 45.5489 86.8544 45.5219C86.8256 45.4946 86.8115 45.4502 86.8115 45.3896C86.8115 45.3626 86.816 45.3296 86.8247 45.2906L89.0282 35.8265Z" fill="#455A64"/>
<path d="M91.2843 34.5239C91.3062 34.4372 91.3392 34.3493 91.383 34.2596C91.4268 34.1702 91.4901 34.1015 91.5738 34.0532L92.3895 33.5825C92.4288 33.5597 92.4627 33.5621 92.4915 33.5894C92.52 33.617 92.5341 33.6608 92.5341 33.722C92.5341 33.749 92.5299 33.7817 92.5209 33.8207L90.3048 43.292C90.2868 43.3694 90.2562 43.4549 90.2124 43.5479C90.1686 43.6409 90.1026 43.7123 90.0153 43.763L89.2125 44.2262C89.1732 44.249 89.1393 44.2466 89.1108 44.2196C89.082 44.1923 89.0679 44.1479 89.0679 44.0873C89.0679 44.0603 89.0721 44.0273 89.0811 43.9883L91.2843 34.5239Z" fill="#455A64"/>
<path d="M95.6313 34.4039C95.697 34.3661 95.7474 34.3643 95.7825 34.3979C95.8173 34.4312 95.8416 34.4717 95.8548 34.5179L96.3414 36.5357L96.8283 33.956C96.8412 33.8945 96.8652 33.8264 96.9006 33.752C96.9354 33.6779 96.9858 33.6212 97.0518 33.5834L97.8672 33.1127C97.9113 33.0875 97.9485 33.0896 97.9791 33.119C98.01 33.1487 98.025 33.1973 98.025 33.2645C98.025 33.2915 98.0229 33.3197 98.0187 33.3491L96.9729 38.6414C96.9597 38.7095 96.9369 38.7803 96.9042 38.8529C96.8712 38.9261 96.822 38.9819 96.756 39.02L96.0063 39.4526C95.9406 39.4904 95.8923 39.4916 95.8617 39.455C95.8311 39.419 95.8068 39.3752 95.7894 39.3245L95.3223 37.4681L94.8555 39.8639C94.8378 39.9344 94.8135 40.0061 94.7832 40.0775C94.7526 40.1495 94.704 40.2044 94.6383 40.2425L93.8886 40.6751C93.8229 40.7132 93.7737 40.7147 93.7407 40.6796C93.708 40.6448 93.6852 40.6004 93.672 40.5476L92.6262 36.4631C92.6217 36.4385 92.6196 36.413 92.6196 36.386C92.6196 36.3185 92.6352 36.2522 92.6658 36.1871C92.6964 36.1223 92.7336 36.077 92.7774 36.0518L93.5931 35.5808C93.6591 35.543 93.7092 35.5412 93.7446 35.5748C93.7794 35.6081 93.8034 35.6486 93.8166 35.6948L94.3032 37.7126L94.7901 35.1329C94.8033 35.0714 94.8273 35.0033 94.8624 34.9289C94.8975 34.8548 94.9479 34.7981 95.0136 34.7603L95.6313 34.4039Z" fill="#455A64"/>
<path d="M101.327 31.1156C101.393 31.0775 101.443 31.0757 101.478 31.1093C101.513 31.1429 101.537 31.1834 101.551 31.2296L102.037 33.2471L102.524 30.6674C102.537 30.6062 102.561 30.5378 102.596 30.4637C102.632 30.3893 102.682 30.3329 102.748 30.2948L103.563 29.8244C103.607 29.7989 103.645 29.801 103.675 29.8307C103.706 29.8604 103.721 29.909 103.721 29.9762C103.721 30.0032 103.719 30.0314 103.715 30.0608L102.669 35.3531C102.656 35.4215 102.633 35.4923 102.6 35.5649C102.567 35.6381 102.518 35.6936 102.452 35.7317L101.702 36.1643C101.636 36.2024 101.588 36.2033 101.558 36.1667C101.527 36.1307 101.503 36.0869 101.486 36.0365L101.018 34.1798L100.551 36.5756C100.534 36.6464 100.509 36.7181 100.479 36.7895C100.448 36.8615 100.4 36.9161 100.334 36.9542L99.5844 37.3871C99.5184 37.4252 99.4692 37.4264 99.4365 37.3913C99.4035 37.3568 99.3804 37.3121 99.3675 37.2596L98.3217 33.1751C98.3175 33.1505 98.3154 33.1247 98.3154 33.0977C98.3154 33.0302 98.331 32.9642 98.3616 32.8991C98.3919 32.834 98.4294 32.789 98.4732 32.7638L99.2889 32.2928C99.3546 32.2547 99.405 32.2529 99.4401 32.2865C99.4752 32.3201 99.4992 32.3606 99.5124 32.4068L99.999 34.4243L100.486 31.8446C100.499 31.7831 100.523 31.715 100.558 31.6409C100.593 31.5665 100.643 31.5101 100.709 31.472L101.327 31.1156Z" fill="#455A64"/>
<path d="M107.023 27.8273C107.089 27.7892 107.139 27.7874 107.174 27.821C107.209 27.8549 107.233 27.8951 107.247 27.9413L107.733 29.9591L108.22 27.3791C108.233 27.3179 108.257 27.2495 108.292 27.1754C108.327 27.1013 108.378 27.0449 108.444 27.0068L109.259 26.5361C109.303 26.5106 109.34 26.513 109.371 26.5424C109.402 26.5724 109.417 26.621 109.417 26.6882C109.417 26.7152 109.415 26.7434 109.41 26.7725L108.364 32.0648C108.351 32.1335 108.328 32.204 108.296 32.2769C108.263 32.3501 108.213 32.4053 108.147 32.4434L107.398 32.8763C107.332 32.9144 107.284 32.915 107.253 32.8787C107.223 32.8424 107.198 32.7989 107.181 32.7485L106.714 30.8918L106.247 33.2876C106.229 33.3584 106.205 33.4301 106.175 33.5015C106.144 33.5732 106.095 33.6281 106.03 33.6662L105.28 34.0991C105.214 34.1369 105.165 34.1384 105.132 34.1033C105.099 34.0685 105.076 34.0241 105.063 33.9713L104.017 29.8868C104.013 29.8625 104.011 29.8367 104.011 29.8097C104.011 29.7422 104.026 29.6762 104.057 29.6108C104.088 29.546 104.125 29.501 104.169 29.4755L104.984 29.0048C105.05 28.9667 105.1 28.9649 105.136 28.9985C105.171 29.0324 105.195 29.0726 105.208 29.1188L105.694 31.1366L106.181 28.5566C106.194 28.4951 106.218 28.427 106.254 28.3529C106.289 28.2788 106.339 28.2224 106.405 28.1843L107.023 27.8273Z" fill="#455A64"/>
<path d="M110.871 30.5978C110.871 30.6722 110.853 30.7463 110.818 30.8204C110.783 30.8948 110.741 30.9458 110.693 30.9737L109.831 31.4711C109.783 31.499 109.741 31.496 109.706 31.4624C109.671 31.4285 109.654 31.3748 109.654 31.3004V29.9738C109.654 29.8997 109.671 29.8253 109.706 29.7509C109.741 29.6768 109.783 29.6258 109.831 29.5979L110.693 29.1005C110.741 29.0726 110.783 29.0756 110.818 29.1092C110.853 29.1431 110.871 29.1971 110.871 29.2712V30.5978Z" fill="#455A64"/>
<path d="M62.4785 41.1458L62.4791 41.1446L62.4557 41.1302C62.4548 41.1296 62.4542 41.1293 62.4533 41.1287L56.4515 37.5656C56.4497 37.5644 56.4479 37.5635 56.4461 37.5623L56.4131 37.5422L56.4125 37.5437C53.7692 35.9501 50.2418 36.2012 46.448 38.6783C38.8262 43.6547 33.0185 55.7252 33.476 65.6384C33.704 70.5794 35.4461 74.051 38.0795 75.6749L38.0789 75.6758L38.1023 75.6899C38.1032 75.6905 38.1044 75.6911 38.1053 75.6917L44.1083 79.2557C44.1092 79.256 44.1098 79.2566 44.1107 79.2572L44.1386 79.274L44.1392 79.2728C46.7834 80.8709 50.3135 80.6213 54.1106 78.1421C61.7321 73.1657 67.5401 61.0952 67.0826 51.182C66.854 46.241 65.1119 42.7697 62.4785 41.1458Z" fill="#37474F"/>
<path d="M43.915 79.1333L38.1064 75.6914C38.1022 75.6914 38.1022 75.6914 38.1022 75.6914L38.0767 75.6734C35.4445 74.0456 33.7033 70.5743 33.4759 65.6399C33.2719 61.2188 34.3165 56.3714 36.2065 51.9182L36.2446 51.8204L42.2104 55.481C40.3159 59.9345 39.2755 64.7819 39.4795 69.203C39.7027 74.0381 41.3758 77.4647 43.915 79.1333Z" fill="#263238"/>
<path d="M54.1094 78.1421C61.7309 73.1657 67.5389 61.0952 67.0814 51.182C66.6242 41.2691 60.0746 37.2671 52.4528 42.2438C44.831 47.2202 39.0233 59.2907 39.4808 69.2036C39.9386 79.1168 46.4879 83.1185 54.1094 78.1421Z" fill="#455A64"/>
<path d="M49.8085 75.5243C48.7891 75.5243 47.8297 75.2777 46.9672 74.7818C44.5663 73.4006 43.189 70.2347 43.189 66.0947C43.189 58.4786 47.8192 49.5893 53.5099 46.2785C56.0977 44.7728 58.6264 44.5793 60.6295 45.7316C63.0304 47.1122 64.4077 50.2787 64.4077 54.4187C64.4077 62.0345 59.7775 70.9241 54.0871 74.2349C52.6132 75.0923 51.1582 75.5243 49.8085 75.5243ZM57.787 46.1396C56.6383 46.1396 55.3795 46.5188 54.0874 47.2706C48.7108 50.3981 44.3371 58.8425 44.3371 66.0947C44.3371 69.8129 45.5044 72.6164 47.5396 73.7873C49.1722 74.7257 51.2929 74.5334 53.5102 73.2431C58.8865 70.1153 63.2602 61.6709 63.2602 54.419C63.2602 50.7008 62.0929 47.8973 60.0577 46.7264C59.3761 46.334 58.6099 46.1396 57.787 46.1396Z" fill="#4598E6"/>
<path d="M49.8068 56.4803C48.545 56.4803 47.3834 56.0873 46.3799 55.3013L46.9109 54.6239C48.6644 55.9979 51.0338 55.9385 53.582 54.4553C56.2226 52.919 58.7039 50.0738 60.5684 46.4438L61.3343 46.8371C59.3951 50.6117 56.7959 53.5814 54.0149 55.1996C52.5479 56.0528 51.1229 56.4803 49.8068 56.4803Z" fill="#4598E6"/>
<path d="M47.0286 74.0691L46.2627 73.6758C48.2013 69.9015 50.8008 66.9318 53.5818 65.3136C56.4561 63.642 59.1669 63.6063 61.2165 65.2116L60.6855 65.889C58.9317 64.5156 56.5626 64.5756 54.0147 66.0579C51.3738 67.5939 48.8928 70.4391 47.0286 74.0691Z" fill="#4598E6"/>
<path d="M52.6878 74.4974C52.2891 74.4974 51.8982 74.3904 51.5256 74.1758C49.503 73.0124 48.2466 68.8205 48.2466 63.236C48.2466 55.5371 50.5905 48.143 53.5824 46.4024C54.4293 45.9098 55.2894 45.8867 56.0724 46.337C58.0947 47.5004 59.3511 51.6923 59.3511 57.2771C59.3511 64.9757 57.0072 72.3701 54.0156 74.1107C53.5722 74.3684 53.1252 74.4974 52.6878 74.4974ZM54.9078 46.8761C54.6213 46.8761 54.3252 46.9661 54.0153 47.1464C51.3549 48.6938 49.1073 56.0621 49.1073 63.236C49.1073 69.1463 50.5374 72.6146 51.9543 73.4298C52.4685 73.7255 53.0013 73.7048 53.5824 73.3667C56.2428 71.8193 58.4901 64.451 58.4901 57.2771C58.4901 51.3665 57.06 47.8982 55.6431 47.0834C55.4031 46.9454 55.1592 46.8761 54.9078 46.8761Z" fill="#4598E6"/>
<path d="M54.2289 46.7744H53.3682V73.7387H54.2289V46.7744Z" fill="#4598E6"/>
<path d="M63.613 54.0474L43.5439 65.7247L43.9769 66.4689L64.046 54.7916L63.613 54.0474Z" fill="#4598E6"/>
<path d="M124.023 41.2449C123.923 41.037 123.799 40.9059 123.664 40.8273L123.667 40.827L122.772 40.3104V40.3128C122.383 40.0893 121.908 40.3104 121.656 40.4649L121.098 40.1427C120.421 39.7338 119.48 40.5891 119.269 40.7946L119.028 40.6554C118.709 40.4634 118.276 40.5849 117.891 40.7793V37.5285C117.891 37.1721 117.769 36.9201 117.571 36.7962L117.572 36.7956L117.563 36.7902C117.558 36.7872 117.553 36.7842 117.548 36.7815L116.67 36.2742C116.67 36.2739 116.669 36.2733 116.668 36.273L116.662 36.2694L116.661 36.27C116.454 36.1545 116.171 36.1731 115.857 36.354C115.224 36.72 114.71 37.6101 114.71 38.3418V48.2994C114.664 48.2772 114.618 48.2559 114.573 48.2358C113.788 47.6832 112.965 47.3544 112.238 47.4837C111.544 47.607 110.924 48.198 110.744 48.5154C110.364 49.1847 110.991 49.6044 111.798 50.5272C112.597 51.4416 113.303 52.5429 114.031 53.2224C114.76 53.9019 115.288 54.0786 115.288 54.0786V55.3812L116.174 55.893L122.918 51.9993V50.6967C122.918 50.6967 123.755 47.3604 124.022 45.966C124.29 44.5722 124.537 42.3141 124.023 41.2449Z" fill="#4598E6"/>
<path opacity="0.8" d="M124.023 41.2449C123.923 41.037 123.799 40.9059 123.664 40.8273L123.667 40.827L122.772 40.3104V40.3128C122.383 40.0893 121.908 40.3104 121.656 40.4649L121.098 40.1427C120.421 39.7338 119.48 40.5891 119.269 40.7946L119.028 40.6554C118.709 40.4634 118.276 40.5849 117.891 40.7793V37.5285C117.891 37.1721 117.769 36.9201 117.571 36.7962L117.572 36.7956L117.563 36.7902C117.558 36.7872 117.553 36.7842 117.548 36.7815L116.67 36.2742C116.67 36.2739 116.669 36.2733 116.668 36.273L116.662 36.2694L116.661 36.27C116.454 36.1545 116.171 36.1731 115.857 36.354C115.224 36.72 114.71 37.6101 114.71 38.3418V48.2994C114.664 48.2772 114.618 48.2559 114.573 48.2358C113.788 47.6832 112.965 47.3544 112.238 47.4837C111.544 47.607 110.924 48.198 110.744 48.5154C110.364 49.1847 110.991 49.6044 111.798 50.5272C112.597 51.4416 113.303 52.5429 114.031 53.2224C114.76 53.9019 115.288 54.0786 115.288 54.0786V55.3812L116.174 55.893L122.918 51.9993V50.6967C122.918 50.6967 123.755 47.3604 124.022 45.966C124.29 44.5722 124.537 42.3141 124.023 41.2449Z" fill="white"/>
<path opacity="0.2" d="M117.892 40.7905V41.8933C117.892 41.8933 117.892 41.8933 117.894 41.8912C117.93 41.8603 118.31 41.5312 118.761 41.2987L117.892 40.7905ZM121.966 40.3111C121.847 40.3585 121.74 40.414 121.657 40.4653L121.943 40.6318C122.102 40.714 122.248 40.8622 122.367 41.0968C122.367 41.0968 122.587 40.9198 122.877 40.8109L121.966 40.3111ZM119.868 40.3216C119.586 40.4986 119.359 40.7062 119.269 40.7947L119.853 41.1343C119.863 41.1406 119.876 41.1445 119.886 41.1529C119.97 41.1961 120.047 41.2618 120.112 41.3503C120.112 41.3503 120.112 41.3503 120.114 41.3482C120.141 41.3215 120.394 41.0623 120.736 40.8442L119.868 40.3216ZM114.71 38.3422V48.3001C115.006 48.4441 115.304 48.6313 115.596 48.8473V38.8546L114.71 38.3422ZM117.888 40.7887L117.892 40.7905V40.7806L117.888 40.7887ZM114.917 53.7337C114.189 53.0548 113.483 51.9541 112.685 51.0385C111.928 50.1724 111.327 49.7485 111.574 49.1458L110.687 48.6334C110.44 49.2361 111.039 49.66 111.798 50.5282C112.599 51.4417 113.302 52.5424 114.03 53.2234C114.761 53.9023 115.287 54.0793 115.287 54.0793V55.3816L116.174 55.894V54.5917C116.175 54.5917 115.646 54.4147 114.917 53.7337Z" fill="#4598E6"/>
<path opacity="0.1" d="M117.892 40.7905V41.8933C117.892 41.8933 117.892 41.8933 117.894 41.8912C117.93 41.8603 118.31 41.5312 118.761 41.2987L117.892 40.7905ZM121.966 40.3111C121.847 40.3585 121.74 40.414 121.657 40.4653L121.943 40.6318C122.102 40.714 122.248 40.8622 122.367 41.0968C122.367 41.0968 122.587 40.9198 122.877 40.8109L121.966 40.3111ZM119.868 40.3216C119.586 40.4986 119.359 40.7062 119.269 40.7947L119.853 41.1343C119.863 41.1406 119.876 41.1445 119.886 41.1529C119.97 41.1961 120.047 41.2618 120.112 41.3503C120.112 41.3503 120.112 41.3503 120.114 41.3482C120.141 41.3215 120.394 41.0623 120.736 40.8442L119.868 40.3216ZM114.71 38.3422V48.3001C115.006 48.4441 115.304 48.6313 115.596 48.8473V38.8546L114.71 38.3422ZM117.888 40.7887L117.892 40.7905V40.7806L117.888 40.7887ZM114.917 53.7337C114.189 53.0548 113.483 51.9541 112.685 51.0385C111.928 50.1724 111.327 49.7485 111.574 49.1458L110.687 48.6334C110.44 49.2361 111.039 49.66 111.798 50.5282C112.599 51.4417 113.302 52.5424 114.03 53.2234C114.761 53.9023 115.287 54.0793 115.287 54.0793V55.3816L116.174 55.894V54.5917C116.175 54.5917 115.646 54.4147 114.917 53.7337Z" fill="black"/>
<path d="M116.174 55.8933V54.5907C116.174 54.5907 115.646 54.414 114.918 53.7345C114.189 53.055 113.484 51.9537 112.684 51.0393C111.878 50.1165 111.251 49.6968 111.631 49.0275C111.811 48.7104 112.431 48.1194 113.124 47.9958C113.894 47.8589 114.771 48.2346 115.596 48.8463V38.8535C115.596 38.1215 116.11 37.2318 116.744 36.8658C117.378 36.4998 117.892 36.7965 117.892 37.5285V41.8929C117.892 41.8929 119.473 40.4883 120.112 41.3496C120.112 41.3496 121.666 39.7218 122.367 41.0967C122.367 41.0967 123.508 40.1753 124.023 41.2445C124.537 42.3137 124.29 44.5719 124.023 45.966C123.755 47.3604 122.918 50.6967 122.918 50.6967V51.9993L116.174 55.8933Z" fill="#4598E6"/>
<path opacity="0.65" d="M116.174 55.8933V54.5907C116.174 54.5907 115.646 54.414 114.918 53.7345C114.189 53.055 113.484 51.9537 112.684 51.0393C111.878 50.1165 111.251 49.6968 111.631 49.0275C111.811 48.7104 112.431 48.1194 113.124 47.9958C113.894 47.8589 114.771 48.2346 115.596 48.8463V38.8535C115.596 38.1215 116.11 37.2318 116.744 36.8658C117.378 36.4998 117.892 36.7965 117.892 37.5285V41.8929C117.892 41.8929 119.473 40.4883 120.112 41.3496C120.112 41.3496 121.666 39.7218 122.367 41.0967C122.367 41.0967 123.508 40.1753 124.023 41.2445C124.537 42.3137 124.29 44.5719 124.023 45.966C123.755 47.3604 122.918 50.6967 122.918 50.6967V51.9993L116.174 55.8933Z" fill="white"/>
<g opacity="0.1">
<path d="M117.892 43.767C117.892 43.767 118.036 41.7756 118.767 41.3019C118.767 41.3019 118.757 41.3049 118.741 41.3094C118.276 41.5524 117.892 41.8929 117.892 41.8929V41.8554C117.884 41.8803 117.892 41.8929 117.892 41.8929V43.767Z" fill="black"/>
<path d="M120.112 41.3496V43.1715C120.112 43.1715 120.314 41.2983 120.734 40.8456C120.377 41.0736 120.114 41.3481 120.112 41.3496Z" fill="black"/>
<path d="M122.368 41.0967V42.9252C122.368 42.9252 122.479 41.0832 122.876 40.8114C122.587 40.92 122.369 41.0958 122.368 41.0967Z" fill="black"/>
</g>
<path opacity="0.15" d="M101.203 93.4197C96.0218 96.0015 93.6698 98.7144 96.3521 100.615C99.0341 102.515 106.333 105.089 106.333 105.089L107.29 108.306L117.894 102.184V98.5425C117.894 98.5425 111.351 94.032 108.797 93.1632C106.242 92.2941 104.24 91.9065 101.203 93.4197Z" fill="black"/>
<path d="M115.824 109.839C115.824 109.839 114.222 113.765 114.141 115.313C114.056 116.926 113.666 117.461 113.939 119.216C113.999 119.598 114.2 120.364 114.25 120.674C114.294 120.95 114.191 121.173 113.835 121.246C113.135 121.391 111.972 120.076 111.419 118.645C110.866 117.214 110.082 113.986 110.033 113.6C109.986 113.227 110.11 112.763 110.254 112.47C110.508 111.956 110.576 111.885 110.576 111.885C110.807 111.183 110.919 109.848 111.114 108.924L115.824 109.839Z" fill="#FFA8A7"/>
<path d="M108.664 115.07C108.664 115.07 108.487 115.393 108.476 115.599C108.46 115.921 109.186 116.981 109.471 117.368C109.756 117.754 110.035 118.237 109.996 119.201C109.955 120.232 110.41 121.223 111.075 122.073C111.74 122.923 112.895 123.853 114.594 124.376C116.294 124.899 116.893 124.048 116.893 124.048C116.893 124.048 117.42 123.227 117.103 122.891C116.786 122.555 108.664 115.07 108.664 115.07Z" fill="#263238"/>
<path d="M110.577 111.886C110.525 111.884 110.433 111.869 110.3 112.03C110.25 112.09 109.94 112.855 109.683 113.256C109.407 113.686 108.75 114.419 108.664 115.071C109.057 116.331 110.239 117.207 110.417 118.397C110.594 119.586 110.614 120.967 112.443 122.423C114.271 123.878 116.15 124.029 116.826 123.644C117.501 123.258 117.44 122.534 116.498 121.156C115.498 119.693 114.825 116.523 114.825 116.522C114.732 116.083 114.683 115.62 114.648 115.173C114.614 114.739 114.74 114.275 114.774 113.839C114.79 113.633 114.798 113.411 114.689 113.234C114.579 113.059 114.377 112.968 114.186 112.887C113.881 112.757 113.573 112.627 113.247 112.568C112.921 112.51 112.571 112.529 112.279 112.686C112.068 112.799 111.896 112.98 111.675 113.072C111.378 113.194 111.013 113.129 110.777 112.911C110.43 112.59 110.481 112.301 110.534 112.086C110.528 112.08 110.577 111.886 110.577 111.886Z" fill="#455A64"/>
<path d="M111.374 121.256C111.374 121.256 112.082 119.815 114.023 119.823C115.964 119.83 116.636 120.818 116.931 121.399C117.283 122.09 117.649 123.344 116.848 123.704C115.982 124.093 114.98 123.972 113.404 123.182C111.828 122.392 111.374 121.256 111.374 121.256Z" fill="#FAFAFA"/>
<path d="M111.727 115.409C111.782 115.435 111.848 115.436 111.904 115.408C112.204 115.255 113.791 114.923 114.715 115.78C114.835 115.684 114.81 115.509 114.657 115.262C113.575 114.575 112.074 114.881 111.712 115.066C111.617 115.115 111.583 115.23 111.637 115.324C111.658 115.363 111.69 115.391 111.727 115.409Z" fill="#FAFAFA"/>
<path d="M114.915 116.912C114.981 116.74 114.898 116.474 114.802 116.378C113.736 115.799 112.341 116.089 111.993 116.265C111.899 116.314 111.865 116.429 111.918 116.523C111.94 116.561 111.972 116.59 112.009 116.608C112.064 116.634 112.129 116.636 112.186 116.607C112.478 116.459 113.982 116.146 114.915 116.912Z" fill="#FAFAFA"/>
<path d="M115.706 119.535C115.714 119.297 115.629 119.062 115.458 118.832C114.381 118.182 112.914 118.482 112.557 118.665C112.462 118.713 112.428 118.829 112.481 118.923C112.503 118.961 112.535 118.989 112.572 119.007C112.627 119.033 112.692 119.035 112.749 119.006C113.066 118.845 114.815 118.485 115.706 119.535Z" fill="#FAFAFA"/>
<path d="M112.29 117.808C112.345 117.834 112.411 117.836 112.467 117.807C112.764 117.656 114.317 117.332 115.246 118.153C115.288 117.973 115.237 117.779 115.084 117.578C114.017 116.999 112.622 117.288 112.275 117.465C112.18 117.514 112.146 117.629 112.199 117.723C112.221 117.761 112.253 117.79 112.29 117.808Z" fill="#FAFAFA"/>
<path d="M117.549 114.66C117.549 114.66 118.343 119.447 119.226 121.305C120.108 123.163 120.562 124.06 121.778 125.465C122.043 125.771 122.646 126.34 122.862 126.587C123.055 126.808 123.086 127.063 122.812 127.325C122.271 127.842 119.978 127.965 118.694 127.001C117.409 126.038 116.239 123.987 115.473 123.212C115.185 122.921 114.914 122.623 114.657 122.307C114.408 122.002 114.476 121.712 114.454 121.371C114.443 121.206 114.467 120.756 114.467 120.756C114.292 119.95 113.816 118.685 113.563 117.899L117.549 114.66Z" fill="#FFA8A7"/>
<path d="M114.015 124.374C114.015 124.374 113.991 124.758 114.074 124.958C114.202 125.27 115.363 125.948 115.805 126.187C116.247 126.425 116.727 126.758 117.121 127.688C117.542 128.681 118.416 129.416 119.425 129.923C120.434 130.43 121.942 130.795 123.784 130.531C125.625 130.267 125.812 129.193 125.812 129.193C125.812 129.193 125.945 128.182 125.495 128.005C125.044 127.829 114.015 124.374 114.015 124.374Z" fill="#263238"/>
<path d="M114.402 120.506C114.352 120.527 114.259 120.554 114.205 120.765C114.184 120.846 114.232 121.707 114.168 122.202C114.099 122.731 113.805 123.719 114.014 124.374C114.949 125.39 116.46 125.692 117.159 126.738C117.858 127.785 118.494 129.082 120.874 129.643C123.254 130.204 125.1 129.507 125.567 128.841C126.034 128.174 125.653 127.517 124.146 126.633C122.547 125.695 120.493 122.996 120.493 122.995C120.208 122.622 119.956 122.205 119.723 121.798C119.497 121.402 119.409 120.907 119.246 120.479C119.169 120.276 119.078 120.063 118.896 119.945C118.714 119.828 118.481 119.832 118.264 119.841C117.918 119.855 117.568 119.869 117.234 119.959C116.899 120.05 116.576 120.224 116.371 120.503C116.222 120.704 116.139 120.952 115.971 121.138C115.745 121.386 115.37 121.488 115.05 121.387C114.577 121.238 114.497 120.942 114.451 120.714C114.443 120.711 114.402 120.506 114.402 120.506Z" fill="#455A64"/>
<path d="M119.342 129.016C119.342 129.016 119.369 127.337 121.209 126.477C123.049 125.617 124.126 126.252 124.665 126.669C125.307 127.167 126.214 128.19 125.616 128.888C124.971 129.642 123.969 129.976 122.124 129.933C120.279 129.889 119.342 129.016 119.342 129.016Z" fill="#FAFAFA"/>
<path d="M117.065 123.325C117.128 123.326 117.191 123.298 117.232 123.245C117.448 122.967 118.8 121.944 120.058 122.343C120.128 122.198 120.027 122.043 119.771 121.878C118.441 121.711 117.157 122.672 116.897 123.008C116.829 123.096 116.849 123.221 116.942 123.286C116.979 123.313 117.022 123.325 117.065 123.325Z" fill="#FAFAFA"/>
<path d="M120.752 123.324C120.738 123.132 120.541 122.918 120.408 122.869C119.14 122.798 117.949 123.695 117.7 124.017C117.632 124.106 117.651 124.23 117.744 124.295C117.781 124.322 117.824 124.334 117.867 124.335C117.931 124.335 117.994 124.307 118.034 124.255C118.244 123.984 119.528 123.016 120.752 123.324Z" fill="#FAFAFA"/>
<path d="M122.673 125.452C122.575 125.224 122.389 125.039 122.124 124.899C120.814 124.765 119.56 125.704 119.304 126.036C119.236 126.124 119.255 126.249 119.348 126.314C119.385 126.34 119.428 126.353 119.471 126.353C119.535 126.354 119.598 126.326 119.639 126.273C119.866 125.979 121.36 124.857 122.673 125.452Z" fill="#FAFAFA"/>
<path d="M118.669 125.344C118.733 125.344 118.796 125.317 118.836 125.264C119.05 124.989 120.375 123.988 121.62 124.35C121.579 124.161 121.445 124.001 121.21 123.879C119.941 123.807 118.751 124.704 118.501 125.027C118.433 125.115 118.453 125.239 118.546 125.304C118.583 125.331 118.626 125.344 118.669 125.344Z" fill="#FAFAFA"/>
<path d="M106.986 87.3958C108.949 88.8346 115.785 92.7808 118.561 95.3503C119.363 96.0925 119.627 97.0696 119.429 99.1993C119.162 102.089 116.89 111.939 116.89 111.939C116.578 112.495 116.027 111.44 116.027 111.44L105.195 97.6876L106.986 87.3958Z" fill="#4598E6"/>
<path opacity="0.3" d="M106.986 87.3958C108.949 88.8346 115.785 92.7808 118.561 95.3503C119.363 96.0925 119.627 97.0696 119.429 99.1993C119.162 102.089 116.89 111.939 116.89 111.939C116.578 112.495 116.027 111.44 116.027 111.44L105.195 97.6876L106.986 87.3958Z" fill="black"/>
<path opacity="0.3" d="M116.42 108.872C113.914 106.778 105.817 94.0032 105.817 94.0032C105.817 94.0032 105.819 94.0011 105.822 93.9993C106.924 93.0678 107.493 89.838 107.493 89.838C107.93 91.0842 107.468 92.9634 107.129 93.6504C107.766 94.2021 111.369 97.1646 113.871 99.1455C114.499 99.6423 115.14 100.256 115.356 101.386C115.871 104.096 116.479 108.324 116.42 108.872Z" fill="black"/>
<path d="M106.986 87.3958L93.0415 90.4828C93.7225 93.0421 93.9166 94.3642 94.6273 95.7121C95.3404 97.0645 96.13 98.5066 99.757 100.292C103.249 102.011 107.514 103.782 108.368 104.188C109.01 104.494 109.317 105.78 109.608 107.447C109.912 109.196 109.94 110.564 111.67 114.234C113.363 117.827 113.71 118.604 113.71 118.604C113.71 118.604 116.33 118.876 118.069 117.346C118.069 117.346 115.696 105.026 115.19 102.808C114.908 101.569 114.902 100.916 113.364 99.5545C112.045 98.3875 106.156 93.9298 106.156 93.9298C106.156 93.9298 108.495 90.7885 106.986 87.3958Z" fill="#4598E6"/>
<path opacity="0.3" d="M106.986 87.3958L93.0415 90.4828C93.7225 93.0421 93.9166 94.3642 94.6273 95.7121C95.3404 97.0645 96.13 98.5066 99.757 100.292C103.249 102.011 107.514 103.782 108.368 104.188C109.01 104.494 109.317 105.78 109.608 107.447C109.912 109.196 109.94 110.564 111.67 114.234C113.363 117.827 113.71 118.604 113.71 118.604C113.71 118.604 116.33 118.876 118.069 117.346C118.069 117.346 115.696 105.026 115.19 102.808C114.908 101.569 114.902 100.916 113.364 99.5545C112.045 98.3875 106.156 93.9298 106.156 93.9298C106.156 93.9298 108.495 90.7885 106.986 87.3958Z" fill="black"/>
<path d="M123.014 64.2315C122.779 64.2081 122.537 64.269 122.323 64.3704C122.068 64.4904 121.843 64.6641 121.616 64.8312C121.269 65.0865 120.913 65.3295 120.549 65.559C120.225 65.7636 119.883 65.9925 119.498 66.0561C119.368 66.0774 119.093 66.0819 119.234 65.886C119.417 65.6301 119.623 65.3871 119.76 65.1039C119.897 64.8204 119.959 64.4814 119.838 64.191C119.801 64.1034 119.745 64.0185 119.659 63.9786C119.537 63.9225 119.474 63.9876 119.405 64.0674C119.331 64.1517 119.243 64.2231 119.159 64.2978C118.985 64.4514 118.811 64.6053 118.639 64.7616C117.635 65.6727 116.416 66.4626 115.986 67.7793C115.924 67.9698 115.64 68.838 115.631 70.2834C115.622 71.7291 115.536 76.7604 115.536 76.7604C115.536 76.7604 111.54 73.3995 109.807 71.9514C108.972 71.253 107.804 70.4052 106.517 70.2831C105.606 70.1967 105.075 70.2021 105.075 70.2021L107.8 76.809C107.8 76.809 112.954 80.643 115.424 81.963C117.654 83.1543 118.739 82.2963 119.008 81.6711C119.455 80.6349 119.913 80.1492 119.285 74.3655C119.24 73.9179 119.184 72.6375 119.134 72.1905C119.069 71.2569 119.174 70.3083 119.536 70.1055C120.202 69.7326 120.853 69.3261 121.427 68.8233C121.805 68.4924 122.148 68.1186 122.426 67.6998C122.543 67.5243 122.746 67.2693 122.768 67.0545C122.79 66.837 122.695 66.6066 122.761 66.3918C122.806 66.2451 122.905 66.1257 122.942 65.9691C123.017 65.6502 122.989 65.2845 123.192 65.0085C123.304 64.8567 123.489 64.7199 123.464 64.5333C123.443 64.3839 123.289 64.2897 123.143 64.254C123.1 64.2429 123.057 64.2357 123.014 64.2315Z" fill="#FFA8A7"/>
<path d="M118.937 66.741C118.825 67.5207 118.269 68.4948 117.896 68.8218C117.896 68.8218 118.519 68.4681 118.781 67.9239C119.069 67.3281 119.036 67.0251 118.937 66.741Z" fill="#F28F8F"/>
<path d="M104.8 70.0676C106.191 70.1282 107.275 70.1591 108.461 70.8437C109.647 71.5283 114.943 75.9617 114.943 75.9617C114.943 75.9617 114.995 73.7048 115.131 72.5156C115.224 71.6915 115.361 71.4323 115.618 71.4734C115.618 71.4734 116.078 72.1778 117.379 72.2753C118.68 72.3728 119.118 71.8328 119.118 71.8328C119.118 71.8328 119.497 71.7434 119.634 72.2753C119.77 72.8072 120.015 78.5726 119.778 80.234C119.541 81.8954 118.796 82.6673 117.798 82.901C116.801 83.135 114.488 81.7364 111.71 79.8686C108.933 78.0005 105.916 76.2593 105.916 76.2593L104.8 70.0676Z" fill="#4598E6"/>
<path opacity="0.7" d="M104.8 70.0676C106.191 70.1282 107.275 70.1591 108.461 70.8437C109.647 71.5283 114.943 75.9617 114.943 75.9617C114.943 75.9617 114.995 73.7048 115.131 72.5156C115.224 71.6915 115.361 71.4323 115.618 71.4734C115.618 71.4734 116.078 72.1778 117.379 72.2753C118.68 72.3728 119.118 71.8328 119.118 71.8328C119.118 71.8328 119.497 71.7434 119.634 72.2753C119.77 72.8072 120.015 78.5726 119.778 80.234C119.541 81.8954 118.796 82.6673 117.798 82.901C116.801 83.135 114.488 81.7364 111.71 79.8686C108.933 78.0005 105.916 76.2593 105.916 76.2593L104.8 70.0676Z" fill="white"/>
<path opacity="0.1" d="M114.943 75.9618C114.717 77.5092 115.057 79.1985 115.057 79.1985C115.057 79.1985 114.041 77.2359 114.354 75.4392L114.943 75.9618Z" fill="black"/>
<path d="M93.365 71.286C93.1358 72.5013 90.8267 84.0508 93.4529 92.6632C98.1821 93.2209 106.488 91.0498 107.733 87.9199C107.733 87.9199 106.894 84.9499 106.53 83.4976C106.607 81.1147 106.53 76.5676 106.481 75.1606C106.386 72.3724 105.951 70.2157 104.567 70.012C104.567 70.012 101.79 69.9021 100.109 69.9708C98.6567 70.0302 97.5656 70.0458 97.5656 70.0458L93.365 71.286Z" fill="#FAFAFA"/>
<path d="M100.311 89.6433C100.006 88.9656 94.3924 85.4997 94.3924 85.4997C94.3924 85.4997 94.4779 83.8944 94.8121 80.9403C95.1466 77.9862 95.245 74.4459 94.1806 72.6666L93.1069 72.7086C92.5 76.2918 91.2661 85.4925 93.4525 92.6631C95.974 92.9604 99.5116 92.4819 102.454 91.4961C101.912 91.1319 100.555 90.1833 100.311 89.6433Z" fill="#F0F0F0"/>
<path d="M97.079 67.335C97.0883 66.7377 95.9429 64.9521 95.4245 63.5403C94.5575 61.179 94.4816 59.0595 96.6215 58.1391C96.6215 58.1391 97.9595 55.8321 101.332 55.7172C104.705 55.6023 107.298 58.4496 106.178 62.256L97.079 67.335Z" fill="#455A64"/>
<path d="M97.9126 63.6873C97.4722 63.687 97.312 63.0549 97.0096 62.7153C96.7075 62.376 95.6653 61.9938 94.9942 62.9655C94.3711 63.8679 94.9765 65.1678 95.6569 65.6709C96.5134 66.3045 97.1041 65.6931 97.1041 65.6931L97.0264 70.4601C97.0264 70.4601 97.1782 71.517 99.1252 72.1305C101.374 72.8391 103.204 71.655 101.865 70.1715L101.915 68.9154C102.553 69.0597 103.426 69.1374 104.089 69.0366C104.839 68.9226 105.44 68.3577 105.825 67.2012C106.578 64.9437 106.369 61.9329 105.592 59.1843C104.85 59.7711 101.416 60.8715 98.3233 59.7807C98.4337 61.6794 98.3428 63.6873 97.9126 63.6873Z" fill="#FFA8A7"/>
<path d="M96.6903 65.1589C96.6903 65.3131 96.5652 65.4379 96.4113 65.4379C96.2571 65.4379 96.1323 65.3131 96.1323 65.1589C96.1323 65.0047 96.2574 64.8799 96.4113 64.8799C96.5655 64.8799 96.6903 65.0047 96.6903 65.1589Z" fill="#263238"/>
<path d="M101.915 68.9157C101.915 68.9157 100.038 68.3679 99.2981 67.8486C98.7518 67.4655 98.2649 66.8556 98.147 66.5355C98.147 66.5355 98.4281 67.5417 98.9399 68.1234C99.8357 69.1413 101.89 69.6114 101.89 69.6114L101.915 68.9157Z" fill="#F28F8F"/>
<path d="M101.764 63.6615C101.769 63.9294 101.564 64.1502 101.306 64.1544C101.048 64.1586 100.835 63.9447 100.83 63.6765C100.825 63.4083 101.03 63.1878 101.288 63.1836C101.546 63.1797 101.759 63.3936 101.764 63.6615Z" fill="#263238"/>
<path d="M101.254 62.0682L100.244 62.6004C100.102 62.3106 100.213 61.9563 100.492 61.8093C100.771 61.6626 101.112 61.7784 101.254 62.0682Z" fill="#263238"/>
<path d="M101.617 66.1171L103.224 66.6292C103.065 67.0789 102.577 67.3288 102.134 67.1872C101.69 67.0459 101.459 66.5668 101.617 66.1171Z" fill="#F28F8F"/>
<path d="M105.577 62.0481L104.467 61.7442C104.54 61.4322 104.848 61.2474 105.154 61.3314C105.461 61.4151 105.65 61.7361 105.577 62.0481Z" fill="#263238"/>
<path d="M105.29 63.2931C105.295 63.561 105.09 63.7818 104.832 63.7857C104.574 63.7896 104.36 63.576 104.356 63.3078C104.35 63.0399 104.556 62.8191 104.814 62.8149C105.072 62.811 105.285 63.0249 105.29 63.2931Z" fill="#263238"/>
<path d="M105.807 59.1846C106.844 58.4454 107.421 57.4572 107.146 56.0964C106.741 56.5029 105.607 56.5755 104.614 56.1021C103.556 55.5969 101.877 54.9114 99.5271 55.3662C97.6947 55.7208 96.6216 57.1143 96.6216 58.1391C96.9801 58.8726 97.4733 59.2632 98.3244 59.781C98.3244 59.781 100.081 61.2186 102.746 61.0539C104.461 60.948 105.35 60.1119 105.35 60.1119C105.35 60.1119 104.392 60.1962 103.944 59.8986C103.944 59.8986 105.032 59.7369 105.807 59.1846Z" fill="#37474F"/>
<path d="M103.281 65.5215L104.711 64.8687L102.883 62.3478L103.281 65.5215Z" fill="#F28F8F"/>
<path opacity="0.15" d="M118.995 95.8605C118.874 95.6745 118.73 95.5065 118.561 95.3502C116.893 93.8067 113.762 91.767 111.1 90.072L98.9936 97.0629C98.9195 97.1058 98.9195 97.2129 98.9936 97.2555L107.786 102.333L118.995 95.8605Z" fill="black"/>
<path d="M122.666 92.3058V92.5014C122.666 92.7882 122.514 93.0537 122.264 93.1983L108.188 101.325C108.064 101.397 107.924 101.431 107.787 101.431C107.648 101.431 107.508 101.397 107.382 101.324L99.7097 96.909C99.4631 96.7668 99.3086 96.4989 99.3086 96.2121V95.9412H99.3104V95.9439C99.3104 95.9787 99.3266 96.0108 99.3614 96.0324L107.787 100.898L122.666 92.3058Z" fill="#37474F"/>
<path d="M107.787 100.897V101.432C107.925 101.432 108.064 101.397 108.188 101.325L122.265 93.1986C122.514 93.0549 122.668 92.7885 122.668 92.5011V92.3052L107.787 100.897Z" fill="#263238"/>
<path d="M122.668 92.3052L114.321 87.4869C114.173 87.4014 113.99 87.4014 113.842 87.4869L99.3619 95.8479C99.2908 95.889 99.2908 95.9916 99.3619 96.0327L107.787 100.897L122.668 92.3052Z" fill="#455A64"/>
<path d="M107.71 100.189L103.208 97.5926L116.371 89.9927L120.896 92.5757L107.71 100.189Z" fill="#37474F"/>
<path d="M120.897 92.5752L120.725 92.6742L116.371 90.1902L103.381 97.6917L103.209 97.5927L116.371 89.9922L120.897 92.5752Z" fill="#263238"/>
<path d="M105.497 92.966L105.58 93.014L107.786 94.2875L111.71 92.0222L111.792 91.9754L109.502 90.6539L105.497 92.966Z" fill="#263238"/>
<path d="M105.58 93.014L107.786 94.2875L111.71 92.0222L109.502 90.7484L105.58 93.014Z" fill="#37474F"/>
<path d="M109.767 94.5429C109.136 93.9168 108.22 93.0489 107.451 92.7939C107.351 92.7621 107.202 92.6925 106.91 92.6256C107.175 92.5734 107.442 92.5548 107.701 92.4675C107.957 92.3811 108.203 92.2389 108.369 92.0247C108.436 91.9386 108.483 91.8009 108.398 91.7319C108.368 91.707 108.328 91.6929 108.289 91.6917C107.712 91.6743 107.258 91.5846 106.734 91.5468C106.506 91.5303 106.249 91.4997 106.028 91.5597C105.813 91.6182 105.599 91.6806 105.389 91.7535C104.432 92.0844 103.56 92.3823 102.206 92.0667L99.7693 90.7668C99.7693 90.7668 99.2488 90.6366 98.4814 91.9359C97.714 93.2352 98.1625 93.9486 98.1625 93.9486L100.899 94.8936V94.8933C100.913 94.8984 100.925 94.9032 100.939 94.9086C101.24 95.0214 101.511 95.2566 102.23 95.4774C103.083 95.739 104.174 95.4294 104.915 95.3901C105.656 95.3505 106.913 95.6931 107.6 95.9721C108.287 96.2511 109.112 95.1924 109.457 95.3199C109.802 95.4474 110.399 95.1687 109.767 94.5429Z" fill="#FFA8A7"/>
<path d="M106.591 92.218C106.091 92.1673 105.542 92.3878 105.542 92.3878C105.542 92.3878 106.158 92.4006 106.91 92.6259C107.175 92.5737 107.442 92.5552 107.701 92.4679C107.927 92.3914 108.145 92.2716 108.307 92.097C107.892 92.3787 107.089 92.2687 106.591 92.218Z" fill="#F28F8F"/>
<path d="M93.3647 71.286C94.058 71.5599 94.9601 74.4501 94.4045 77.2311L93.1139 85.9269C93.1139 85.9269 94.6949 86.8629 96.9134 88.2369C98.4509 89.1891 99.7688 90.0621 99.7694 90.7674C98.7626 91.1292 97.8578 92.9829 98.1626 93.9492C97.475 94.764 91.1276 91.2453 88.9082 89.7273C87.8792 89.0235 87.3605 88.746 87.7565 85.569C88.1945 82.0527 88.4948 78.1464 89.18 75.5397C89.8943 72.8184 90.6902 71.7621 93.3647 71.286Z" fill="#4598E6"/>
<path opacity="0.7" d="M93.3647 71.286C94.058 71.5599 94.9601 74.4501 94.4045 77.2311L93.1139 85.9269C93.1139 85.9269 94.6949 86.8629 96.9134 88.2369C98.4509 89.1891 99.7688 90.0621 99.7694 90.7674C98.7626 91.1292 97.8578 92.9829 98.1626 93.9492C97.475 94.764 91.1276 91.2453 88.9082 89.7273C87.8792 89.0235 87.3605 88.746 87.7565 85.569C88.1945 82.0527 88.4948 78.1464 89.18 75.5397C89.8943 72.8184 90.6902 71.7621 93.3647 71.286Z" fill="white"/>
<path d="M108.013 101.016C108.279 101.119 108.582 101.099 108.834 100.952L122.849 92.8611C123.095 92.7189 123.264 92.475 123.312 92.1948L124.847 83.0451C124.855 82.9929 124.859 82.9407 124.859 82.8888C124.859 82.6338 124.758 82.3899 124.577 82.2111L110.013 90.621C109.832 90.7266 109.706 90.9069 109.671 91.1142L108.013 101.016Z" fill="#37474F"/>
<path d="M107.786 100.898L107.882 100.952C107.924 100.976 107.968 100.997 108.013 101.016L109.671 91.1136C109.706 90.9066 109.832 90.726 110.014 90.6204L124.578 82.2105C124.521 82.1541 124.455 82.1049 124.383 82.0626L109.79 90.4881C109.608 90.5937 109.482 90.774 109.447 90.9813L107.786 100.898Z" fill="#455A64"/>
<path d="M109.807 90.8074L109.581 90.6769C109.514 90.766 109.466 90.8689 109.447 90.9814L107.786 100.898L107.882 100.952C107.924 100.976 107.968 100.997 108.013 101.016L109.671 91.1137C109.691 91.0006 109.739 90.8968 109.807 90.8074Z" fill="#263238"/>
<path d="M115.906 92.5695C116.009 91.9569 116.642 91.1433 117.319 90.7521C117.996 90.3612 118.462 90.5406 118.36 91.1532C118.257 91.7658 117.624 92.5794 116.947 92.9706C116.269 93.3615 115.803 93.1821 115.906 92.5695Z" fill="#4598E6"/>
</svg>
