<?xml version="1.0" encoding="UTF-8"?>
<svg id="Layer_1" data-name="Layer 1" xmlns="http://www.w3.org/2000/svg" viewBox="0 0 968.08 678.67">
  <defs>
    <style>
      .cls-1 {
        fill: #2d79b7;
        stroke-width: 0px;
      }
    </style>
  </defs>
  <path class="cls-1" d="M486.36,83.69c.56,1.98,1.78,3.27,3.85,3.7,1.53.32,2.45,1.33,3.32,2.59,1.14,1.66,2.58,3.12,3.8,4.56.85,2.24,1.55,4.46,2.52,6.54.58,1.24.78,2.46.81,3.78.05,2.32.08,4.65.26,6.97.11,1.43.46,2.84.79,4.7-.27.6-.89,1.6-1.14,2.68-.25,1.11-.18,2.31-.17,3.47,0,1.31.05,2.62.18,3.92.15,1.53-.16,2.9-1.18,4.05-1.67,1.89-2.17,4.06-1.64,6.5.09.42.04.87.1,1.3.7,4.66-.08,8.84-3.36,12.52-1.91,2.14-2.77,5.02-4.72,7.25-1.14,1.31-2.25,2.62-3.57,3.75-2.47,2.14-4.45,4.52-4.87,7.98-.17,1.39-.94,2.73-1.58,4.03-1.83,3.7-3.1,7.51-2.88,11.72.06,1.16-.13,2.33-.07,3.49.2,3.69-.29,6.89-2.97,10-3.55,4.12-2.95,11.58.42,15.84,1.35,1.7,3.23,3.23,3.88,5.17.65,1.94.08,4.29.03,6.46-.02,1.02-.04,2.04-.13,3.05-.15,1.66.11,3.04,1.4,4.35,1.46,1.49,1.59,5.28.17,6.83-1.75,1.92-2.05,4.07-1.95,6.45.09,2.18.02,4.37.25,6.53.22,2.07.89,3.94,3.21,4.75.75.26,1.35,1.02,1.97,1.61,1.27,1.19,2.38,2.59,3.77,3.6,2.1,1.53,4.26,2.86,5.62,5.25.5.88,1.84,1.35,2.87,1.85,2.76,1.35,5.57,2.57,6.63,5.87.16.51.7.93,1.13,1.3,1.91,1.65,3.23,3.61,4.1,6.04.67,1.88,1.7,3.75,2.99,5.25,2.91,3.39,4.3,7.84,8.15,10.62,2.31,1.66,3.96,4.22,5.94,6.34,1.26,1.35,1.92,2.87,1.68,4.75-.07.58-.06,1.16-.1,1.74-.1,1.55.33,2.9,1.59,3.86,2.94,2.24,2.55,4.89,1.06,7.72-2.72,1.01-4.65,2.82-5.2,5.73-.91,4.8-.8,9.68-.82,14.55,0,1.25.53,2.2,1.65,2.79,1.39,3.05,1.81,5.96-.67,8.8-1.61,1.84-1.41,2.61.41,5.11q-.13-2.85,1.68-5.62c1.2-1.83,1.02-6.38-.35-8.21-.16-.21-.49-.3-.74-.44-.25-1.55-.73-3.1-.71-4.64.04-3.15.53-6.31.49-9.46-.05-3.2,1.14-5.54,3.72-7.3.34-.23.59-.62.87-.93,1.96-.64,1.73-2.49,2.17-3.95.38-1.26-.26-2.3-.97-3.21-.62-.8-1.47-1.41-2.15-2.16-1.3-1.45-1.21-2.54.48-4.67.52.73,1.15,1.33,1.43,2.07,1.91,5.04,5.04,9.13,9.37,12.29,1.01.73,1.7,1.53,1.94,2.75.41,2.15,1.97,3.53,3.45,4.9.58.54,1.58,1.04,2.31.95,3.73-.42,5.09,2.11,6.3,4.83.35.79.42,1.7.74,2.51,1.04,2.62,3.74,3.16,5.91,1.28,2.76-2.39,5.63-4.5,9.63-4.09,2.11.22,4.03-.44,5.61-1.92.32-.3.67-.57,1.03-.8,3.14-2.01,4.64-1.65,6.68,1.59.15.24.26.52.3.6-.41,4.64-.89,9.1-1.17,13.57-.1,1.7-.55,3.02-1.75,4.27-1.3,1.35-2.48,2.86-3.44,4.46-1.08,1.79-2.38,3.27-4.09,4.46-1.31.92-2.54,1.95-3.83,2.89-1.76,1.27-2.11,3.02-1.82,5.03.31,2.09,1.22,3.97,2.73,5.35,1.67,1.53,1.84,3.18,1.3,5.13-.08.28-.16.56-.26.83-.74,1.96.06,3.46,1.61,4.52,1.91,1.31,3.82,2.82,5.97,3.55,3.49,1.18,5.6,4.07,8.47,5.99.69.46,1.12,1.72,1.19,2.65.23,3.02.86,6.06.11,9.1-.17.7-.19,1.44-.21,2.17-.05,1.67.24,3.25,1.89,4.11,1.52.79,1.93,2.1,1.89,3.63-.1,3.17.32,6.43-1.65,9.27-.1,2.01-.68,4.15-.21,6.02.82,3.22-.2,6.39.34,9.54.02.14,0,.3-.05.42-1.92,4.14-1.04,8.6-1.46,12.9-.14,1.43-.02,2.91.19,4.35.62,4.3.66,4.29-1.42,8.22-1.38.64-2.79,1.3-4.27,1.99.69,3.1,3.92,3.15,5.38,5.32.05.22.23.64.23,1.05-.09,3.79-.47,4.18-4.31,4.29-1.45.04-2.91.02-4.37.02-116.75,0-233.51,0-350.26-.01-2.45,0-4.94.31-7.61-.49-.22-.91-.54-1.84-.64-2.8-.12-1.15-.04-2.32-.04-3.49,0-156.22,0-312.44.01-468.66,0-1.85-.29-3.76.4-5.55,1.65-.69,3.02,0,4.38.35,5.2,1.38,10.38,2.82,15.57,4.22.84.23,1.71.6,2.54.56,4.43-.22,8.64.98,12.9,1.86,8.97,1.84,18,3.35,27.1,4.41,2.83.33,4.97,1.34,5.77,4.38.77,2.92,2.78,4.56,5.71,5.4,2.36.68,4.55,1.71,7.16,1.49,1.37-.12,2.85.47,4.2.95,2.22.79,4.26.82,6.14-.78.33-.28.7-.53,1.09-.72,1.13-.57,2.34-.21,2.95.98.46.9.83,1.86,1.14,2.82.98,3.06,3.26,4.32,6.26,4.55,1.3.1,2.62,0,3.93.07,2.75.17,5.5.38,8.24.62,3.05.26,6.11.43,9.13-.24,2.33-.52,4.53-.81,6.57,1.01.69.62,1.89.67,2.84,1.03,1.08.4,2.25.69,3.18,1.32,1.37.94,2.76,1.5,4.44,1.56.8.03,1.61.52,2.37.89,2.99,1.45,5.68,3.23,8.08,5.63,2.35,2.36,5.4,3.89,8.67,4.88,2.58.79,5.11.9,7.73.14,4.77-1.38,9.35-3.21,13.69-5.61,5.37-2.97,10.4-6.43,14.88-10.64,2.56-2.4,5.22-4.51,9.05-4.81.5,1.36.12,2.76.07,4.18-.09,2.5.17,4.98,2.18,6.81.5.46,1.25.65,1.88.97,0,0-.14-.13-.14-.13.28.3.51.73.86.89,2.08.94,4.18,1.81,6.27,2.7,0,0-.14-.11-.14-.11.59.58,1.09,1.32,1.79,1.7,1.12.61,2.37.98,3.57,1.45.55.26,1.1.51,1.65.77.08,1.15.72,1.92,1.77,2.21,1.1.31,2.26.57,3.4.57,5.25,0,10.32.99,15.29,2.63.94.31,1.98.35,2.97.49,1,.14,2,.25,3.01.34,2,.18,3.21,1.2,3.43,3.24.23,2.15.51,4.3.61,6.46.2,4.23,1.04,8.31,2.65,12.21.54,1.32,1.04,2.76,2.8,2.94l-.13-.11c1.37,1.72,2.72,3.45,4.12,5.14.14.17.53.13.8.19,0,0-.02-.05-.02-.05ZM517.09,365.37c-2.07,2.56-4.16,5.1-6.2,7.68-.34.43-.57,1.02-.63,1.57-.22,1.84-.4,3.69.71,6.47.15-2.08.32-3.17.29-4.24-.06-1.84.63-3.23,1.83-4.63,1.67-1.95,3-4.18,4.48-6.29,1.54-.48,3.21-.72,4.64-2.95-2.25.87-3.86,1.21-5.12,2.41ZM460.22,136.71c2.17-.38,4.07,0,5.8-1.15,2.47-1.64,5.25-2.41,8.25-2.03,1.41.18,2.55-.41,3.62-1.17,1.48-1.05,1.81-2.56.97-4.2-1.12-2.19-3.65-3.47-6.25-2.75-3.02.84-5.65,2.87-8.92,3-2.25,1.57-4.52,3.1-6.72,4.73-1.17.87-.8,2.62.63,3.07.95.3,1.97.38,2.63.5Z"/>
  <path class="cls-1" d="M624.85,450.36c-.65-1.62-2.01-1.9-3.54-1.93-1.28-.03-2.67.2-3.66-1.36,2.32-2.45,1.9-5.42.65-8.53,1.09-.09,1.63-.14,2.43-.21.36,2.12.04,4.52,2.75,5.84,1.03-.39,2.35-.89,3.31-1.26,3.97.84,7.65,1.59,11.32,2.4,2.85.63,5.48.02,8.02-1.23,1.68-.83,3.33-1.72,4.83-3.11-.56.11-1.16.13-1.68.34-1.34.55-2.67,1.14-3.96,1.81-3.19,1.65-6.51,1.19-9.8.57-1.25-.24-2.53-.87-2.41-2.9.58-.31,1.33-.66,2.02-1.1,1.46-.93,1.68-2.44.51-3.65-1.1-1.14-2.21-2.3-3.45-3.29-.63-.5-1.57-.94-2.34-.89-2.48.15-4.92-.21-7.38-.31-1.95-.09-4.22-.03-5.67,1.69-1.42,1.68-3.29,1.89-5.13,1.73-1.67-.15-3.15.17-4.69.6-.97.27-1.97.53-2.97.6-2.02.12-4,.14-6,.79-2.48.8-4.21-.67-4.38-3.35-.1-1.59,0-3.14.97-4.58.53-.78.73-1.88.81-2.86.19-2.31.24-4.64.33-6.96.07-1.83-.34-3.59-1.8-4.72-1.9-1.47-2.03-3.22-1.84-5.4.28-3.3.7-6.62-.19-9.95-.71-2.67-2.05-4.58-4.38-6.19-2.97-2.05-5.74-4.35-9.19-5.61-.66-.24-1.22-.77-1.82-1.18-1.23-.84-1.8-2.03-1.12-3.38,1.64-3.27.32-5.55-2.23-7.54-.45-.35-.92-.73-1.26-1.18-1.22-1.58-.99-3.36.6-4.59.69-.53,1.46-.95,2.18-1.44,2.18-1.51,4.05-3.36,5.39-5.63,1.05-1.77,2.23-3.38,3.71-4.8,1.67-1.59,2.4-3.59,2.4-5.88,0-1.6-.03-3.2.05-4.8.06-1.13.29-2.25.45-3.4,3.1-.7,5.61.6,8.2,1.39,1.83,1.85,3.68,3.68,5.48,5.56,1.61,1.69,3.53,2.47,5.86,2.23,3.39-.35,6.61.21,9.63,1.81,1.68,1.78,3.81,2.53,6.18,2.44,2.55-.1,4.76.74,6.9,1.96.77.99,1.93,1.55,3.03,1.37,3.11-.52,5.61.72,8.11,2.24.59.36,1.35.46,2.03.67,1.18,1.76,2.97,2.17,4.91,2.09,3.01-.12,6.02-.31,9.02-.51.24-.02.46-.3,1.07-.72-1.6-.15-2.85-.34-4.1-.36-1.58-.02-3.17,0-4.74.19-2.08.25-3.98-.23-5.85-1.03-3.21-2.53-6.54-4.71-10.95-4.09-.69.1-1.43-.18-2.14-.28-1.15-1.66-2.79-2.52-4.75-2.51-2.94.01-5.67-.8-8.35-1.86-1.94-1.97-4.29-2.77-7.04-2.57-1.29.09-2.6-.03-3.89,0-1.22.03-2.27-.39-3.17-1.16-1.31-1.13-2.55-2.34-3.86-3.47-.97-.83-2.01-1.59-3.02-2.38-.75-1.22-2-1.62-3.28-1.93-1.41-.33-2.82-.62-4.52-.99.34-4.46-.75-8.52-4.32-11.48-.34-1.98.65-3.49,1.35-5.06.53-1.19,1.23-2.31,1.84-3.46,1.04-1.97,1.96-3.94.44-6.11-.23-.32-.27-.84-.25-1.27.11-2.51-.41-4.95-1.2-7.27-1.72-5.08-.43-10.03.37-15.01.12-.75.79-1.52,1.41-2.04.87-.73,1.92-1.23,2.9-1.83.57-.31,1.13-.61,1.7-.92,2.16-.3,3.37-1.45,3.42-3.72.02-.71-.04-1.53.29-2.11,1.11-1.97,1.31-4.12,1.47-6.28.15-2.01.87-3.57,2.68-4.64,2.13-1.25,2.32-3.35,1.53-5.33-.95-2.39-2.28-4.64-3.52-6.91-.35-.65-1-1.03-2.06-.53-.51,1.62-.74,3.4-.66,5.28.12,2.79-.32,5.5-1.83,7.91-1.18,1.87-1.17,3.76-.52,5.8.84,2.62,1.19,5.33,1.14,7.94-.79.91-1.44,1.66-2.09,2.41-.62.25-1.24.5-1.86.75-1.09.2-2.18.41-3.29.61-1.14-1.57-.66-3.83-2.46-4.92-.67-1.97-1.27-3.97-2.04-5.89-.29-.73-.98-1.29-1.5-1.93-.54-.92-1.08-1.83-1.62-2.75-1.09-3.15-1.5-6.37-1.11-9.69.12-.99.11-1.99.17-2.99.3-.57.6-1.15.9-1.72.47-.86,1.23-1.69,1.34-2.59.28-2.43,1.2-4.68,1.68-7.02.66-3.21.74-6.57-2.17-9.06-.2-4.27-2.6-7.45-5.21-10.53-.37-.77-.79-1.53-1.11-2.32-.37-.92-.65-1.88-.98-2.81-.25-.7.34-1.82-.96-2.04-.59,3.41-.41,3.92,2.61,7.57,1.74,3.5,3.48,6.99,5.22,10.49.49,1.5,1.16,2.97,1.41,4.51.22,1.38.36,3.01-.15,4.24-1.24,2.99-1.33,6.18-2.07,9.25-.31.57-.62,1.13-.93,1.7-1.96,4.64-1.86,9.14.83,13.49.6.86,1.2,1.72,1.8,2.59.41,1.32.69,2.7,1.25,3.95.61,1.37,1.47,2.62,2.22,3.92,1.21,2.62,1.09,5.37.79,8.13-.14,1.3-.19,2.64-.57,3.87-1.05,3.31-.74,6.54.01,9.85.86,3.8,1.59,7.64,2.29,11.47.14.8,0,1.71-.23,2.5-.29.96-.8,1.86-1.24,2.78-1.13,2.34-2.27,4.67-3.49,7.17-.86.19-1.83.42-2.82.61-1.6.31-3.1.88-4.3,1.98-2.16,1.99-4.63,2.86-7.56,2.58-1.78-.17-3.44.13-4.81,1.53-1.1,1.12-2.57,1.22-4.24,1.01-1.08-1.38-2.19-2.91-3.41-4.33-1.54-1.78-3.25-3.39-5.82-3.41-1.77-.01-2.85-1.13-3.11-2.55-.41-2.24-1.79-3.37-3.47-4.66-3.59-2.76-6.68-6.01-7.57-10.75-.33-1.77-1.03-3.18-3-3.9-1.12-.41-2.25-1.49-2.84-2.56-1.51-2.74-3.89-4.67-6.04-6.78-1.66-1.64-2.98-3.51-4.44-5.28-2.91-3.52-4.9-7.51-6.98-11.5-1.12-2.15-2.8-4.04-4.4-5.9-1.14-1.32-2.37-2.51-2.84-4.33,4.5.4,6.06-.22,8.69-3.44.36-.44.84-.94.9-1.45.16-1.35,1.04-2,2.05-2.63.49-.31,1.07-.55,1.45-.96,2.03-2.24,4.62-2.49,7.18-1.57,2.25.81,3.86.45,5.52-1.14.56-.53,1.54-.85,2.34-.86,2.41-.02,4.89-.71,7.19.85,1.13.76,2.73.63,3.75-.16,2.28-1.76,4.56-1.46,6.98-.6.85.74,1.62,1.6,2.56,2.2,2.82,1.82,4.35,1.71,6.99-.33,1.45-1.12,1.48-1.42.48-4.02-.63-1.22-1.25-2.43-1.95-3.79,1.63-.29,2.91-.54,4.19-.75,2.06-.34,3.28-1.47,3.62-4.1-.78.71-1.24,1.18-1.76,1.57-.55.42-1.11.86-1.74,1.12-.66.27-1.41.34-2.12.47-.72.13-1.44.21-2.16.33-.29.05-.57.11-.85.2-.83.27-1.24,1.47-.65,2.15.94,1.1,1.98,2.11,2.97,3.16.24,1.63-.48,2.65-1.91,3.44-1.27.7-2.38.76-3.62.03-1.22-.72-2.5-1.35-3.75-2.02-2-2.09-4.24-2.29-6.65-.78-1.78,1.11-3.51,1.2-5.32.08-1.15-.71-2.34-1.12-3.72-.55-.51.21-1.19.34-1.7.2-1.81-.52-3.09.3-4.31,1.43-.42.39-.91.72-1.53,1.2-1.02-.22-2.13-.47-3.24-.71-1.11-.25-2.22-.5-3.59-.81-.12-1.55-.38-2.98-.29-4.38.2-3.15-1.51-4.82-4.19-5.86-1.61-.62-3.75.94-3.01,2.4,1.67,3.31.75,5.8-1.61,8.18-.28.28-.44.78-.48,1.19-.26,2.76-1.91,4.36-4.25,5.61-1.51.81-2.79,2.03-4.21,3.1-.66-.23-1.32-.59-2.01-.67-2.52-.31-4.28-1.75-5.58-3.77-1.05-1.62-2.15-2.94-4.12-3.63-1.28-.45-2.53-1.56-3.33-2.7-1.03-1.45-2.05-2.72-3.64-3.61-.59-.33-.94-1.43-1.04-2.22-.2-1.58-.12-3.19-.21-4.79-.12-2.24.05-4.34,2.01-5.9,1.3-1.03,1.31-2.43,1.04-3.96-.45-2.58-.84-5.17-2.24-7.45-.66-1.07-.67-2.13-.47-3.34.28-1.71.36-3.46.52-5.19.27-2.81-.6-5.11-2.93-6.85-2.62-1.97-3.61-4.77-3.97-7.92-.28-2.48.17-4.61,2.31-6.31,2.62-.56,5.81.72,8.05-1.91,1.85-.21,3.73-.27,5.53-.68,1.94-.45,3.36.1,4.54,1.57,1.8,3.34,2.74,4.02,6.03,3.22,2.19-.54,4.21-.62,6.32.07.53.17,1.14.22,1.71.18.55-.04,1.28.83,1.68-.22-.1-.16-.16-.36-.26-.38-3.15-.86-6.23-2.08-9.62-.81-1.74.65-3.41.19-4.51-1.54-.23-.36-.56-.64-.85-.96-.4-1.33-1.12-2.5-2.63-2.41-2.81.16-5.71.08-8.27,1.61-1.8.37-3.51,1.53-5.6.56.28-1.6.64-3.24.85-4.9.2-1.58.29-3.18.35-4.77.06-1.74.07-3.49.02-5.23-.09-2.99.71-5.77,2.02-8.38,1.12-2.22,2.19-4.43,2.58-6.9.22-1.38.95-2.4,2.05-3.21,2.01-1.48,3.84-3.12,4.83-5.49,3.22-2.64,4.2-6.9,7.11-9.78,1.63-1.62,2.09-3.75,1.99-6.02-.09-2.03-.01-4.07-.14-6.1-.17-2.66-.06-5.16,1.78-7.39.58-.7.73-1.88.81-2.86.12-1.44.07-2.9-.01-4.35-.1-1.63.01-3.17,1.03-4.55,1.12-1.52,1.27-3.1.5-4.91-.49-1.16-.6-2.51-.7-3.79-.13-1.73-.09-3.48-.13-5.22-.07-2.67-.66-5.19-2.33-7.34-.84-1.09-1.3-2.28-1.05-3.65.31-1.69-.58-2.73-1.8-3.66-.91-.7-1.96-1.33-2.6-2.24-1.41-1.99-2.02-4.19-.33-7.04.73-.85,3.03-.4,3.81-2.26,0,0-.13.11-.13.11,3.7-.27,7.43-.29,11.07-.89,2.71-.45,5.68-.88,7.43-3.57l-.14.1c1.51-.05,2.54-.66,2.73-2.29.41-.4.82-.81,1.22-1.21,1.04-.2,1.44-.87,1.41-1.87l-.1.16c1.39-.82,1.74-2.17,1.84-3.64l-.15.11c.14.01.31.08.43.03,3.28-1.4,6.63-1.61,10.15-.99,2.13.38,4.34.31,6.52.35,1.15.02,2.36.02,3.44-.31,4-1.23,8.01-.63,12.17-.52.36,1.22.73,2.29.97,3.38.25,1.12.36,2.27.56,3.57-.6.46-1.25.82-1.69,1.34-1.92,2.27-2.06,5-.02,7.03,1.92,1.92,4.07,3.68,6.38,5.1,1.27.78,3.08.65,4.61,1.05.8.21,1.71.49,2.25,1.05,2.16,2.23,2.72,6.46,1.39,9.3-.3.65-.57,1.31-.85,1.97,0,0,.12-.13.12-.13-.61.57-1.33,1.06-1.79,1.73-.64.93-.95,2.12-1.66,2.97-1.29,1.55-1.61,3.01-.39,4.72.32.45.46,1.04.68,1.55-.2.47-.26,1.02-.55,1.23-2.08,1.46-3.35,3.58-4.74,5.61-1.25,1.82-2.23,3.72-2.25,6.02,0,.7-.19,1.44-.46,2.09-.46,1.07-.18,1.93.36,2.87,1.09,1.9,2.35,3.61,4.08,5.03,2.35,1.93,4.56,4.05,6.77,6.15.72.68,1.59,1.46,1.84,2.35.9,3.2,1.57,6.47,2.3,9.72.05.23-.18.51-.36.96-2.02.54-4.19.55-6.34.34-3.11-.32-6.05-.07-8.82,1.59-.95.57-2.23.59-3.29,1.01-1.04.41-2.01,1.02-3.01,1.54-2.75.79-4.25,3.38-6.82,4.74-1.97-.77-3.82-.34-5.46,1.18-.74.68-1.66,1.18-2.38,1.87-1.67,1.59-3.38,3.16-4.87,4.92-1.17,1.38-.33,3.28,1.47,3.61,1.13.21,2.3.27,3.45.37,4.59.4,4.89.26,5.72-4.27.41-2.22,1.4-3.96,2.76-5.73,1.88-2.44,4.42-4.12,6.47-6.33,2.85-.6,5.67-1.22,8.28-2.63.86-.47,1.93-.81,2.9-.79,3.75.08,7.5.34,11.39.53,1,1.17.93,2.53.13,3.9-.37.62-.94,1.13-1.27,1.76-.85,1.65-1,3.43-.1,5.04,1.63,2.89,3.54,5.63,5.16,8.52.75,1.34,1.56,2.42,3.02,2.95,1.35.5,2.07,1.59,2.48,2.87.84,2.63,1.74,5.24,2.35,7.93.45,1.96,1.18,3.43,3,4.51,2.4,1.43,4.22,3.54,5.74,5.89,1.33,2.06,2.27,4.41,4.37,5.91.11.08.22.21.26.34,1.33,3.8,4.2,6.59,6.35,9.86,1.13,1.73,2.34,3.28,3.84,4.67.84.78,1.56,1.73,2.23,2.67.97,1.35,2.11,2.2,3.85,2.54,3.07.6,5.01,2.85,6.47,5.44,1.12,1.98,1.97,4.11,3.04,6.41-2.02.57-4.14-2.33-5.65.56.24,2.09,1.45,3.62,3.54,4.8-.73,1.86-1.4,3.57-2.19,5.59,1.47,1.97,3.12,4.18,3.32,7.07.03.49.54,1.08.99,1.38,2.19,1.42,3.07,3.84,4.47,5.84.56.8,1.03,1.86,1.03,2.81.02,2.92,1.78,4.46,4.06,5.69.89.48,1.84.88,2.69,1.44.7.47,1.28,1.12,2.06,1.81-.75,2.19-1.86,4.28-.95,6.67.62,1.63,1.88,2.52,3.28,3.32-.24,3.31,1.48,5.91,2.95,8.5.95,1.68,1.4,3.16.62,4.91-1.16,2.59-.79,5.4-1.14,8.1-.2,1.5.38,3.08,1.58,4.37,3.01,3.24,5.01,7.14,6.62,11.2,1.08,2.73,2.38,5.28,4.22,7.59.61.77,1.17,1.7,1.41,2.64.69,2.71,1.89,5.19,3.24,7.6,2.4,4.31,4.45,8.82,7.39,12.82.34.46.59,1.01.75,1.56,1,3.46,3.15,6.17,5.63,8.67,2.18,2.2,3.71,4.71,4.69,7.72,1.03,3.15,2.67,6.09,4.05,9.12.18.4.5.76.58,1.17.92,4.96,3.83,8.95,6.29,13.18,1.96,3.37,3.5,6.98,5.27,10.45.53,1.03,1.33,1.92,1.81,2.96.47,1.02.85,2.14,1,3.25.16,1.18.7,2.16,1.09,3.22,1.49,4.14,3.44,7.97,6.16,11.43.42.53.51,1.34.67,2.04.63,2.72,1.55,5.29,3.74,7.3-.19,1.19-.36,2.31-.53,3.39,1.64,2.24,3.23,4.47,4.89,6.64.62.8,1.3,1.71,2.17,2.12,2.36,1.11,3.49,3.43,5.32,5.04.63.55,1.14,1.37,1.42,2.16,1.12,3.22,3.16,5.86,5.49,8.79.38.03,1.08.04,1.76.16,1.96.35,3.06,1.73,3.51,3.49.64,2.55,2.29,3.54,4.74,3.65.72.03,1.48.07,2.14.33.45.17.77.71,1.28,1.23-1.29,1.35-2.67,1.47-4.12,1.31-2.19-.25-4.18-.93-6-2.32-1.74-1.33-3.35-.76-4.09,1.31-1.1,3.11-.79,6.31-.3,9.48.2,1.27.57,2.52.92,3.99-1.02.24-1.82.51-2.64.6-1.01.1-2.04.05-3.05.05-18.93,0-37.85,0-56.78,0-1.73,0-3.47-.12-5.1-.18-1.55-1.29-1.69-3.8-4.05-3.88,0,0-.14-.06-.14-.06-.5-1.97-1.85-3.18-3.59-4.05l.12.11c-.59-.58-1.1-1.29-1.78-1.73-3.49-2.26-7.03-4.45-10.55-6.67-.41-.41-.82-.81-1.22-1.22-.45-1.17-.69-2.52-2.29-2.72l.12.12c-.89-1.72-2.12-3.05-4.05-3.59-.11-.11-.23-.22-.34-.34-.29-.63-.42-1.48-.91-1.84-1.03-.75-2.19-1.48-3.41-1.8-2.34-.6-4.2-1.8-5.84-3.51-.56-.58-1.43-.85-2.16-1.27l.13.12ZM557.7,193c3.37-2.34,4.56-4.9,4.5-9.72-.21.19-.52.33-.62.57-.39.92-.89,1.84-1.04,2.81-.36,2.39-1.48,4.3-3.25,5.89-2.06.79-2.62,2.73-3.44,4.46-.64.57-1.32,1.1-1.92,1.71-1.56,1.57-3.24,2.86-5.57,2.98-.42.02-.87.15-1.24.36-2.51,1.46-5.2,1.5-7.97,1.18-1.91-.22-3.75-.01-5.17,1.53-2.66,1.49-5.49,2.14-8.56,1.95-2.55-.16-5.12-.08-7.68-.11-.42-.4-.85-.8-1.72-1.63.21,1.45.67,1.83,1.39,1.98,1.2,1.33,2.84,1.27,4.4,1.24,2.01-.04,4.01-.4,6.01-.34,2.62.08,4.77-.74,6.53-2.65,1.68-.28,3.25-1.24,5.05-.69,2.48.75,4.82.36,7.09-.84.62-.33,1.35-.52,2.05-.64,3.53-.6,5.96-2.65,7.7-5.66,1.15-1.46,2.3-2.92,3.45-4.39Z"/>
  <path class="cls-1" d="M645.96,37.22c-.72-.71-1.41-1.46-2.18-2.11-1.98-1.66-2.79-3.66-1.82-6.46.87-.37,1.9-.86,2.96-1.26,2.31-.88,4.64-1.68,6.95-2.57,4.48-1.73,8.83-3.71,12.41-7.62.65,1.1,1.2,1.74,1.43,2.48,1.47,4.72,2.9,9.44,4.28,14.19,2.04,6.98,4.37,13.85,7.08,20.6,2.59,6.47,5.05,12.99,7.44,19.54.89,2.45,1.49,5.01,2.09,7.55,1.18,4.98,2.87,9.75,5.44,14.19,1.25,2.16,2.02,4.46,2.62,6.89,1.21,4.93,2.53,9.85,4.13,14.67,1.14,3.42,2.81,6.66,4.35,10.24-.68.75-1.32,1.75-2.21,2.4-2.43,1.78-4.02,4.14-5.3,6.8-.5,1.04-1.06,2.1-1.84,2.93-1.79,1.91-2.66,4.16-2.7,6.71-.04,2.26-.58,4.24-2.02,6.06-1.52,1.92-1.7,4.29-1.59,6.65.1,2.03.43,4.06-1.11,5.79-.26.29-.33.81-.37,1.23-.29,2.87-.72,5.74-.77,8.61-.05,2.83-.58,5.47-1.92,7.95-.96,1.79-2.23,3.51-2.77,5.42-1.12,3.95-3.2,7.39-5,11-.9,1.8-1.36,3.83-1.88,5.8-.57,2.19-.24,4.38.79,6.36.93,1.78,1.05,3.61.87,5.5-.22,2.31-.54,4.61-.83,6.92-.21,1.7-1.27,2.86-2.48,3.97-1.69,1.55-3.43,3.07-4.94,4.79-.83.93-1.24,2.23-2.05,3.77-4.32,1.31-8.45.69-11.95-2.97-1.2-1.26-2.42-2.51-3.66-3.74-1.02-1.02-2.17-1.71-3.56-2.32-2.48-1.08-4.86-2.59-6.2-5.18-.13-.26-.21-.62-.43-.75-3.19-1.89-3.84-5.66-6.11-8.23-.28-.32-.52-.71-.67-1.11-1.43-3.69-4.18-6.21-7.32-8.41-1.43-1-2.9-1.95-4.24-3.06-.99-.83-1.91-1.8-2.67-2.84-1.02-1.4-1.9-2.86-3.26-4.03-.95-.81-1.48-2.12-2.18-3.22-.38-.6-.56-1.52-1.09-1.78-1.25-.62-1.5-1.61-1.67-2.81-.18-1.26-.52-2.5-.79-3.78,1.33-.77,2.43-1.4,3.53-2.04,1.32-.44,2.21-1.32,2.66-2.63,1.14-1.17,2.29-2.34,3.43-3.51,1.83.37,3.67.73,5.5,1.1,1.13.23,2.26.45,3.37.73,1.26.31,2.53.64,3.76,1.04,1.33.43,1.77-1.45,3.05-1.1.27.07.58.03.87-.02,2.4-.43,4.81-.85,7.2-1.33.16-.03.24-.44.53-1.01-1.58.07-2.97.2-4.35.54-.84.2-1.67.58-2.51.59-4.61.07-9.27.72-13.72-1.28-1.29-.58-2.81-.89-4.05.38-1.66.68-2.83,1.85-3.49,3.52-.87.86-1.74,1.73-2.62,2.59-.56-.04-1.13-.09-1.8-.14-.17-1.04-.2-2.06-.51-2.98-.32-.94-1.04-1.74-1.36-2.69-.46-1.34-.71-2.75-1.04-4.14-.03-.14,0-.29,0-.43-.15-2.15.18-4.49-.6-6.38-.71-1.74-2.61-3-3.99-4.46-.2-.21-.43-.39-.6-.62-2.72-3.78-5.81-7.15-9.79-9.67-.58-.37-.76-1.38-1.25-2.34.77-.32,1.24-.64,1.75-.7,2.26-.27,3.57-1.51,4.4-3.61,1.34-3.36,1.98-3.59,5.56-2.75.42.1.84.19,1.27.29.28.5.54,1.01.84,1.49,2.04,3.23,4.63,4.25,9.05,3.48-1.94-1.69-5.03-.31-6.76-2.91.84-.35,1.55-.71,2.29-.94,1.81-.56,3.52-1.23,4.64-2.87,1.32-.19,2.56-.27,3.48,1.05.39.56,1.1.9,1.69,1.3.49.33.68,1.41,1.67.73-.36-2.14-2.27-2.93-3.69-4-1.01-.75-2.48-.73-3.5.5-2.87,1.82-5.96,2.52-9.33,1.78-3.88-2.69-6.41-2.15-8.32,1.8-.25.52-.38,1.1-.63,1.61-.74,1.51-2.08,1.82-3.62,1.83-1.49,0-2.64-.61-2.99-2.01-.79-3.17-2.5-5.79-4.42-8.36-.67-.9-1.11-2.04-1.38-3.14-.42-1.67-.52-3.38-1.81-4.77-.51-.55-.63-1.6-.67-2.44-.07-1.44-.01-2.89.14-4.32.14-1.36-.04-2.55-.86-3.68-.68-.93-1.23-1.95-1.81-2.95-.28-.49-.75-1.04-.71-1.53.39-4.64-2.33-7.35-5.86-9.65.17-.8.34-1.62.51-2.44,0,0-.12.13-.12.13,2.07-.74,2.8-2.37,2.89-4.4.12-2.7-.62-5.21-2.21-7.35-2.6-3.5-5.25-6.91-5.84-11.44-.16-1.24-1.31-1.99-2.44-2.26-2.57-.62-3.35-2.39-3.67-4.76-.32-2.43-.86-4.74.39-7.17.77-1.5.7-3.37.08-5.11-.73-2.07-.85-4.21-.72-6.43.12-2-.2-4.05-.49-6.06-.3-2.1.68-3.35,2.46-4.07,1.2-.49,2.46-.96,3.74-1.1,3.05-.33,5.56-1.56,7.51-3.92,0,0-.12.15-.12.15,2.79-1.2,5.36-.6,7.97,1.25,2.38-.9,4.78-1.84,7.21-2.71,1.76-.63,3.52-1.35,5.35-1.67,1.68-.3,2.97-.94,4.06-2.22.84-.98,1.8-1.87,2.79-2.71.64-.54,1.33-.38,2,.49-.24.65-.53,1.41-.81,2.18.87,1.63,1.74,3.26,2.59,4.86,2.6.97,4.45-.73,6.63-1.84.73.27,1.5.68,2.31.84,1.27.25,2.45.28,3.69-.59,2.31-1.63,4.96-2.17,7.84-1.91,4.08.36,8.08-.44,12.07-1.19.69-.13,1.39-.24,2.37-.4.37,3.95,1.89,7.05,5.63,8.57.93.81,1.87,1.62,2.8,2.43.4,1.18,1.41,1.58,2.48,1.91,1.15.89,2.3,1.78,3.46,2.66,1.46,1.16,2.92,2.32,4.38,3.48.55,2.09,1.26,4.15,1.62,6.27.51,3.01.6,6.03-.52,9-.64,1.69-1.44,3.06-3.17,3.89-1.96.94-3.73,2.19-4.97,4.09-.81,1.25-2,2.15-3.46,2.48-2.68.61-3.76,2.47-4.14,4.95-.13.84-.24,1.68-.37,2.66-1.5.41-2.85.91-4.26,1.16-4.23.75-7.93,2.58-11.28,5.21-2.44-.08-4.86-.36-7.31,0-.87.13-1.85-.53-2.79-.84-.16-1.16-.62-2.12-1.74-2.64-1.53-1.25-3.18-.91-4.27.34-1.43,1.63-3.35,2.22-5.09,3.2-.9.5-1.83.95-2.95,1.53.62.23.94.48,1.14.4,2.56-.92,5.23-1.67,7.18-3.72,1-1.05,2.16-1.37,3.51-1.32.59.87,1.18,1.74,1.78,2.61,1.23,1.62,2.09,3.28,2.11,5.47.04,3.47.28,6.97.81,10.4.48,3.07.51,6.05-.26,9.05-.62.58-1.2,1.23-1.87,1.74-2.05,1.57-1.99,3.52-1.01,6.56.36-2.09.36-3.41.85-4.5.51-1.13,1.52-2.03,2.3-3.04.08-.1.08-.27.12-.41,2.02-1.97,1.65-4.51,1.48-6.91-.33-4.59-.87-9.16-1.21-13.75-.07-.91.36-1.86.59-2.91,1.69-.06,3.13-.04,4.55-.19.82-.08,1.61-.44,2.41-.67,1.95-.91,3.91-1.8,5.85-2.72,2.87-1.37,5.85-2.15,9.16-2.1.58,3.15.29,5.91-1.33,8.5-.46.73-.87,1.52-1.12,2.33-.46,1.51-.77,3.07-1.19,4.6-.38,1.38-.78,2.76-1.24,4.11-.49,1.44-1.47,2.69-1.97,4.48,2.74-.92,2.14-4,4.28-5.05.65.54,1.31,1.08,1.96,1.61q1.76,2.72,4.55,3.7c-1.56-1.59-2.81-2.86-4.06-4.14-.32-.65-.54-1.37-.97-1.93-1.29-1.68-1.22-3.51-.72-5.39.22-.84.43-1.74.91-2.44,2.27-3.29,2.64-6.98,2.53-10.81-.02-.72.05-1.45.09-2.17.26-4.52.61-4.96,5.05-6.31.25-.08.56.02.62.03,1.52,1.16,2.89,2.2,4.26,3.25.83.97,1.53,2.11,2.51,2.89,2.52,2,2.57,1.94,3.61,4.74.73-2.04.52-3.51-1.19-4.68-1.54-1.05-3.01-2.21-4.52-3.32-.9-1.61-3.02-2.38-3.13-4.53,1.65-2.75,1.65-2.99,4.53-4.39,2.15-1.04,3.28-2.62,4.06-4.77.41-1.14.26-2.66,1.69-3.4.4.09.86.1,1.22.29,3.22,1.69,6.48,3.21,10.23,3.31.68.02,1.35.49,2.02.76.51.49.96,1.07,1.54,1.44.63.4.87,1.52,2.18,1.09-.67-1.59-1.76-2.53-3.36-2.94-.76-1.25-1.98-1.44-3.3-1.72-2.24-.48-4.57-.97-6.59-2.01-3.46-1.78-4.95-1.6-5.21-7.02-.1-2.05-.29-4.41-2.4-5.78-1.06-1.67-2.55-2.79-4.38-3.48-.81-1.32-2-2.16-3.44-2.67-.64-.97-1.52-1.55-2.68-1.69-.43-1.29-1.31-2.16-2.55-2.69ZM646.85,169.43c.48-.86,1.06-1.68,1.39-2.6.18-.5-.06-1.15-.12-1.73-.19-.01-.38-.03-.58-.04-.35,1.35-.7,2.7-1.05,4.06-.85.54-1.37,1.22-1.11,3.13.74-1.42,1.1-2.13,1.47-2.83ZM638.92,150.75c-.86-.6-1.72-1.2-2.58-1.8-2.04-4.71-3.21-9.83-6.7-13.84-.74-.85-1.37-1.79-2.05-2.69-1.95-3.13-1.46-6.36-.32-9.57,1.29-3.61,2.21-7.37,5-10.94-2.24.61-2.94,1.84-3.41,3.18-1.22,3.4-2.3,6.84-3.55,10.23-1.09,2.97-.3,5.37,1.91,7.45.75,1.55,1.2,3.39,2.33,4.58,1.88,1.99,2.62,4.41,3.57,6.81.73,1.84,1.08,3.93,2.84,5.23.87.6,1.73,1.19,2.6,1.79.16,1.29.26,2.59.48,3.87.3,1.77.66,1.99,3.81,2.34-1.75-1.1-2.59-2.26-2.64-4.02-.03-.88-.83-1.74-1.28-2.61ZM641.54,183.03c-.56-.8-1.22-1.38-2.9-1.05,1.18.67,1.87,1.05,2.55,1.44,3.42,2.67,6.51,1.14,9.56-.91-3.05.79-6.1,1.38-9.21.52ZM656.02,140.64c.66.93,1.38,1.83,1.98,2.8.6.98,1.01,2.07,1.62,3.04.53.85.68,2.03,2.35,2.93-1.32-3.93-2.54-7.06-5.51-9.17-.77-1.39-1.42-2.85-2.32-4.15-1.84-2.64-2.59-5.45-1.84-8.62.58-2.48.32-4.9-.72-7.21-.84-1.88-1.2-3.85-1.28-5.89-.04-1.01-.12-2.03-.35-3.01-.13-.54-.6-1-1.33-2.16.28,3.26.37,5.69.74,8.08.22,1.41,1.01,2.72,1.29,4.12.31,1.54.4,3.15.43,4.73.03,1.3-.28,2.6-.22,3.89.06,1.28.11,2.7.69,3.78,1.27,2.4,2.42,4.93,4.47,6.84ZM637.98,180.23c-1.61-1.58-2.73-1.83-4.25-2.14.82,1.73,2.04,1.81,4.25,2.14Z"/>
  <path class="cls-1" d="M723.13,521.21c.57,4.24.52,16.25-.11,19.91-.8-.23-1.69-.29-2.33-.71-1.58-1.03-3.04-2.25-4.56-3.37-3.66-2.68-7.64-4.74-11.97-6.16-5.11-1.67-10.35-1.95-15.53-.98-9.72,1.82-16.2,7.69-19.17,17.06-2.76,8.71-2.45,17.52.61,26.13,2.63,7.37,8.08,11.93,15.37,14.36,4.89,1.63,9.95,2.06,15.08,1.65.56-.04,1.1-.27,1.56-.38,1-3.04,1.17-12.2.32-17.13-5.12-1.45-10.6.29-15.72-1.05-1.1-3.19-1.25-10.2-.3-14.92.72-.15,1.54-.47,2.36-.48,10.77-.04,21.54-.03,32.31-.02.71,0,1.43.17,2.35.29.21,1,.59,1.96.59,2.92.04,12.51.03,25.01,0,37.52,0,.7-.24,1.4-.38,2.18-.97.45-1.85.96-2.8,1.29-11.66,4.01-23.58,6.36-35.98,5.33-10.8-.9-20.35-4.62-28.04-12.51-5.9-6.06-9.08-13.45-10.53-21.63-1.46-8.24-1.39-16.48.48-24.69,3.61-15.81,15.78-28.96,34.76-31.72,8.89-1.29,17.7-1.1,26.43.97,4.82,1.14,9.41,3.03,13.86,5.2.51.25.94.65,1.34.93Z"/>
  <path class="cls-1" d="M38.16,603.02c-.19-1.57-.39-2.54-.42-3.52-.58-17.18-.24-79.77.48-83.93.74-.14,1.56-.42,2.38-.42,20.23-.02,40.46-.02,60.69-.01.71,0,1.42.12,2.31.2.26.7.69,1.35.71,2.01.15,4.48.45,8.97-.24,13.62-1.12.26-2.07.65-3.03.68-2.91.1-5.82.07-8.73.07-8.3,0-16.59-.01-24.89.01-1.72,0-3.44.15-5.28.23-1.24,4.24-.52,8.31-.63,12.31-.06,1.98-.47,4.08.73,5.9,1.58.78,3.21.51,4.78.51,9.46.03,18.92,0,28.38.02,1.59,0,3.18.08,4.98.13.27,1.1.72,2.04.7,2.98-.07,4.31.48,8.67-.45,13.16-4.46.31-8.67.13-12.87.16-4.22.03-8.44-.02-12.66.01-4.21.03-8.42-.15-12.76.17-.29.78-.67,1.41-.75,2.08-.48,4.36-.15,13.71.57,16.64,1.36.8,2.99.51,4.54.52,10.63.03,21.25.02,31.88.02,1.59,0,3.17,0,4.85,0,.36.89.83,1.53.86,2.18.2,4.49.43,8.98-.2,13.66-1.12.21-2.08.53-3.04.55-3.35.07-6.69.04-10.04.04-15.72,0-31.44,0-47.16,0h-5.69Z"/>
  <path class="cls-1" d="M184.38,515.12c1.47,1.53,1.34,2.9,1.3,4.17-.11,3.88.54,7.81-.56,11.67-1.72.97-3.49.75-5.2.76-10.33.03-20.67,0-31,.02-1.73,0-3.47.11-5.36.18-.29.95-.68,1.73-.75,2.54-.46,5.84-.15,12.73.67,15.72,1.38.8,3.01.51,4.57.52,9.46.03,18.92,0,28.38.02,1.58,0,3.17.09,4.87.15.31.83.74,1.47.76,2.13.17,4.48.45,8.97-.17,13.26-1.68,1.29-3.34.87-4.89.87-9.61.04-19.21,0-28.82.04-1.57,0-3.2-.31-5.04.68-.86,4.39-.27,9.04-.39,13.64-.04,1.56-.3,3.22,1.07,4.95,4.21.28,8.71.1,13.2.13,4.66.03,9.32,0,13.97,0h13.66c.37.95.84,1.7.94,2.5.53,4.51.16,10.65-.76,13.53-1.56.59-3.32.39-5.03.39-16.45.02-32.9.01-49.35,0-2.62,0-5.24.02-7.86-.02-.99-.02-1.98-.19-3.17-.31-.2-.94-.44-1.75-.53-2.58-.1-.86-.06-1.74-.06-2.62,0-25.6,0-51.19,0-76.79,0-1.71-.24-3.48.45-4.83.38-.33.47-.45.6-.51.12-.06.28-.1.42-.1,20.08-.05,40.17-.1,60.25-.14,1.31,0,2.61,0,3.82,0Z"/>
  <path class="cls-1" d="M224.51,567.71c-.17.43-.54.95-.54,1.48-.06,4.94-.09,9.88-.06,14.82,0,.68.34,1.36.48,1.89,1.69.99,3.33.66,4.89.67,10.62.03,21.24.01,31.86.02,1.58,0,3.16.08,4.89.13.26.85.63,1.51.65,2.18.08,4.47.37,8.96-.2,13.35-1.71,1.05-3.34.74-4.9.74-10.18.03-20.37.02-30.55.02-8.44,0-16.88,0-25.31,0-1.58,0-3.16-.1-4.9-.16-.26-1-.58-1.8-.66-2.62-.12-1.15-.07-2.32-.07-3.49,0-25.15,0-50.29,0-75.44,0-1.86-.23-3.77.57-5.79.81-.13,1.63-.38,2.46-.38,20.22-.02,40.44-.02,60.66,0,.71,0,1.41.13,2.16.2,1.12,1.66.77,3.44.82,5.14.06,1.74.05,3.49,0,5.23-.04,1.71-.16,3.43-.24,5.04-1.84,1.23-3.63.96-5.33.97-10.47.03-20.95,0-31.42.03-1.72,0-3.43.16-5.32.26-.23.92-.5,1.59-.55,2.27-.38,5.36-.12,12.74.52,15.67,1.32,1.14,2.99.75,4.54.75,9.6.04,19.2.01,28.8.03,1.58,0,3.16.11,4.89.17.29,1.01.7,1.81.72,2.61.09,4.33.38,8.67-.2,12.77-1.77,1.24-3.42.85-4.97.85-9.6.04-19.2,0-28.8.04-1.57,0-3.2-.28-4.87.53Z"/>
  <path class="cls-1" d="M304.37,577.76c1.71-.28,2.56.89,3.58,1.63,5.47,3.99,11.47,6.81,18.05,8.43,5.44,1.34,10.92,1.84,16.4.49,1.94-.48,3.94-1.2,5.58-2.3,4.89-3.27,4.9-9.42.02-12.68-1.78-1.19-3.87-2.05-5.93-2.63-3.77-1.07-7.63-1.81-11.45-2.7-4.26-.99-8.4-2.29-12.36-4.18-9.37-4.47-13.85-11.89-13.98-22.23-.1-8.53,3.33-15.16,10.04-20.23,4.98-3.76,10.62-6.01,16.71-7.07,12.35-2.14,24.31-.22,36.04,3.74.94.32,1.81.86,2.79,1.35.67,2.18.33,4.36.39,6.51.05,2.18.06,4.36,0,6.54-.06,2.12.34,4.3-.39,6.27-1.65.51-2.4-.6-3.28-1.22-4.93-3.46-10.26-6.05-16.15-7.4-4.57-1.05-9.19-1.41-13.85-.53-2.31.44-4.48,1.24-6.44,2.54-5.14,3.41-4.83,10.61.8,13.01,2.13.91,4.35,1.65,6.58,2.25,5.61,1.52,11.29,2.77,16.85,4.42,2.76.82,5.42,2.1,7.97,3.47,6.95,3.74,10.7,9.68,11.35,17.5.89,10.77-3.01,19.33-12.08,25.39-4.3,2.87-9.06,4.67-14.11,5.53-13.95,2.39-27.51.85-40.66-4.36-.54-.21-1.06-.49-1.59-.72-.88-.37-1.51-1.04-1.5-1.96.03-6.09.13-12.18.21-18.27,0-.12.15-.24.39-.59Z"/>
  <path class="cls-1" d="M459.12,602.21c-.44.32-.66.61-.89.62-1.59.1-3.19.18-4.79.18-5.22,0-10.44-.03-15.77-.05-2.58-5.76-3.56-11.84-5.96-17.53-4.72-.87-9.37-.34-13.98-.43-4.5-.08-9,0-13.6.02-.54,1.1-1.09,1.95-1.39,2.88-1.16,3.59-2.24,7.21-3.37,10.81-.39,1.24-.82,2.47-1.26,3.8-3.48.97-6.98.42-10.42.48-3.47.07-6.95.17-10.33-.14-.86-1.97.2-3.39.68-4.83,4.65-13.91,9.38-27.8,14.07-41.7,4.05-11.97,8.07-23.95,12.13-35.91.56-1.64,1.21-3.25,1.78-4.76,3.31-.73,18.74-.86,23.59-.25,1.48,2.72,17.15,48.29,28.57,83.17.4,1.22.65,2.48.94,3.62ZM417.66,541c-.58,1-.87,1.34-.99,1.74-2.55,8.16-5.09,16.32-7.6,24.49-.15.5-.02,1.09-.02,1.95,5.39.42,10.59.19,15.78.15.52,0,1.03-.33,1.51-.49-.34-3.26-4.98-19.18-7.54-25.95-.18-.49-.54-.91-1.14-1.88Z"/>
  <path class="cls-1" d="M576.26,602.8c-1.22-1.8-.89-3.45-.89-5.02-.03-7.56-.01-15.12-.01-22.68,0-18.18,0-36.35.02-54.53,0-1.71-.39-3.52.92-5.17.45-.08,1.01-.28,1.57-.28,18.34,0,36.67,0,55.01.04.41,0,.82.22,1.3.35.22.53.61,1.06.62,1.6.07,3.92.1,7.85.07,11.77,0,.69-.35,1.37-.53,2-1.65.79-3.27.48-4.84.49-9.02.03-18.05,0-27.07.03-1.56,0-3.2-.33-4.65.5-1.06,3.53-1.08,11.4-.04,15.05,1.34.73,2.82.46,4.25.46,8.3.03,16.59,0,24.89.02,1.42,0,2.85.13,4.17.2.93,3.39,1.05,10.69.33,15.38-1.35,1.12-3.01.7-4.56.71-8,.05-16.01.02-24.01.03-1.59,0-3.17.09-4.87.15-.32.82-.78,1.46-.79,2.11-.05,6.25-.03,12.5,0,18.75,0,.41.25.82.41,1.31,1.26.97,2.76.61,4.17.61,9.17.03,18.34.02,27.51.02,1.44,0,2.89,0,4.48,0,.41.71,1.04,1.31,1.05,1.92.04,4.35-.04,8.7-.11,13.05,0,.26-.25.51-.5.98-.69.11-1.52.34-2.36.35-17.76.02-35.51.02-53.27,0-.72,0-1.43-.13-2.24-.2Z"/>
  <path class="cls-1" d="M823.63,515.35c.93-.09,1.77-.25,2.61-.25,11.64,0,23.28-.05,34.91.07,4.37.05,8.67.89,12.79,2.44,9.96,3.73,15.52,10.8,16.52,21.46.37,3.95.22,7.87-.68,11.7-2.94,12.59-11.53,19.36-23.58,22.39-2.96.75-6.01,1.03-9.08.95-2.91-.08-5.82-.04-8.73,0-.99.01-1.97.19-2.8.27-1.14,1.32-.83,2.68-.84,3.95-.04,6.54,0,13.08-.03,19.62,0,1.43-.1,2.86-.16,4.45-3.56,1.15-7.05.52-10.47.59-3.45.07-6.93.26-10.57-.28-.16-1.04-.37-1.86-.4-2.7-.06-1.74-.04-3.49-.04-5.23,0-24.56,0-49.13,0-73.69,0-1.85-.23-3.75.54-5.74ZM845,531.79c-.52,4.4-.28,8.6-.24,12.78.04,4.3-.43,8.63.32,12.82,4.37,1.02,11.77.71,15.19-.55,3.3-1.21,5.79-3.32,7.04-6.64.97-2.6,1.36-5.33,1.02-8.11-.64-5.1-3.32-8.5-8.35-9.98-3.32-.98-10.34-1.25-14.96-.33Z"/>
  <path class="cls-1" d="M536.14,577.3c.25.58.56.97.56,1.36.08,5.23.15,10.46.15,15.69,0,.99-.27,1.99-.42,3.08-8.02,4.16-16.3,7.05-25.37,7.28-6.12.15-12.2.05-18.16-1.69-12.8-3.74-21.43-11.89-25.93-24.37-1.73-4.81-2.64-9.81-2.8-14.94-.23-7-.15-13.97,1.92-20.74,4.52-14.77,13.95-24.57,29.19-28.29,6.56-1.6,13.23-1.64,19.94-.89,6.73.75,13.08,2.67,19.14,5.63.65.32,1.26.71,2.04,1.16.15.92.44,1.91.45,2.89.05,4.65.04,9.3.02,13.96,0,.86-.15,1.73-.31,2.58-.14.7-1.13,1.18-1.74.8-1.09-.7-2.14-1.47-3.15-2.29-3.86-3.13-7.98-5.82-12.68-7.54-4.64-1.7-9.36-1.89-14.15-.83-5.87,1.3-10.18,4.75-13.46,9.66-6.47,9.67-6.55,28.54-.48,38,4.94,7.69,12.02,11.05,21,10.87,4.95-.1,9.42-1.75,13.56-4.29,2.47-1.52,4.71-3.39,7.07-5.09,1.03-.74,1.78-1.95,3.62-1.98Z"/>
  <path class="cls-1" d="M783.66,602.34c-3.95.85-16.83.92-20.88.2-.98-1.25-.6-2.76-.6-4.16-.04-8.43.01-16.87-.03-25.3-.03-6.65.56-4.59-2.74-10.22-8.39-14.29-16.85-28.54-25.27-42.82-.79-1.35-1.84-2.6-2.04-4.24,2.9-.91,15.38-1.16,23.42-.5,1.4.92,1.91,2.5,2.67,3.88,4.22,7.63,8.39,15.29,12.6,22.93.69,1.24,1.49,2.42,2.35,3.8,1.38-.62,1.78-1.71,2.3-2.69,4.22-7.96,8.43-15.93,12.66-23.88.74-1.39,1.56-2.74,2.24-3.94,5.53-.58,19.71-.45,22.97.19.15,1.58-.96,2.66-1.67,3.86-8.07,13.64-16.19,27.24-24.24,40.89-4.3,7.29-3.56,4.71-3.61,13.05-.04,8,0,15.99-.02,23.99,0,1.59-.08,3.18-.13,4.95Z"/>
  <path class="cls-1" d="M966.96,531.43h-24.31c-.32,1.06-.69,1.85-.76,2.66-.12,1.45-.06,2.91-.06,4.36,0,19.49,0,38.98,0,58.47v5.33c-.89.29-1.54.68-2.2.69-5.82.04-11.64.02-17.46,0-.42,0-.83-.2-1.34-.33-.96-1.42-.58-3.07-.59-4.62-.03-13.67-.02-27.34-.02-41.01,0-6.84.01-13.67,0-20.51,0-1.43-.12-2.86-.17-3.99-1.36-1.37-2.73-1.08-4-1.08-5.68-.04-11.35,0-17.03-.03-1.43,0-2.87-.1-4.21-.16-.99-3.27-1.06-11.72-.15-15.87.75-.08,1.59-.23,2.43-.25,15.04-.46,66.3-.19,70.42.39.88,1.53.49,3.3.54,4.99.06,1.89.09,3.78,0,5.67-.09,1.68.51,3.5-1.05,5.29Z"/>
  <path class="cls-1" d="M.56,602.61c-.12-1.21-.28-2.19-.3-3.18-.5-19.75-.23-79.43.4-83.84.74-.14,1.56-.43,2.38-.44,5.96-.04,11.92-.05,17.88-.01,2.73.02,3.19.54,3.34,3.36.03.58.01,1.16.01,1.74,0,25.85,0,51.71-.01,77.56,0,1.57.29,3.21-.64,4.64-3.18.7-17.7.84-23.05.16Z"/>
  <path class="cls-1" d="M637.05,458.65c.11.11.23.22.34.34.79,1.83,1.9,3.3,4.05,3.59l-.12-.12c.35,1.25.65,2.56,2.29,2.72.41.41.82.81,1.22,1.22.3.63.47,1.37.92,1.86,1.28,1.39,8.81,5.8,10.98,6.56.12.04.28-.01.43-.02,0,0-.12-.11-.12-.11.14,2.28,2.05,3,3.59,4.05,0,0,.14.06.14.06.45,1.01,1.59,1.77,1.08,3.42-.48.15-1.12.46-1.78.53-1.01.12-2.03.11-3.04.11-18.16,0-36.31,0-54.47,0-1.02,0-2.03-.05-3.05-.06-1.65-.02-2.7-.88-3.32-2.35-.11-.27-.24-.54-.27-.82-.27-2.97-1.66-5.49-3.39-8.02,1.96-2.1,1.63-4.45,1.08-6.93-.5-2.26-.75-4.58-.96-6.89-.3-3.34-.04-6.62.78-9.92.73-2.92.9-5.97,1.34-9.09,4.56-.77,9.23-1.58,13.91-2.32,1.13-.18,2.31-.1,3.47-.1,1.78-.01,3.53,0,4.39,2.04.96,2.26,2.27,4.45.61,6.95-.46.7-.8,1.48-1.25,2.33,1.02,1.39,2.35,1.73,3.82,1.9,1.71.2,3.41.52,5.11.79l-.13-.12c1.6,2.82,3.89,4.73,7.02,5.78,1.86.62,3.55,1.74,5.31,2.63Z"/>
  <path class="cls-1" d="M522.97,71.53c-.41.4-.82.81-1.22,1.21-1.13.5-2.31.94-2.73,2.29,0,0,.14-.1.14-.1-.43.06-.92,0-1.27.18-3.38,1.88-6.98,2.68-10.84,2.41-.86-.06-1.76-.02-2.59.18-1.36.33-2.93.25-3.81,1.68l.13-.11c-1.25.19-2.5.38-4.03.61.1-2.59-.14-5,2.51-6.51.69-.39,1.29-1.23,1.57-1.99,1.39-3.81,2.87-7.59,2.78-11.77-.05-2.61.41-5.15,1.09-7.71.59-2.2.76-4.58.7-6.87-.06-2.43.98-3.89,2.7-5.53,2.31-2.2,4.72-3.11,7.81-2.78,2.73.29,5.49.34,8.22.65,1.8.2,3.45.38,4.76-1.25.91-1.14,2.28-1.09,3.6-1.16,2.49-.13,4.89-.53,6.56-2.68,0,0-.12.11-.12.11.29,0,.62.1.86,0,2.89-1.32,5.63-.96,8.16.77,1.08-.33,2.04-.61,2.97-.89.89-1.67,1.75-3.29,2.83-5.31.13,1.37.22,2.33.34,3.54.83.11,1.65.2,2.45.32,1.52.24,2.41,1.17,2.29,2.61-.09,1.13-.12,2.49-1.32,3.02-1.52.67-1.73,1.81-1.61,3.19.27,3.16.42,6.34.9,9.48.27,1.76.39,3.36-.21,5.1-.64,1.85.03,2.46,2.2,2.43.41,0,.81,0,1.39,0,.48,2.45.37,4.64-1.53,6.78-2.26.03-4.72,0-7.17.13-1.72.09-3.42.53-5.13.6-2.74.11-5.49.11-8.24.02-1.88-.07-3.75-.48-5.63-.55-2.54-.1-4.84.58-6.5,2.69,0,0,.15-.11.15-.11-1.66.69-1.91,2.08-1.84,3.64,0,0,.1-.16.1-.16-.47.62-.94,1.25-1.41,1.87Z"/>
  <path class="cls-1" d="M486.36,83.69s.02.05.02.05c-.89-2.47-1.83-4.89-4.92-5.33,0,0,.13.11.13.11-1.66-3.06-3.02-6.23-3.47-9.71-.35-2.72-.57-5.45-.88-8.18-.19-1.72-.18-3.51-.72-5.12-.7-2.08-.46-3.91.3-5.88.51-1.32.95-2.77.94-4.16-.01-2.45-.34-4.9-.62-7.33-.31-2.68-1.58-4.6-4.42-5.12l.14.1c-.28-1.02-1.05-1.07-1.9-.96,0,0,.13.11.13.11-.51-.47-.96-1.02-1.53-1.38-1.22-.78-2.52-1.43-3.76-2.18-2.43-1.47-3.83-3.45-3.38-6.47.37-2.5-.49-4.46-2.65-5.97-2.54-1.78-3.23-4.31-2.22-7.56,5.25.45,10.28-.58,14.97-3.08l-.04.12c-1.26,2.12-3.18,3.28-5.56,3.76-.43.09-.87.09-1.29.19-1.36.31-2.1,1.06-1.92,1.93.25,1.23,1.25,1.67,2.25,1.7,1.28.03,2.85.1,3.78-.56,1.61-1.15,3-.47,4.36-.15.41-.18.76-.23.93-.43,1.64-1.92,3.71-2.06,5.97-1.53,2.09.49,4.02-.05,5.9-.96,1.33-.65,2.39-1.42,3.08-2.88.75-1.6,1.38-1.64,3.23-1.07,1.37.42,2.75.81,4.12,1.22,0,0-.14-.11-.14-.11.41,3.16.39,6.14-1.94,8.78-2.09,2.37-1.93,3.11.28,6.22l-.09-.16c.18,2.48,1.49,4.19,3.6,5.38l-.11-.14c0,1.34.58,2.28,1.85,2.76l-.1-.14c.03,1.32.68,2.21,1.85,2.76,0,0-.11-.15-.11-.15.68,3.31-.14,5.95-3.28,7.64-.46.24-.74.8-1.11,1.21,0,0,.15-.11.15-.11-1.77.07-2.61,1.09-2.68,2.77-.06,1.59-.05,3.19-.05,4.78q0,5.05-1.77,9.17l.12-.14c-1.94.91-3.13,2.42-3.61,4.5,0,0,.11-.15.11-.15-.65.71-1.43,1.35-1.92,2.16-1.37,2.25-1.24,2.67,1.05,4.97l-.12-.14c.37,1.07.77,2.14,1.09,3.23.45,1.51,1.22,3.03,1.19,4.54-.06,3.1-.55,6.18-.88,9.44-2.02-.2-3.06-1.52-4.36-2.32Z"/>
  <path class="cls-1" d="M497.34,6.93c-.34-1.24-1.58-1.96-1.67-3.45-.06-1.01-1.02-1.98-1.69-3.16,1.8-.61,3.43-.22,5.07.23,3.53.96,6.76,2.62,9.95,4.37,1.91,1.05,3.83,2.1,5.66,3.27,1.95,1.25,4.05,1.6,6.26,1.27,4.03-.61,8.03-1.36,11.49-3.75.46-.31,1.03-.46,1.49-.65.85.71.73,1.51.19,1.99-1.08.95-1.56,2.01-.86,3.48-1.01.35-1.68.6-2.36.81-2.67.82-4.52,2.42-5.42,5.17-.65,1.97-2.07,3.48-3.69,4.77-2.05,1.62-4.16,3.18-6.17,4.84-2.68,2.22-5.36,4.44-7.1,7.57-1.16,2.09-3.11,3.4-5.12,4.61.21-1.07.41-2.15.63-3.22.28-1.41-.23-2.39-1.57-2.93,0,0,.11.15.11.15.04-1.36-.54-2.31-1.85-2.76,0,0,.1.14.1.14.1-1.4-.59-2.27-1.85-2.76,0,0,.11.14.11.14-.61-2.19-1.89-3.93-3.6-5.38,0,0,.09.16.09.16.01-.42.11-.87.02-1.27-.4-1.9-.18-3.47,1.23-5.09,1.06-1.21,1.56-3.02,1.98-4.65.4-1.55.1-3.11-1.56-3.99l.14.11Z"/>
  <path class="cls-1" d="M445.66,47.42c-.55-.26-1.1-.51-1.65-.77-1.03-2.33-3.23-2.68-5.36-3.15,0,0,.14.11.14.11-1.48-2.98-4.2-3.5-7.13-3.6,0,0,.14.13.14.13-.28-.48-.47-1.05-.85-1.43-1.42-1.42-1.92-3.17-1.85-5.08.08-2.26-.13-4.55.54-6.69,1.38-.67,2.27.34,3.32.62.26.27.51.55.77.83.75,1.05,1.83,1.31,3.05,1.35,2.03.07,4.06.26,6.09.35,5.02.22,9.58,2.25,14.33,3.54.55.15,1.12.25,1.68.38l-.1-.13c.36,1.84.81,3.61,2.73,4.5l-.11-.13c.14,1.68,1.11,2.55,2.74,2.74l-.14-.11c.46,1.3,1.5,1.75,2.76,1.85l-.13-.13c.06,1.19.67,1.83,1.87,1.88l-.14-.11c1.6,2.02,4,2.21,6.26,2.72l-.12-.1c-.31,1.65.49,3.48-.71,4.96-4.91.42-5.19.22-9.09-.82-4.32-1.15-8.66-2.43-13.22-2.26-2.1.08-4.04-.32-5.81-1.46Z"/>
  <path class="cls-1" d="M704.72,677.65c-1.14.07-1.84.11-2.7.16-.23-.92-.55-1.73-.62-2.56-.44-5.11-.1-23.17.47-26.24,1.48-1.44,3.61-1.72,5.54-1.93,3.16-.34,6.38-.29,9.57-.18,1.26.04,2.63.44,3.72,1.08,1.71,1.01,3.22.84,4.95.15,3.87-1.54,7.93-1.74,12.02-1.28,4.58.51,7.45,3.06,8.44,7.53.34,1.55.56,3.16.59,4.74.07,5.09.04,10.17.02,15.26,0,.86-.06,1.76-.34,2.56-.15.41-.82.77-1.31.89-.78.2-1.52-.19-1.7-.97-.22-.98-.27-2.01-.27-3.02-.03-4.36,0-8.72-.02-13.08,0-1.02,0-2.04-.06-3.05-.33-5.2-2.7-7.67-7.8-8.18-2.87-.28-6.98.77-9.97,2.58-.05.38-.21.82-.14,1.23,1.24,7.22.44,14.51.64,21.76.02.57-.04,1.18-.22,1.72-.25.77-.88,1.1-1.69,1.06-.83-.04-1.41-.47-1.53-1.27-.15-1-.18-2.02-.18-3.04-.02-4.65,0-9.3-.02-13.95,0-1.31,0-2.63-.2-3.91-.52-3.28-2.34-5.12-5.59-5.85-3.48-.77-7.77-.27-11.3,1.45-.28,4.16-.07,8.51-.13,12.85-.06,4.34.12,8.69-.16,13.5Z"/>
  <path class="cls-1" d="M691.51,677.66h-2.81c-.1-1.57-.27-2.99-.28-4.42-.04-4.36.03-8.73-.05-13.09-.03-1.73-.17-3.5-.55-5.18-.6-2.61-2.31-4.32-4.95-4.98-4.46-1.12-8.55-.05-12.55,1.85,1.05,8.72.54,17.1.51,25.76-1.07.07-1.86.12-2.57.16-.93-1.5-.65-2.99-.66-4.42-.04-4.36.05-8.73-.05-13.09-.04-1.87-.25-3.78-.68-5.6-.61-2.64-2.38-4.19-5.09-4.78-3.6-.78-8.22-.28-11.69,1.53-.32,8.52.04,17.22-.21,26.19-1.06.08-1.86.14-2.66.2-.2-.55-.47-.96-.48-1.36-.06-8.29-.09-16.58-.1-24.87,0-.85.19-1.71.28-2.46,6.28-3.23,14.14-3.3,21.38-.16.91-.3,2.01-.65,3.1-1.03,3.79-1.3,7.7-1.51,11.64-1.05,4.15.49,7,2.69,8.14,6.8.35,1.25.63,2.56.65,3.85.07,6.11.04,12.22.02,18.33,0,.56-.2,1.11-.35,1.83Z"/>
  <path class="cls-1" d="M207.73,647.27c1.27-3.74-.05-7.6.97-11.43h2.41c.99,1.39.79,2.88.79,4.31.02,10.59.02,21.17.01,31.76,0,4.8-.3,4.78-4.65,5.84-3.51.86-7.11,1.21-10.78.37-4.04-.92-6.9-3.14-8.18-7-1.87-5.65-1.9-11.45-.02-17.09,1.47-4.39,4.76-6.88,9.42-7.2,2.45-.16,4.92.06,7.38.15.85.03,1.69.18,2.65.29ZM207.95,651.01c-3.38-1.5-6.72-1.84-10.25-1.13-3.15.63-5.3,2.42-6.25,5.41-1.54,4.82-1.54,9.73.02,14.55.86,2.64,2.71,4.38,5.45,5.16,3.78,1.08,7.39.76,10.84-.75.65-3.5.77-17.72.19-23.25Z"/>
  <path class="cls-1" d="M335.44,638.38h4.73c.4.75.98,1.58,1.31,2.49,4.05,11.2,8.07,22.41,12.06,33.62.33.93.46,1.92.76,3.18h-3.22c-1.47-3.99-2.92-7.91-4.3-11.66-3.58-.89-12.44-1-17.39-.25-2.29,3.56-2.7,8.07-4.83,12h-2.47c-.15-.32-.41-.6-.37-.81.26-1.12.52-2.25.91-3.34,3.7-10.4,7.42-20.79,11.16-31.17.48-1.35,1.08-2.65,1.65-4.06ZM337.95,641.88c-1.64,2.91-5.56,13.23-6.81,17.81-.18.66-.16,1.38-.23,2.04,3.47.99,10.45.99,13.82.03.03-.39.2-.85.08-1.21-1.88-5.62-3.8-11.23-5.74-16.83-.18-.52-.58-.96-1.13-1.84Z"/>
  <path class="cls-1" d="M433.71,28.39c-.26-.28-.52-.55-.77-.83-.72-1.02-1.44-2.04-2.32-3.28,1.03-.92,2.21-1.94,3.36-3,1.06-.98,2.08-1.99,3.13-3,1.58.94,3.02,1.81,4.53,2.71.1.65.09,1.41.37,2.03.21.47.9,1.15,1.21,1.07,1.62-.41,3.4.58,4.94-.75.7-.61,1.79-.76,2.7-1.12q.5-2.55-1.66-3.85c2.89-2.79,4.63-6.19,5.46-11.18.64,1.87,1.19,2.73,1.17,3.58-.07,2.71.99,4.84,3.12,6.37,1.86,1.33,2.48,2.99,2.4,5.23-.07,1.99.27,4,.45,6.23-2.51,2.59-5.56,3.91-9.25,2.41-4.95-2.01-10.11-2.38-15.35-2.4-1.16,0-2.32-.13-3.48-.21Z"/>
  <path class="cls-1" d="M96.57,676.66c.44-1.14.69-1.77.99-2.53,2.27.42,4.39.85,6.52,1.21,3.07.52,6.11.34,9.06-.62,2.82-.92,4.83-2.68,5.19-5.82.37-3.22-.8-5.78-3.67-7.29-1.78-.94-3.75-1.54-5.66-2.22-2.46-.88-5.03-1.5-7.4-2.57-5.31-2.38-6.59-7.44-5.22-11.98,1.03-3.42,3.5-5.36,6.74-6.22,5.61-1.5,11.18-1.08,16.89.72-.14.91-.24,1.59-.32,2.17-.44.17-.72.39-.95.35-2.01-.34-4-.75-6-1.1-2.79-.48-5.53-.02-8.19.75-1.08.31-2.16.93-3.04,1.64-2.99,2.45-2.95,7.14.12,9.49,1.13.87,2.51,1.48,3.86,1.97,2.05.74,4.2,1.19,6.25,1.91,1.78.62,3.56,1.31,5.2,2.22,3.88,2.16,5.22,5.67,4.9,9.94-.32,4.2-2.53,7.06-6.44,8.5-1.62.59-3.35.97-5.07,1.2-4.55.62-8.95-.1-13.74-1.73Z"/>
  <path class="cls-1" d="M840.28,662.65c-6.91.87-13.44-.14-20.15.66-.67,2.59-.02,4.91.95,7.15.9,2.09,2.53,3.5,4.66,4.33,2.66,1.03,5.39,1.01,8.15.53,1.41-.24,2.81-.5,4.18-.75.7,2.14.66,2.45-.65,2.85-4.39,1.36-8.85,1.74-13.27.25-2.87-.96-5.04-2.93-6.17-5.78-2.52-6.36-2.51-12.79.18-19.06,1.61-3.75,4.71-5.82,8.85-6.07,1.59-.09,3.2-.1,4.78.07,4.54.5,7.71,3.51,8.52,8.02.2,1.14.27,2.31.26,3.47,0,1.29-.17,2.58-.3,4.32ZM837,659.41c.64-3.46.1-6.58-3.06-8.7-2.79-1.87-7.56-1.63-10.28.33-1.46,1.06-2.37,2.52-2.96,4.17-.53,1.47-.89,2.98-.37,4.45,5.13.67,13.54.53,16.67-.26Z"/>
  <path class="cls-1" d="M530.77,662.93c-3.21.02-6.54-.01-9.86.09-3.16.1-6.35-.41-9.43.36-1.05,7.21,2.7,11.98,9.53,12.18,1.72.05,3.45-.35,5.18-.52,1-.1,2.01-.23,3.01-.18.28.01.69.55.77.91.07.34-.12.88-.38,1.1-.43.36-.98.66-1.53.78-3.7.82-7.4,1.34-11.21.41-3.84-.93-6.62-3.1-7.92-6.76-2.05-5.79-2.09-11.73.02-17.49,1.64-4.49,5.05-6.97,9.97-7.11.87-.02,1.74-.05,2.61,0,5.8.29,9.17,3.15,10.16,8.84.42,2.39.8,4.89-.92,7.39ZM511.33,659.79c2.92.45,5.65.32,8.36.23,2.81-.09,5.71.57,8.33-.5.79-1.97.45-3.71-.15-5.31-.44-1.16-1.23-2.35-2.19-3.11-3.28-2.57-10.51-2.52-13.15,2.74-.84,1.67-1.5,3.43-1.2,5.95Z"/>
  <path class="cls-1" d="M871.47,662.67c-3.23.7-6.58.2-9.89.32-3.17.12-6.36-.16-9.44.17-1.88,7.62,3.43,12.27,8.73,12.39,1.73.04,3.47-.19,5.2-.38,1.28-.14,2.55-.39,3.93-.61.24.69.42,1.22.63,1.81-.39.33-.66.71-1.03.84-3.77,1.26-7.59,1.74-11.58,1.01-4.84-.88-7.8-3.74-9.16-8.28-1.45-4.85-1.42-9.78-.03-14.65,1.51-5.28,5.2-8.52,11.14-8.65,9.66-.21,14.64,6.57,11.49,16.03ZM868.58,659.41c.63-3.47.31-6.76-3.07-8.72-3.24-1.88-6.78-1.83-9.92.27-2.98,2-4.14,5-3.64,8.57,4.14.77,13.4.7,16.63-.13Z"/>
  <path class="cls-1" d="M244.13,662.78c-6.65.54-13.17-.06-19.54.36-1.34,5.12.93,9.93,5.29,11.64,2.66,1.04,5.4,1.01,8.16.52,1.41-.25,2.82-.5,4.19-.75.73,2.14.69,2.42-.6,2.84-4.39,1.43-8.86,1.73-13.28.29-3.39-1.11-5.68-3.57-6.74-6.93-1.71-5.4-1.75-10.9,0-16.29,1.44-4.44,4.87-7.7,10.41-7.76,1.16-.01,2.33-.02,3.48.09,4.96.48,8.32,3.61,9.05,8.51.34,2.3.46,4.62-.41,7.48ZM241.05,659.38c.83-6.26-1.86-9.76-7.59-9.93-5.74-.17-9.21,3.71-9.01,10.05,3.64.84,13.54.76,16.6-.12Z"/>
  <path class="cls-1" d="M638.31,662.78c-.43,2.56-.64,5.18-1.34,7.67-1.25,4.45-4.29,7-8.92,7.85-2.81.51-5.52.28-8.17-.5-2.93-.86-5.14-2.79-6.26-5.64-2.52-6.33-2.57-12.77-.02-19.08,1.54-3.81,4.61-5.89,8.72-6.25,1.73-.15,3.49-.16,5.21-.01,4.49.38,7.49,2.84,9.19,6.94,1.19,2.88,1.29,5.93,1.6,9.03ZM634.87,662.91c-.38-2.41-.54-4.91-1.21-7.25-1.15-3.99-4.27-6.1-8.52-6.18-4.21-.08-7.55,1.97-8.81,5.82-1.59,4.82-1.6,9.76.03,14.57,1.3,3.85,4.54,5.81,8.85,5.72,4.26-.08,7.31-2.19,8.49-6.2.61-2.06.78-4.26,1.17-6.49Z"/>
  <path class="cls-1" d="M154.44,647.63c.59-.07,1.02-.17,1.44-.14.27.02.53.22.78.33.16.24.44.47.44.7.07,4.8.11,9.59.16,14.39.01,1.45-.05,2.91.05,4.36.36,5.38,2.89,7.95,8.2,8.3,3.07.2,6.09-.07,8.84-1.24,1.07-1.24.8-2.6.8-3.88.03-6.11,0-12.22.02-18.33,0-1.16.02-2.33.14-3.48.08-.84.71-1.21,1.52-1.24.81-.03,1.46.28,1.61,1.12.16.85.25,1.73.26,2.59.02,7.13.01,14.26,0,21.38,0,.73-.06,1.45-.12,2.18-.1,1.12-.71,1.93-1.77,2.26-5.37,1.68-10.82,2.38-16.33.8-2.79-.8-4.86-2.62-5.75-5.5-.34-1.1-.69-2.26-.7-3.39-.06-6.69-.03-13.38-.02-20.07,0-.27.19-.53.43-1.14Z"/>
  <path class="cls-1" d="M253.89,648.71c5.37-2.37,10.87-2.5,16.37-1.65,4.27.66,6.84,3.64,7.52,7.96.09.57.16,1.16.16,1.73,0,6.39.01,12.78-.02,19.16,0,.56-.24,1.11-.39,1.78h-2.4c-.15-1.02-.4-1.98-.41-2.94-.04-5.08.05-10.17-.07-15.24-.04-1.86-.4-3.74-.88-5.54-.48-1.77-1.81-3.06-3.53-3.62-4.43-1.44-8.81-1.13-13.32.75-.3,8.78.04,17.47-.22,26.43-1.02.11-1.82.19-2.77.29-.2-.97-.47-1.8-.53-2.63-.39-6.06-.1-23,.48-26.48Z"/>
  <path class="cls-1" d="M604.47,674.8c.2.3.5.63.66,1.01.1.24.02.56.02.87-1.63,1.52-3.78,1.25-5.72,1.66-3.21.68-6.41.21-9.48-.68-4.62-1.34-7.8-4.46-9.43-8.96-2.51-6.93-2.58-13.96-.09-20.9,2.1-5.86,6.39-9.19,12.63-9.84,4.07-.43,8.09-.34,11.93,1.24-.15,2.19-.36,2.5-1.65,2.33-1.29-.17-2.57-.53-3.87-.65-1.58-.14-3.2-.31-4.76-.11-6.93.89-11.08,4.86-11.96,11.79-.42,3.28-.44,6.68-.13,9.98,1,10.63,8.55,13.75,16.61,12.88,1.58-.17,3.14-.5,4.72-.74.13-.02.28.06.5.12Z"/>
  <path class="cls-1" d="M487.17,675.19c.06.97.11,1.64.15,2.29-2.79,1.23-5.46,1.36-8.25.63-2.65-.69-4.39-2.34-5.08-4.88-.53-1.94-.81-3.99-.88-6-.13-4.06-.03-8.14-.05-12.21,0-1.44-.1-2.88-.17-4.54-1.34-.31-2.55-.6-3.66-.86-.66-1.37-.15-2.09,1.04-2.43.81-.23,1.63-.4,2.65-.64.05-1.73.08-3.31.16-4.89.04-.72-.03-1.56.32-2.11.34-.53,1.12-.92,1.77-1.05.84-.17,1.29.55,1.45,1.28.15.7.15,1.44.16,2.16.02,1.44,0,2.88,0,4.08,1.52,1.4,3.04.92,4.44,1.03,1.44.11,2.92.04,4.33.31,1.03.2,1.23,1.1.7,2.27-2.78.87-5.9-.13-9.05.72-.14,1.01-.38,1.98-.39,2.95-.04,4.94-.08,9.88,0,14.82.09,6.14,2.23,7.91,8.49,7.19.43-.05.86-.06,1.86-.13Z"/>
  <path class="cls-1" d="M540.47,674.66c1.54.25,2.81.58,4.1.65,2.16.12,4.34.17,6.5.06.98-.05,2-.45,2.9-.89,3.44-1.7,3.9-5.92.77-8.17-1.49-1.07-3.37-1.62-5.11-2.33-2.28-.93-4.67-1.61-6.85-2.72-3.06-1.56-4.11-4.33-3.78-7.67.25-2.52,1.55-4.36,3.77-5.49,1.02-.52,2.15-.94,3.28-1.12,3.32-.54,6.67-.42,9.98.06.66.1,1.3.57,1.86.99.51.38.14,1.77-.47,1.79-1.29.04-2.62.1-3.87-.13-2.35-.43-4.64-.17-6.91.36-.83.19-1.67.56-2.37,1.04-2.39,1.64-2.62,4.88-.37,6.7,1.1.89,2.48,1.49,3.81,2.03,1.47.59,3.07.88,4.56,1.45,1.48.57,2.97,1.19,4.32,2.03,3.09,1.92,3.86,4.9,3.41,8.32-.43,3.29-2.56,5.18-5.51,6.07-1.92.58-4,.86-6.01.85-2.3,0-4.62-.42-6.91-.77-1.24-.19-1.42-.73-1.11-3.12Z"/>
  <path class="cls-1" d="M439.94,677.81h-4.56c-1.89-3.25-9.99-26-10.71-30.16.63-.13,1.3-.44,1.91-.34.48.08,1.04.57,1.27,1.03.51,1.04.84,2.16,1.23,3.25,2.17,6.16,4.32,12.33,6.5,18.48.48,1.35,1.04,2.66,1.76,4.49.73-1.05,1.34-1.62,1.6-2.33,2.4-6.69,4.74-13.41,7.11-20.11.43-1.23.86-2.47,1.42-3.65.22-.47.73-1.01,1.19-1.1.61-.13,1.31.15,1.97.25-.57,3.65-8.78,26.84-10.67,30.18Z"/>
  <path class="cls-1" d="M798.59,638.46c.26,2.89.49,5.44.71,7.84,1.34,1.07,2.69.68,3.96.76,1.45.09,2.92,0,4.34.22,1.3.2,1.55,1.14.87,2.6-2.85.07-5.86.15-9,.23-.18,1.28-.44,2.26-.44,3.25-.04,4.79-.03,9.59,0,14.38,0,1.01.08,2.04.25,3.04.54,3.16,2.45,4.79,5.73,4.79,1.29,0,2.59-.22,3.95-.34.24.35.59.67.67,1.05.09.38-.08.83-.14,1.27-2.53,1.06-5.04,1.29-7.7.68-3-.69-4.92-2.45-5.63-5.39-.41-1.68-.65-3.43-.68-5.15-.1-4.21-.02-8.42-.04-12.64,0-1.44-.1-2.87-.16-4.56-1.32-.32-2.53-.6-3.81-.91-.69-3.31,2.59-1.92,3.86-3.54.04-1.48.05-3.35.15-5.21.08-1.58.14-1.59,3.13-2.38Z"/>
  <path class="cls-1" d="M303.08,675.26c.84,1.96.76,2.33-.55,2.71-2.27.66-4.53.79-6.87.21-2.63-.65-4.46-2.16-5.24-4.69-.5-1.64-.8-3.39-.84-5.11-.12-4.49-.03-8.99-.05-13.49,0-1.43-.11-2.86-.17-4.44-1.41-.31-2.62-.58-3.71-.81-.69-1.52.11-2.08,1.16-2.44.79-.27,1.61-.42,2.54-.65.12-2.49.22-4.79.34-7.24.77-.32,1.52-.63,2.39-.98,1.75,2.66.1,5.69,1.54,8.19,1.41.91,3.05.41,4.6.55,1.29.11,2.62.05,3.87.35,1.03.25,1.15,1.17.63,2.26-2.85.84-5.96-.16-9.14.69-.19.92-.54,1.88-.55,2.83-.06,4.93-.05,9.86-.01,14.79,0,1.01.16,2.03.37,3.02.64,3.01,2.39,4.51,5.46,4.57,1.42.03,2.85-.2,4.23-.3Z"/>
  <path class="cls-1" d="M131.56,650.34c-1.3-.22-2.16-.29-2.97-.54-.33-.1-.77-.62-.75-.91.05-.5.3-1.22.68-1.41.87-.43,1.88-.6,2.96-.91.14-2.14.22-4.16.43-6.17.15-1.4.52-1.57,2.96-1.69,1.18,2.4-.09,5.15.98,7.88.83.14,1.78.4,2.75.45,1.74.1,3.49.01,5.23.11,1.25.07,1.45.66.91,2.81h-8.76c-.24,1.22-.57,2.17-.58,3.13-.05,5.09-.03,10.17-.03,15.26,0,.29,0,.58.02.87.31,4.61,2.48,6.57,7.01,6.32.99-.05,1.97-.19,3.23-.32.1.82.19,1.48.28,2.23-2.48,1.11-4.83,1.34-7.34.87-3.59-.68-5.68-2.82-6.3-6.32-.35-1.99-.47-4.04-.52-6.07-.08-3.49-.01-6.98-.04-10.46-.01-1.59-.1-3.18-.17-5.13Z"/>
  <path class="cls-1" d="M391.22,650.38c-1.41-.26-2.39-.45-3.36-.63-.83-1.07-.66-1.95.51-2.45.78-.33,1.67-.41,2.37-.57,1.04-1.28.68-2.64.78-3.91.09-1.15.14-2.31.2-3.44.46-.29.8-.58,1.19-.72.39-.14.83-.11,1.43-.18,1.31,2.55-.04,5.49,1.14,8.07,1.68.8,3.45.4,5.15.52,1.15.08,2.35.02,3.44.33.98.28,1.17,1.18.56,2.27-2.85.81-5.97-.13-9.15.66-.17.99-.48,1.96-.49,2.93-.05,4.94-.04,9.89-.01,14.84,0,1.01.1,2.04.34,3.02.74,3,2.53,4.44,5.61,4.45,1.29,0,2.59-.24,4.18-.4.17.73.35,1.48.54,2.27-2.39,1.08-4.63,1.4-6.99.97-4.12-.75-6.38-3.06-6.92-7.27-.2-1.58-.19-3.19-.2-4.79-.03-4.07,0-8.15-.03-12.22,0-1.15-.17-2.29-.28-3.75Z"/>
  <path class="cls-1" d="M785.15,675.17c.05.98.08,1.66.12,2.32-2.63,1.15-5.15,1.34-7.81.72-3.21-.75-5.06-2.77-5.71-5.86-.36-1.69-.48-3.46-.51-5.19-.08-3.92-.01-7.85-.04-11.77-.01-1.59-.11-3.17-.17-4.89-1.27-.32-2.36-.59-3.41-.86-.65-1.18-.44-2.01.84-2.41.68-.21,1.39-.33,2.19-.51.75-1.35.45-2.83.57-4.24.07-.87.11-1.74.26-2.6.14-.77,1.25-1.51,1.99-1.34.79.18,1.22.77,1.23,1.56.03,2.03.01,4.05.01,5.69,1.16,1.48,2.39,1.22,3.52,1.27,1.74.09,3.48.12,5.22.25.68.05,1.33,1.09,1.02,1.63-.25.42-.79.87-1.24.94-1.15.15-2.32.08-3.48.12-1.43.05-2.86.12-4.49.18-.18,1.17-.45,2.14-.46,3.1-.04,4.94.06,9.89-.04,14.83-.13,6,3.24,8.4,8.53,7.23.42-.09.86-.08,1.87-.17Z"/>
  <path class="cls-1" d="M380.5,647.91c.18,1.33-.28,1.99-1.32,2.08-.71.06-1.45-.06-2.16-.15-.86-.1-1.72-.38-2.58-.36-5.33.13-9.31,1.76-10.6,8.16-.69,3.43-.62,6.9.13,10.35.88,4.03,3.37,7.22,9.3,7.56,1.57.09,3.16-.28,4.74-.43.57-.05,1.23-.24,1.69-.03.42.2.76.82.89,1.32.08.29-.24.89-.53,1.04-.62.32-1.34.47-2.04.63-2.72.65-5.43.6-8.19.05-4.23-.83-7.19-3.19-8.53-7.2-1.84-5.5-1.86-11.16-.05-16.66,1.5-4.56,4.91-7.1,9.72-7.45,2.3-.17,4.64-.05,6.94.13.93.07,1.82.66,2.6.96Z"/>
  <path class="cls-1" d="M501.73,40c-.19,2.15-.37,4.3-.56,6.45-.13,1.43.01,2.97-.47,4.27-1.14,3.06-1.29,6.22-1.55,9.4-.14,1.73-.24,3.48-.58,5.18-.5,2.56-1.09,5.09-3.8,6.44-.69.34-1.12,1.2-1.63,1.79-1.94-1.21-1.72-3.89-3.83-4.72,0,0,.12.14.12.14-.68-2.08-.78-4.07.71-5.91.22-.27.12-.81.17-1.23,0,0-.11.15-.11.15,1.89-.95,3.13-2.42,3.61-4.5,0,0-.12.14-.12.14,2.13-.94,2.9-2.7,2.92-4.89.02-2.18.12-4.37,0-6.54-.1-1.98.45-3.7,1.57-5.28l-.15.11c1.23-.33,2.46-.65,3.68-.98Z"/>
  <path class="cls-1" d="M539.03,32.28c-.69.1-1.4.15-2.08.32-1.4.35-2.77,1.05-4.17,1.07-2.47.04-4.49.84-5.98,2.59-2.51-.24-4.79-.53-7.09-.65-2.16-.11-4.32-.02-6.32-.02-.66-1.13-.1-1.6.51-2.01,1.92-1.29,3.85-2.28,6.37-2.19,2.93.11,5.76-.71,7.94-2.88,1.56-1.56,3.57-1.82,5.56-2.13.99-.15,2.02-.15,3.03-.11,1.95.08,3.73-.19,5.14-1.75.34-.38.95-.52,1.78-.94.51,2.13.96,4,1.44,5.97-2.14,1.09-4.81.65-6.24,2.82,0,0,.12-.11.12-.11Z"/>
  <path class="cls-1" d="M458.86,34.01c0-1.01-.06-1.97,1.1-2.55,1.28-.64,2.48-1.47,3.92-2.34.94.53,2.03,1.21,3.18,1.79,1.27.64,2.44,1.63,4.03,1.36,0,0-.13-.11-.13-.11.32.94,1.05,1.07,1.9.96,0,0-.14-.1-.14-.1.42.55.76,1.22,1.29,1.64,1.11.88,1.59,2.06,1.79,3.35.46,2.98.65,5.97.47,8.99h-1.78s.12.1.12.1c-1.8-1.9-2.55-2.23-6.26-2.72,0,0,.14.11.14.11-.24-1.01-.93-1.57-1.87-1.88,0,0,.13.13.13.13-.48-1.27-1.36-1.95-2.76-1.85,0,0,.14.11.14.11-.5-1.33-1.39-2.26-2.74-2.74,0,0,.11.13.11.13-.34-1.84-.83-3.6-2.73-4.5l.1.13Z"/>
  <path class="cls-1" d="M573.84,34.72s.12-.15.12-.15c-.81.27-1.65.49-2.44.82-.66.28-1.24.8-1.91,1-3.29.96-6.59,1.84-10.14,2.82-.03-.76-.17-1.46-.07-2.13.21-1.42.48-2.84.83-4.24.17-.67.49-1.32.85-1.91,1.13-1.82,2.32-3.6,3.65-5.64.88-.34,1.74.4,2.28,1.17,1.84,2.62,3.93,4.98,6.37,7.05.29.24.31.79.45,1.2Z"/>
  <path class="cls-1" d="M458.41,647.84c.73-.11,1.52-.24,2.47-.39.2.73.46,1.25.49,1.79.43,7.38.16,25.04-.46,28.39h-2.3c-.65-3.27-.79-24.49-.2-29.79Z"/>
  <path class="cls-1" d="M495.85,647.68h2.59c.63,3.79.66,25.71.03,29.98-.74.04-1.53.08-2.3.11-.73-3.26-.95-22.75-.32-30.09Z"/>
  <path class="cls-1" d="M758.87,677.84c-.91-.07-1.6-.12-2.25-.16-.7-3.18-.87-24.06-.28-29.62.36-.18.72-.46,1.13-.55.4-.08.84.04,1.47.1.16.67.44,1.34.48,2.02.46,7.6.15,24.56-.55,28.21Z"/>
  <path class="cls-1" d="M416.78,677.55c-1.72.49-2.58.18-2.85-1.07-.15-.7-.17-1.43-.18-2.15-.01-7.81,0-15.62,0-23.44,0-.58,0-1.16.06-1.73.09-.95.49-1.64,1.56-1.73.95-.08,1.56.43,1.7,1.53.09.72.14,1.44.14,2.16,0,7.67.02,15.33-.02,23,0,1.13-.26,2.25-.41,3.43Z"/>
  <path class="cls-1" d="M532.63,14.65c-.59,1.15-1.08,1.84-1.3,2.61-.32,1.13-.16,2.08.75,3.15,1.51,1.78,3.12,2.91,5.52,2.86.67-.01,1.35.35,2.01.57.07.02.08.24.21.65-.45.19-.92.52-1.4.55-1.45.1-2.91.05-4.36.11-2.54.1-4.76.84-6.76,2.57-2.62,2.25-5.77,2.97-9.51,2.28.41-.59.58-.99.87-1.22,2.29-1.78,4.6-3.54,6.92-5.29,1.7-1.28,2.7-3.03,3.26-5.03.51-1.82,1.66-2.93,3.79-3.81Z"/>
  <path class="cls-1" d="M497.28,636.52c1.37.04,2.4,1.16,2.3,2.5-.09,1.17-1.04,2.11-2.2,2.18-1.34.09-2.46-.95-2.5-2.3-.04-1.36,1.03-2.41,2.4-2.38Z"/>
  <path class="cls-1" d="M459.91,641.2c-1.36.09-2.54-1.04-2.52-2.41.01-1.17.99-2.19,2.2-2.27,1.25-.09,2.29.74,2.47,1.95.21,1.38-.78,2.64-2.15,2.73Z"/>
  <path class="cls-1" d="M760.05,638.91c-.03,1.27-.91,2.21-2.14,2.28-1.33.08-2.55-1.09-2.52-2.41.03-1.3,1.32-2.41,2.65-2.27,1.23.13,2.04,1.1,2.01,2.39Z"/>
  <path class="cls-1" d="M417.72,638.92c-.04,1.46-1.09,2.4-2.48,2.24-1.16-.14-1.96-1.12-1.93-2.37.03-1.43,1.1-2.39,2.49-2.23,1.18.14,1.96,1.09,1.92,2.36Z"/>
  <polygon class="cls-1" points="550.65 26.69 550.63 26.45 550.92 26.56 550.65 26.69"/>
  <path class="cls-1" d="M472.52,5.62l.47.22c-.04-.11-.09-.23-.13-.34-.13.09-.25.17-.38.25,0,0,.04-.13.04-.13Z"/>
</svg>