<svg width="170" height="170" viewBox="0 0 170 170" fill="none" xmlns="http://www.w3.org/2000/svg">
<path d="M170 130.015H0V130.1H170V130.015Z" fill="#EBEBEB"/>
<path d="M152.967 135.488H141.705V135.573H152.967V135.488Z" fill="#EBEBEB"/>
<path d="M102.49 135.531H99.5347V135.616H102.49V135.531Z" fill="#EBEBEB"/>
<path d="M141.364 132.331H120.473V132.416H141.364V132.331Z" fill="#EBEBEB"/>
<path d="M76.55 134.338H72.2344V134.423H76.55V134.338Z" fill="#EBEBEB"/>
<path d="M69.2068 134.338H56.6836V134.423H69.2068V134.338Z" fill="#EBEBEB"/>
<path d="M26.4821 132.902H17.8359V132.987H26.4821V132.902Z" fill="#EBEBEB"/>
<path d="M53.9847 132.902H28.5225V132.987H53.9847V132.902Z" fill="#EBEBEB"/>
<path d="M80.5846 114.852H14.931C13.861 114.852 12.9902 113.981 12.9902 112.911V20.6244C12.9902 19.5545 13.861 18.6837 14.931 18.6837H80.5846C81.6543 18.6837 82.525 19.5545 82.525 20.6244V112.911C82.525 113.981 81.6543 114.852 80.5846 114.852ZM14.931 18.7691C13.9076 18.7691 13.0752 19.6014 13.0752 20.6248V112.912C13.0752 113.935 13.9076 114.767 14.931 114.767H80.5846C81.6077 114.767 82.44 113.935 82.44 112.912V20.6244C82.44 19.6014 81.6077 18.7687 80.5846 18.7687L14.931 18.7691Z" fill="#EBEBEB"/>
<path d="M154.125 114.852H88.4721C87.4021 114.852 86.5317 113.981 86.5317 112.911V20.6244C86.5317 19.5545 87.4025 18.6837 88.4721 18.6837H154.125C155.196 18.6837 156.066 19.5545 156.066 20.6244V112.911C156.066 113.981 155.196 114.852 154.125 114.852ZM88.4721 18.7691C87.4491 18.7691 86.6167 19.6014 86.6167 20.6248V112.912C86.6167 113.935 87.4491 114.767 88.4721 114.767H154.125C155.149 114.767 155.981 113.935 155.981 112.912V20.6244C155.981 19.6014 155.149 18.7687 154.125 18.7687L88.4721 18.7691Z" fill="#EBEBEB"/>
<path d="M114.051 103.203C113.285 102.04 113.83 100.045 115.185 99.1525C118.849 96.7392 123.608 94.9256 124.519 96.3087C125.43 97.6918 121.855 101.397 118.191 103.81C116.836 104.703 114.817 104.366 114.051 103.203Z" fill="#E0E0E0"/>
<path d="M108.558 96.4902C103.098 96.4902 97.6377 99.9106 97.6377 103.608C97.6377 113.607 102.063 125.054 108.558 125.054C115.055 125.054 119.48 113.607 119.48 103.608C119.48 99.9103 114.019 96.4902 108.558 96.4902Z" fill="#E6E6E6"/>
<path d="M108.558 96.4893C107.127 96.4893 105.697 96.7249 104.364 97.1387C105.84 97.5983 107.851 97.8999 109.862 97.8999C111.241 97.8999 112.62 97.7592 113.827 97.5208C112.206 96.8711 110.382 96.4893 108.558 96.4893Z" fill="#E0E0E0"/>
<path d="M103.584 101.627C103.519 100.236 101.955 98.9152 100.334 98.9906C95.9514 99.195 90.9857 100.556 91.0629 102.21C91.1401 103.865 96.2108 104.758 100.593 104.553C102.214 104.478 103.649 103.017 103.584 101.627Z" fill="#E6E6E6"/>
<path d="M108.549 82.7431C102.331 83.3949 96.4447 87.2046 96.6395 89.0623C97.1661 94.0855 102.657 97.8694 110.053 97.0938C117.45 96.3183 122.036 91.4784 121.51 86.4549C121.315 84.5971 114.766 82.0913 108.549 82.7431Z" fill="#E6E6E6"/>
<path d="M108.67 83.8974C103.452 84.4445 98.5128 87.6412 98.6763 89.2001C99.1183 93.415 103.726 96.5903 109.932 95.9395C116.139 95.2888 119.988 91.2275 119.546 87.0122C119.382 85.4533 113.887 83.3504 108.67 83.8974Z" fill="#F0F0F0"/>
<path d="M106.797 90.181C107.01 92.2148 105.949 93.993 104.427 94.1525C102.904 94.3123 101.497 92.7928 101.284 90.7589C101.071 88.7251 102.132 86.9469 103.655 86.7874C105.177 86.6276 106.584 88.1471 106.797 90.181Z" fill="#E6E6E6"/>
<path d="M106.312 90.2316C106.445 91.4971 105.784 92.6034 104.837 92.7027C103.89 92.802 103.014 91.8568 102.882 90.5913C102.749 89.3258 103.409 88.2195 104.357 88.1202C105.304 88.0209 106.179 88.9661 106.312 90.2316Z" fill="#F5F5F5"/>
<path d="M117.318 89.078C117.531 91.1119 116.47 92.8901 114.948 93.0496C113.425 93.209 112.018 91.6899 111.805 89.656C111.592 87.6222 112.653 85.844 114.176 85.6845C115.698 85.5247 117.105 87.0442 117.318 89.078Z" fill="#E6E6E6"/>
<path d="M112.29 89.605C112.422 90.8705 113.298 91.8157 114.245 91.7164C115.192 91.6171 115.853 90.5107 115.72 89.2453C115.588 87.9798 114.712 87.0346 113.765 87.1339C112.818 87.2331 112.157 88.3395 112.29 89.605Z" fill="#F5F5F5"/>
<path d="M136.752 103.151C136.361 102.019 134.715 101.344 133.396 101.8C129.829 103.033 126.097 105.325 126.562 106.672C127.028 108.018 131.429 107.525 134.995 106.292C136.314 105.837 137.143 104.283 136.752 103.151Z" fill="#F5F5F5"/>
<path d="M139.009 100.486C143.705 100.486 148.402 103.428 148.402 106.608C148.402 115.208 144.596 125.054 139.009 125.054C133.421 125.054 129.615 115.208 129.615 106.608C129.615 103.427 134.312 100.486 139.009 100.486Z" fill="#F5F5F5"/>
<path d="M139.009 100.485C140.239 100.485 141.47 100.687 142.616 101.043C141.346 101.439 139.616 101.698 137.887 101.698C136.701 101.698 135.515 101.577 134.477 101.372C135.871 100.813 137.44 100.485 139.009 100.485Z" fill="#F5F5F5"/>
<path d="M141.911 103.659C142.359 102.549 144.004 101.922 145.299 102.444C148.798 103.857 152.441 106.374 151.908 107.695C151.375 109.016 147.005 108.298 143.505 106.886C142.211 106.363 141.463 104.77 141.911 103.659Z" fill="#F5F5F5"/>
<path d="M138.09 88.7815C143.45 88.3517 149.028 90.6443 149.157 92.2457C149.504 96.5763 145.458 100.642 139.082 101.153C132.705 101.664 128.063 98.295 127.716 93.9644C127.588 92.3634 132.73 89.2112 138.09 88.7815Z" fill="#F5F5F5"/>
<path d="M31.8878 104.791C32.2496 103.744 33.7721 103.119 34.9927 103.541C38.2927 104.681 41.7458 106.803 41.3153 108.048C40.8849 109.294 36.8134 108.837 33.5133 107.697C32.2931 107.275 31.526 105.838 31.8878 104.791Z" fill="#F5F5F5"/>
<path d="M29.8003 102.325C25.4551 102.325 21.1099 105.046 21.1099 107.989C21.1099 115.945 24.6312 125.054 29.8003 125.054C34.9693 125.054 38.4907 115.945 38.4907 107.989C38.4907 105.046 34.1455 102.325 29.8003 102.325Z" fill="#F5F5F5"/>
<path d="M29.7998 102.324C28.6615 102.324 27.5232 102.511 26.4624 102.841C27.6374 103.206 29.2375 103.446 30.8379 103.446C31.935 103.446 33.0322 103.335 33.9924 103.145C32.7028 102.628 31.2513 102.324 29.7998 102.324Z" fill="#F5F5F5"/>
<path d="M27.1157 105.261C26.7009 104.234 25.1787 103.653 23.9816 104.137C20.7441 105.444 17.3734 107.773 17.8667 108.995C18.36 110.217 22.403 109.553 25.6405 108.246C26.8376 107.762 27.5302 106.288 27.1157 105.261Z" fill="#F5F5F5"/>
<path d="M30.6507 91.4967C25.6921 91.0993 20.5312 93.2202 20.4122 94.7019C20.0909 98.7081 23.834 102.469 29.733 102.942C35.6323 103.415 39.9265 100.298 40.2475 96.2921C40.3665 94.8104 35.6096 91.8942 30.6507 91.4967Z" fill="#F5F5F5"/>
<path d="M40.1461 36.7676C41.3769 36.1604 42.1205 35.7514 42.1205 35.7514L42.3306 34.0075L40.8649 33.0396C40.8649 33.0396 40.072 33.3421 38.8126 33.8878C35.941 35.1333 30.6513 37.6425 26.8745 40.6902C26.4608 41.0234 26.0619 41.3672 25.689 41.7136C26.1945 41.6534 26.7144 41.5715 27.2363 41.4715C32.0041 40.5631 37.3391 38.1521 40.1461 36.7676Z" fill="#E0E0E0"/>
<path d="M42.9035 34.5818L46.7781 41.1968C46.7781 41.1968 40.4708 51.9194 33.2104 54.8159C38.1095 49.6492 42.2878 40.968 42.2878 40.968L39.3464 36.2291L42.9035 34.5818Z" fill="#E6E6E6"/>
<path d="M42.5603 34.1288L40.9171 26.6407C40.9171 26.6407 29.0079 23.0455 21.7095 25.8451C28.8138 26.3156 37.7741 29.8561 37.7741 29.8561L38.8295 35.3328L42.5603 34.1288Z" fill="#E6E6E6"/>
<path d="M38.5311 36.0152C37.6478 34.2427 38.3754 32.0698 40.1478 31.1868L46.1482 28.1969C47.0284 27.7583 48.1072 28.1197 48.5458 28.9996L50.1625 32.2446C50.6011 33.1248 50.2397 34.2036 49.3598 34.6422L43.3595 37.6322C41.5871 38.5152 39.4145 37.7876 38.5311 36.0152Z" fill="#F5F5F5"/>
<path d="M44.5985 33.4128L44.2316 32.6767C43.5438 31.2963 44.1106 29.6038 45.491 28.916L48.8896 27.2224C49.575 26.8807 50.4155 27.1622 50.7572 27.8477L52.3834 31.1113C52.7251 31.7968 52.4436 32.6373 51.7582 32.9786L48.3595 34.6722C46.9788 35.36 45.2863 34.7932 44.5985 33.4128Z" fill="#EBEBEB"/>
<path d="M46.5438 27.9344C48.1159 24.9591 51.8369 23.8109 54.8126 25.383L64.8854 30.7057C66.3627 31.4864 66.9329 33.3339 66.1523 34.8116L63.2738 40.2587C62.4932 41.7364 60.6456 42.3062 59.168 41.5256L49.0951 36.2029C46.1195 34.6307 44.9713 30.9097 46.5438 27.9344Z" fill="#E6E6E6"/>
<path d="M72.6381 42.5569C75.1318 38.3353 73.7311 32.8916 69.5096 30.3979C65.2881 27.9042 59.8444 29.3049 57.3507 33.5264C54.857 37.7479 56.2577 43.1917 60.4792 45.6854C64.7007 48.1791 70.1444 46.7784 72.6381 42.5569Z" fill="#F5F5F5"/>
<path d="M71.9195 42.8923C69.7469 46.1699 65.9382 47.4697 63.4127 45.7959C60.8872 44.1217 60.6013 40.1077 62.7739 36.8301C64.9465 33.5525 68.7551 32.2527 71.2807 33.9265C73.8062 35.6003 74.0921 39.6147 71.9195 42.8923Z" fill="#EBEBEB"/>
<path d="M64.5118 41.2295C66.6752 40.5627 69.4255 38.4455 70.5597 36.6643C70.933 36.0774 71.7766 35.8996 72.2787 36.3807C74.8553 38.8498 75.8732 41.816 79.0951 45.4295C82.8133 49.5999 91.5207 54.2477 93.3961 58.7918C89.0788 61.7597 80.673 64.2386 79.43 69.1258C71.7738 64.2036 65.6086 49.7536 63.7685 42.802C63.5907 42.1308 63.8488 41.4338 64.5118 41.2295Z" fill="#E6E6E6"/>
<path d="M70.5313 130.015H89.6933C91.6738 130.015 92.3742 127.387 90.6535 126.407C85.3923 123.409 78.1384 119.632 74.9843 119.632C68.8432 119.632 70.5313 130.015 70.5313 130.015Z" fill="#E6E6E6"/>
<path d="M68.5659 128.914C77.5674 127.429 79.177 121.61 79.177 121.61L68.8842 122.035L68.5659 128.914Z" fill="#E0E0E0"/>
<path d="M71.1437 124.447C80.1564 124.447 87.4627 117.141 87.4627 108.128C87.4627 99.1151 80.1564 91.8088 71.1437 91.8088C62.131 91.8088 54.8247 99.1151 54.8247 108.128C54.8247 117.141 62.131 124.447 71.1437 124.447Z" fill="#F5F5F5"/>
<path d="M82.6483 118.445C87.112 113.135 87.0839 105.765 82.5856 101.984C78.0873 98.2029 70.8222 99.4432 66.3585 104.754C61.8949 110.065 61.923 117.435 66.4213 121.216C70.9196 124.996 78.1847 123.756 82.6483 118.445Z" fill="#EBEBEB"/>
<path d="M71.7665 130.015H52.6044C50.6236 130.015 49.9235 127.387 51.6443 126.407C56.9054 123.409 64.1593 119.632 67.3135 119.632C73.4546 119.632 71.7665 130.015 71.7665 130.015Z" fill="#E6E6E6"/>
<path d="M95.82 77.0677C101.23 73.0993 102.399 65.4965 98.4309 60.0862C94.4626 54.6759 86.8598 53.507 81.4495 57.4753C76.0392 61.4436 74.8703 69.0464 78.8386 74.4567C82.8069 79.867 90.4097 81.036 95.82 77.0677Z" fill="#F5F5F5"/>
<path d="M93.5155 77.7664C98.3375 75.3764 100.754 70.427 98.9121 66.7115C97.0706 62.9961 91.6687 61.9217 86.8467 64.3117C82.0247 66.7017 79.6086 71.6511 81.4501 75.3665C83.2917 79.0819 88.6935 80.1564 93.5155 77.7664Z" fill="#EBEBEB"/>
<path d="M71.59 102.192C71.1436 97.0986 66.3908 93.7561 64.2896 93.3154C64.6928 86.3284 74.3318 75.0894 77.7039 72.5612C78.8827 74.5104 85.7126 73.3942 87.8216 70.9805C89.931 68.5668 96.7534 71.379 95.0487 75.4036C93.3442 79.4278 79.8928 82.8037 79.8928 94.7645C82.5986 96.9664 83.6509 99.1328 83.3595 102.422C83.0851 104.827 76.0998 106.596 71.59 102.192Z" fill="#E6E6E6"/>
<path d="M86.7001 145.371C123.108 145.371 152.622 143.647 152.622 141.521C152.622 139.395 123.108 137.671 86.7001 137.671C50.2922 137.671 20.7778 139.395 20.7778 141.521C20.7778 143.647 50.2922 145.371 86.7001 145.371Z" fill="#F5F5F5"/>
<path d="M56.4408 102.202C58.2132 101.664 60.5524 103.113 61.1784 105.179C62.8712 110.766 63.3857 117.521 61.277 118.161C59.1683 118.8 55.7934 112.839 54.1006 107.253C53.4746 105.187 54.6681 102.739 56.4408 102.202Z" fill="#263238"/>
<path d="M46.897 97.2924C39.6326 97.2924 32.3682 101.843 32.3682 106.762C32.3682 120.063 38.2553 135.293 46.897 135.293C55.5392 135.293 61.4263 120.063 61.4263 106.762C61.4263 101.843 54.1615 97.2924 46.897 97.2924Z" fill="#4598E6"/>
<path opacity="0.1" d="M46.8966 97.291C44.9933 97.291 43.0903 97.6045 41.3169 98.155C43.2814 98.7666 45.9565 99.1678 48.6317 99.1678C50.466 99.1678 52.3003 98.9805 53.9057 98.6633C51.7501 97.7993 49.3236 97.291 46.8966 97.291Z" fill="black"/>
<path d="M35.5617 103.366L32.3667 106.763C32.3667 110.506 32.8322 114.404 33.6924 118.068C35.6331 116.06 37.6527 112.171 38.0036 108.369C38.3742 104.313 37.3446 103.867 35.5617 103.366Z" fill="#263238"/>
<path d="M38.409 102.102C36.7865 101.208 34.2008 102.065 33.1601 103.956C30.3456 109.069 28.4378 115.648 30.368 116.71C32.2982 117.773 36.8358 112.642 39.6507 107.528C40.6914 105.637 40.0318 102.995 38.409 102.102Z" fill="#4598E6"/>
<path d="M49.1008 130.693C42.5843 130.693 38.043 119.35 38.043 109.168C38.043 105.428 43.417 101.893 49.1008 101.893C54.7849 101.893 60.1589 105.428 60.1589 109.168C60.1589 119.349 55.6176 130.693 49.1008 130.693ZM49.1008 102.287C43.7193 102.287 38.4374 105.695 38.4374 109.168C38.4374 119.163 42.8166 130.299 49.1008 130.299C55.385 130.299 59.7645 119.163 59.7645 109.168C59.7645 105.695 54.4826 102.287 49.1008 102.287Z" fill="white"/>
<path d="M49.2929 130.541L48.9087 130.451C51.5158 119.317 50.8192 104.086 48.9614 102.229L49.2402 101.95C51.3992 104.109 51.8034 119.82 49.2929 130.541Z" fill="white"/>
<path d="M43.5671 124.342C43.713 124.564 43.7323 124.81 43.6106 124.889C43.4889 124.969 43.2713 124.854 43.1254 124.632C42.9796 124.409 42.9602 124.164 43.0819 124.084C43.204 124.004 43.4212 124.119 43.5671 124.342Z" fill="white"/>
<path d="M44.3379 125.516C44.4838 125.738 44.5032 125.984 44.3811 126.064C44.2591 126.144 44.0418 126.028 43.8959 125.806C43.7501 125.584 43.7307 125.338 43.8524 125.258C43.9745 125.178 44.1921 125.294 44.3379 125.516Z" fill="white"/>
<path d="M44.7746 124.389C44.9204 124.612 44.9398 124.857 44.8181 124.937C44.696 125.017 44.4788 124.902 44.3329 124.679C44.187 124.457 44.1677 124.211 44.2897 124.132C44.4111 124.051 44.6284 124.167 44.7746 124.389Z" fill="white"/>
<path d="M45.5454 125.564C45.6913 125.786 45.7106 126.032 45.5886 126.112C45.4665 126.192 45.2493 126.076 45.1034 125.854C44.9575 125.632 44.9382 125.386 45.0602 125.306C45.1823 125.226 45.3995 125.341 45.5454 125.564Z" fill="white"/>
<path d="M45.1081 126.69C45.254 126.913 45.2734 127.158 45.1516 127.238C45.0296 127.318 44.8123 127.203 44.6665 126.98C44.5206 126.758 44.5012 126.513 44.6229 126.433C44.745 126.352 44.9623 126.468 45.1081 126.69Z" fill="white"/>
<path d="M64.5383 63.0856C65.4818 61.7658 66.0285 60.9242 66.0285 60.9242L65.2737 58.99L63.2061 58.7999C63.2061 58.7999 62.5489 59.5578 61.5415 60.8297C59.2445 63.7309 55.1335 69.2988 52.8994 74.5837C52.6542 75.1621 52.4305 75.7428 52.2354 76.312C52.7284 75.9672 53.2244 75.5915 53.7123 75.1957C58.1728 71.5866 62.3861 66.0957 64.5383 63.0856Z" fill="black"/>
<path d="M65.999 61.7695L69.9134 69.9438C69.9134 69.9438 61.4283 81.9557 52.5894 84.6543C58.8688 79.0494 64.6454 69.2329 64.6454 69.2329L61.6459 63.3607L65.999 61.7695Z" fill="#263238"/>
<path d="M50.4084 75.1397C42.3653 73.0225 33.2469 74.9904 32.6145 77.3936C30.9039 83.8916 35.9536 91.1853 45.5219 93.7037C55.0902 96.2224 63.0764 92.3603 64.787 85.8623C65.4194 83.4591 58.4514 77.2569 50.4084 75.1397Z" fill="#4598E6"/>
<path opacity="0.1" d="M50.0154 76.6329C43.2664 74.8564 35.6147 76.5075 35.084 78.524C33.6485 83.9766 37.8859 90.0969 45.915 92.2104C53.9441 94.3238 60.6455 91.0833 62.081 85.6303C62.6117 83.6141 56.7648 78.4094 50.0154 76.6329Z" fill="black"/>
<path d="M44.7258 83.569C44.0332 86.1999 41.8753 87.9124 39.906 87.3939C37.9367 86.8754 36.9014 84.3224 37.594 81.6915C38.2866 79.0606 40.4445 77.348 42.4138 77.8665C44.3834 78.385 45.4184 80.938 44.7258 83.569Z" fill="#263238"/>
<path d="M34.8648 83.4747C34.4245 83.4747 33.9934 83.1582 33.6422 82.5744C33.2903 81.9893 33.0533 81.194 32.9744 80.3352C32.8955 79.4763 32.9839 78.6512 33.2236 78.012C33.4779 77.333 33.8764 76.9355 34.346 76.8927C34.8152 76.8502 35.2796 77.1684 35.6529 77.7889C36.0048 78.3741 36.2418 79.1693 36.3207 80.0285C36.3996 80.8873 36.3112 81.7125 36.0715 82.3517C35.8171 83.0304 35.4187 83.4278 34.9491 83.4707C34.9209 83.4734 34.8927 83.4747 34.8648 83.4747ZM34.4272 77.217C34.4099 77.217 34.3929 77.2177 34.3759 77.2194C34.0437 77.25 33.7357 77.5808 33.531 78.1272C33.3083 78.7209 33.2267 79.4944 33.3011 80.3053C33.3756 81.1162 33.5966 81.8618 33.9233 82.4054C34.2239 82.9052 34.5877 83.1711 34.9192 83.1439C35.2517 83.1133 35.5594 82.7825 35.7641 82.2365C35.9865 81.6428 36.0684 80.8693 35.9939 80.0584C35.9195 79.2475 35.6985 78.5016 35.3717 77.9582C35.0865 77.4839 34.7451 77.217 34.4272 77.217Z" fill="white"/>
<path d="M60.3437 90.1738C60.1237 90.1738 59.9272 90.1171 59.7623 90.0025C58.9881 89.4656 59.2081 87.853 60.2634 86.3308C60.7547 85.6219 61.3528 85.0466 61.9471 84.7104C62.5775 84.3537 63.1388 84.3048 63.5264 84.574C63.914 84.8426 64.065 85.3849 63.9524 86.1006C63.846 86.7749 63.5169 87.5368 63.0253 88.2457C62.534 88.9546 61.9359 89.5299 61.3416 89.8661C60.9792 90.0705 60.6402 90.1738 60.3437 90.1738ZM62.944 84.7325C62.7046 84.7325 62.4177 84.8216 62.1083 84.9963C61.5561 85.3084 60.9968 85.8487 60.5327 86.5178C59.614 87.8425 59.3468 89.315 59.9489 89.7325C60.2237 89.9229 60.6721 89.8675 61.1797 89.5799C61.7319 89.2677 62.2912 88.7275 62.7553 88.058C63.2191 87.3892 63.5291 86.6759 63.6277 86.0493C63.7185 85.4733 63.6135 85.0337 63.3391 84.8433C63.232 84.7692 63.0977 84.7325 62.944 84.7325Z" fill="white"/>
<path d="M44.0988 83.4041C43.668 85.0412 42.3254 86.1067 41.0997 85.7841C39.8743 85.4614 39.2303 83.8729 39.6611 82.2358C40.0919 80.5987 41.4346 79.5332 42.6599 79.8558C43.886 80.1785 44.5299 81.767 44.0988 83.4041Z" fill="white"/>
<path d="M58.3367 87.1518C57.6441 89.7828 55.4861 91.4953 53.5168 90.9768C51.5475 90.4583 50.5122 87.9053 51.2048 85.2744C51.8974 82.6434 54.0554 80.9309 56.0247 81.4494C57.9939 81.9679 59.0292 84.5209 58.3367 87.1518Z" fill="#263238"/>
<path d="M56.2747 86.6082C56.7057 84.9711 56.0617 83.3824 54.8362 83.0598C53.6108 82.7372 52.268 83.8028 51.837 85.4399C51.406 87.077 52.05 88.6657 53.2755 88.9883C54.5009 89.3109 55.8437 88.2453 56.2747 86.6082Z" fill="white"/>
<path d="M62.2055 58.7799L53.257 57.342C53.257 57.342 44.1413 68.883 44.0576 78.1239C47.6538 70.5136 55.4313 62.1925 55.4313 62.1925L61.9127 63.4053L62.2055 58.7799Z" fill="#263238"/>
<path d="M61.242 64.0863C59.7035 62.3217 59.8884 59.619 61.6527 58.0805L67.6265 52.8721C68.5027 52.1081 69.8446 52.1999 70.6086 53.0761L73.4255 56.3064C74.1895 57.1826 74.0977 58.5246 73.2215 59.2885L67.2477 64.4973C65.4831 66.0358 62.7805 65.8509 61.242 64.0863Z" fill="#4598E6"/>
<path opacity="0.1" d="M67.4069 59.3011L66.7677 58.568C65.5692 57.1938 65.7134 55.0885 67.0877 53.8903L70.4714 50.9401C71.1537 50.3451 72.1989 50.4165 72.7942 51.0989L75.6271 54.348C76.2221 55.0303 76.1507 56.0755 75.4683 56.6708L72.0847 59.621C70.7104 60.8195 68.6054 60.6753 67.4069 59.3011Z" fill="black"/>
<path d="M67.7234 56.6219C66.0217 53.0257 67.5721 48.691 71.1683 46.9893L83.343 41.229C85.1287 40.3841 87.2812 41.1539 88.1261 42.9396L91.2412 49.5233C92.0861 51.309 91.3163 53.4616 89.5307 54.3065L77.3559 60.0671C73.7594 61.7681 69.4251 60.218 67.7234 56.6219Z" fill="#263238"/>
<path opacity="0.1" d="M75.6216 59.6622C72.8394 59.6622 70.1677 58.0924 68.9008 55.4149C68.8566 55.3211 68.8964 55.2092 68.9906 55.1647C69.0855 55.1202 69.197 55.1606 69.2412 55.2545C70.9028 58.7656 75.112 60.2698 78.6231 58.6099L90.7979 52.8496C90.8924 52.8054 91.0039 52.8456 91.0484 52.9394C91.0926 53.0332 91.0529 53.1451 90.9587 53.1896L78.784 58.9499C77.7619 59.4334 76.6834 59.6622 75.6216 59.6622Z" fill="white"/>
<path d="M100.117 47.4713C101.486 41.839 98.0293 36.1638 92.3971 34.7953C86.7648 33.4268 81.0896 36.8833 79.7211 42.5155C78.3526 48.1478 81.809 53.823 87.4413 55.1915C93.0735 56.56 98.7488 53.1036 100.117 47.4713Z" fill="#4598E6"/>
<path opacity="0.1" d="M99.8866 45.7594C100.127 41.1167 97.4217 37.2029 93.8443 37.0177C90.267 36.8325 87.1721 40.4461 86.9318 45.0888C86.6914 49.7316 89.3966 53.6454 92.974 53.8306C96.5514 54.0157 99.6462 50.4022 99.8866 45.7594Z" fill="black"/>
<path d="M86.7862 53.8574C86.1657 53.8574 85.5115 53.7183 84.8489 53.4395C83.4573 52.853 82.1962 51.7177 81.2976 50.2421C79.4347 47.1838 79.7275 43.5941 81.9497 42.2402C84.1719 40.8874 87.4958 42.2739 89.3586 45.3325C91.2215 48.3908 90.9288 51.9806 88.7065 53.3344C88.1343 53.6826 87.4818 53.8574 86.7862 53.8574ZM83.8687 41.9553C83.2271 41.9553 82.6147 42.1114 82.0728 42.4419C79.9614 43.7277 79.7043 47.1719 81.4992 50.1191C82.3723 51.5528 83.5946 52.6548 84.9407 53.2216C86.2735 53.7826 87.5675 53.7513 88.5838 53.1321C90.6948 51.8463 90.9522 48.4021 89.1574 45.4549C87.8232 43.2647 85.7251 41.9553 83.8687 41.9553Z" fill="white"/>
<path d="M82.4266 43.1426C82.396 43.1426 82.3688 43.129 82.345 43.1086C82.3246 43.0879 82.311 43.0576 82.311 43.027C82.311 42.9964 82.3246 42.9658 82.345 42.9454C82.3756 42.9114 82.43 42.9012 82.4742 42.9182C82.4878 42.9254 82.5014 42.9318 82.5116 42.9454C82.532 42.9662 82.5456 42.9964 82.5456 43.027C82.5456 43.0576 82.532 43.0882 82.5116 43.1086C82.5014 43.1185 82.4878 43.129 82.4742 43.1321C82.4576 43.1392 82.444 43.1426 82.4266 43.1426Z" fill="white"/>
<path d="M88.0132 45.2948C87.9758 45.2438 87.986 45.169 88.0404 45.1316C88.0914 45.0946 88.1628 45.1048 88.2036 45.1554C88.241 45.2098 88.2308 45.2812 88.1764 45.3186C88.156 45.3356 88.1322 45.3421 88.1084 45.3421C88.071 45.3421 88.0367 45.3254 88.0132 45.2948ZM87.5576 44.7304C87.5134 44.6828 87.5168 44.6084 87.5644 44.5672C87.612 44.523 87.6868 44.5264 87.731 44.574C87.7718 44.625 87.7684 44.6964 87.7208 44.7406C87.697 44.761 87.6698 44.7678 87.6426 44.7678C87.6117 44.7678 87.5777 44.7576 87.5576 44.7304ZM87.0476 44.2136C87 44.1657 86.9966 44.0946 87.0408 44.047C87.0816 43.9994 87.1564 43.996 87.204 44.0399C87.2516 44.0844 87.255 44.1558 87.2108 44.2065C87.187 44.2303 87.1564 44.2439 87.1258 44.2439C87.0986 44.2442 87.0677 44.234 87.0476 44.2136ZM86.4863 43.7478C86.4353 43.7104 86.4251 43.639 86.4625 43.588C86.4999 43.5336 86.5747 43.5234 86.6257 43.5608C86.6767 43.6013 86.6869 43.673 86.6495 43.7237C86.6257 43.7543 86.5917 43.7713 86.5577 43.7713C86.5339 43.7713 86.5067 43.7648 86.4863 43.7478ZM85.8814 43.3534C85.827 43.3228 85.8066 43.2514 85.8372 43.1936C85.8678 43.1392 85.9426 43.1185 85.997 43.1494C86.0514 43.1834 86.0718 43.2548 86.0412 43.3092C86.0211 43.3463 85.98 43.3704 85.9392 43.3704C85.9185 43.3704 85.8981 43.3636 85.8814 43.3534ZM85.2317 43.0406C85.1705 43.0168 85.1399 42.9485 85.1671 42.8876C85.1875 42.8298 85.2555 42.7992 85.3167 42.8234C85.3779 42.8468 85.4051 42.9152 85.3813 42.976C85.3643 43.0202 85.3201 43.0512 85.2725 43.0512C85.2589 43.0508 85.2456 43.0471 85.2317 43.0406ZM82.9914 42.7686C82.9744 42.704 83.0118 42.6394 83.0764 42.6258C83.1376 42.6085 83.2022 42.6462 83.2192 42.7071C83.2362 42.7686 83.1988 42.8329 83.1342 42.8499C83.124 42.8536 83.1138 42.8536 83.1036 42.8536C83.0526 42.8536 83.005 42.8193 82.9914 42.7686ZM84.5449 42.8329C84.4803 42.8193 84.4395 42.7581 84.4531 42.6935C84.4667 42.6323 84.5279 42.5915 84.5925 42.6051C84.6537 42.6187 84.6945 42.6799 84.6809 42.7411C84.6707 42.7989 84.6197 42.8359 84.5653 42.8359C84.5585 42.8363 84.5517 42.8363 84.5449 42.8329ZM83.719 42.6428C83.719 42.5782 83.77 42.5272 83.8346 42.5272C83.8992 42.5272 83.9536 42.5779 83.9536 42.6428C83.9536 42.7071 83.8992 42.7584 83.8346 42.7584C83.77 42.7584 83.719 42.7071 83.719 42.6428Z" fill="white"/>
<path d="M88.5233 45.9578C88.4927 45.9578 88.4621 45.9476 88.4383 45.9235C88.4281 45.9136 88.4213 45.9 88.4145 45.8864C88.4077 45.8728 88.4043 45.8592 88.4043 45.8422C88.4043 45.8286 88.4077 45.8113 88.4145 45.798C88.4213 45.7844 88.4281 45.7708 88.4383 45.7606C88.4519 45.7504 88.4621 45.7399 88.4757 45.7334C88.5199 45.7164 88.5709 45.7266 88.6049 45.7606C88.6151 45.7708 88.6253 45.7844 88.6287 45.798C88.6355 45.8113 88.6389 45.8286 88.6389 45.8422C88.6389 45.8592 88.6355 45.8728 88.6287 45.8864C88.6253 45.9 88.6151 45.9136 88.6049 45.9235C88.5845 45.9476 88.5539 45.9578 88.5233 45.9578Z" fill="white"/>
<path d="M93.7623 50.6019C94.2162 47.9641 93.455 43.9321 92.1834 41.784C91.7645 41.0764 92.0593 40.1686 92.8039 39.8198C96.4103 38.129 102.296 37.8077 107.951 38.6923C114.476 39.7134 125.826 44.6508 129.151 49.418C124.924 53.9454 115.853 58.9516 115.665 64.9104C111.077 57.5572 103.735 53.0352 95.022 52.2267C94.2057 52.1509 93.6233 51.4104 93.7623 50.6019Z" fill="#263238"/>
<path d="M128.417 53.1488C128.29 53.1488 128.166 53.0842 128.095 52.9669C125.103 48.0121 113.946 42.4065 107.885 41.0455C102.134 39.7545 96.3985 39.7977 92.9159 41.1591C92.7221 41.2346 92.5041 41.1387 92.4283 40.9456C92.3525 40.7521 92.4484 40.5335 92.6418 40.4577C96.256 39.0443 102.16 38.9882 108.049 40.3108C114.167 41.6844 125.539 47.2774 128.739 52.5773C128.847 52.7551 128.79 52.9867 128.612 53.0941C128.551 53.1315 128.484 53.1488 128.417 53.1488Z" fill="black"/>
<path opacity="0.1" d="M124.549 75.0343C124.461 75.0343 124.382 74.9721 124.365 74.8826C123.286 69.4165 115.271 60.4422 109.355 56.6563C104.36 53.4606 98.9122 51.5172 95.1406 51.6239C95.0338 51.6297 94.9502 51.5444 94.9478 51.4403C94.9454 51.3363 95.0274 51.2499 95.1314 51.2475C98.9826 51.1588 104.504 53.1053 109.558 56.3397C114.812 59.7016 123.545 68.7834 124.734 74.8099C124.755 74.9119 124.688 75.0108 124.586 75.0309C124.573 75.0333 124.561 75.0343 124.549 75.0343Z" fill="white"/>
<path d="M115.606 141.521H138.259C140.601 141.521 141.429 138.414 139.394 137.255C133.174 133.711 124.599 129.246 120.87 129.246C113.61 129.246 115.606 141.521 115.606 141.521Z" fill="#263238"/>
<path d="M113.282 140.219C123.924 138.463 125.827 131.584 125.827 131.584L113.659 132.086L113.282 140.219Z" fill="black"/>
<path d="M116.329 134.937C126.984 134.937 135.622 126.3 135.622 115.645C135.622 104.99 126.984 96.3529 116.329 96.3529C105.675 96.3529 97.0371 104.99 97.0371 115.645C97.0371 126.3 105.675 134.937 116.329 134.937Z" fill="#4598E6"/>
<path opacity="0.1" d="M129.931 127.844C135.208 121.566 135.175 112.853 129.857 108.383C124.539 103.913 115.95 105.38 110.673 111.658C105.396 117.936 105.429 126.65 110.747 131.119C116.065 135.589 124.654 134.123 129.931 127.844Z" fill="black"/>
<path d="M104.349 127.555C100.738 127.555 97.7998 122.212 97.7998 115.645C97.7998 109.078 100.738 103.735 104.349 103.735C107.96 103.735 110.899 109.078 110.899 115.645C110.899 122.212 107.961 127.555 104.349 127.555ZM104.349 104.112C100.945 104.112 98.1765 109.286 98.1765 115.645C98.1765 122.005 100.946 127.178 104.349 127.178C107.753 127.178 110.522 122.005 110.522 115.645C110.522 109.286 107.753 104.112 104.349 104.112Z" fill="white"/>
<path d="M104.35 105.584C104.322 105.584 104.299 105.58 104.278 105.57C104.254 105.56 104.234 105.546 104.217 105.529C104.2 105.512 104.186 105.492 104.176 105.468C104.166 105.444 104.163 105.42 104.163 105.396C104.163 105.373 104.166 105.349 104.176 105.325C104.186 105.304 104.2 105.284 104.217 105.267C104.234 105.247 104.254 105.233 104.278 105.226C104.322 105.206 104.373 105.206 104.421 105.226C104.442 105.233 104.462 105.247 104.479 105.267C104.5 105.284 104.513 105.304 104.52 105.325C104.53 105.349 104.537 105.373 104.537 105.396C104.537 105.42 104.53 105.444 104.52 105.468C104.513 105.491 104.499 105.512 104.479 105.529C104.462 105.546 104.442 105.56 104.421 105.57C104.397 105.58 104.374 105.584 104.35 105.584Z" fill="white"/>
<path d="M109.3 114.518C109.293 114.416 109.375 114.328 109.477 114.325C109.579 114.318 109.667 114.396 109.674 114.498C109.674 114.498 109.674 114.498 109.671 114.498C109.678 114.6 109.599 114.689 109.497 114.696C109.494 114.696 109.49 114.696 109.487 114.696C109.389 114.696 109.307 114.617 109.3 114.518ZM109.208 113.404C109.195 113.301 109.27 113.21 109.372 113.196C109.474 113.186 109.565 113.261 109.576 113.363C109.586 113.465 109.514 113.556 109.412 113.567C109.406 113.57 109.399 113.57 109.392 113.57C109.296 113.57 109.219 113.498 109.208 113.404ZM109.045 112.295C109.028 112.196 109.096 112.098 109.198 112.081C109.3 112.064 109.395 112.129 109.412 112.23C109.429 112.332 109.364 112.431 109.263 112.448C109.253 112.448 109.242 112.451 109.232 112.451C109.144 112.451 109.062 112.387 109.045 112.295ZM108.817 111.2C108.794 111.102 108.854 111.003 108.953 110.976C109.052 110.953 109.154 111.013 109.177 111.112C109.201 111.211 109.14 111.313 109.041 111.34C109.028 111.343 109.011 111.343 108.997 111.343C108.912 111.343 108.838 111.285 108.817 111.2ZM108.508 110.129C108.477 110.031 108.531 109.925 108.63 109.895C108.725 109.861 108.831 109.915 108.865 110.014C108.895 110.112 108.844 110.215 108.745 110.248C108.725 110.255 108.705 110.255 108.688 110.255C108.607 110.255 108.535 110.208 108.508 110.129ZM108.117 109.086C108.076 108.99 108.12 108.881 108.215 108.841C108.31 108.8 108.419 108.844 108.46 108.939C108.501 109.034 108.457 109.143 108.361 109.184C108.338 109.194 108.314 109.198 108.287 109.198C108.216 109.198 108.147 109.157 108.117 109.086ZM107.627 108.089C107.579 108.001 107.61 107.885 107.699 107.834C107.787 107.786 107.903 107.817 107.95 107.906C108.001 107.994 107.971 108.11 107.882 108.161C107.851 108.178 107.821 108.184 107.79 108.184C107.726 108.185 107.661 108.151 107.627 108.089ZM107.022 107.168C106.958 107.086 106.974 106.971 107.056 106.906C107.134 106.845 107.253 106.858 107.315 106.94C107.379 107.021 107.363 107.137 107.281 107.202C107.247 107.229 107.209 107.239 107.168 107.239C107.114 107.239 107.059 107.216 107.022 107.168ZM106.274 106.376C106.196 106.308 106.186 106.192 106.254 106.111C106.321 106.032 106.437 106.026 106.519 106.09C106.594 106.158 106.604 106.277 106.536 106.355C106.502 106.396 106.447 106.42 106.397 106.42C106.352 106.42 106.312 106.403 106.274 106.376ZM105.373 105.801C105.278 105.76 105.234 105.652 105.274 105.556C105.315 105.461 105.424 105.417 105.519 105.458C105.614 105.499 105.659 105.607 105.618 105.703C105.587 105.774 105.519 105.815 105.444 105.815C105.421 105.815 105.397 105.811 105.373 105.801Z" fill="white"/>
<path d="M109.518 115.831C109.494 115.831 109.47 115.824 109.447 115.818C109.423 115.807 109.402 115.794 109.385 115.777C109.368 115.76 109.355 115.74 109.348 115.716C109.338 115.695 109.331 115.671 109.331 115.644C109.331 115.62 109.338 115.596 109.348 115.573C109.355 115.552 109.368 115.532 109.385 115.515C109.406 115.498 109.423 115.484 109.447 115.474C109.491 115.453 109.545 115.453 109.589 115.474C109.613 115.484 109.634 115.498 109.651 115.515C109.668 115.532 109.681 115.552 109.691 115.573C109.699 115.596 109.705 115.62 109.705 115.644C109.705 115.668 109.698 115.692 109.691 115.716C109.681 115.739 109.668 115.76 109.651 115.777C109.617 115.811 109.569 115.831 109.518 115.831Z" fill="white"/>
<path d="M117.065 141.521H94.4119C92.0703 141.521 91.2424 138.414 93.2766 137.255C99.4966 133.711 108.072 129.246 111.801 129.246C119.062 129.246 117.065 141.521 117.065 141.521Z" fill="#263238"/>
<path d="M140.019 54.7115C139.62 53.7225 139.117 52.7718 138.522 51.8858L138.835 51.676C139.444 52.5838 139.96 53.5576 140.369 54.5708L140.019 54.7115Z" fill="#4598E6"/>
<path d="M137.367 50.3738C135.481 48.2005 133.026 46.61 130.266 45.7733L130.375 45.4132C133.203 46.27 135.719 47.9003 137.651 50.1273L137.367 50.3738Z" fill="#4598E6"/>
<path d="M139.099 65.9209C142.134 58.5919 138.653 50.1902 131.325 47.1552C123.996 44.1202 115.594 47.6011 112.559 54.9301C109.524 62.259 113.005 70.6607 120.334 73.6957C127.663 76.7307 136.064 73.2498 139.099 65.9209Z" fill="#4598E6"/>
<path opacity="0.1" d="M134.124 71.2899C139.08 67.3008 140.606 60.9711 137.533 57.1522C134.459 53.3334 127.949 53.4714 122.993 57.4605C118.037 61.4496 116.511 67.7793 119.585 71.5982C122.658 75.4171 129.168 75.279 134.124 71.2899Z" fill="black"/>
<path d="M117.613 66.9991C117.137 66.9991 116.666 66.9304 116.207 66.7917C114.546 66.2885 113.258 64.9248 112.581 62.9518C111.91 60.9974 111.918 58.6749 112.604 56.4119C114.026 51.7219 117.954 48.7459 121.363 49.7791C124.772 50.8124 126.388 55.4687 124.966 60.159C124.28 62.422 122.997 64.3583 121.355 65.6109C120.154 66.5265 118.864 66.9991 117.613 66.9991ZM119.966 49.8964C117.083 49.8964 114.102 52.5824 112.914 56.5054C112.247 58.7041 112.238 60.9563 112.887 62.8467C113.53 64.7187 114.742 66.0101 116.301 66.482C117.86 66.9549 119.585 66.5544 121.159 65.3539C122.748 64.1421 123.991 62.2636 124.657 60.0652C126.027 55.5455 124.508 51.0698 121.27 50.0882C120.842 49.9583 120.405 49.8964 119.966 49.8964Z" fill="white"/>
<path d="M121 51.1428C120.955 51.1428 120.915 51.1258 120.884 51.0949C120.857 51.068 120.84 51.0272 120.84 50.983C120.84 50.9623 120.843 50.9422 120.85 50.9215C120.86 50.9045 120.87 50.8844 120.884 50.8708C120.898 50.8572 120.918 50.8436 120.938 50.8365C120.996 50.813 121.068 50.8263 121.112 50.8708C121.125 50.8844 121.139 50.9048 121.146 50.9215C121.153 50.9422 121.156 50.9623 121.156 50.983C121.156 51.0272 121.142 51.068 121.112 51.0949C121.095 51.1122 121.078 51.1221 121.061 51.1323C121.04 51.1394 121.02 51.1428 121 51.1428Z" fill="white"/>
<path d="M123.9 58.9421C123.815 58.9251 123.757 58.8401 123.778 58.7517C123.795 58.6667 123.88 58.6123 123.965 58.6293C124.053 58.6463 124.108 58.7313 124.091 58.82C124.073 58.8948 124.006 58.9458 123.931 58.9458C123.921 58.9458 123.911 58.9458 123.9 58.9421ZM124.077 57.9462C123.988 57.936 123.924 57.8578 123.934 57.7694C123.944 57.6844 124.026 57.6195 124.111 57.63C124.2 57.6399 124.264 57.7184 124.254 57.8068C124.244 57.8884 124.176 57.9496 124.094 57.9496C124.087 57.9493 124.081 57.9493 124.077 57.9462ZM124.158 56.9398C124.067 56.9398 123.999 56.865 123.999 56.78V56.7763C123.999 56.6879 124.073 56.6199 124.162 56.6199C124.25 56.6199 124.322 56.695 124.318 56.7831C124.319 56.8684 124.247 56.9398 124.158 56.9398ZM123.961 55.7872V55.7835C123.954 55.6985 124.019 55.6203 124.104 55.6101C124.193 55.6033 124.271 55.6679 124.278 55.7563C124.288 55.845 124.223 55.9229 124.135 55.93C124.131 55.93 124.125 55.93 124.121 55.93C124.04 55.93 123.968 55.8685 123.961 55.7872ZM123.812 54.808C123.791 54.7193 123.849 54.6343 123.934 54.6173C124.023 54.5969 124.104 54.6513 124.125 54.7397C124.145 54.8247 124.087 54.9097 124.002 54.9301C123.992 54.9301 123.979 54.9335 123.968 54.9335C123.894 54.9335 123.829 54.8828 123.812 54.808ZM123.54 53.8594C123.509 53.7744 123.55 53.6823 123.632 53.652C123.717 53.6214 123.809 53.6656 123.839 53.7472C123.87 53.8285 123.826 53.9206 123.744 53.9512C123.727 53.958 123.707 53.9614 123.69 53.9614C123.621 53.9614 123.563 53.924 123.54 53.8594ZM123.125 52.9686C123.081 52.8904 123.104 52.7918 123.183 52.7476C123.261 52.7034 123.356 52.7306 123.401 52.8088C123.445 52.884 123.418 52.9826 123.343 53.0268C123.319 53.0404 123.292 53.0468 123.265 53.0468C123.206 53.0468 123.152 53.0193 123.125 52.9686ZM122.554 52.1764C122.493 52.1115 122.5 52.0098 122.564 51.952C122.632 51.8908 122.731 51.8976 122.792 51.9622C122.85 52.0265 122.843 52.1285 122.778 52.19C122.748 52.2172 122.71 52.2308 122.673 52.2308C122.628 52.2308 122.584 52.2104 122.554 52.1764ZM121.823 51.544C121.748 51.4964 121.728 51.3978 121.775 51.3234C121.823 51.2482 121.925 51.2282 121.996 51.2788C121.996 51.2788 121.996 51.2788 121.999 51.2788C122.071 51.3268 122.091 51.4254 122.044 51.4998C122.013 51.544 121.962 51.5712 121.908 51.5712C121.881 51.5712 121.85 51.5607 121.823 51.544Z" fill="white"/>
<path d="M123.683 59.9284C123.639 59.9284 123.601 59.9148 123.571 59.8842C123.554 59.8672 123.543 59.8499 123.533 59.8298C123.526 59.8128 123.523 59.7924 123.523 59.7686C123.523 59.7482 123.527 59.7278 123.533 59.7071C123.543 59.6901 123.554 59.67 123.571 59.6564C123.584 59.6428 123.601 59.6292 123.621 59.6221C123.679 59.5986 123.751 59.6122 123.795 59.6564C123.826 59.687 123.843 59.7278 123.843 59.7686C123.843 59.8128 123.826 59.8536 123.795 59.8842C123.781 59.8978 123.764 59.9114 123.744 59.9182C123.724 59.925 123.703 59.9284 123.683 59.9284Z" fill="white"/>
<path d="M116.857 108.628C116.329 102.606 110.71 98.6547 108.227 98.1338C108.703 89.8739 111.303 73.0955 114.55 69.3168C116.408 71.2663 124.007 68.2349 125.826 64.9104C127.645 61.5862 136.238 63.0914 135.297 68.172C134.357 73.2526 127.741 82.2932 126.673 99.8467C129.872 102.45 131.116 105.011 130.771 108.899C130.447 111.743 122.189 113.834 116.857 108.628Z" fill="#263238"/>
<path opacity="0.1" d="M115.509 102.199C115.445 102.199 115.384 102.167 115.348 102.109C115.294 102.02 115.322 101.904 115.41 101.85C119.071 99.6088 124.587 99.536 125.865 99.6404C125.969 99.6489 126.046 99.7397 126.038 99.8434C126.03 99.9471 125.934 100.021 125.835 100.016C124.583 99.9128 119.181 99.9831 115.607 102.171C115.576 102.19 115.542 102.199 115.509 102.199Z" fill="white"/>
<path d="M127.493 111.85C127.468 111.85 127.442 111.847 127.417 111.842C127.213 111.8 127.082 111.601 127.124 111.398C127.957 107.34 126.307 102.815 123.018 100.138C122.924 100.062 122.872 99.945 122.88 99.8236C123.492 89.7521 126.164 82.83 128.522 76.723C130.298 72.1245 131.831 68.1529 132.181 63.6884C132.197 63.4813 132.375 63.3246 132.586 63.3426C132.793 63.3589 132.947 63.5401 132.931 63.7472C132.573 68.3209 131.021 72.34 129.225 76.9936C126.902 83.0109 124.271 89.8266 123.643 99.6787C127.043 102.542 128.736 107.286 127.861 111.549C127.824 111.727 127.668 111.85 127.493 111.85Z" fill="black"/>
<path d="M63.9707 64.9321C63.2033 64.9321 62.2408 64.3484 61.5322 63.3729C60.5809 62.0639 60.4418 60.538 61.2214 59.9712C61.607 59.691 62.1503 59.6825 62.7501 59.9467C63.3332 60.2038 63.9054 60.6906 64.3607 61.3176C65.3116 62.6266 65.4514 64.1525 64.6714 64.7193C64.4729 64.8638 64.2332 64.9321 63.9707 64.9321ZM61.9297 59.9447C61.7008 59.9447 61.4986 60.0049 61.333 60.1249C60.6377 60.6301 60.7961 62.0374 61.6859 63.2617C62.5757 64.4857 63.8646 65.0702 64.5602 64.566C65.2552 64.0611 65.0971 62.6538 64.2073 61.4295C63.7711 60.829 63.2264 60.3646 62.6739 60.1208C62.4074 60.0032 62.1558 59.9447 61.9297 59.9447Z" fill="white"/>
</svg>
